<svg width="209" height="30" viewBox="0 0 209 30" fill="none" xmlns="http://www.w3.org/2000/svg">
<path d="M46.434 23.154C45.4807 23.154 44.5493 23.0293 43.64 22.78C42.7307 22.5307 42.0047 22.2153 41.462 21.834L42.518 19.744C43.046 20.096 43.6767 20.382 44.41 20.602C45.158 20.8073 45.8913 20.91 46.61 20.91C48.2527 20.91 49.074 20.4773 49.074 19.612C49.074 19.2013 48.8613 18.9153 48.436 18.754C48.0253 18.5927 47.358 18.4387 46.434 18.292C45.466 18.1453 44.674 17.9767 44.058 17.786C43.4567 17.5953 42.9287 17.2653 42.474 16.796C42.034 16.312 41.814 15.6447 41.814 14.794C41.814 13.6793 42.276 12.792 43.2 12.132C44.1387 11.4573 45.4 11.12 46.984 11.12C47.7907 11.12 48.5973 11.2153 49.404 11.406C50.2107 11.582 50.8707 11.824 51.384 12.132L50.328 14.222C49.3307 13.6353 48.2087 13.342 46.962 13.342C46.1553 13.342 45.5393 13.4667 45.114 13.716C44.7033 13.9507 44.498 14.266 44.498 14.662C44.498 15.102 44.718 15.4173 45.158 15.608C45.6127 15.784 46.3093 15.9527 47.248 16.114C48.1867 16.2607 48.9567 16.4293 49.558 16.62C50.1593 16.8107 50.6727 17.1333 51.098 17.588C51.538 18.0427 51.758 18.688 51.758 19.524C51.758 20.624 51.2813 21.504 50.328 22.164C49.3747 22.824 48.0767 23.154 46.434 23.154ZM59.4063 23.154C58.2183 23.154 57.1476 22.8973 56.1943 22.384C55.2409 21.8707 54.4929 21.1593 53.9503 20.25C53.4223 19.326 53.1583 18.2847 53.1583 17.126C53.1583 15.9673 53.4223 14.9333 53.9503 14.024C54.4929 13.1147 55.2409 12.4033 56.1943 11.89C57.1476 11.3767 58.2183 11.12 59.4063 11.12C60.6089 11.12 61.6869 11.3767 62.6403 11.89C63.5936 12.4033 64.3343 13.1147 64.8623 14.024C65.4049 14.9333 65.6763 15.9673 65.6763 17.126C65.6763 18.2847 65.4049 19.326 64.8623 20.25C64.3343 21.1593 63.5936 21.8707 62.6403 22.384C61.6869 22.8973 60.6089 23.154 59.4063 23.154ZM59.4063 20.8C60.4183 20.8 61.2543 20.4627 61.9143 19.788C62.5743 19.1133 62.9043 18.226 62.9043 17.126C62.9043 16.026 62.5743 15.1387 61.9143 14.464C61.2543 13.7893 60.4183 13.452 59.4063 13.452C58.3943 13.452 57.5583 13.7893 56.8983 14.464C56.2529 15.1387 55.9303 16.026 55.9303 17.126C55.9303 18.226 56.2529 19.1133 56.8983 19.788C57.5583 20.4627 58.3943 20.8 59.4063 20.8ZM73.696 23.154C72.4786 23.154 71.386 22.8973 70.418 22.384C69.45 21.8707 68.6946 21.1593 68.152 20.25C67.6093 19.326 67.338 18.2847 67.338 17.126C67.338 15.9673 67.6093 14.9333 68.152 14.024C68.6946 13.1147 69.4426 12.4033 70.396 11.89C71.364 11.3767 72.464 11.12 73.696 11.12C74.8546 11.12 75.8666 11.3547 76.732 11.824C77.612 12.2933 78.272 12.968 78.712 13.848L76.6 15.08C76.2626 14.5373 75.8373 14.134 75.324 13.87C74.8253 13.5913 74.2753 13.452 73.674 13.452C72.6473 13.452 71.7966 13.7893 71.122 14.464C70.4473 15.124 70.11 16.0113 70.11 17.126C70.11 18.2407 70.44 19.1353 71.1 19.81C71.7746 20.47 72.6326 20.8 73.674 20.8C74.2753 20.8 74.8253 20.668 75.324 20.404C75.8373 20.1253 76.2626 19.7147 76.6 19.172L78.712 20.404C78.2573 21.284 77.59 21.966 76.71 22.45C75.8446 22.9193 74.84 23.154 73.696 23.154ZM81.0892 11.252H83.8392V23H81.0892V11.252ZM82.4752 9.316C81.9765 9.316 81.5585 9.162 81.2212 8.854C80.8838 8.53133 80.7152 8.13533 80.7152 7.666C80.7152 7.19667 80.8838 6.808 81.2212 6.5C81.5585 6.17733 81.9765 6.016 82.4752 6.016C82.9738 6.016 83.3918 6.17 83.7292 6.478C84.0665 6.77133 84.2352 7.14533 84.2352 7.6C84.2352 8.084 84.0665 8.49467 83.7292 8.832C83.4065 9.15467 82.9885 9.316 82.4752 9.316ZM91.9365 11.12C93.6672 11.12 94.9872 11.538 95.8965 12.374C96.8205 13.1953 97.2825 14.442 97.2825 16.114V23H94.6865V21.57C94.3492 22.0833 93.8652 22.4793 93.2345 22.758C92.6185 23.022 91.8705 23.154 90.9905 23.154C90.1105 23.154 89.3405 23.0073 88.6805 22.714C88.0205 22.406 87.5072 21.988 87.1405 21.46C86.7885 20.9173 86.6125 20.3087 86.6125 19.634C86.6125 18.578 87.0012 17.7347 87.7785 17.104C88.5705 16.4587 89.8099 16.136 91.4965 16.136H94.5325V15.96C94.5325 15.1387 94.2832 14.508 93.7845 14.068C93.3005 13.628 92.5745 13.408 91.6065 13.408C90.9465 13.408 90.2939 13.5107 89.6485 13.716C89.0179 13.9213 88.4825 14.2073 88.0425 14.574L86.9645 12.572C87.5805 12.1027 88.3212 11.7433 89.1865 11.494C90.0519 11.2447 90.9685 11.12 91.9365 11.12ZM91.5625 21.152C92.2519 21.152 92.8605 20.998 93.3885 20.69C93.9312 20.3673 94.3125 19.9127 94.5325 19.326V17.962H91.6945C90.1105 17.962 89.3185 18.4827 89.3185 19.524C89.3185 20.0227 89.5165 20.4187 89.9125 20.712C90.3085 21.0053 90.8585 21.152 91.5625 21.152ZM100.812 6.676H103.562V23H100.812V6.676ZM113.683 11.12C114.827 11.12 115.847 11.3693 116.741 11.868C117.651 12.3667 118.362 13.0707 118.875 13.98C119.389 14.8893 119.645 15.938 119.645 17.126C119.645 18.314 119.389 19.37 118.875 20.294C118.362 21.2033 117.651 21.9073 116.741 22.406C115.847 22.9047 114.827 23.154 113.683 23.154C112.099 23.154 110.845 22.626 109.921 21.57V27.268H107.171V11.252H109.789V12.792C110.244 12.2347 110.801 11.8167 111.461 11.538C112.136 11.2593 112.877 11.12 113.683 11.12ZM113.375 20.8C114.387 20.8 115.216 20.4627 115.861 19.788C116.521 19.1133 116.851 18.226 116.851 17.126C116.851 16.026 116.521 15.1387 115.861 14.464C115.216 13.7893 114.387 13.452 113.375 13.452C112.715 13.452 112.121 13.606 111.593 13.914C111.065 14.2073 110.647 14.6327 110.339 15.19C110.031 15.7473 109.877 16.3927 109.877 17.126C109.877 17.8593 110.031 18.5047 110.339 19.062C110.647 19.6193 111.065 20.052 111.593 20.36C112.121 20.6533 112.715 20.8 113.375 20.8ZM133.627 11.252V23H131.009V21.504C130.569 22.032 130.019 22.4427 129.359 22.736C128.699 23.0147 127.988 23.154 127.225 23.154C125.656 23.154 124.417 22.7213 123.507 21.856C122.613 20.976 122.165 19.678 122.165 17.962V11.252H124.915V17.588C124.915 18.644 125.15 19.436 125.619 19.964C126.103 20.4773 126.785 20.734 127.665 20.734C128.648 20.734 129.425 20.4333 129.997 19.832C130.584 19.216 130.877 18.336 130.877 17.192V11.252H133.627ZM143.74 11.12C144.884 11.12 145.903 11.3693 146.798 11.868C147.707 12.3667 148.418 13.0707 148.932 13.98C149.445 14.8893 149.702 15.938 149.702 17.126C149.702 18.314 149.445 19.37 148.932 20.294C148.418 21.2033 147.707 21.9073 146.798 22.406C145.903 22.9047 144.884 23.154 143.74 23.154C142.933 23.154 142.192 23.0147 141.518 22.736C140.858 22.4573 140.3 22.0393 139.846 21.482V23H137.228V6.676H139.978V12.682C140.447 12.1687 140.997 11.78 141.628 11.516C142.273 11.252 142.977 11.12 143.74 11.12ZM143.432 20.8C144.444 20.8 145.272 20.4627 145.918 19.788C146.578 19.1133 146.908 18.226 146.908 17.126C146.908 16.026 146.578 15.1387 145.918 14.464C145.272 13.7893 144.444 13.452 143.432 13.452C142.772 13.452 142.178 13.606 141.65 13.914C141.122 14.2073 140.704 14.6327 140.396 15.19C140.088 15.7473 139.934 16.3927 139.934 17.126C139.934 17.8593 140.088 18.5047 140.396 19.062C140.704 19.6193 141.122 20.052 141.65 20.36C142.178 20.6533 142.772 20.8 143.432 20.8ZM152.31 6.676H155.06V23H152.31V6.676ZM158.669 11.252H161.419V23H158.669V11.252ZM160.055 9.316C159.557 9.316 159.139 9.162 158.801 8.854C158.464 8.53133 158.295 8.13533 158.295 7.666C158.295 7.19667 158.464 6.808 158.801 6.5C159.139 6.17733 159.557 6.016 160.055 6.016C160.554 6.016 160.972 6.17 161.309 6.478C161.647 6.77133 161.815 7.14533 161.815 7.6C161.815 8.084 161.647 8.49467 161.309 8.832C160.987 9.15467 160.569 9.316 160.055 9.316ZM168.659 23.154C167.705 23.154 166.774 23.0293 165.865 22.78C164.955 22.5307 164.229 22.2153 163.687 21.834L164.743 19.744C165.271 20.096 165.901 20.382 166.635 20.602C167.383 20.8073 168.116 20.91 168.835 20.91C170.477 20.91 171.299 20.4773 171.299 19.612C171.299 19.2013 171.086 18.9153 170.661 18.754C170.25 18.5927 169.583 18.4387 168.659 18.292C167.691 18.1453 166.899 17.9767 166.283 17.786C165.681 17.5953 165.153 17.2653 164.699 16.796C164.259 16.312 164.039 15.6447 164.039 14.794C164.039 13.6793 164.501 12.792 165.425 12.132C166.363 11.4573 167.625 11.12 169.209 11.12C170.015 11.12 170.822 11.2153 171.629 11.406C172.435 11.582 173.095 11.824 173.609 12.132L172.553 14.222C171.555 13.6353 170.433 13.342 169.187 13.342C168.38 13.342 167.764 13.4667 167.339 13.716C166.928 13.9507 166.723 14.266 166.723 14.662C166.723 15.102 166.943 15.4173 167.383 15.608C167.837 15.784 168.534 15.9527 169.473 16.114C170.411 16.2607 171.181 16.4293 171.783 16.62C172.384 16.8107 172.897 17.1333 173.323 17.588C173.763 18.0427 173.983 18.688 173.983 19.524C173.983 20.624 173.506 21.504 172.553 22.164C171.599 22.824 170.301 23.154 168.659 23.154ZM183.017 11.12C184.498 11.12 185.686 11.5527 186.581 12.418C187.476 13.2833 187.923 14.5667 187.923 16.268V23H185.173V16.62C185.173 15.5933 184.931 14.8233 184.447 14.31C183.963 13.782 183.274 13.518 182.379 13.518C181.367 13.518 180.568 13.826 179.981 14.442C179.394 15.0433 179.101 15.916 179.101 17.06V23H176.351V6.676H179.101V12.616C179.556 12.132 180.113 11.7653 180.773 11.516C181.448 11.252 182.196 11.12 183.017 11.12Z" fill="#5B86E5"/>
<path d="M29.346 0.911924C28.7676 0.503958 27.9844 0.551954 27.4783 1.00792L11.2709 14.8788C11.2106 14.9268 11.1263 14.9388 11.054 14.9028L2.22126 11.2071L25.5382 1.81185L24.8031 0L1.19701 9.50321C0.5222 9.75519 0.0522465 10.3671 0.0040461 11.0871C-0.0441543 11.819 0.341449 12.503 0.992154 12.8269L10.1864 16.6786C10.9696 17.0626 11.9336 16.9186 12.5602 16.3546L27.3578 3.69569L17.802 27.2377L13.7773 18.3345C13.5484 17.8425 13.0904 17.4945 12.5602 17.3986C12.03 17.3026 11.4878 17.4585 11.1022 17.8185L4.14928 23.938L5.45069 25.4139L12.1505 19.5224L16.1753 28.4136L16.1994 28.4616C16.5127 29.0736 17.1272 29.4455 17.8141 29.4455C17.8382 29.4455 17.8743 29.4455 17.8984 29.4455C18.6214 29.4095 19.236 28.9776 19.5011 28.3176L29.8883 2.72377C30.1534 2.06383 29.9365 1.31989 29.346 0.911924Z" fill="#5B86E5"/>
<path d="M10.2518 21.9774L2.81275 28.5257L4.1216 30L11.5606 23.4517L10.2518 21.9774Z" fill="#5B86E5"/>
<path d="M8.36519 16.7966L5.49392 19.3234L6.80257 20.7979L9.67384 18.2711L8.36519 16.7966Z" fill="#5B86E5"/>
</svg>
