<svg width="145" height="71" viewBox="0 0 145 71" fill="none" xmlns="http://www.w3.org/2000/svg">
<path d="M5.76798 65.154C4.81465 65.154 3.88332 65.0293 2.97398 64.78C2.06465 64.5307 1.33865 64.2153 0.795984 63.834L1.85198 61.744C2.37998 62.096 3.01065 62.382 3.74398 62.602C4.49198 62.8073 5.22532 62.91 5.94398 62.91C7.58665 62.91 8.40798 62.4773 8.40798 61.612C8.40798 61.2013 8.19532 60.9153 7.76999 60.754C7.35932 60.5927 6.69198 60.4387 5.76798 60.292C4.79998 60.1453 4.00798 59.9767 3.39198 59.786C2.79065 59.5953 2.26265 59.2653 1.80798 58.796C1.36798 58.312 1.14798 57.6447 1.14798 56.794C1.14798 55.6793 1.60998 54.792 2.53398 54.132C3.47265 53.4573 4.73398 53.12 6.31798 53.12C7.12465 53.12 7.93132 53.2153 8.73799 53.406C9.54465 53.582 10.2047 53.824 10.718 54.132L9.66198 56.222C8.66465 55.6353 7.54265 55.342 6.29598 55.342C5.48932 55.342 4.87332 55.4667 4.44798 55.716C4.03732 55.9507 3.83198 56.266 3.83198 56.662C3.83198 57.102 4.05198 57.4173 4.49198 57.608C4.94665 57.784 5.64332 57.9527 6.58198 58.114C7.52065 58.2607 8.29065 58.4293 8.89198 58.62C9.49332 58.8107 10.0067 59.1333 10.432 59.588C10.872 60.0427 11.092 60.688 11.092 61.524C11.092 62.624 10.6153 63.504 9.66198 64.164C8.70865 64.824 7.41065 65.154 5.76798 65.154ZM18.7403 65.154C17.5523 65.154 16.4816 64.8973 15.5283 64.384C14.5749 63.8707 13.8269 63.1593 13.2843 62.25C12.7563 61.326 12.4923 60.2847 12.4923 59.126C12.4923 57.9673 12.7563 56.9333 13.2843 56.024C13.8269 55.1147 14.5749 54.4033 15.5283 53.89C16.4816 53.3767 17.5523 53.12 18.7403 53.12C19.9429 53.12 21.0209 53.3767 21.9743 53.89C22.9276 54.4033 23.6683 55.1147 24.1963 56.024C24.7389 56.9333 25.0103 57.9673 25.0103 59.126C25.0103 60.2847 24.7389 61.326 24.1963 62.25C23.6683 63.1593 22.9276 63.8707 21.9743 64.384C21.0209 64.8973 19.9429 65.154 18.7403 65.154ZM18.7403 62.8C19.7523 62.8 20.5883 62.4627 21.2483 61.788C21.9083 61.1133 22.2383 60.226 22.2383 59.126C22.2383 58.026 21.9083 57.1387 21.2483 56.464C20.5883 55.7893 19.7523 55.452 18.7403 55.452C17.7283 55.452 16.8923 55.7893 16.2323 56.464C15.5869 57.1387 15.2643 58.026 15.2643 59.126C15.2643 60.226 15.5869 61.1133 16.2323 61.788C16.8923 62.4627 17.7283 62.8 18.7403 62.8ZM33.0299 65.154C31.8126 65.154 30.7199 64.8973 29.7519 64.384C28.7839 63.8707 28.0286 63.1593 27.4859 62.25C26.9433 61.326 26.6719 60.2847 26.6719 59.126C26.6719 57.9673 26.9433 56.9333 27.4859 56.024C28.0286 55.1147 28.7766 54.4033 29.7299 53.89C30.6979 53.3767 31.7979 53.12 33.0299 53.12C34.1886 53.12 35.2006 53.3547 36.0659 53.824C36.9459 54.2933 37.6059 54.968 38.0459 55.848L35.9339 57.08C35.5966 56.5373 35.1713 56.134 34.6579 55.87C34.1593 55.5913 33.6093 55.452 33.0079 55.452C31.9813 55.452 31.1306 55.7893 30.4559 56.464C29.7813 57.124 29.4439 58.0113 29.4439 59.126C29.4439 60.2407 29.7739 61.1353 30.4339 61.81C31.1086 62.47 31.9666 62.8 33.0079 62.8C33.6093 62.8 34.1593 62.668 34.6579 62.404C35.1713 62.1253 35.5966 61.7147 35.9339 61.172L38.0459 62.404C37.5913 63.284 36.9239 63.966 36.0439 64.45C35.1786 64.9193 34.1739 65.154 33.0299 65.154ZM40.4231 53.252H43.1731V65H40.4231V53.252ZM41.8091 51.316C41.3105 51.316 40.8925 51.162 40.5551 50.854C40.2178 50.5313 40.0491 50.1353 40.0491 49.666C40.0491 49.1967 40.2178 48.808 40.5551 48.5C40.8925 48.1773 41.3105 48.016 41.8091 48.016C42.3078 48.016 42.7258 48.17 43.0631 48.478C43.4005 48.7713 43.5691 49.1453 43.5691 49.6C43.5691 50.084 43.4005 50.4947 43.0631 50.832C42.7405 51.1547 42.3225 51.316 41.8091 51.316ZM51.2705 53.12C53.0012 53.12 54.3212 53.538 55.2305 54.374C56.1545 55.1953 56.6165 56.442 56.6165 58.114V65H54.0205V63.57C53.6832 64.0833 53.1992 64.4793 52.5685 64.758C51.9525 65.022 51.2045 65.154 50.3245 65.154C49.4445 65.154 48.6745 65.0073 48.0145 64.714C47.3545 64.406 46.8412 63.988 46.4745 63.46C46.1225 62.9173 45.9465 62.3087 45.9465 61.634C45.9465 60.578 46.3352 59.7347 47.1125 59.104C47.9045 58.4587 49.1438 58.136 50.8305 58.136H53.8665V57.96C53.8665 57.1387 53.6172 56.508 53.1185 56.068C52.6345 55.628 51.9085 55.408 50.9405 55.408C50.2805 55.408 49.6278 55.5107 48.9825 55.716C48.3518 55.9213 47.8165 56.2073 47.3765 56.574L46.2985 54.572C46.9145 54.1027 47.6552 53.7433 48.5205 53.494C49.3858 53.2447 50.3025 53.12 51.2705 53.12ZM50.8965 63.152C51.5858 63.152 52.1945 62.998 52.7225 62.69C53.2652 62.3673 53.6465 61.9127 53.8665 61.326V59.962H51.0285C49.4445 59.962 48.6525 60.4827 48.6525 61.524C48.6525 62.0227 48.8505 62.4187 49.2465 62.712C49.6425 63.0053 50.1925 63.152 50.8965 63.152ZM60.1458 48.676H62.8958V65H60.1458V48.676ZM84.8312 53.252L80.4972 65H77.8572L74.8212 56.904L71.7412 65H69.1012L64.7892 53.252H67.3852L70.4872 61.92L73.7212 53.252H76.0312L79.1992 61.964L82.3892 53.252H84.8312ZM86.722 53.252H89.472V65H86.722V53.252ZM88.108 51.316C87.6093 51.316 87.1913 51.162 86.854 50.854C86.5166 50.5313 86.348 50.1353 86.348 49.666C86.348 49.1967 86.5166 48.808 86.854 48.5C87.1913 48.1773 87.6093 48.016 88.108 48.016C88.6066 48.016 89.0246 48.17 89.362 48.478C89.6993 48.7713 89.868 49.1453 89.868 49.6C89.868 50.084 89.6993 50.4947 89.362 50.832C89.0393 51.1547 88.6213 51.316 88.108 51.316ZM104.587 48.676V65H101.947V63.482C101.493 64.0393 100.928 64.4573 100.253 64.736C99.5933 65.0147 98.86 65.154 98.0533 65.154C96.924 65.154 95.9047 64.9047 94.9953 64.406C94.1007 63.9073 93.3967 63.2033 92.8833 62.294C92.37 61.37 92.1133 60.314 92.1133 59.126C92.1133 57.938 92.37 56.8893 92.8833 55.98C93.3967 55.0707 94.1007 54.3667 94.9953 53.868C95.9047 53.3693 96.924 53.12 98.0533 53.12C98.8307 53.12 99.542 53.252 100.187 53.516C100.833 53.78 101.383 54.176 101.837 54.704V48.676H104.587ZM98.3833 62.8C99.0433 62.8 99.6373 62.6533 100.165 62.36C100.693 62.052 101.111 61.6193 101.419 61.062C101.727 60.5047 101.881 59.8593 101.881 59.126C101.881 58.3927 101.727 57.7473 101.419 57.19C101.111 56.6327 100.693 56.2073 100.165 55.914C99.6373 55.606 99.0433 55.452 98.3833 55.452C97.7233 55.452 97.1293 55.606 96.6013 55.914C96.0733 56.2073 95.6553 56.6327 95.3473 57.19C95.0393 57.7473 94.8853 58.3927 94.8853 59.126C94.8853 59.8593 95.0393 60.5047 95.3473 61.062C95.6553 61.6193 96.0733 62.052 96.6013 62.36C97.1293 62.6533 97.7233 62.8 98.3833 62.8ZM119.845 53.252V63.218C119.845 67.354 117.733 69.422 113.509 69.422C112.38 69.422 111.309 69.2753 110.297 68.982C109.285 68.7033 108.449 68.2927 107.789 67.75L109.021 65.682C109.534 66.1073 110.18 66.4447 110.957 66.694C111.749 66.958 112.548 67.09 113.355 67.09C114.646 67.09 115.592 66.7967 116.193 66.21C116.794 65.6233 117.095 64.7287 117.095 63.526V62.91C116.626 63.4233 116.054 63.812 115.379 64.076C114.704 64.34 113.964 64.472 113.157 64.472C112.042 64.472 111.03 64.2373 110.121 63.768C109.226 63.284 108.515 62.6093 107.987 61.744C107.474 60.8787 107.217 59.8887 107.217 58.774C107.217 57.6593 107.474 56.6767 107.987 55.826C108.515 54.9607 109.226 54.2933 110.121 53.824C111.03 53.3547 112.042 53.12 113.157 53.12C114.008 53.12 114.778 53.2593 115.467 53.538C116.171 53.8167 116.758 54.242 117.227 54.814V53.252H119.845ZM113.575 62.14C114.616 62.14 115.467 61.832 116.127 61.216C116.802 60.5853 117.139 59.7713 117.139 58.774C117.139 57.7913 116.802 56.992 116.127 56.376C115.467 55.76 114.616 55.452 113.575 55.452C112.519 55.452 111.654 55.76 110.979 56.376C110.319 56.992 109.989 57.7913 109.989 58.774C109.989 59.7713 110.319 60.5853 110.979 61.216C111.654 61.832 112.519 62.14 113.575 62.14ZM134.504 59.192C134.504 59.3827 134.49 59.654 134.46 60.006H125.242C125.404 60.8713 125.822 61.5607 126.496 62.074C127.186 62.5727 128.036 62.822 129.048 62.822C130.339 62.822 131.402 62.3967 132.238 61.546L133.712 63.24C133.184 63.8707 132.517 64.3473 131.71 64.67C130.904 64.9927 129.994 65.154 128.982 65.154C127.692 65.154 126.555 64.8973 125.572 64.384C124.59 63.8707 123.827 63.1593 123.284 62.25C122.756 61.326 122.492 60.2847 122.492 59.126C122.492 57.982 122.749 56.9553 123.262 56.046C123.79 55.122 124.516 54.4033 125.44 53.89C126.364 53.3767 127.406 53.12 128.564 53.12C129.708 53.12 130.728 53.3767 131.622 53.89C132.532 54.3887 133.236 55.1 133.734 56.024C134.248 56.9333 134.504 57.9893 134.504 59.192ZM128.564 55.32C127.684 55.32 126.936 55.584 126.32 56.112C125.719 56.6253 125.352 57.3147 125.22 58.18H131.886C131.769 57.3293 131.41 56.64 130.808 56.112C130.207 55.584 129.459 55.32 128.564 55.32ZM144.208 64.362C143.885 64.626 143.489 64.824 143.02 64.956C142.565 65.088 142.081 65.154 141.568 65.154C140.277 65.154 139.28 64.8167 138.576 64.142C137.872 63.4673 137.52 62.4847 137.52 61.194V55.54H135.584V53.34H137.52V50.656H140.27V53.34H143.416V55.54H140.27V61.128C140.27 61.7 140.409 62.14 140.688 62.448C140.966 62.7413 141.37 62.888 141.898 62.888C142.514 62.888 143.027 62.7267 143.438 62.404L144.208 64.362Z" fill="#5B86E5"/>
<path d="M70.9786 34V28.22H73.3469V30.7524C76.6062 29.5097 79.1972 27.6338 81.2138 25.0545C83.5117 22.1352 84.6724 18.7469 84.6724 14.9717C84.6724 11.3607 83.5352 8.41793 81.2021 5.96759C78.8807 3.54069 76.0903 2.36828 72.6786 2.36828C69.1966 2.36828 66.2303 3.57586 63.8855 5.95586C61.5172 8.35931 60.3683 11.2669 60.3683 14.8662C60.3683 18.2545 61.4469 21.0097 63.651 23.2959C65.0579 24.7614 66.7697 25.8048 68.7393 26.4145L68.0359 28.6772C65.6793 27.9503 63.6276 26.6959 61.9393 24.9372C59.3248 22.229 58 18.8407 58 14.8662C58 10.6807 59.4186 7.11655 62.209 4.29103C65.0228 1.44207 68.5517 0 72.6903 0C76.7234 0 80.1703 1.45379 82.9255 4.33793C85.6572 7.21035 87.0524 10.7979 87.0524 14.9834C87.0524 19.2979 85.7159 23.1786 83.0897 26.52C80.4869 29.8379 76.9345 32.2062 72.5145 33.5428L70.9786 34Z" fill="#5B86E5"/>
<path d="M72.5262 13.0138C72.5028 13.0021 72.491 13.0021 72.491 13.0021C72.4559 12.9669 72.409 12.9317 72.3738 12.8966C71.8345 12.4393 71.2366 12.1228 70.4979 12.1697C69.7945 12.2048 69.22 12.6269 69.0324 13.2952C68.7979 14.0924 68.9972 14.8193 69.4662 15.4641C69.8297 15.9683 70.2517 16.4255 70.6738 16.871C71.2248 17.4455 71.8462 17.9379 72.5262 18.3952C72.8779 18.1255 73.2297 17.8793 73.5462 17.5979C73.9331 17.2697 74.2966 16.9179 74.66 16.5545C75.0938 16.1207 75.4924 15.6517 75.7855 15.1007C76.0669 14.5614 76.1841 13.9986 76.0317 13.4007C75.7972 12.451 74.8476 11.9586 73.8276 12.24C73.3352 12.369 72.9131 12.6503 72.5262 13.0138Z" fill="#5B86E5"/>
<path d="M72.5262 13.0138C72.9131 12.6503 73.3235 12.369 73.8393 12.2283C74.8593 11.9469 75.809 12.4393 76.0435 13.389C76.1959 13.9869 76.0786 14.5497 75.7972 15.089C75.5159 15.64 75.1055 16.109 74.6717 16.5428C74.3083 16.9062 73.9448 17.2462 73.5579 17.5862C73.2297 17.8676 72.8779 18.1138 72.5379 18.3834C71.8579 17.9262 71.2366 17.4338 70.6855 16.8593C70.2517 16.4138 69.8414 15.9448 69.4779 15.4524C69.009 14.8076 68.8097 14.0807 69.0441 13.2834C69.2434 12.6152 69.8179 12.1931 70.5097 12.1579C71.2483 12.1228 71.8462 12.4276 72.3855 12.8848C72.4207 12.92 72.4676 12.9552 72.5028 12.9903C72.5028 13.0021 72.5028 13.0021 72.5262 13.0138Z" fill="#5B86E5"/>
</svg>
