<svg width="111" height="91" viewBox="0 0 111 91" fill="none" xmlns="http://www.w3.org/2000/svg">
<g opacity="0.1" filter="url(#filter0_f)">
<ellipse cx="55.5" cy="78.3503" rx="51.5" ry="7.92308" fill="black"/>
</g>
<path d="M4.58301 62.7439V79.201C4.58301 81.7644 24.1826 83.8439 48.3597 83.8439C72.5369 83.8439 92.1365 81.7658 92.1365 79.201V62.7439H4.58301Z" fill="url(#paint0_linear)"/>
<path d="M92.1365 62.744C92.1365 65.3074 72.5369 67.3869 48.3598 67.3869C24.1826 67.3869 4.58301 65.3088 4.58301 62.744C4.58301 60.1807 24.1826 58.1025 48.3598 58.1025C72.5369 58.1025 92.1365 60.1807 92.1365 62.744Z" fill="url(#paint1_linear)"/>
<path d="M11.5781 8C11.5781 3.58173 15.1598 0 19.5781 0H77.5268C81.9451 0 85.5268 3.58172 85.5268 8V58.1026H11.5781V8Z" fill="url(#paint2_linear)"/>
<g opacity="0.08" filter="url(#filter1_f)">
<ellipse cx="46.5536" cy="62.9563" rx="26.2318" ry="1.74879" fill="black"/>
</g>
<path d="M78.1741 17.418C77.3689 12.9141 74.9326 9.7656 74.8294 9.6405L74.1481 8.7439L70.8033 11.4128L71.5053 12.3094C71.5879 12.4137 73.4874 14.895 74.0448 18.3563C74.7675 22.8184 72.9918 26.8844 68.8006 30.4291C68.6767 30.5333 68.5528 30.6376 68.4289 30.7418C68.4289 30.6584 68.4289 30.575 68.4289 30.4708C68.4289 26.4048 66.3849 22.7142 62.9576 20.5665L62.0079 19.9618L59.7574 23.6108L60.7071 24.2154C62.875 25.5708 64.1551 27.9061 64.1551 30.4499C64.1551 32.7644 63.0608 34.9746 61.2026 36.3508C60.3768 36.9555 59.6128 37.4976 58.9315 37.998C57.1559 39.27 55.7519 40.2917 54.5338 41.3134C52.944 41.0423 50.3219 40.8963 48.6082 40.8963C47.0184 40.8963 44.1279 41.0215 42.4349 41.3134C41.2167 40.2917 39.7921 39.27 38.0371 37.998C37.2526 37.4351 36.5299 36.9138 35.7247 36.3299C33.9078 34.9538 32.8135 32.7644 32.8135 30.4499C32.8135 27.8852 34.0936 25.5499 36.2615 24.2154L37.2113 23.6108L35.0021 19.9827L34.0317 20.5873C30.6043 22.735 28.5603 26.4257 28.5603 30.4916C28.5603 30.575 28.5603 30.6584 28.5603 30.7418C28.4365 30.6376 28.3126 30.5333 28.1887 30.4291C23.9974 26.8844 22.2425 22.8184 22.9651 18.3563C23.5226 14.8533 25.422 12.3928 25.5046 12.2886L26.2066 11.4128L22.8619 8.7439L22.1599 9.6405C22.0567 9.7656 19.641 12.8933 18.8358 17.418C18.0719 21.6507 18.6087 27.9269 25.484 33.7444C28.7049 36.455 31.3063 38.4151 33.2265 39.8329C33.2471 39.8538 33.2678 39.8746 33.2884 39.8955L33.9078 40.3542L34.2175 40.5836C34.6717 40.9172 35.1053 41.23 35.5802 41.5636C36.2822 42.064 36.9429 42.5436 37.5623 43.0023C35.2085 44.2117 33.4742 45.9423 32.4832 48.0483C30.976 51.2802 31.4509 55.0334 33.722 57.8275C35.2085 59.6415 37.3971 60.6841 39.7095 60.6841C41.1341 60.6841 42.5587 60.2879 43.8595 59.5373C46.7913 57.8275 49.4341 53.7615 47.2662 47.9232C46.9152 46.9849 46.5022 46.13 46.0067 45.3376C46.9152 45.2959 48.092 45.2959 48.6288 45.2959C49.1863 45.2959 50.1773 45.3168 51.0032 45.3376C50.5077 46.13 50.0948 46.9849 49.7438 47.9232C47.5759 53.7615 50.2186 57.8275 53.1298 59.5164C54.4099 60.267 55.8552 60.6632 57.2798 60.6632C59.5922 60.6632 61.7601 59.6207 63.2466 57.8066C65.5384 55.0334 66.0133 51.2802 64.5061 48.0483C63.515 45.9423 61.7807 44.1908 59.427 42.9815C60.0464 42.5227 60.7071 42.0432 61.4091 41.5427C61.884 41.2091 62.3176 40.8755 62.7718 40.5627L63.6802 39.8955C63.7009 39.8746 63.7215 39.8746 63.7215 39.8746C65.6417 38.4568 68.2638 36.4968 71.5053 33.7653C78.4013 27.9269 78.9381 21.6507 78.1741 17.418ZM60.0051 55.0543C59.138 56.1177 58.0644 56.3262 57.3211 56.3262C56.6191 56.3262 55.8758 56.1177 55.2771 55.7632C52.9027 54.387 52.9233 51.5513 53.7286 49.3828C54.2034 48.09 54.8228 47.0683 55.7726 46.0674C58.1882 46.8389 59.8812 48.1525 60.6865 49.8623C61.4917 51.5721 61.2233 53.553 60.0051 55.0543ZM37.0048 55.0543C35.7866 53.553 35.5182 51.5721 36.3235 49.8623C37.108 48.1734 38.8011 46.8598 41.2167 46.0883C42.1665 47.11 42.7859 48.1108 43.2607 49.4036C44.0659 51.593 44.0866 54.4079 41.7122 55.8049C41.0928 56.1594 40.3702 56.3679 39.6682 56.3679C38.9456 56.347 37.872 56.1177 37.0048 55.0543Z" fill="#5B86E5"/>
<path d="M78.1741 17.418C77.3689 12.9141 74.9326 9.7656 74.8294 9.6405L74.1481 8.7439L70.8033 11.4128L71.5053 12.3094C71.5879 12.4137 73.4874 14.895 74.0448 18.3563C74.7675 22.8184 72.9918 26.8844 68.8006 30.4291C68.6767 30.5333 68.5528 30.6376 68.4289 30.7418C68.4289 30.6584 68.4289 30.575 68.4289 30.4708C68.4289 26.4048 66.3849 22.7142 62.9576 20.5665L62.0079 19.9618L59.7574 23.6108L60.7071 24.2154C62.875 25.5708 64.1551 27.9061 64.1551 30.4499C64.1551 32.7644 63.0608 34.9746 61.2026 36.3508C60.3768 36.9555 59.6128 37.4976 58.9315 37.998C57.1559 39.27 55.7519 40.2917 54.5338 41.3134C52.944 41.0423 50.3219 40.8963 48.6082 40.8963C47.0184 40.8963 44.1279 41.0215 42.4349 41.3134C41.2167 40.2917 39.7921 39.27 38.0371 37.998C37.2526 37.4351 36.5299 36.9138 35.7247 36.3299C33.9078 34.9538 32.8135 32.7644 32.8135 30.4499C32.8135 27.8852 34.0936 25.5499 36.2615 24.2154L37.2113 23.6108L35.0021 19.9827L34.0317 20.5873C30.6043 22.735 28.5603 26.4257 28.5603 30.4916C28.5603 30.575 28.5603 30.6584 28.5603 30.7418C28.4365 30.6376 28.3126 30.5333 28.1887 30.4291C23.9974 26.8844 22.2425 22.8184 22.9651 18.3563C23.5226 14.8533 25.422 12.3928 25.5046 12.2886L26.2066 11.4128L22.8619 8.7439L22.1599 9.6405C22.0567 9.7656 19.641 12.8933 18.8358 17.418C18.0719 21.6507 18.6087 27.9269 25.484 33.7444C28.7049 36.455 31.3063 38.4151 33.2265 39.8329C33.2471 39.8538 33.2678 39.8746 33.2884 39.8955L33.9078 40.3542L34.2175 40.5836C34.6717 40.9172 35.1053 41.23 35.5802 41.5636C36.2822 42.064 36.9429 42.5436 37.5623 43.0023C35.2085 44.2117 33.4742 45.9423 32.4832 48.0483C30.976 51.2802 31.4509 55.0334 33.722 57.8275C35.2085 59.6415 37.3971 60.6841 39.7095 60.6841C41.1341 60.6841 42.5587 60.2879 43.8595 59.5373C46.7913 57.8275 49.4341 53.7615 47.2662 47.9232C46.9152 46.9849 46.5022 46.13 46.0067 45.3376C46.9152 45.2959 48.092 45.2959 48.6288 45.2959C49.1863 45.2959 50.1773 45.3168 51.0032 45.3376C50.5077 46.13 50.0948 46.9849 49.7438 47.9232C47.5759 53.7615 50.2186 57.8275 53.1298 59.5164C54.4099 60.267 55.8552 60.6632 57.2798 60.6632C59.5922 60.6632 61.7601 59.6207 63.2466 57.8066C65.5384 55.0334 66.0133 51.2802 64.5061 48.0483C63.515 45.9423 61.7807 44.1908 59.427 42.9815C60.0464 42.5227 60.7071 42.0432 61.4091 41.5427C61.884 41.2091 62.3176 40.8755 62.7718 40.5627L63.6802 39.8955C63.7009 39.8746 63.7215 39.8746 63.7215 39.8746C65.6417 38.4568 68.2638 36.4968 71.5053 33.7653C78.4013 27.9269 78.9381 21.6507 78.1741 17.418ZM60.0051 55.0543C59.138 56.1177 58.0644 56.3262 57.3211 56.3262C56.6191 56.3262 55.8758 56.1177 55.2771 55.7632C52.9027 54.387 52.9233 51.5513 53.7286 49.3828C54.2034 48.09 54.8228 47.0683 55.7726 46.0674C58.1882 46.8389 59.8812 48.1525 60.6865 49.8623C61.4917 51.5721 61.2233 53.553 60.0051 55.0543ZM37.0048 55.0543C35.7866 53.553 35.5182 51.5721 36.3235 49.8623C37.108 48.1734 38.8011 46.8598 41.2167 46.0883C42.1665 47.11 42.7859 48.1108 43.2607 49.4036C44.0659 51.593 44.0866 54.4079 41.7122 55.8049C41.0928 56.1594 40.3702 56.3679 39.6682 56.3679C38.9456 56.347 37.872 56.1177 37.0048 55.0543Z" fill="url(#paint3_linear)"/>
<defs>
<filter id="filter0_f" x="0" y="66.4272" width="111" height="23.8462" filterUnits="userSpaceOnUse" color-interpolation-filters="sRGB">
<feFlood flood-opacity="0" result="BackgroundImageFix"/>
<feBlend mode="normal" in="SourceGraphic" in2="BackgroundImageFix" result="shape"/>
<feGaussianBlur stdDeviation="2" result="effect1_foregroundBlur"/>
</filter>
<filter id="filter1_f" x="18.3218" y="59.2075" width="56.4636" height="7.49757" filterUnits="userSpaceOnUse" color-interpolation-filters="sRGB">
<feFlood flood-opacity="0" result="BackgroundImageFix"/>
<feBlend mode="normal" in="SourceGraphic" in2="BackgroundImageFix" result="shape"/>
<feGaussianBlur stdDeviation="1" result="effect1_foregroundBlur"/>
</filter>
<linearGradient id="paint0_linear" x1="4.58284" y1="73.2943" x2="92.1369" y2="73.2943" gradientUnits="userSpaceOnUse">
<stop stop-color="#D5DFF5"/>
<stop offset="0.609375" stop-color="#5E81CD"/>
<stop offset="0.9893" stop-color="#3D5A99"/>
</linearGradient>
<linearGradient id="paint1_linear" x1="4.58284" y1="62.7448" x2="92.1369" y2="62.7448" gradientUnits="userSpaceOnUse">
<stop stop-color="#B6CBFA"/>
<stop offset="0.505208" stop-color="#8AAAF0"/>
<stop offset="1" stop-color="#3D6ACC"/>
</linearGradient>
<linearGradient id="paint2_linear" x1="48.5525" y1="0" x2="48.5525" y2="58.1026" gradientUnits="userSpaceOnUse">
<stop stop-color="white" stop-opacity="0.46"/>
<stop offset="1" stop-color="white" stop-opacity="0"/>
</linearGradient>
<linearGradient id="paint3_linear" x1="48.5049" y1="8.7439" x2="48.5049" y2="60.6841" gradientUnits="userSpaceOnUse">
<stop stop-color="white" stop-opacity="0.35"/>
<stop offset="1" stop-color="white" stop-opacity="0.06"/>
</linearGradient>
</defs>
</svg>
