<svg width="149" height="71" viewBox="0 0 149 71" fill="none" xmlns="http://www.w3.org/2000/svg">
<path d="M5.63029 65.154C4.67696 65.154 3.74562 65.0293 2.83629 64.78C1.92696 64.5307 1.20096 64.2153 0.658289 63.834L1.71429 61.744C2.24229 62.096 2.87296 62.382 3.60629 62.602C4.35429 62.8073 5.08762 62.91 5.80629 62.91C7.44896 62.91 8.27029 62.4773 8.27029 61.612C8.27029 61.2013 8.05762 60.9153 7.63229 60.754C7.22162 60.5927 6.55429 60.4387 5.63029 60.292C4.66229 60.1453 3.87029 59.9767 3.25429 59.786C2.65296 59.5953 2.12496 59.2653 1.67029 58.796C1.23029 58.312 1.01029 57.6447 1.01029 56.794C1.01029 55.6793 1.47229 54.792 2.39629 54.132C3.33496 53.4573 4.59629 53.12 6.18029 53.12C6.98696 53.12 7.79362 53.2153 8.60029 53.406C9.40696 53.582 10.067 53.824 10.5803 54.132L9.52429 56.222C8.52696 55.6353 7.40496 55.342 6.15829 55.342C5.35162 55.342 4.73562 55.4667 4.31029 55.716C3.89962 55.9507 3.69429 56.266 3.69429 56.662C3.69429 57.102 3.91429 57.4173 4.35429 57.608C4.80896 57.784 5.50562 57.9527 6.44429 58.114C7.38296 58.2607 8.15296 58.4293 8.75429 58.62C9.35562 58.8107 9.86896 59.1333 10.2943 59.588C10.7343 60.0427 10.9543 60.688 10.9543 61.524C10.9543 62.624 10.4776 63.504 9.52429 64.164C8.57096 64.824 7.27296 65.154 5.63029 65.154ZM18.6026 65.154C17.4146 65.154 16.3439 64.8973 15.3906 64.384C14.4372 63.8707 13.6892 63.1593 13.1466 62.25C12.6186 61.326 12.3546 60.2847 12.3546 59.126C12.3546 57.9673 12.6186 56.9333 13.1466 56.024C13.6892 55.1147 14.4372 54.4033 15.3906 53.89C16.3439 53.3767 17.4146 53.12 18.6026 53.12C19.8052 53.12 20.8832 53.3767 21.8366 53.89C22.7899 54.4033 23.5306 55.1147 24.0586 56.024C24.6012 56.9333 24.8726 57.9673 24.8726 59.126C24.8726 60.2847 24.6012 61.326 24.0586 62.25C23.5306 63.1593 22.7899 63.8707 21.8366 64.384C20.8832 64.8973 19.8052 65.154 18.6026 65.154ZM18.6026 62.8C19.6146 62.8 20.4506 62.4627 21.1106 61.788C21.7706 61.1133 22.1006 60.226 22.1006 59.126C22.1006 58.026 21.7706 57.1387 21.1106 56.464C20.4506 55.7893 19.6146 55.452 18.6026 55.452C17.5906 55.452 16.7546 55.7893 16.0946 56.464C15.4492 57.1387 15.1266 58.026 15.1266 59.126C15.1266 60.226 15.4492 61.1133 16.0946 61.788C16.7546 62.4627 17.5906 62.8 18.6026 62.8ZM32.8922 65.154C31.6749 65.154 30.5822 64.8973 29.6142 64.384C28.6462 63.8707 27.8909 63.1593 27.3482 62.25C26.8056 61.326 26.5342 60.2847 26.5342 59.126C26.5342 57.9673 26.8056 56.9333 27.3482 56.024C27.8909 55.1147 28.6389 54.4033 29.5922 53.89C30.5602 53.3767 31.6602 53.12 32.8922 53.12C34.0509 53.12 35.0629 53.3547 35.9282 53.824C36.8082 54.2933 37.4682 54.968 37.9082 55.848L35.7962 57.08C35.4589 56.5373 35.0336 56.134 34.5202 55.87C34.0216 55.5913 33.4716 55.452 32.8702 55.452C31.8436 55.452 30.9929 55.7893 30.3182 56.464C29.6436 57.124 29.3062 58.0113 29.3062 59.126C29.3062 60.2407 29.6362 61.1353 30.2962 61.81C30.9709 62.47 31.8289 62.8 32.8702 62.8C33.4716 62.8 34.0216 62.668 34.5202 62.404C35.0336 62.1253 35.4589 61.7147 35.7962 61.172L37.9082 62.404C37.4536 63.284 36.7862 63.966 35.9062 64.45C35.0409 64.9193 34.0362 65.154 32.8922 65.154ZM40.2854 53.252H43.0354V65H40.2854V53.252ZM41.6714 51.316C41.1728 51.316 40.7548 51.162 40.4174 50.854C40.0801 50.5313 39.9114 50.1353 39.9114 49.666C39.9114 49.1967 40.0801 48.808 40.4174 48.5C40.7548 48.1773 41.1728 48.016 41.6714 48.016C42.1701 48.016 42.5881 48.17 42.9254 48.478C43.2628 48.7713 43.4314 49.1453 43.4314 49.6C43.4314 50.084 43.2628 50.4947 42.9254 50.832C42.6028 51.1547 42.1848 51.316 41.6714 51.316ZM51.1328 53.12C52.8635 53.12 54.1835 53.538 55.0928 54.374C56.0168 55.1953 56.4788 56.442 56.4788 58.114V65H53.8828V63.57C53.5455 64.0833 53.0615 64.4793 52.4308 64.758C51.8148 65.022 51.0668 65.154 50.1868 65.154C49.3068 65.154 48.5368 65.0073 47.8768 64.714C47.2168 64.406 46.7035 63.988 46.3368 63.46C45.9848 62.9173 45.8088 62.3087 45.8088 61.634C45.8088 60.578 46.1975 59.7347 46.9748 59.104C47.7668 58.4587 49.0062 58.136 50.6928 58.136H53.7288V57.96C53.7288 57.1387 53.4795 56.508 52.9808 56.068C52.4968 55.628 51.7708 55.408 50.8028 55.408C50.1428 55.408 49.4902 55.5107 48.8448 55.716C48.2142 55.9213 47.6788 56.2073 47.2388 56.574L46.1608 54.572C46.7768 54.1027 47.5175 53.7433 48.3828 53.494C49.2482 53.2447 50.1648 53.12 51.1328 53.12ZM50.7588 63.152C51.4482 63.152 52.0568 62.998 52.5848 62.69C53.1275 62.3673 53.5088 61.9127 53.7288 61.326V59.962H50.8908C49.3068 59.962 48.5148 60.4827 48.5148 61.524C48.5148 62.0227 48.7128 62.4187 49.1088 62.712C49.5048 63.0053 50.0548 63.152 50.7588 63.152ZM60.0081 48.676H62.7581V65H60.0081V48.676ZM72.8795 53.12C74.0235 53.12 75.0428 53.3693 75.9375 53.868C76.8468 54.3667 77.5581 55.0707 78.0715 55.98C78.5848 56.8893 78.8415 57.938 78.8415 59.126C78.8415 60.314 78.5848 61.37 78.0715 62.294C77.5581 63.2033 76.8468 63.9073 75.9375 64.406C75.0428 64.9047 74.0235 65.154 72.8795 65.154C71.2955 65.154 70.0415 64.626 69.1175 63.57V69.268H66.3675V53.252H68.9855V54.792C69.4401 54.2347 69.9975 53.8167 70.6575 53.538C71.3321 53.2593 72.0728 53.12 72.8795 53.12ZM72.5715 62.8C73.5835 62.8 74.4121 62.4627 75.0575 61.788C75.7175 61.1133 76.0475 60.226 76.0475 59.126C76.0475 58.026 75.7175 57.1387 75.0575 56.464C74.4121 55.7893 73.5835 55.452 72.5715 55.452C71.9115 55.452 71.3175 55.606 70.7895 55.914C70.2615 56.2073 69.8435 56.6327 69.5355 57.19C69.2275 57.7473 69.0735 58.3927 69.0735 59.126C69.0735 59.8593 69.2275 60.5047 69.5355 61.062C69.8435 61.6193 70.2615 62.052 70.7895 62.36C71.3175 62.6533 71.9115 62.8 72.5715 62.8ZM92.8235 53.252V65H90.2055V63.504C89.7655 64.032 89.2155 64.4427 88.5555 64.736C87.8955 65.0147 87.1842 65.154 86.4215 65.154C84.8522 65.154 83.6128 64.7213 82.7035 63.856C81.8088 62.976 81.3615 61.678 81.3615 59.962V53.252H84.1115V59.588C84.1115 60.644 84.3462 61.436 84.8155 61.964C85.2995 62.4773 85.9815 62.734 86.8615 62.734C87.8442 62.734 88.6215 62.4333 89.1935 61.832C89.7802 61.216 90.0735 60.336 90.0735 59.192V53.252H92.8235ZM102.936 53.12C104.08 53.12 105.099 53.3693 105.994 53.868C106.903 54.3667 107.615 55.0707 108.128 55.98C108.641 56.8893 108.898 57.938 108.898 59.126C108.898 60.314 108.641 61.37 108.128 62.294C107.615 63.2033 106.903 63.9073 105.994 64.406C105.099 64.9047 104.08 65.154 102.936 65.154C102.129 65.154 101.389 65.0147 100.714 64.736C100.054 64.4573 99.4968 64.0393 99.0421 63.482V65H96.4241V48.676H99.1741V54.682C99.6435 54.1687 100.193 53.78 100.824 53.516C101.469 53.252 102.173 53.12 102.936 53.12ZM102.628 62.8C103.64 62.8 104.469 62.4627 105.114 61.788C105.774 61.1133 106.104 60.226 106.104 59.126C106.104 58.026 105.774 57.1387 105.114 56.464C104.469 55.7893 103.64 55.452 102.628 55.452C101.968 55.452 101.374 55.606 100.846 55.914C100.318 56.2073 99.9001 56.6327 99.5921 57.19C99.2841 57.7473 99.1301 58.3927 99.1301 59.126C99.1301 59.8593 99.2841 60.5047 99.5921 61.062C99.9001 61.6193 100.318 62.052 100.846 62.36C101.374 62.6533 101.968 62.8 102.628 62.8ZM111.506 48.676H114.256V65H111.506V48.676ZM117.866 53.252H120.616V65H117.866V53.252ZM119.252 51.316C118.753 51.316 118.335 51.162 117.998 50.854C117.66 50.5313 117.492 50.1353 117.492 49.666C117.492 49.1967 117.66 48.808 117.998 48.5C118.335 48.1773 118.753 48.016 119.252 48.016C119.75 48.016 120.168 48.17 120.506 48.478C120.843 48.7713 121.012 49.1453 121.012 49.6C121.012 50.084 120.843 50.4947 120.506 50.832C120.183 51.1547 119.765 51.316 119.252 51.316ZM127.855 65.154C126.902 65.154 125.97 65.0293 125.061 64.78C124.152 64.5307 123.426 64.2153 122.883 63.834L123.939 61.744C124.467 62.096 125.098 62.382 125.831 62.602C126.579 62.8073 127.312 62.91 128.031 62.91C129.674 62.91 130.495 62.4773 130.495 61.612C130.495 61.2013 130.282 60.9153 129.857 60.754C129.446 60.5927 128.779 60.4387 127.855 60.292C126.887 60.1453 126.095 59.9767 125.479 59.786C124.878 59.5953 124.35 59.2653 123.895 58.796C123.455 58.312 123.235 57.6447 123.235 56.794C123.235 55.6793 123.697 54.792 124.621 54.132C125.56 53.4573 126.821 53.12 128.405 53.12C129.212 53.12 130.018 53.2153 130.825 53.406C131.632 53.582 132.292 53.824 132.805 54.132L131.749 56.222C130.752 55.6353 129.63 55.342 128.383 55.342C127.576 55.342 126.96 55.4667 126.535 55.716C126.124 55.9507 125.919 56.266 125.919 56.662C125.919 57.102 126.139 57.4173 126.579 57.608C127.034 57.784 127.73 57.9527 128.669 58.114C129.608 58.2607 130.378 58.4293 130.979 58.62C131.58 58.8107 132.094 59.1333 132.519 59.588C132.959 60.0427 133.179 60.688 133.179 61.524C133.179 62.624 132.702 63.504 131.749 64.164C130.796 64.824 129.498 65.154 127.855 65.154ZM142.213 53.12C143.694 53.12 144.882 53.5527 145.777 54.418C146.672 55.2833 147.119 56.5667 147.119 58.268V65H144.369V58.62C144.369 57.5933 144.127 56.8233 143.643 56.31C143.159 55.782 142.47 55.518 141.575 55.518C140.563 55.518 139.764 55.826 139.177 56.442C138.59 57.0433 138.297 57.916 138.297 59.06V65H135.547V48.676H138.297V54.616C138.752 54.132 139.309 53.7653 139.969 53.516C140.644 53.252 141.392 53.12 142.213 53.12Z" fill="#5B86E5"/>
<path d="M90.3024 1.97272C89.6855 1.53756 88.85 1.58875 88.3101 2.07511L71.0223 16.8707C70.958 16.9219 70.868 16.9347 70.7909 16.8963L61.3693 12.9542L86.2407 2.93264L85.4567 1L60.2768 11.1368C59.557 11.4055 59.0557 12.0583 59.0043 12.8262C58.9529 13.6069 59.3642 14.3365 60.0583 14.6821L69.8655 18.7905C70.7009 19.2001 71.7292 19.0465 72.3976 18.4449L88.1816 4.94207L77.9888 30.0536L73.6958 20.5568C73.4516 20.032 72.9631 19.6608 72.3976 19.5585C71.832 19.4561 71.2536 19.6225 70.8423 20.0064L63.4259 26.5339L64.8141 28.1081L71.9606 21.8239L76.2536 31.3079L76.2793 31.3591C76.6135 32.0118 77.269 32.4086 78.0017 32.4086C78.0274 32.4086 78.066 32.4086 78.0917 32.4086C78.8629 32.3702 79.5184 31.9094 79.8012 31.2055L90.8808 3.90536C91.1636 3.20142 90.9322 2.40788 90.3024 1.97272Z" fill="#5B86E5"/>
<path d="M69.9352 24.4426L62.0003 31.4274L63.3964 33L71.3313 26.0152L69.9352 24.4426Z" fill="#5B86E5"/>
<path d="M67.9229 18.9164L64.8602 21.6116L66.2561 23.1844L69.3188 20.4892L67.9229 18.9164Z" fill="#5B86E5"/>
</svg>
