<svg width="208" height="32" viewBox="0 0 208 32" fill="none" xmlns="http://www.w3.org/2000/svg">
<path d="M45.434 23.154C44.4807 23.154 43.5493 23.0293 42.64 22.78C41.7307 22.5307 41.0047 22.2153 40.462 21.834L41.518 19.744C42.046 20.096 42.6767 20.382 43.41 20.602C44.158 20.8073 44.8913 20.91 45.61 20.91C47.2527 20.91 48.074 20.4773 48.074 19.612C48.074 19.2013 47.8613 18.9153 47.436 18.754C47.0253 18.5927 46.358 18.4387 45.434 18.292C44.466 18.1453 43.674 17.9767 43.058 17.786C42.4567 17.5953 41.9287 17.2653 41.474 16.796C41.034 16.312 40.814 15.6447 40.814 14.794C40.814 13.6793 41.276 12.792 42.2 12.132C43.1387 11.4573 44.4 11.12 45.984 11.12C46.7907 11.12 47.5973 11.2153 48.404 11.406C49.2107 11.582 49.8707 11.824 50.384 12.132L49.328 14.222C48.3307 13.6353 47.2087 13.342 45.962 13.342C45.1553 13.342 44.5393 13.4667 44.114 13.716C43.7033 13.9507 43.498 14.266 43.498 14.662C43.498 15.102 43.718 15.4173 44.158 15.608C44.6127 15.784 45.3093 15.9527 46.248 16.114C47.1867 16.2607 47.9567 16.4293 48.558 16.62C49.1593 16.8107 49.6727 17.1333 50.098 17.588C50.538 18.0427 50.758 18.688 50.758 19.524C50.758 20.624 50.2813 21.504 49.328 22.164C48.3747 22.824 47.0767 23.154 45.434 23.154ZM58.4063 23.154C57.2183 23.154 56.1476 22.8973 55.1943 22.384C54.2409 21.8707 53.4929 21.1593 52.9503 20.25C52.4223 19.326 52.1583 18.2847 52.1583 17.126C52.1583 15.9673 52.4223 14.9333 52.9503 14.024C53.4929 13.1147 54.2409 12.4033 55.1943 11.89C56.1476 11.3767 57.2183 11.12 58.4063 11.12C59.6089 11.12 60.6869 11.3767 61.6403 11.89C62.5936 12.4033 63.3343 13.1147 63.8623 14.024C64.4049 14.9333 64.6763 15.9673 64.6763 17.126C64.6763 18.2847 64.4049 19.326 63.8623 20.25C63.3343 21.1593 62.5936 21.8707 61.6403 22.384C60.6869 22.8973 59.6089 23.154 58.4063 23.154ZM58.4063 20.8C59.4183 20.8 60.2543 20.4627 60.9143 19.788C61.5743 19.1133 61.9043 18.226 61.9043 17.126C61.9043 16.026 61.5743 15.1387 60.9143 14.464C60.2543 13.7893 59.4183 13.452 58.4063 13.452C57.3943 13.452 56.5583 13.7893 55.8983 14.464C55.2529 15.1387 54.9303 16.026 54.9303 17.126C54.9303 18.226 55.2529 19.1133 55.8983 19.788C56.5583 20.4627 57.3943 20.8 58.4063 20.8ZM72.696 23.154C71.4786 23.154 70.386 22.8973 69.418 22.384C68.45 21.8707 67.6946 21.1593 67.152 20.25C66.6093 19.326 66.338 18.2847 66.338 17.126C66.338 15.9673 66.6093 14.9333 67.152 14.024C67.6946 13.1147 68.4426 12.4033 69.396 11.89C70.364 11.3767 71.464 11.12 72.696 11.12C73.8546 11.12 74.8666 11.3547 75.732 11.824C76.612 12.2933 77.272 12.968 77.712 13.848L75.6 15.08C75.2626 14.5373 74.8373 14.134 74.324 13.87C73.8253 13.5913 73.2753 13.452 72.674 13.452C71.6473 13.452 70.7966 13.7893 70.122 14.464C69.4473 15.124 69.11 16.0113 69.11 17.126C69.11 18.2407 69.44 19.1353 70.1 19.81C70.7746 20.47 71.6326 20.8 72.674 20.8C73.2753 20.8 73.8253 20.668 74.324 20.404C74.8373 20.1253 75.2626 19.7147 75.6 19.172L77.712 20.404C77.2573 21.284 76.59 21.966 75.71 22.45C74.8446 22.9193 73.84 23.154 72.696 23.154ZM80.0892 11.252H82.8392V23H80.0892V11.252ZM81.4752 9.316C80.9765 9.316 80.5585 9.162 80.2212 8.854C79.8838 8.53133 79.7152 8.13533 79.7152 7.666C79.7152 7.19667 79.8838 6.808 80.2212 6.5C80.5585 6.17733 80.9765 6.016 81.4752 6.016C81.9738 6.016 82.3918 6.17 82.7292 6.478C83.0665 6.77133 83.2352 7.14533 83.2352 7.6C83.2352 8.084 83.0665 8.49467 82.7292 8.832C82.4065 9.15467 81.9885 9.316 81.4752 9.316ZM90.9365 11.12C92.6672 11.12 93.9872 11.538 94.8965 12.374C95.8205 13.1953 96.2825 14.442 96.2825 16.114V23H93.6865V21.57C93.3492 22.0833 92.8652 22.4793 92.2345 22.758C91.6185 23.022 90.8705 23.154 89.9905 23.154C89.1105 23.154 88.3405 23.0073 87.6805 22.714C87.0205 22.406 86.5072 21.988 86.1405 21.46C85.7885 20.9173 85.6125 20.3087 85.6125 19.634C85.6125 18.578 86.0012 17.7347 86.7785 17.104C87.5705 16.4587 88.8099 16.136 90.4965 16.136H93.5325V15.96C93.5325 15.1387 93.2832 14.508 92.7845 14.068C92.3005 13.628 91.5745 13.408 90.6065 13.408C89.9465 13.408 89.2939 13.5107 88.6485 13.716C88.0179 13.9213 87.4825 14.2073 87.0425 14.574L85.9645 12.572C86.5805 12.1027 87.3212 11.7433 88.1865 11.494C89.0519 11.2447 89.9685 11.12 90.9365 11.12ZM90.5625 21.152C91.2519 21.152 91.8605 20.998 92.3885 20.69C92.9312 20.3673 93.3125 19.9127 93.5325 19.326V17.962H90.6945C89.1105 17.962 88.3185 18.4827 88.3185 19.524C88.3185 20.0227 88.5165 20.4187 88.9125 20.712C89.3085 21.0053 89.8585 21.152 90.5625 21.152ZM99.8118 6.676H102.562V23H99.8118V6.676ZM124.497 11.252L120.163 23H117.523L114.487 14.904L111.407 23H108.767L104.455 11.252H107.051L110.153 19.92L113.387 11.252H115.697L118.865 19.964L122.055 11.252H124.497ZM126.388 11.252H129.138V23H126.388V11.252ZM127.774 9.316C127.275 9.316 126.857 9.162 126.52 8.854C126.183 8.53133 126.014 8.13533 126.014 7.666C126.014 7.19667 126.183 6.808 126.52 6.5C126.857 6.17733 127.275 6.016 127.774 6.016C128.273 6.016 128.691 6.17 129.028 6.478C129.365 6.77133 129.534 7.14533 129.534 7.6C129.534 8.084 129.365 8.49467 129.028 8.832C128.705 9.15467 128.287 9.316 127.774 9.316ZM144.253 6.676V23H141.613V21.482C141.159 22.0393 140.594 22.4573 139.919 22.736C139.259 23.0147 138.526 23.154 137.719 23.154C136.59 23.154 135.571 22.9047 134.661 22.406C133.767 21.9073 133.063 21.2033 132.549 20.294C132.036 19.37 131.779 18.314 131.779 17.126C131.779 15.938 132.036 14.8893 132.549 13.98C133.063 13.0707 133.767 12.3667 134.661 11.868C135.571 11.3693 136.59 11.12 137.719 11.12C138.497 11.12 139.208 11.252 139.853 11.516C140.499 11.78 141.049 12.176 141.503 12.704V6.676H144.253ZM138.049 20.8C138.709 20.8 139.303 20.6533 139.831 20.36C140.359 20.052 140.777 19.6193 141.085 19.062C141.393 18.5047 141.547 17.8593 141.547 17.126C141.547 16.3927 141.393 15.7473 141.085 15.19C140.777 14.6327 140.359 14.2073 139.831 13.914C139.303 13.606 138.709 13.452 138.049 13.452C137.389 13.452 136.795 13.606 136.267 13.914C135.739 14.2073 135.321 14.6327 135.013 15.19C134.705 15.7473 134.551 16.3927 134.551 17.126C134.551 17.8593 134.705 18.5047 135.013 19.062C135.321 19.6193 135.739 20.052 136.267 20.36C136.795 20.6533 137.389 20.8 138.049 20.8ZM159.511 11.252V21.218C159.511 25.354 157.399 27.422 153.175 27.422C152.046 27.422 150.975 27.2753 149.963 26.982C148.951 26.7033 148.115 26.2927 147.455 25.75L148.687 23.682C149.2 24.1073 149.846 24.4447 150.623 24.694C151.415 24.958 152.214 25.09 153.021 25.09C154.312 25.09 155.258 24.7967 155.859 24.21C156.46 23.6233 156.761 22.7287 156.761 21.526V20.91C156.292 21.4233 155.72 21.812 155.045 22.076C154.37 22.34 153.63 22.472 152.823 22.472C151.708 22.472 150.696 22.2373 149.787 21.768C148.892 21.284 148.181 20.6093 147.653 19.744C147.14 18.8787 146.883 17.8887 146.883 16.774C146.883 15.6593 147.14 14.6767 147.653 13.826C148.181 12.9607 148.892 12.2933 149.787 11.824C150.696 11.3547 151.708 11.12 152.823 11.12C153.674 11.12 154.444 11.2593 155.133 11.538C155.837 11.8167 156.424 12.242 156.893 12.814V11.252H159.511ZM153.241 20.14C154.282 20.14 155.133 19.832 155.793 19.216C156.468 18.5853 156.805 17.7713 156.805 16.774C156.805 15.7913 156.468 14.992 155.793 14.376C155.133 13.76 154.282 13.452 153.241 13.452C152.185 13.452 151.32 13.76 150.645 14.376C149.985 14.992 149.655 15.7913 149.655 16.774C149.655 17.7713 149.985 18.5853 150.645 19.216C151.32 19.832 152.185 20.14 153.241 20.14ZM174.17 17.192C174.17 17.3827 174.156 17.654 174.126 18.006H164.908C165.07 18.8713 165.488 19.5607 166.162 20.074C166.852 20.5727 167.702 20.822 168.714 20.822C170.005 20.822 171.068 20.3967 171.904 19.546L173.378 21.24C172.85 21.8707 172.183 22.3473 171.376 22.67C170.57 22.9927 169.66 23.154 168.648 23.154C167.358 23.154 166.221 22.8973 165.238 22.384C164.256 21.8707 163.493 21.1593 162.95 20.25C162.422 19.326 162.158 18.2847 162.158 17.126C162.158 15.982 162.415 14.9553 162.928 14.046C163.456 13.122 164.182 12.4033 165.106 11.89C166.03 11.3767 167.072 11.12 168.23 11.12C169.374 11.12 170.394 11.3767 171.288 11.89C172.198 12.3887 172.902 13.1 173.4 14.024C173.914 14.9333 174.17 15.9893 174.17 17.192ZM168.23 13.32C167.35 13.32 166.602 13.584 165.986 14.112C165.385 14.6253 165.018 15.3147 164.886 16.18H171.552C171.435 15.3293 171.076 14.64 170.474 14.112C169.873 13.584 169.125 13.32 168.23 13.32ZM183.874 22.362C183.551 22.626 183.155 22.824 182.686 22.956C182.231 23.088 181.747 23.154 181.234 23.154C179.943 23.154 178.946 22.8167 178.242 22.142C177.538 21.4673 177.186 20.4847 177.186 19.194V13.54H175.25V11.34H177.186V8.656H179.936V11.34H183.082V13.54H179.936V19.128C179.936 19.7 180.075 20.14 180.354 20.448C180.632 20.7413 181.036 20.888 181.564 20.888C182.18 20.888 182.693 20.7267 183.104 20.404L183.874 22.362Z" fill="#5B86E5"/>
<path d="M11.615 31.4278V26.255H13.7345V28.5214C16.6513 27.4092 18.9701 25.7304 20.7748 23.4221C22.8313 20.8095 23.8701 17.7772 23.8701 14.3987C23.8701 11.1671 22.8523 8.53349 20.7643 6.3406C18.6868 4.16868 16.1897 3.11945 13.1364 3.11945C10.0202 3.11945 7.36562 4.20016 5.26715 6.3301C3.1477 8.48103 2.11945 11.0831 2.11945 14.3043C2.11945 17.3366 3.08475 19.8023 5.0573 21.8483C6.31638 23.1598 7.84826 24.0936 9.61098 24.6392L8.98144 26.6642C6.87248 26.0137 5.03632 24.891 3.52542 23.3172C1.18563 20.8935 0 17.8612 0 14.3043C0 10.5585 1.26957 7.36884 3.76675 4.84019C6.28491 2.29056 9.4431 1 13.1469 1C16.7563 1 19.841 2.30105 22.3067 4.88216C24.7514 7.45278 26 10.6634 26 14.4092C26 18.2704 24.8039 21.7433 22.4536 24.7337C20.1243 27.703 16.9451 29.8224 12.9895 31.0186L11.615 31.4278Z" fill="#5B86E5"/>
<path d="M13 12.6465C12.979 12.636 12.9685 12.636 12.9685 12.636C12.937 12.6045 12.8951 12.573 12.8636 12.5416C12.381 12.1324 11.8458 11.8491 11.1848 11.891C10.5553 11.9225 10.0412 12.3002 9.87328 12.8983C9.66344 13.6118 9.84181 14.2623 10.2615 14.8394C10.5868 15.2906 10.9645 15.6998 11.3422 16.0985C11.8354 16.6126 12.3914 17.0533 13 17.4625C13.3148 17.2211 13.6295 17.0008 13.9128 16.749C14.2591 16.4552 14.5843 16.1404 14.9096 15.8152C15.2978 15.427 15.6546 15.0073 15.9169 14.5141C16.1687 14.0315 16.2736 13.5278 16.1372 12.9927C15.9274 12.1429 15.0775 11.7022 14.1646 11.954C13.724 12.0694 13.3462 12.3212 13 12.6465Z" fill="#5B86E5"/>
<path d="M13 12.6465C13.3462 12.3212 13.7135 12.0694 14.1751 11.9435C15.088 11.6917 15.9379 12.1324 16.1477 12.9822C16.2841 13.5174 16.1792 14.021 15.9274 14.5036C15.6755 14.9968 15.3083 15.4165 14.9201 15.8047C14.5948 16.1299 14.2696 16.4342 13.9233 16.7385C13.6295 16.9903 13.3148 17.2107 13.0105 17.452C12.4019 17.0428 11.8458 16.6021 11.3527 16.088C10.9645 15.6893 10.5973 15.2696 10.272 14.8289C9.8523 14.2518 9.67393 13.6013 9.88378 12.8878C10.0621 12.2897 10.5763 11.912 11.1953 11.8805C11.8563 11.8491 12.3914 12.1219 12.8741 12.5311C12.9056 12.5625 12.9475 12.594 12.979 12.6255C12.979 12.636 12.979 12.636 13 12.6465Z" fill="#5B86E5"/>
</svg>
