<svg width="121" height="72" viewBox="0 0 121 72" fill="none" xmlns="http://www.w3.org/2000/svg">
<path d="M5.87443 66.154C4.9211 66.154 3.98976 66.0293 3.08043 65.78C2.1711 65.5307 1.4451 65.2153 0.90243 64.834L1.95843 62.744C2.48643 63.096 3.1171 63.382 3.85043 63.602C4.59843 63.8073 5.33176 63.91 6.05043 63.91C7.6931 63.91 8.51443 63.4773 8.51443 62.612C8.51443 62.2013 8.30176 61.9153 7.87643 61.754C7.46576 61.5927 6.79843 61.4387 5.87443 61.292C4.90643 61.1453 4.11443 60.9767 3.49843 60.786C2.8971 60.5953 2.3691 60.2653 1.91443 59.796C1.47443 59.312 1.25443 58.6447 1.25443 57.794C1.25443 56.6793 1.71643 55.792 2.64043 55.132C3.5791 54.4573 4.84043 54.12 6.42443 54.12C7.2311 54.12 8.03776 54.2153 8.84443 54.406C9.6511 54.582 10.3111 54.824 10.8244 55.132L9.76843 57.222C8.7711 56.6353 7.6491 56.342 6.40243 56.342C5.59576 56.342 4.97976 56.4667 4.55443 56.716C4.14376 56.9507 3.93843 57.266 3.93843 57.662C3.93843 58.102 4.15843 58.4173 4.59843 58.608C5.0531 58.784 5.74976 58.9527 6.68843 59.114C7.6271 59.2607 8.3971 59.4293 8.99843 59.62C9.59976 59.8107 10.1131 60.1333 10.5384 60.588C10.9784 61.0427 11.1984 61.688 11.1984 62.524C11.1984 63.624 10.7218 64.504 9.76843 65.164C8.8151 65.824 7.5171 66.154 5.87443 66.154ZM18.8467 66.154C17.6587 66.154 16.588 65.8973 15.6347 65.384C14.6814 64.8707 13.9334 64.1593 13.3907 63.25C12.8627 62.326 12.5987 61.2847 12.5987 60.126C12.5987 58.9673 12.8627 57.9333 13.3907 57.024C13.9334 56.1147 14.6814 55.4033 15.6347 54.89C16.588 54.3767 17.6587 54.12 18.8467 54.12C20.0494 54.12 21.1274 54.3767 22.0807 54.89C23.034 55.4033 23.7747 56.1147 24.3027 57.024C24.8454 57.9333 25.1167 58.9673 25.1167 60.126C25.1167 61.2847 24.8454 62.326 24.3027 63.25C23.7747 64.1593 23.034 64.8707 22.0807 65.384C21.1274 65.8973 20.0494 66.154 18.8467 66.154ZM18.8467 63.8C19.8587 63.8 20.6947 63.4627 21.3547 62.788C22.0147 62.1133 22.3447 61.226 22.3447 60.126C22.3447 59.026 22.0147 58.1387 21.3547 57.464C20.6947 56.7893 19.8587 56.452 18.8467 56.452C17.8347 56.452 16.9987 56.7893 16.3387 57.464C15.6934 58.1387 15.3707 59.026 15.3707 60.126C15.3707 61.226 15.6934 62.1133 16.3387 62.788C16.9987 63.4627 17.8347 63.8 18.8467 63.8ZM33.1364 66.154C31.919 66.154 30.8264 65.8973 29.8584 65.384C28.8904 64.8707 28.135 64.1593 27.5924 63.25C27.0497 62.326 26.7784 61.2847 26.7784 60.126C26.7784 58.9673 27.0497 57.9333 27.5924 57.024C28.135 56.1147 28.883 55.4033 29.8364 54.89C30.8044 54.3767 31.9044 54.12 33.1364 54.12C34.295 54.12 35.307 54.3547 36.1724 54.824C37.0524 55.2933 37.7124 55.968 38.1524 56.848L36.0404 58.08C35.703 57.5373 35.2777 57.134 34.7644 56.87C34.2657 56.5913 33.7157 56.452 33.1144 56.452C32.0877 56.452 31.237 56.7893 30.5624 57.464C29.8877 58.124 29.5504 59.0113 29.5504 60.126C29.5504 61.2407 29.8804 62.1353 30.5404 62.81C31.215 63.47 32.073 63.8 33.1144 63.8C33.7157 63.8 34.2657 63.668 34.7644 63.404C35.2777 63.1253 35.703 62.7147 36.0404 62.172L38.1524 63.404C37.6977 64.284 37.0304 64.966 36.1504 65.45C35.2851 65.9193 34.2804 66.154 33.1364 66.154ZM40.5296 54.252H43.2796V66H40.5296V54.252ZM41.9156 52.316C41.4169 52.316 40.9989 52.162 40.6616 51.854C40.3243 51.5313 40.1556 51.1353 40.1556 50.666C40.1556 50.1967 40.3243 49.808 40.6616 49.5C40.9989 49.1773 41.4169 49.016 41.9156 49.016C42.4143 49.016 42.8323 49.17 43.1696 49.478C43.5069 49.7713 43.6756 50.1453 43.6756 50.6C43.6756 51.084 43.5069 51.4947 43.1696 51.832C42.8469 52.1547 42.4289 52.316 41.9156 52.316ZM51.377 54.12C53.1076 54.12 54.4276 54.538 55.337 55.374C56.261 56.1953 56.723 57.442 56.723 59.114V66H54.127V64.57C53.7896 65.0833 53.3056 65.4793 52.675 65.758C52.059 66.022 51.311 66.154 50.431 66.154C49.551 66.154 48.781 66.0073 48.121 65.714C47.461 65.406 46.9476 64.988 46.581 64.46C46.229 63.9173 46.053 63.3087 46.053 62.634C46.053 61.578 46.4416 60.7347 47.219 60.104C48.011 59.4587 49.2503 59.136 50.937 59.136H53.973V58.96C53.973 58.1387 53.7236 57.508 53.225 57.068C52.741 56.628 52.015 56.408 51.047 56.408C50.387 56.408 49.7343 56.5107 49.089 56.716C48.4583 56.9213 47.923 57.2073 47.483 57.574L46.405 55.572C47.021 55.1027 47.7616 54.7433 48.627 54.494C49.4923 54.2447 50.409 54.12 51.377 54.12ZM51.003 64.152C51.6923 64.152 52.301 63.998 52.829 63.69C53.3716 63.3673 53.753 62.9127 53.973 62.326V60.962H51.135C49.551 60.962 48.759 61.4827 48.759 62.524C48.759 63.0227 48.957 63.4187 49.353 63.712C49.749 64.0053 50.299 64.152 51.003 64.152ZM60.2522 49.676H63.0022V66H60.2522V49.676ZM70.2416 66.154C69.2883 66.154 68.357 66.0293 67.4476 65.78C66.5383 65.5307 65.8123 65.2153 65.2696 64.834L66.3256 62.744C66.8536 63.096 67.4843 63.382 68.2176 63.602C68.9656 63.8073 69.699 63.91 70.4176 63.91C72.0603 63.91 72.8816 63.4773 72.8816 62.612C72.8816 62.2013 72.669 61.9153 72.2436 61.754C71.833 61.5927 71.1656 61.4387 70.2416 61.292C69.2736 61.1453 68.4816 60.9767 67.8656 60.786C67.2643 60.5953 66.7363 60.2653 66.2816 59.796C65.8416 59.312 65.6216 58.6447 65.6216 57.794C65.6216 56.6793 66.0836 55.792 67.0076 55.132C67.9463 54.4573 69.2076 54.12 70.7916 54.12C71.5983 54.12 72.405 54.2153 73.2116 54.406C74.0183 54.582 74.6783 54.824 75.1916 55.132L74.1356 57.222C73.1383 56.6353 72.0163 56.342 70.7696 56.342C69.963 56.342 69.347 56.4667 68.9216 56.716C68.511 56.9507 68.3056 57.266 68.3056 57.662C68.3056 58.102 68.5256 58.4173 68.9656 58.608C69.4203 58.784 70.117 58.9527 71.0556 59.114C71.9943 59.2607 72.7643 59.4293 73.3656 59.62C73.967 59.8107 74.4803 60.1333 74.9056 60.588C75.3456 61.0427 75.5656 61.688 75.5656 62.524C75.5656 63.624 75.089 64.504 74.1356 65.164C73.1823 65.824 71.8843 66.154 70.2416 66.154ZM84.5999 54.12C86.0812 54.12 87.2692 54.5527 88.1639 55.418C89.0586 56.2833 89.5059 57.5667 89.5059 59.268V66H86.7559V59.62C86.7559 58.5933 86.5139 57.8233 86.0299 57.31C85.5459 56.782 84.8565 56.518 83.9619 56.518C82.9499 56.518 82.1505 56.826 81.5639 57.442C80.9772 58.0433 80.6839 58.916 80.6839 60.06V66H77.9339V49.676H80.6839V55.616C81.1385 55.132 81.6959 54.7653 82.3559 54.516C83.0306 54.252 83.7786 54.12 84.5999 54.12ZM98.3819 66.154C97.1939 66.154 96.1232 65.8973 95.1699 65.384C94.2165 64.8707 93.4685 64.1593 92.9259 63.25C92.3979 62.326 92.1339 61.2847 92.1339 60.126C92.1339 58.9673 92.3979 57.9333 92.9259 57.024C93.4685 56.1147 94.2165 55.4033 95.1699 54.89C96.1232 54.3767 97.1939 54.12 98.3819 54.12C99.5845 54.12 100.663 54.3767 101.616 54.89C102.569 55.4033 103.31 56.1147 103.838 57.024C104.381 57.9333 104.652 58.9673 104.652 60.126C104.652 61.2847 104.381 62.326 103.838 63.25C103.31 64.1593 102.569 64.8707 101.616 65.384C100.663 65.8973 99.5845 66.154 98.3819 66.154ZM98.3819 63.8C99.3939 63.8 100.23 63.4627 100.89 62.788C101.55 62.1133 101.88 61.226 101.88 60.126C101.88 59.026 101.55 58.1387 100.89 57.464C100.23 56.7893 99.3939 56.452 98.3819 56.452C97.3699 56.452 96.5339 56.7893 95.8739 57.464C95.2285 58.1387 94.9059 59.026 94.9059 60.126C94.9059 61.226 95.2285 62.1133 95.8739 62.788C96.5339 63.4627 97.3699 63.8 98.3819 63.8ZM113.794 54.12C114.938 54.12 115.957 54.3693 116.852 54.868C117.761 55.3667 118.472 56.0707 118.986 56.98C119.499 57.8893 119.756 58.938 119.756 60.126C119.756 61.314 119.499 62.37 118.986 63.294C118.472 64.2033 117.761 64.9073 116.852 65.406C115.957 65.9047 114.938 66.154 113.794 66.154C112.21 66.154 110.956 65.626 110.032 64.57V70.268H107.282V54.252H109.9V55.792C110.354 55.2347 110.912 54.8167 111.572 54.538C112.246 54.2593 112.987 54.12 113.794 54.12ZM113.486 63.8C114.498 63.8 115.326 63.4627 115.972 62.788C116.632 62.1133 116.962 61.226 116.962 60.126C116.962 59.026 116.632 58.1387 115.972 57.464C115.326 56.7893 114.498 56.452 113.486 56.452C112.826 56.452 112.232 56.606 111.704 56.914C111.176 57.2073 110.758 57.6327 110.45 58.19C110.142 58.7473 109.988 59.3927 109.988 60.126C109.988 60.8593 110.142 61.5047 110.45 62.062C110.758 62.6193 111.176 63.052 111.704 63.36C112.232 63.6533 112.826 63.8 113.486 63.8Z" fill="#5B86E5"/>
<path d="M73.1763 15.6443C70.9799 11.6476 68.4234 6.5947 67.8593 4.39831C67.6913 3.75019 67.7033 3.21009 68.3034 2.718C68.8195 2.28593 69.4556 2.30993 69.8157 2.53797C70.3438 2.88603 70.2238 3.65417 70.1038 4.07425C69.9477 4.65035 69.6837 4.81838 69.4796 4.9024L70.3558 7.11079C71.0519 6.83474 71.9761 6.18663 72.3962 4.71036C72.8883 2.94604 72.4082 1.38576 71.1119 0.545612C69.8277 -0.29454 68.0514 -0.150514 66.7912 0.881672C65.927 1.5898 65.0148 2.87403 65.5549 4.98641C66.3111 7.93894 69.6717 14.2281 71.0879 16.7845C71.0999 16.7965 71.0999 16.8205 71.0879 16.8325L63.9346 33.5876C63.9226 33.6116 63.8866 33.6356 63.8506 33.6236L51.4164 28.3186C51.3804 28.3066 51.3684 28.2706 51.3804 28.2346L58.5577 11.4316C58.5577 11.4196 58.5697 11.4076 58.5937 11.3956L65.5669 9.22318L64.8588 6.96677L57.8615 9.13916L57.8375 9.15116C57.1774 9.3672 56.6493 9.85929 56.3733 10.4954L49.196 27.2984C48.6679 28.5347 49.244 29.9629 50.4802 30.491L62.9265 35.808C63.2385 35.94 63.5626 36 63.8866 36C64.1987 36 64.4987 35.94 64.7988 35.82C65.3989 35.5799 65.879 35.1118 66.131 34.5117L73.2843 17.7567C73.5724 17.0846 73.5364 16.3045 73.1763 15.6443Z" fill="#5B86E5"/>
<path d="M62.6744 14.8162C62.2783 15.7283 62.7104 16.7845 63.6226 17.1806C64.5347 17.5767 65.5909 17.1446 65.987 16.2324C66.3831 15.3203 65.951 14.2641 65.0388 13.868C64.1267 13.4839 63.0705 13.904 62.6744 14.8162Z" fill="#5B86E5"/>
</svg>
