<svg width="213" height="32" viewBox="0 0 213 32" fill="none" xmlns="http://www.w3.org/2000/svg">
<path d="M50.434 23.154C49.4807 23.154 48.5493 23.0293 47.64 22.78C46.7307 22.5307 46.0047 22.2153 45.462 21.834L46.518 19.744C47.046 20.096 47.6767 20.382 48.41 20.602C49.158 20.8073 49.8913 20.91 50.61 20.91C52.2527 20.91 53.074 20.4773 53.074 19.612C53.074 19.2013 52.8613 18.9153 52.436 18.754C52.0253 18.5927 51.358 18.4387 50.434 18.292C49.466 18.1453 48.674 17.9767 48.058 17.786C47.4567 17.5953 46.9287 17.2653 46.474 16.796C46.034 16.312 45.814 15.6447 45.814 14.794C45.814 13.6793 46.276 12.792 47.2 12.132C48.1387 11.4573 49.4 11.12 50.984 11.12C51.7907 11.12 52.5973 11.2153 53.404 11.406C54.2107 11.582 54.8707 11.824 55.384 12.132L54.328 14.222C53.3307 13.6353 52.2087 13.342 50.962 13.342C50.1553 13.342 49.5393 13.4667 49.114 13.716C48.7033 13.9507 48.498 14.266 48.498 14.662C48.498 15.102 48.718 15.4173 49.158 15.608C49.6127 15.784 50.3093 15.9527 51.248 16.114C52.1867 16.2607 52.9567 16.4293 53.558 16.62C54.1593 16.8107 54.6727 17.1333 55.098 17.588C55.538 18.0427 55.758 18.688 55.758 19.524C55.758 20.624 55.2813 21.504 54.328 22.164C53.3747 22.824 52.0767 23.154 50.434 23.154ZM63.4063 23.154C62.2183 23.154 61.1476 22.8973 60.1943 22.384C59.2409 21.8707 58.4929 21.1593 57.9503 20.25C57.4223 19.326 57.1583 18.2847 57.1583 17.126C57.1583 15.9673 57.4223 14.9333 57.9503 14.024C58.4929 13.1147 59.2409 12.4033 60.1943 11.89C61.1476 11.3767 62.2183 11.12 63.4063 11.12C64.6089 11.12 65.6869 11.3767 66.6403 11.89C67.5936 12.4033 68.3343 13.1147 68.8623 14.024C69.4049 14.9333 69.6763 15.9673 69.6763 17.126C69.6763 18.2847 69.4049 19.326 68.8623 20.25C68.3343 21.1593 67.5936 21.8707 66.6403 22.384C65.6869 22.8973 64.6089 23.154 63.4063 23.154ZM63.4063 20.8C64.4183 20.8 65.2543 20.4627 65.9143 19.788C66.5743 19.1133 66.9043 18.226 66.9043 17.126C66.9043 16.026 66.5743 15.1387 65.9143 14.464C65.2543 13.7893 64.4183 13.452 63.4063 13.452C62.3943 13.452 61.5583 13.7893 60.8983 14.464C60.2529 15.1387 59.9303 16.026 59.9303 17.126C59.9303 18.226 60.2529 19.1133 60.8983 19.788C61.5583 20.4627 62.3943 20.8 63.4063 20.8ZM77.696 23.154C76.4786 23.154 75.386 22.8973 74.418 22.384C73.45 21.8707 72.6946 21.1593 72.152 20.25C71.6093 19.326 71.338 18.2847 71.338 17.126C71.338 15.9673 71.6093 14.9333 72.152 14.024C72.6946 13.1147 73.4426 12.4033 74.396 11.89C75.364 11.3767 76.464 11.12 77.696 11.12C78.8546 11.12 79.8666 11.3547 80.732 11.824C81.612 12.2933 82.272 12.968 82.712 13.848L80.6 15.08C80.2626 14.5373 79.8373 14.134 79.324 13.87C78.8253 13.5913 78.2753 13.452 77.674 13.452C76.6473 13.452 75.7966 13.7893 75.122 14.464C74.4473 15.124 74.11 16.0113 74.11 17.126C74.11 18.2407 74.44 19.1353 75.1 19.81C75.7746 20.47 76.6326 20.8 77.674 20.8C78.2753 20.8 78.8253 20.668 79.324 20.404C79.8373 20.1253 80.2626 19.7147 80.6 19.172L82.712 20.404C82.2573 21.284 81.59 21.966 80.71 22.45C79.8446 22.9193 78.84 23.154 77.696 23.154ZM85.0892 11.252H87.8392V23H85.0892V11.252ZM86.4752 9.316C85.9765 9.316 85.5585 9.162 85.2212 8.854C84.8838 8.53133 84.7152 8.13533 84.7152 7.666C84.7152 7.19667 84.8838 6.808 85.2212 6.5C85.5585 6.17733 85.9765 6.016 86.4752 6.016C86.9738 6.016 87.3918 6.17 87.7292 6.478C88.0665 6.77133 88.2352 7.14533 88.2352 7.6C88.2352 8.084 88.0665 8.49467 87.7292 8.832C87.4065 9.15467 86.9885 9.316 86.4752 9.316ZM95.9365 11.12C97.6672 11.12 98.9872 11.538 99.8965 12.374C100.821 13.1953 101.283 14.442 101.283 16.114V23H98.6865V21.57C98.3492 22.0833 97.8652 22.4793 97.2345 22.758C96.6185 23.022 95.8705 23.154 94.9905 23.154C94.1105 23.154 93.3405 23.0073 92.6805 22.714C92.0205 22.406 91.5072 21.988 91.1405 21.46C90.7885 20.9173 90.6125 20.3087 90.6125 19.634C90.6125 18.578 91.0012 17.7347 91.7785 17.104C92.5705 16.4587 93.8099 16.136 95.4965 16.136H98.5325V15.96C98.5325 15.1387 98.2832 14.508 97.7845 14.068C97.3005 13.628 96.5745 13.408 95.6065 13.408C94.9465 13.408 94.2939 13.5107 93.6485 13.716C93.0179 13.9213 92.4825 14.2073 92.0425 14.574L90.9645 12.572C91.5805 12.1027 92.3212 11.7433 93.1865 11.494C94.0519 11.2447 94.9685 11.12 95.9365 11.12ZM95.5625 21.152C96.2519 21.152 96.8605 20.998 97.3885 20.69C97.9312 20.3673 98.3125 19.9127 98.5325 19.326V17.962H95.6945C94.1105 17.962 93.3185 18.4827 93.3185 19.524C93.3185 20.0227 93.5165 20.4187 93.9125 20.712C94.3085 21.0053 94.8585 21.152 95.5625 21.152ZM104.812 6.676H107.562V23H104.812V6.676ZM113.789 12.968C114.581 11.736 115.975 11.12 117.969 11.12V13.738C117.735 13.694 117.522 13.672 117.331 13.672C116.261 13.672 115.425 13.9873 114.823 14.618C114.222 15.234 113.921 16.1287 113.921 17.302V23H111.171V11.252H113.789V12.968ZM131.239 17.192C131.239 17.3827 131.224 17.654 131.195 18.006H121.977C122.138 18.8713 122.556 19.5607 123.231 20.074C123.92 20.5727 124.771 20.822 125.783 20.822C127.073 20.822 128.137 20.3967 128.973 19.546L130.447 21.24C129.919 21.8707 129.251 22.3473 128.445 22.67C127.638 22.9927 126.729 23.154 125.717 23.154C124.426 23.154 123.289 22.8973 122.307 22.384C121.324 21.8707 120.561 21.1593 120.019 20.25C119.491 19.326 119.227 18.2847 119.227 17.126C119.227 15.982 119.483 14.9553 119.997 14.046C120.525 13.122 121.251 12.4033 122.175 11.89C123.099 11.3767 124.14 11.12 125.299 11.12C126.443 11.12 127.462 11.3767 128.357 11.89C129.266 12.3887 129.97 13.1 130.469 14.024C130.982 14.9333 131.239 15.9893 131.239 17.192ZM125.299 13.32C124.419 13.32 123.671 13.584 123.055 14.112C122.453 14.6253 122.087 15.3147 121.955 16.18H128.621C128.503 15.3293 128.144 14.64 127.543 14.112C126.941 13.584 126.193 13.32 125.299 13.32ZM140.392 11.12C141.536 11.12 142.556 11.3693 143.45 11.868C144.36 12.3667 145.071 13.0707 145.584 13.98C146.098 14.8893 146.354 15.938 146.354 17.126C146.354 18.314 146.098 19.37 145.584 20.294C145.071 21.2033 144.36 21.9073 143.45 22.406C142.556 22.9047 141.536 23.154 140.392 23.154C138.808 23.154 137.554 22.626 136.63 21.57V27.268H133.88V11.252H136.498V12.792C136.953 12.2347 137.51 11.8167 138.17 11.538C138.845 11.2593 139.586 11.12 140.392 11.12ZM140.084 20.8C141.096 20.8 141.925 20.4627 142.57 19.788C143.23 19.1133 143.56 18.226 143.56 17.126C143.56 16.026 143.23 15.1387 142.57 14.464C141.925 13.7893 141.096 13.452 140.084 13.452C139.424 13.452 138.83 13.606 138.302 13.914C137.774 14.2073 137.356 14.6327 137.048 15.19C136.74 15.7473 136.586 16.3927 136.586 17.126C136.586 17.8593 136.74 18.5047 137.048 19.062C137.356 19.6193 137.774 20.052 138.302 20.36C138.83 20.6533 139.424 20.8 140.084 20.8ZM148.962 6.676H151.712V23H148.962V6.676ZM166.322 11.252L160.822 23.946C160.308 25.222 159.685 26.1167 158.952 26.63C158.218 27.158 157.331 27.422 156.29 27.422C155.703 27.422 155.124 27.3267 154.552 27.136C153.98 26.9453 153.51 26.6813 153.144 26.344L154.244 24.32C154.508 24.5693 154.816 24.7673 155.168 24.914C155.534 25.0607 155.901 25.134 156.268 25.134C156.752 25.134 157.148 25.0093 157.456 24.76C157.778 24.5107 158.072 24.0927 158.336 23.506L158.534 23.044L153.408 11.252H156.268L159.964 19.942L163.682 11.252H166.322Z" fill="#5B86E5"/>
<path d="M29.2286 9.91826H25.996C24.939 9.91826 24.0786 9.02427 24.0786 7.92593V2L16.5809 9.79055C16.2245 10.1609 15.7328 10.378 15.2289 10.378H10.8163C8.64076 10.3653 6.85853 12.2171 6.85853 14.4904V17.0575H8.89888V14.4904C8.89888 13.3921 9.75926 12.4981 10.8163 12.4981H15.2289C16.2859 12.4981 17.2815 12.0639 18.0313 11.2976L22.0382 7.1341V7.92593C22.0382 10.1992 23.8205 12.0383 25.996 12.0383H29.2286C30.2857 12.0383 31.1461 12.9323 31.1461 14.0307V19.7522C31.1461 20.8506 30.2857 21.7446 29.2286 21.7446H14.4914C13.4344 21.7446 12.4388 22.1788 11.689 22.9451L7.91557 26.8659V26.6871C7.91557 24.4138 6.13334 22.5747 3.95779 22.5747C2.90074 22.5747 2.04035 21.6807 2.04035 20.5824V9.82886C2.04035 8.73052 2.90074 7.83653 3.95779 7.83653H13.25V5.71648H3.95779C1.78223 5.71648 0 7.56833 0 9.82886V20.5824C0 22.8557 1.78223 24.6948 3.95779 24.6948C5.01484 24.6948 5.87522 25.5888 5.87522 26.6871V32L13.1394 24.4521C13.4958 24.0817 13.9875 23.8646 14.4914 23.8646H29.2163C31.4042 23.8646 33.1741 22.0128 33.1741 19.7522V14.0307C33.1864 11.7573 31.4042 9.91826 29.2286 9.91826Z" fill="#5B86E5"/>
<path d="M16.2122 17.0064C16.2122 16.1124 15.5116 15.3972 14.6635 15.3972C13.8031 15.3972 13.1148 16.1252 13.1148 17.0064C13.1148 17.8876 13.8154 18.6156 14.6635 18.6156C15.5116 18.6156 16.2122 17.8876 16.2122 17.0064Z" fill="#5B86E5"/>
<path d="M21.5589 17.0064C21.5589 16.1124 20.8583 15.3972 20.0102 15.3972C19.1498 15.3972 18.4615 16.1252 18.4615 17.0064C18.4615 17.8876 19.1621 18.6156 20.0102 18.6156C20.8583 18.6156 21.5589 17.8876 21.5589 17.0064Z" fill="#5B86E5"/>
<path d="M25.3569 18.6156C26.2122 18.6156 26.9056 17.8951 26.9056 17.0064C26.9056 16.1177 26.2122 15.3972 25.3569 15.3972C24.5016 15.3972 23.8082 16.1177 23.8082 17.0064C23.8082 17.8951 24.5016 18.6156 25.3569 18.6156Z" fill="#5B86E5"/>
</svg>