<svg width="133" height="71" viewBox="0 0 133 71" fill="none" xmlns="http://www.w3.org/2000/svg">
<path d="M11.3158 65.154C10.3625 65.154 9.43117 65.0293 8.52184 64.78C7.6125 64.5307 6.8865 64.2153 6.34384 63.834L7.39984 61.744C7.92784 62.096 8.5585 62.382 9.29184 62.602C10.0398 62.8073 10.7732 62.91 11.4918 62.91C13.1345 62.91 13.9558 62.4773 13.9558 61.612C13.9558 61.2013 13.7432 60.9153 13.3178 60.754C12.9072 60.5927 12.2398 60.4387 11.3158 60.292C10.3478 60.1453 9.55584 59.9767 8.93984 59.786C8.3385 59.5953 7.8105 59.2653 7.35584 58.796C6.91584 58.312 6.69584 57.6447 6.69584 56.794C6.69584 55.6793 7.15784 54.792 8.08184 54.132C9.0205 53.4573 10.2818 53.12 11.8658 53.12C12.6725 53.12 13.4792 53.2153 14.2858 53.406C15.0925 53.582 15.7525 53.824 16.2658 54.132L15.2098 56.222C14.2125 55.6353 13.0905 55.342 11.8438 55.342C11.0372 55.342 10.4212 55.4667 9.99584 55.716C9.58517 55.9507 9.37984 56.266 9.37984 56.662C9.37984 57.102 9.59984 57.4173 10.0398 57.608C10.4945 57.784 11.1912 57.9527 12.1298 58.114C13.0685 58.2607 13.8385 58.4293 14.4398 58.62C15.0412 58.8107 15.5545 59.1333 15.9798 59.588C16.4198 60.0427 16.6398 60.688 16.6398 61.524C16.6398 62.624 16.1632 63.504 15.2098 64.164C14.2565 64.824 12.9585 65.154 11.3158 65.154ZM24.2881 65.154C23.1001 65.154 22.0294 64.8973 21.0761 64.384C20.1228 63.8707 19.3748 63.1593 18.8321 62.25C18.3041 61.326 18.0401 60.2847 18.0401 59.126C18.0401 57.9673 18.3041 56.9333 18.8321 56.024C19.3748 55.1147 20.1228 54.4033 21.0761 53.89C22.0294 53.3767 23.1001 53.12 24.2881 53.12C25.4908 53.12 26.5688 53.3767 27.5221 53.89C28.4754 54.4033 29.2161 55.1147 29.7441 56.024C30.2868 56.9333 30.5581 57.9673 30.5581 59.126C30.5581 60.2847 30.2868 61.326 29.7441 62.25C29.2161 63.1593 28.4754 63.8707 27.5221 64.384C26.5688 64.8973 25.4908 65.154 24.2881 65.154ZM24.2881 62.8C25.3001 62.8 26.1361 62.4627 26.7961 61.788C27.4561 61.1133 27.7861 60.226 27.7861 59.126C27.7861 58.026 27.4561 57.1387 26.7961 56.464C26.1361 55.7893 25.3001 55.452 24.2881 55.452C23.2761 55.452 22.4401 55.7893 21.7801 56.464C21.1348 57.1387 20.8121 58.026 20.8121 59.126C20.8121 60.226 21.1348 61.1133 21.7801 61.788C22.4401 62.4627 23.2761 62.8 24.2881 62.8ZM38.5778 65.154C37.3605 65.154 36.2678 64.8973 35.2998 64.384C34.3318 63.8707 33.5765 63.1593 33.0338 62.25C32.4911 61.326 32.2198 60.2847 32.2198 59.126C32.2198 57.9673 32.4911 56.9333 33.0338 56.024C33.5765 55.1147 34.3245 54.4033 35.2778 53.89C36.2458 53.3767 37.3458 53.12 38.5778 53.12C39.7365 53.12 40.7485 53.3547 41.6138 53.824C42.4938 54.2933 43.1538 54.968 43.5938 55.848L41.4818 57.08C41.1445 56.5373 40.7191 56.134 40.2058 55.87C39.7071 55.5913 39.1571 55.452 38.5558 55.452C37.5291 55.452 36.6785 55.7893 36.0038 56.464C35.3291 57.124 34.9918 58.0113 34.9918 59.126C34.9918 60.2407 35.3218 61.1353 35.9818 61.81C36.6565 62.47 37.5145 62.8 38.5558 62.8C39.1571 62.8 39.7071 62.668 40.2058 62.404C40.7191 62.1253 41.1445 61.7147 41.4818 61.172L43.5938 62.404C43.1391 63.284 42.4718 63.966 41.5918 64.45C40.7265 64.9193 39.7218 65.154 38.5778 65.154ZM45.971 53.252H48.721V65H45.971V53.252ZM47.357 51.316C46.8583 51.316 46.4403 51.162 46.103 50.854C45.7657 50.5313 45.597 50.1353 45.597 49.666C45.597 49.1967 45.7657 48.808 46.103 48.5C46.4403 48.1773 46.8583 48.016 47.357 48.016C47.8557 48.016 48.2737 48.17 48.611 48.478C48.9483 48.7713 49.117 49.1453 49.117 49.6C49.117 50.084 48.9483 50.4947 48.611 50.832C48.2883 51.1547 47.8703 51.316 47.357 51.316ZM56.8184 53.12C58.549 53.12 59.869 53.538 60.7784 54.374C61.7024 55.1953 62.1644 56.442 62.1644 58.114V65H59.5684V63.57C59.231 64.0833 58.747 64.4793 58.1164 64.758C57.5004 65.022 56.7524 65.154 55.8724 65.154C54.9924 65.154 54.2224 65.0073 53.5624 64.714C52.9024 64.406 52.389 63.988 52.0224 63.46C51.6704 62.9173 51.4944 62.3087 51.4944 61.634C51.4944 60.578 51.883 59.7347 52.6604 59.104C53.4524 58.4587 54.6917 58.136 56.3784 58.136H59.4144V57.96C59.4144 57.1387 59.165 56.508 58.6664 56.068C58.1824 55.628 57.4564 55.408 56.4884 55.408C55.8284 55.408 55.1757 55.5107 54.5304 55.716C53.8997 55.9213 53.3644 56.2073 52.9244 56.574L51.8464 54.572C52.4624 54.1027 53.203 53.7433 54.0684 53.494C54.9337 53.2447 55.8504 53.12 56.8184 53.12ZM56.4444 63.152C57.1337 63.152 57.7424 62.998 58.2704 62.69C58.813 62.3673 59.1944 61.9127 59.4144 61.326V59.962H56.5764C54.9924 59.962 54.2004 60.4827 54.2004 61.524C54.2004 62.0227 54.3984 62.4187 54.7944 62.712C55.1904 63.0053 55.7404 63.152 56.4444 63.152ZM65.6936 48.676H68.4436V65H65.6936V48.676ZM74.671 54.968C75.463 53.736 76.8564 53.12 78.851 53.12V55.738C78.6164 55.694 78.4037 55.672 78.213 55.672C77.1424 55.672 76.3064 55.9873 75.705 56.618C75.1037 57.234 74.803 58.1287 74.803 59.302V65H72.053V53.252H74.671V54.968ZM92.1205 59.192C92.1205 59.3827 92.1058 59.654 92.0765 60.006H82.8585C83.0198 60.8713 83.4378 61.5607 84.1125 62.074C84.8018 62.5727 85.6525 62.822 86.6645 62.822C87.9551 62.822 89.0185 62.3967 89.8545 61.546L91.3285 63.24C90.8005 63.8707 90.1331 64.3473 89.3265 64.67C88.5198 64.9927 87.6105 65.154 86.5985 65.154C85.3078 65.154 84.1711 64.8973 83.1885 64.384C82.2058 63.8707 81.4431 63.1593 80.9005 62.25C80.3725 61.326 80.1085 60.2847 80.1085 59.126C80.1085 57.982 80.3651 56.9553 80.8785 56.046C81.4065 55.122 82.1325 54.4033 83.0565 53.89C83.9805 53.3767 85.0218 53.12 86.1805 53.12C87.3245 53.12 88.3438 53.3767 89.2385 53.89C90.1478 54.3887 90.8518 55.1 91.3505 56.024C91.8638 56.9333 92.1205 57.9893 92.1205 59.192ZM86.1805 55.32C85.3005 55.32 84.5525 55.584 83.9365 56.112C83.3351 56.6253 82.9685 57.3147 82.8365 58.18H89.5025C89.3851 57.3293 89.0258 56.64 88.4245 56.112C87.8231 55.584 87.0751 55.32 86.1805 55.32ZM101.274 53.12C102.418 53.12 103.437 53.3693 104.332 53.868C105.241 54.3667 105.953 55.0707 106.466 55.98C106.979 56.8893 107.236 57.938 107.236 59.126C107.236 60.314 106.979 61.37 106.466 62.294C105.953 63.2033 105.241 63.9073 104.332 64.406C103.437 64.9047 102.418 65.154 101.274 65.154C99.69 65.154 98.436 64.626 97.512 63.57V69.268H94.762V53.252H97.38V54.792C97.8347 54.2347 98.392 53.8167 99.052 53.538C99.7267 53.2593 100.467 53.12 101.274 53.12ZM100.966 62.8C101.978 62.8 102.807 62.4627 103.452 61.788C104.112 61.1133 104.442 60.226 104.442 59.126C104.442 58.026 104.112 57.1387 103.452 56.464C102.807 55.7893 101.978 55.452 100.966 55.452C100.306 55.452 99.712 55.606 99.184 55.914C98.656 56.2073 98.238 56.6327 97.93 57.19C97.622 57.7473 97.468 58.3927 97.468 59.126C97.468 59.8593 97.622 60.5047 97.93 61.062C98.238 61.6193 98.656 62.052 99.184 62.36C99.712 62.6533 100.306 62.8 100.966 62.8ZM109.844 48.676H112.594V65H109.844V48.676ZM127.203 53.252L121.703 65.946C121.19 67.222 120.567 68.1167 119.833 68.63C119.1 69.158 118.213 69.422 117.171 69.422C116.585 69.422 116.005 69.3267 115.433 69.136C114.861 68.9453 114.392 68.6813 114.025 68.344L115.125 66.32C115.389 66.5693 115.697 66.7673 116.049 66.914C116.416 67.0607 116.783 67.134 117.149 67.134C117.633 67.134 118.029 67.0093 118.337 66.76C118.66 66.5107 118.953 66.0927 119.217 65.506L119.415 65.044L114.289 53.252H117.149L120.845 61.942L124.563 53.252H127.203Z" fill="#5B86E5"/>
<path d="M81.1258 8.97403H77.4622C76.2642 8.97403 75.2891 7.96083 75.2891 6.71605V0L66.7917 8.82929C66.3877 9.24904 65.8305 9.4951 65.2594 9.4951H60.2585C57.7929 9.48063 55.773 11.5794 55.773 14.1558V17.0651H58.0854V14.1558C58.0854 12.911 59.0605 11.8978 60.2585 11.8978H65.2594C66.4574 11.8978 67.5857 11.4057 68.4355 10.5373L72.9767 5.81865V6.71605C72.9767 9.29247 74.9965 11.3768 77.4622 11.3768H81.1258C82.3238 11.3768 83.2989 12.39 83.2989 13.6347V20.1192C83.2989 21.364 82.3238 22.3772 81.1258 22.3772H64.4236C63.2256 22.3772 62.0973 22.8693 61.2475 23.7378L56.971 28.1814V27.9787C56.971 25.4023 54.9511 23.318 52.4855 23.318C51.2875 23.318 50.3124 22.3048 50.3124 21.06V8.87271C50.3124 7.62793 51.2875 6.61473 52.4855 6.61473H63.0166V4.21201H52.4855C50.0199 4.21201 48 6.31077 48 8.87271V21.06C48 23.6364 50.0199 25.7207 52.4855 25.7207C53.6835 25.7207 54.6586 26.7339 54.6586 27.9787V34L62.8913 25.4457C63.2952 25.026 63.8525 24.7799 64.4236 24.7799H81.1118C83.5914 24.7799 85.5973 22.6811 85.5973 20.1192V13.6347C85.6113 11.0583 83.5914 8.97403 81.1258 8.97403Z" fill="#5B86E5"/>
<path d="M66.3738 17.0072C66.3738 15.994 65.5798 15.1835 64.6186 15.1835C63.6435 15.1835 62.8634 16.0085 62.8634 17.0072C62.8634 18.006 63.6574 18.831 64.6186 18.831C65.5798 18.831 66.3738 18.006 66.3738 17.0072Z" fill="#5B86E5"/>
<path d="M72.4334 17.0072C72.4334 15.994 71.6394 15.1835 70.6782 15.1835C69.7031 15.1835 68.923 16.0085 68.923 17.0072C68.923 18.006 69.717 18.831 70.6782 18.831C71.6394 18.831 72.4334 18.006 72.4334 17.0072Z" fill="#5B86E5"/>
<path d="M76.7378 18.831C77.7072 18.831 78.493 18.0145 78.493 17.0072C78.493 16 77.7072 15.1835 76.7378 15.1835C75.7684 15.1835 74.9826 16 74.9826 17.0072C74.9826 18.0145 75.7684 18.831 76.7378 18.831Z" fill="#5B86E5"/>
</svg>
