<svg width="35" height="35" viewBox="0 0 35 35" fill="none" xmlns="http://www.w3.org/2000/svg">
<rect width="35" height="35" rx="4" fill="#5B86E5"/>
<path d="M26.2032 8.95314C25.8523 8.70564 25.3771 8.73475 25.07 9.01137L15.2376 17.4264C15.201 17.4555 15.1498 17.4627 15.106 17.4409L9.74747 15.1989L23.8931 9.49909L23.4471 8.3999L9.12609 14.1652C8.7167 14.318 8.4316 14.6893 8.40236 15.1261C8.37312 15.5701 8.60705 15.985 9.00181 16.1816L14.5796 18.5183C15.0548 18.7512 15.6396 18.6638 16.0198 18.3217L24.9969 10.642L19.1998 24.9241L16.7581 19.5228C16.6192 19.2244 16.3414 19.0133 16.0198 18.955C15.6981 18.8968 15.3692 18.9914 15.1352 19.2098L10.9171 22.9223L11.7067 23.8177L15.7712 20.2435L18.2129 25.6375L18.2275 25.6666C18.4176 26.0379 18.7904 26.2635 19.2071 26.2635C19.2217 26.2635 19.2437 26.2635 19.2583 26.2635C19.6969 26.2417 20.0697 25.9796 20.2306 25.5793L26.5321 10.0523C26.693 9.65196 26.5614 9.20064 26.2032 8.95314Z" fill="white"/>
<path d="M14.6193 21.7329L10.1063 25.7055L10.9003 26.5999L15.4133 22.6273L14.6193 21.7329Z" fill="white"/>
<path d="M13.4748 18.5899L11.7329 20.1228L12.5268 21.0173L14.2687 19.4844L13.4748 18.5899Z" fill="white"/>
</svg>
