<svg width="35" height="35" viewBox="0 0 35 35" fill="none" xmlns="http://www.w3.org/2000/svg">
<rect width="35" height="35" rx="4" fill="#5B86E5"/>
<path d="M25.432 13.2036H23.4709C22.8296 13.2036 22.3076 12.6613 22.3076 11.995V8.3999L17.759 13.1262C17.5428 13.3509 17.2445 13.4826 16.9388 13.4826H14.2618C12.942 13.4748 11.8608 14.5983 11.8608 15.9774V17.5348H13.0986V15.9774C13.0986 15.3111 13.6206 14.7687 14.2618 14.7687H16.9388C17.5801 14.7687 18.1841 14.5053 18.6389 14.0404L21.0698 11.5146V11.995C21.0698 13.3741 22.151 14.4898 23.4709 14.4898H25.432C26.0733 14.4898 26.5952 15.0322 26.5952 15.6985V19.1696C26.5952 19.8359 26.0733 20.3783 25.432 20.3783H16.4914C15.8501 20.3783 15.2461 20.6417 14.7913 21.1066L12.5021 23.4852V23.3767C12.5021 21.9976 11.4208 20.8819 10.101 20.8819C9.45973 20.8819 8.93776 20.3395 8.93776 19.6732V13.1494C8.93776 12.4831 9.45973 11.9407 10.101 11.9407H15.7383V10.6546H10.101C8.78117 10.6546 7.69995 11.778 7.69995 13.1494V19.6732C7.69995 21.0524 8.78117 22.1681 10.101 22.1681C10.7423 22.1681 11.2643 22.7104 11.2643 23.3767V26.5999L15.6712 22.0208C15.8874 21.7962 16.1857 21.6644 16.4914 21.6644H25.4245C26.7518 21.6644 27.8256 20.541 27.8256 19.1696V15.6985C27.833 14.3194 26.7518 13.2036 25.432 13.2036Z" fill="white"/>
<path d="M17.5353 17.5038C17.5353 16.9614 17.1103 16.5275 16.5958 16.5275C16.0738 16.5275 15.6563 16.9692 15.6563 17.5038C15.6563 18.0384 16.0813 18.48 16.5958 18.48C17.1103 18.48 17.5353 18.0384 17.5353 17.5038Z" fill="white"/>
<path d="M20.779 17.5038C20.779 16.9614 20.354 16.5275 19.8395 16.5275C19.3175 16.5275 18.8999 16.9692 18.8999 17.5038C18.8999 18.0384 19.3249 18.48 19.8395 18.48C20.354 18.48 20.779 18.0384 20.779 17.5038Z" fill="white"/>
<path d="M23.0831 18.48C23.602 18.48 24.0227 18.0429 24.0227 17.5038C24.0227 16.9646 23.602 16.5275 23.0831 16.5275C22.5642 16.5275 22.1436 16.9646 22.1436 17.5038C22.1436 18.0429 22.5642 18.48 23.0831 18.48Z" fill="white"/>
</svg>
