<svg width="19" height="22" viewBox="0 0 19 22" fill="none" xmlns="http://www.w3.org/2000/svg">
<g clip-path="url(#clip0)">
<path d="M12.052 21.565L12.9634 2.92731C12.8536 2.90985 12.7365 2.93094 12.6783 2.9484C12.6644 2.95277 12.4317 3.02405 12.0469 3.14334C11.6701 2.05881 11.0053 1.06303 9.83493 1.06303C9.80292 1.06303 9.76946 1.06448 9.736 1.06594C9.40286 0.625872 8.99116 0.43457 8.63475 0.43457C5.90998 0.43457 4.60796 3.8409 4.1999 5.57279C3.14083 5.90084 2.38872 6.13433 2.29271 6.16415C1.70135 6.34964 1.68316 6.36855 1.60533 6.925C1.54641 7.34688 0 19.3072 0 19.3072L12.052 21.565L18.581 20.1524L12.052 21.565ZM9.64653 3.76743C9.64653 3.80889 9.64653 3.84672 9.64581 3.88527C8.98244 4.09039 8.26233 4.3137 7.54004 4.53773C7.94592 2.9724 8.70603 2.21666 9.37013 1.93152C9.53743 2.35195 9.64653 2.95422 9.64653 3.76743ZM8.55983 1.16559C8.67766 1.16559 8.79623 1.20559 8.90897 1.28342C8.03538 1.6944 7.09924 2.72946 6.70428 4.79668C6.12673 4.97561 5.56156 5.15018 5.0393 5.31239C5.50337 3.73543 6.60244 1.16559 8.55983 1.16559ZM9.02971 10.3801C9.02971 10.3801 8.32415 10.0033 7.4593 10.0033C6.19147 10.0033 6.12746 10.799 6.12746 10.9991C6.12746 12.093 8.9788 12.512 8.9788 15.0739C8.9788 17.0894 7.70006 18.3878 5.97617 18.3878C3.90749 18.3878 2.84988 17.1003 2.84988 17.1003L3.40342 15.2702C3.40342 15.2702 4.49085 16.2042 5.40881 16.2042C6.00817 16.2042 6.25257 15.7321 6.25257 15.3874C6.25257 13.9602 3.91331 13.8969 3.91331 11.5526C3.91331 9.57921 5.32952 7.66983 8.18886 7.66983C9.29084 7.66983 9.83493 7.98552 9.83493 7.98552L9.02971 10.3801ZM10.3601 3.66487C10.3601 3.59286 10.3608 3.52231 10.3608 3.4452C10.3608 2.77165 10.267 2.22902 10.1171 1.79841C10.7201 1.87406 11.1217 2.55998 11.3799 3.34919C11.0773 3.44302 10.7332 3.54922 10.3601 3.66487Z" fill="white"/>
<path d="M12.27 21.5652L18.799 20.1526C18.799 20.1526 16.507 4.65503 16.4925 4.54883C16.4779 4.44263 16.3848 4.38371 16.3077 4.37717C16.2313 4.37062 14.6071 4.2506 14.6071 4.2506C14.6071 4.2506 13.4789 3.13043 13.3553 3.00678C13.3415 2.99296 13.3255 2.98132 13.3087 2.97187C13.3036 2.96823 13.2978 2.96605 13.292 2.96314C13.2804 2.95659 13.268 2.9515 13.2549 2.94713C13.2483 2.94495 13.2425 2.94277 13.236 2.94059C13.2193 2.9355 13.2025 2.93186 13.1858 2.92895C13.1843 2.92895 13.1822 2.92822 13.1807 2.92822L12.27 21.5652Z" fill="white"/>
</g>
<defs>
<clipPath id="clip0">
<rect width="18.7992" height="21.1304" fill="white" transform="translate(0 0.43457)"/>
</clipPath>
</defs>
</svg>
