<svg width="35" height="35" viewBox="0 0 35 35" fill="none" xmlns="http://www.w3.org/2000/svg">
<rect width="35" height="35" rx="4" fill="#5B86E5"/>
<path d="M24.1028 16.1259C22.8216 13.7944 21.3303 10.8469 21.0013 9.56568C20.9033 9.18761 20.9103 8.87255 21.2603 8.5855C21.5614 8.33346 21.9325 8.34746 22.1425 8.48048C22.4505 8.68352 22.3805 9.1316 22.3105 9.37664C22.2195 9.7127 22.0655 9.81072 21.9465 9.85973L22.4575 11.148C22.8636 10.9869 23.4027 10.6089 23.6478 9.74771C23.9348 8.71853 23.6548 7.80836 22.8986 7.31827C22.1495 6.82819 21.1133 6.9122 20.3782 7.51431C19.8741 7.92738 19.342 8.67652 19.657 9.90874C20.0981 11.6311 22.0585 15.2997 22.8846 16.791C22.8916 16.798 22.8916 16.812 22.8846 16.819L18.7119 26.5927C18.7049 26.6067 18.6839 26.6208 18.6629 26.6137L11.4096 23.5192C11.3886 23.5122 11.3816 23.4912 11.3886 23.4702L15.5753 13.6684C15.5753 13.6614 15.5823 13.6544 15.5963 13.6474L19.664 12.3802L19.251 11.0639L15.1692 12.3312L15.1552 12.3382C14.7702 12.4642 14.4621 12.7513 14.3011 13.1223L10.1143 22.9241C9.80627 23.6452 10.1423 24.4784 10.8635 24.7864L18.1238 27.888C18.3058 27.965 18.4948 28 18.6839 28C18.8659 28 19.0409 27.965 19.216 27.895C19.566 27.755 19.8461 27.4819 19.9931 27.1318L24.1659 17.3581C24.3339 16.966 24.3129 16.5109 24.1028 16.1259Z" fill="white"/>
<path d="M17.9767 15.6428C17.7457 16.1749 17.9977 16.791 18.5298 17.022C19.0619 17.2531 19.678 17.001 19.9091 16.4689C20.1401 15.9368 19.8881 15.3207 19.356 15.0897C18.8239 14.8656 18.2078 15.1107 17.9767 15.6428Z" fill="white"/>
</svg>
