<svg width="65" height="18" viewBox="0 0 65 18" fill="none" xmlns="http://www.w3.org/2000/svg">
<path d="M13.9194 3.42239C13.9078 3.33344 13.828 3.28543 13.7612 3.27979C13.6958 3.27414 12.3064 3.1739 12.3064 3.1739C12.3064 3.1739 11.3408 2.24206 11.2363 2.13899C11.1303 2.03592 10.9241 2.06699 10.8428 2.08958C10.8312 2.0924 10.6323 2.15311 10.3027 2.25194C9.98185 1.35116 9.41271 0.522394 8.41234 0.522394C8.38476 0.522394 8.35572 0.523806 8.32813 0.525218C8.04356 0.159542 7.69074 0 7.38584 0C5.05554 0 3.94192 2.83363 3.59202 4.27375C2.68603 4.54624 2.04283 4.74108 1.96007 4.76508C1.45481 4.91897 1.43884 4.93451 1.37205 5.3976C1.32269 5.74916 0 15.6972 0 15.6972L10.3085 17.575L15.894 16.4003C15.8926 16.4003 13.9325 3.50992 13.9194 3.42239ZM9.73358 2.42419C9.47514 2.50184 9.1804 2.59079 8.86098 2.6868C8.86098 2.6275 8.86098 2.5682 8.86098 2.50467C8.86098 1.94415 8.78113 1.49235 8.65336 1.13515C9.16879 1.19727 9.51289 1.76767 9.73358 2.42419ZM8.01452 1.24527C8.15826 1.59401 8.25118 2.09664 8.25118 2.77292C8.25118 2.80822 8.25118 2.83928 8.25118 2.87176C7.68349 3.04259 7.06788 3.22755 6.44937 3.41392C6.79637 2.11075 7.44537 1.48247 8.01452 1.24527ZM7.32196 0.608518C7.42214 0.608518 7.52378 0.642403 7.62105 0.70735C6.87332 1.04761 6.07332 1.90886 5.73503 3.62852C5.24138 3.77677 4.7579 3.9236 4.31071 4.05773C4.70708 2.7461 5.64791 0.608518 7.32196 0.608518Z" fill="#95BE47"/>
<path d="M13.7627 3.27966C13.6973 3.27402 12.3079 3.17377 12.3079 3.17377C12.3079 3.17377 11.3438 2.24193 11.2378 2.13887C11.1986 2.10075 11.1449 2.08098 11.0883 2.07251L10.3086 17.5749L15.8926 16.4002C15.8926 16.4002 13.9326 3.5098 13.9195 3.42226C13.9079 3.33331 13.828 3.28531 13.7627 3.27966Z" fill="#5E8E3E"/>
<path d="M8.4121 6.28007L7.7239 8.27223C7.7239 8.27223 7.11991 7.95879 6.38089 7.95879C5.29631 7.95879 5.24259 8.62096 5.24259 8.78756C5.24259 9.69681 7.68179 10.0455 7.68179 12.1775C7.68179 13.8548 6.58851 14.9335 5.11337 14.9335C3.3435 14.9335 2.43896 13.8633 2.43896 13.8633L2.91229 12.3413C2.91229 12.3413 3.84296 13.1178 4.62699 13.1178C5.13951 13.1178 5.34858 12.7253 5.34858 12.4387C5.34858 11.2513 3.34786 11.199 3.34786 9.24925C3.34786 7.60865 4.55875 6.02029 7.00521 6.02029C7.94604 6.01746 8.4121 6.28007 8.4121 6.28007Z" fill="white"/>
<path d="M22.4045 10.0145C21.8469 9.72086 21.5609 9.47237 21.5609 9.1321C21.5609 8.69866 21.9587 8.42052 22.5802 8.42052C23.3032 8.42052 23.9493 8.71419 23.9493 8.71419L24.4589 7.19783C24.4589 7.19783 23.99 6.84204 22.6121 6.84204C20.6941 6.84204 19.3656 7.90942 19.3656 9.41165C19.3656 10.263 19.9856 10.9125 20.8132 11.377C21.4811 11.7483 21.7206 12.0123 21.7206 12.3992C21.7206 12.8016 21.3867 13.1263 20.7653 13.1263C19.8404 13.1263 18.9664 12.6618 18.9664 12.6618L18.4248 14.1781C18.4248 14.1781 19.2321 14.7048 20.5896 14.7048C22.5627 14.7048 23.9798 13.7602 23.9798 12.0589C23.9798 11.1454 23.264 10.4946 22.4045 10.0145Z" fill="black"/>
<path d="M30.2648 6.82654C29.2935 6.82654 28.5298 7.27551 27.9418 7.95604L27.9099 7.94051L28.7534 3.65405H26.5567L24.4238 14.565H26.6206L27.3523 10.8349C27.6383 9.4258 28.3861 8.56032 29.0873 8.56032C29.581 8.56032 29.7712 8.88505 29.7712 9.34956C29.7712 9.64323 29.7393 9.99902 29.6754 10.2941L28.8478 14.565H31.0445L31.904 10.1543C31.9999 9.68982 32.0638 9.13354 32.0638 8.76222C32.0638 7.55506 31.4118 6.82654 30.2648 6.82654Z" fill="black"/>
<path d="M37.0292 6.82642C34.3868 6.82642 32.6372 9.14754 32.6372 11.7327C32.6372 13.3888 33.6869 14.7188 35.6615 14.7188C38.2561 14.7188 40.0056 12.4598 40.0056 9.81253C40.0056 8.28206 39.0822 6.82642 37.0292 6.82642ZM35.9476 13.0796C35.1998 13.0796 34.8819 12.4598 34.8819 11.6861C34.8819 10.4634 35.5338 8.46702 36.7272 8.46702C37.5069 8.46702 37.761 9.11648 37.761 9.75182C37.761 11.0677 37.1091 13.0796 35.9476 13.0796Z" fill="black"/>
<path d="M45.623 6.82642C44.1406 6.82642 43.3 8.09569 43.3 8.09569H43.268L43.3958 6.95066H41.4546C41.3588 7.72437 41.1845 8.90046 41.0089 9.78288L39.4814 17.5976H41.6782L42.2836 14.4407H42.3315C42.3315 14.4407 42.7831 14.7188 43.6208 14.7188C46.1994 14.7188 47.8865 12.1506 47.8865 9.54992C47.8836 8.11122 47.2303 6.82642 45.623 6.82642ZM43.5221 13.1107C42.9515 13.1107 42.6147 12.8015 42.6147 12.8015L42.9805 10.8051C43.2346 9.47368 43.9519 8.59267 44.7156 8.59267C45.3834 8.59267 45.5911 9.19696 45.5911 9.76877C45.5911 11.1453 44.7475 13.1107 43.5221 13.1107Z" fill="black"/>
<path d="M51.0186 3.7627C50.3188 3.7627 49.7612 4.30486 49.7612 5.00091C49.7612 5.63484 50.175 6.06829 50.795 6.06829H50.8269C51.5108 6.06829 52.1003 5.61931 52.1162 4.83007C52.1162 4.21167 51.6865 3.7627 51.0186 3.7627Z" fill="black"/>
<path d="M47.9478 14.565H50.143L51.64 6.99731H49.4272L47.9478 14.565Z" fill="black"/>
<path d="M57.2254 6.98168H55.698L55.7779 6.62589C55.9056 5.89878 56.3514 5.24931 57.0831 5.24931C57.4737 5.24931 57.7829 5.35803 57.7829 5.35803L58.2127 3.68637C58.2127 3.68637 57.8309 3.5 57.0192 3.5C56.2396 3.5 55.4599 3.71743 54.8704 4.21159C54.1227 4.82999 53.7728 5.72794 53.5971 6.62589L53.5332 6.98168H52.5154L52.1975 8.59122H53.2167L52.0552 14.5649H54.2519L55.4134 8.59122H56.9249L57.2254 6.98168Z" fill="black"/>
<path d="M62.5088 6.99731C62.5088 6.99731 61.1353 10.3618 60.5196 12.1973H60.4877C60.4456 11.6057 59.9461 6.99731 59.9461 6.99731H57.6391L58.9603 13.9466C58.9922 14.1019 58.9763 14.1936 58.9124 14.3024C58.6583 14.7824 58.2285 15.2469 57.7189 15.5872C57.3051 15.8808 56.8434 16.0672 56.4775 16.1914L57.083 18.0015C57.5287 17.9083 58.4521 17.5525 59.2318 16.8409C60.2336 15.9274 61.157 14.5198 62.1124 12.601L64.8013 6.99873H62.5088V6.99731Z" fill="black"/>
</svg>
