<svg width="35" height="35" viewBox="0 0 35 35" fill="none" xmlns="http://www.w3.org/2000/svg">
<rect width="35" height="35" rx="4" fill="#5B86E5"/>
<path d="M16.5818 27.3002V23.9682H17.947V25.4281C19.8259 24.7116 21.3196 23.6303 22.4821 22.1434C23.8068 20.4605 24.4759 18.5072 24.4759 16.331C24.4759 14.2493 23.8203 12.5529 22.4753 11.1403C21.1371 9.7413 19.5286 9.06544 17.5618 9.06544C15.5545 9.06544 13.8446 9.76157 12.4928 11.1336C11.1276 12.5191 10.4652 14.1952 10.4652 16.2701C10.4652 18.2234 11.087 19.8116 12.3577 21.1296C13.1687 21.9744 14.1555 22.5759 15.2909 22.9274L14.8854 24.2318C13.5269 23.8127 12.3441 23.0896 11.3709 22.0758C9.86373 20.5145 9.10001 18.5613 9.10001 16.2701C9.10001 13.8573 9.9178 11.8027 11.5264 10.1739C13.1484 8.53151 15.1828 7.7002 17.5686 7.7002C19.8935 7.7002 21.8806 8.53826 23.4688 10.2009C25.0436 11.8567 25.8479 13.9249 25.8479 16.3377C25.8479 18.8249 25.0774 21.062 23.5635 22.9882C22.063 24.9009 20.0152 26.2661 17.4672 27.0366L16.5818 27.3002Z" fill="white"/>
<path d="M17.4739 15.2023C17.4604 15.1955 17.4537 15.1955 17.4537 15.1955C17.4334 15.1752 17.4064 15.155 17.3861 15.1347C17.0752 14.8711 16.7305 14.6886 16.3047 14.7156C15.8992 14.7359 15.568 14.9792 15.4599 15.3645C15.3247 15.8241 15.4396 16.2431 15.7099 16.6148C15.9195 16.9054 16.1628 17.169 16.4061 17.4259C16.7237 17.757 17.0819 18.0409 17.4739 18.3045C17.6767 18.149 17.8795 18.0071 18.0619 17.8449C18.285 17.6556 18.4945 17.4529 18.704 17.2434C18.9541 16.9933 19.1839 16.723 19.3528 16.4053C19.515 16.0944 19.5826 15.77 19.4948 15.4253C19.3596 14.8779 18.8121 14.594 18.2241 14.7562C17.9403 14.8305 17.697 14.9927 17.4739 15.2023Z" fill="white"/>
<path d="M17.4739 15.2023C17.697 14.9927 17.9335 14.8305 18.2309 14.7494C18.8189 14.5872 19.3664 14.8711 19.5015 15.4185C19.5894 15.7632 19.5218 16.0876 19.3596 16.3985C19.1974 16.7162 18.9608 16.9865 18.7108 17.2366C18.5012 17.4461 18.2917 17.6421 18.0687 17.8381C17.8795 18.0003 17.6767 18.1423 17.4807 18.2977C17.0887 18.0341 16.7305 17.7503 16.4128 17.4191C16.1628 17.1623 15.9262 16.8919 15.7167 16.6081C15.4464 16.2363 15.3315 15.8173 15.4666 15.3577C15.5815 14.9725 15.9127 14.7292 16.3115 14.7089C16.7372 14.6886 17.0819 14.8643 17.3928 15.1279C17.4131 15.1482 17.4401 15.1685 17.4604 15.1887C17.4604 15.1955 17.4604 15.1955 17.4739 15.2023Z" fill="white"/>
</svg>
