<svg width="111" height="66" viewBox="0 0 111 66" fill="none" xmlns="http://www.w3.org/2000/svg">
<circle cx="55" cy="33" r="32.5" fill="white" stroke="#CCDCFF" stroke-dasharray="4 4"/>
<circle cx="55" cy="33" r="26" fill="#EBF1FF"/>
<g filter="url(#filter0_d)">
<rect x="12" y="18" width="87" height="32" rx="2" fill="#EBF1FF"/>
<rect x="12" y="18" width="87" height="32" rx="2" fill="url(#paint0_linear)"/>
<rect x="12.25" y="18.25" width="86.5" height="31.5" rx="1.75" stroke="#CCDCFF" stroke-width="0.5"/>
<rect x="12.25" y="18.25" width="86.5" height="31.5" rx="1.75" stroke="url(#paint1_linear)" stroke-width="0.5"/>
</g>
<path d="M32 31.6484C32 29.3516 30.1484 27.5 27.8516 27.5C25.5781 27.5234 23.75 29.3516 23.75 31.625C23.75 32.0938 23.8203 32.5156 23.9375 32.9375L20.1641 36.7109C20.0469 36.8281 20 36.9688 20 37.1094V38.9375C20 39.2656 20.2344 39.5 20.5625 39.5H23.1875C23.4922 39.5 23.75 39.2656 23.75 38.9375V38H24.6875C24.9922 38 25.25 37.7656 25.25 37.4375V36.5H26.1172C26.2578 36.5 26.4453 36.4297 26.5391 36.3125L27.1016 35.6797C27.3359 35.7266 27.5938 35.75 27.875 35.75C30.1484 35.75 32 33.9219 32 31.6484ZM27.875 30.5C27.875 29.8906 28.3672 29.375 29 29.375C29.6094 29.375 30.125 29.8906 30.125 30.5C30.125 31.1328 29.6094 31.625 29 31.625C28.3672 31.625 27.875 31.1328 27.875 30.5Z" fill="#B4C8F5"/>
<rect x="37" y="30" width="32" height="7" rx="3.5" fill="#CCDCFF"/>
<rect opacity="0.4" x="74" y="30" width="19" height="7" rx="3.5" fill="#CCDCFF"/>
<defs>
<filter id="filter0_d" x="0" y="7" width="111" height="56" filterUnits="userSpaceOnUse" color-interpolation-filters="sRGB">
<feFlood flood-opacity="0" result="BackgroundImageFix"/>
<feColorMatrix in="SourceAlpha" type="matrix" values="0 0 0 0 0 0 0 0 0 0 0 0 0 0 0 0 0 0 127 0"/>
<feOffset dy="1"/>
<feGaussianBlur stdDeviation="6"/>
<feColorMatrix type="matrix" values="0 0 0 0 0.24 0 0 0 0 0.352174 0 0 0 0 0.6 0 0 0 0.2 0"/>
<feBlend mode="normal" in2="BackgroundImageFix" result="effect1_dropShadow"/>
<feBlend mode="normal" in="SourceGraphic" in2="effect1_dropShadow" result="shape"/>
</filter>
<linearGradient id="paint0_linear" x1="55.5" y1="18" x2="55.5" y2="50" gradientUnits="userSpaceOnUse">
<stop stop-color="white" stop-opacity="0.7"/>
<stop offset="1" stop-color="white" stop-opacity="0.3"/>
</linearGradient>
<linearGradient id="paint1_linear" x1="55.5" y1="18" x2="55.5" y2="50" gradientUnits="userSpaceOnUse">
<stop stop-color="white" stop-opacity="0.9"/>
<stop offset="1" stop-color="white" stop-opacity="0.15"/>
</linearGradient>
</defs>
</svg>
