<svg xmlns="http://www.w3.org/2000/svg" width="96" height="96" viewBox="0 0 96 96" version="1.1">
	<path d="M 5.110 1.396 C 0.134 4.153, 0.073 4.708, 0.035 47.703 C -0.003 90.927, 0.111 91.972, 5.145 94.575 C 8.779 96.454, 86.376 96.697, 90.447 94.842 C 91.845 94.205, 93.891 92.154, 94.994 90.285 C 96.913 87.033, 97 85.127, 97 46.384 C 97 21.732, 96.637 6.106, 96.072 6.456 C 95.562 6.771, 94.855 6.118, 94.501 5.004 C 92.982 0.219, 90.903 -0.002, 47.800 0.035 C 16.271 0.063, 6.980 0.359, 5.110 1.396 M 0.457 48 C 0.457 70.825, 0.588 80.163, 0.749 68.750 C 0.909 57.338, 0.909 38.663, 0.749 27.250 C 0.588 15.838, 0.457 25.175, 0.457 48 M 59.523 14.161 C 57.073 16.087, 56.831 16.807, 57.282 20.809 C 57.569 23.352, 59.998 29.743, 62.887 35.555 L 67.986 45.813 61.348 61.656 C 57.697 70.370, 54.400 77.853, 54.021 78.283 C 53.477 78.903, 30.574 69.907, 29.200 68.534 C 28.803 68.136, 41.889 37.084, 43.164 35.399 C 43.623 34.793, 46.924 33.505, 50.499 32.538 C 56.816 30.828, 57.838 29.869, 56.162 27.228 C 55.524 26.223, 53.899 26.398, 48.427 28.063 C 44.617 29.223, 40.776 30.920, 39.892 31.836 C 38.038 33.754, 24 66.703, 24 69.135 C 24 70.026, 24.566 71.225, 25.257 71.798 C 27.201 73.411, 52.178 84, 54.039 84 C 56.793 84, 58.391 81.212, 65.986 63.161 L 73.281 45.822 67.555 34.029 C 61.782 22.138, 60.921 17.821, 64.200 17.197 C 65.591 16.932, 65.870 17.602, 65.739 20.892 C 65.534 26.027, 66.666 27.125, 69.086 24.139 C 71.567 21.080, 71.528 16.528, 69 14 C 66.403 11.403, 62.954 11.462, 59.523 14.161 M 52.724 40.134 C 50.367 41.453, 50.554 44.691, 53.064 46.034 C 54.596 46.854, 55.498 46.832, 56.564 45.947 C 59.930 43.153, 56.529 38.005, 52.724 40.134" stroke="none" fill="black" fill-rule="evenodd"/>
</svg>