<svg width="11" height="11" viewBox="0 0 11 11" fill="none" xmlns="http://www.w3.org/2000/svg">
<path d="M6.7832 5.625L10.2031 2.23828L10.9004 1.54102C11 1.44141 11 1.27539 10.9004 1.14258L10.1699 0.412109C10.0371 0.3125 9.87109 0.3125 9.77148 0.412109L5.6875 4.5293L1.57031 0.412109C1.4707 0.3125 1.30469 0.3125 1.17188 0.412109L0.441406 1.14258C0.341797 1.27539 0.341797 1.44141 0.441406 1.54102L4.55859 5.625L0.441406 9.74219C0.341797 9.8418 0.341797 10.0078 0.441406 10.1406L1.17188 10.8711C1.30469 10.9707 1.4707 10.9707 1.57031 10.8711L5.6875 6.75391L9.07422 10.1738L9.77148 10.8711C9.87109 10.9707 10.0371 10.9707 10.1699 10.8711L10.9004 10.1406C11 10.0078 11 9.8418 10.9004 9.74219L6.7832 5.625Z" fill="#828282"/>
</svg>