<svg width="31" height="31" viewBox="0 0 31 31" fill="none" xmlns="http://www.w3.org/2000/svg">
<path d="M15.0139 30.7012C6.74627 30.7012 0.013916 23.9688 0.013916 15.7012C0.013916 7.43353 6.74627 0.701172 15.0139 0.701172C23.2816 0.701172 30.0139 7.43353 30.0139 15.7012C30.0139 23.9688 23.2816 30.7012 15.0139 30.7012ZM15.0139 2.46588C7.71686 2.46588 1.77862 8.40411 1.77862 15.7012C1.77862 22.9982 7.71686 28.9365 15.0139 28.9365C22.311 28.9365 28.2492 22.9982 28.2492 15.7012C28.2492 8.40411 22.311 2.46588 15.0139 2.46588Z" fill="#667882"/>
<path d="M13.4963 10.5659V11.96C13.4963 12.0482 13.4345 12.11 13.3463 12.11H7.32862V14.9512H12.2963C12.3845 14.9512 12.4463 15.0129 12.4463 15.1012V16.4953C12.4463 16.5835 12.3845 16.6453 12.2963 16.6453H7.32862V20.8453C7.32862 20.9335 7.26686 20.9953 7.17862 20.9953H5.66097C5.57274 20.9953 5.51097 20.9335 5.51097 20.8453V10.5659C5.51097 10.4776 5.57274 10.4159 5.66097 10.4159H13.3374C13.4345 10.4159 13.4963 10.4688 13.4963 10.5659Z" fill="#667882"/>
<path d="M22.6551 17.9335C22.6551 16.9541 22.0022 16.5041 20.5639 16.5041H16.9816V19.3453H20.5639C22.0286 19.3453 22.6551 18.9218 22.6551 17.9335ZM20.0522 12.0571H16.9727V14.8982H20.0522C21.4286 14.8982 22.0639 14.4482 22.0639 13.4776C22.0639 12.5071 21.4286 12.0571 20.0522 12.0571ZM24.5169 18.0923C24.5169 19.9453 23.0874 20.9953 20.5551 20.9953H15.3139C15.2257 20.9953 15.1639 20.9335 15.1639 20.8453V10.5659C15.1639 10.4776 15.2257 10.4159 15.3139 10.4159H20.0874C22.5492 10.4159 23.8904 11.3865 23.8904 13.1512C23.8904 14.3159 23.2992 15.0747 22.0904 15.4365C23.7845 15.7806 24.5169 16.7865 24.5169 18.0923Z" fill="#667882"/>
</svg>
