<svg width="16" height="16" viewBox="0 0 16 16" fill="none" xmlns="http://www.w3.org/2000/svg">
<rect width="16" height="16" rx="2" fill="#667882"/>
<path d="M7.34651 4.83972V5.6036C7.34651 5.65282 7.31369 5.68746 7.26264 5.68746H3.98836V7.24621H6.69202C6.74124 7.24621 6.77405 7.27903 6.77405 7.32825V8.09213C6.77405 8.14135 6.74124 8.17599 6.69202 8.17599H3.98836V10.4804C3.98836 10.5296 3.95555 10.5642 3.9045 10.5642H3.08411C3.03306 10.5624 3.00024 10.5296 3.00024 10.4804V4.83972C3.00024 4.78868 3.03306 4.75586 3.08411 4.75586H7.26447C7.31369 4.75586 7.34651 4.78868 7.34651 4.83972Z" fill="white"/>
<path d="M11.9884 8.88335C11.9884 8.34371 11.6311 8.09942 10.8472 8.09942H8.89462V9.65817H10.849C11.6439 9.65817 11.9884 9.42663 11.9884 8.88335ZM10.57 5.66012H8.89462V7.22069H10.57C11.3212 7.22069 11.6657 6.97639 11.6657 6.4404C11.6657 5.90441 11.3212 5.66012 10.57 5.66012ZM13.0002 8.96904C13.0002 9.9845 12.22 10.5624 10.8435 10.5624H7.99037C7.94114 10.5624 7.90833 10.5296 7.90833 10.4786V4.83972C7.90833 4.7905 7.94114 4.75586 7.99037 4.75586H10.5901C11.9301 4.75586 12.6593 5.28638 12.6593 6.25809C12.6593 6.89617 12.3348 7.31549 11.6803 7.51056C12.6028 7.70563 13.0002 8.25621 13.0002 8.96904Z" fill="white"/>
</svg>
