<svg width="236" height="175" viewBox="0 0 236 175" fill="none" xmlns="http://www.w3.org/2000/svg">
<path d="M115.393 175C144.079 175 167.333 173.173 167.333 170.92C167.333 168.666 144.079 166.84 115.393 166.84C86.7081 166.84 63.4541 168.666 63.4541 170.92C63.4541 173.173 86.7081 175 115.393 175Z" fill="#E8E8E8"/>
<path d="M134.61 163.796L133.845 160.499C133.796 160.099 133.707 159.724 133.577 159.349V159.34C132.772 156.974 130.535 155.26 127.909 155.26H102.415C99.6987 155.26 97.4055 157.08 96.6736 159.569L95.592 164.261C95.4863 164.71 95.4375 165.183 95.4375 165.665C95.4375 169.157 98.2675 171.997 101.748 171.997H128.592C132.072 171.997 134.902 169.157 134.902 165.665C134.902 165.028 134.797 164.392 134.61 163.796Z" fill="#74BCFF"/>
<path d="M128.592 171.018H101.748C98.8205 171.018 96.4297 168.619 96.4297 165.681C96.4297 162.743 98.8205 160.344 101.748 160.344H128.592C131.519 160.344 133.91 162.743 133.91 165.681C133.902 168.619 131.511 171.018 128.592 171.018Z" fill="#1890FF"/>
<path d="M128.592 159.348H101.748C98.2675 159.348 95.4375 162.188 95.4375 165.681C95.4375 169.174 98.2675 172.013 101.748 172.013H128.592C132.072 172.013 134.902 169.174 134.902 165.681C134.902 162.188 132.072 159.348 128.592 159.348ZM128.592 171.018H101.748C98.8204 171.018 96.4296 168.619 96.4296 165.681C96.4296 162.743 98.8204 160.344 101.748 160.344H128.592C131.519 160.344 133.91 162.743 133.91 165.681C133.902 168.619 131.511 171.018 128.592 171.018Z" fill="#1890FF"/>
<path d="M111.303 147.908V157.145C111.303 158.124 113.198 158.924 115.524 158.924C117.85 158.924 119.744 158.133 119.744 157.145V147.908H111.303Z" fill="#1562AA"/>
<path d="M128.437 138.662C124.786 137.879 120.338 137.422 115.524 137.422C111.149 137.422 107.075 137.805 103.627 138.458L93.1932 138.368L93.1606 144.17C93.1606 147.9 103.171 150.919 115.524 150.919C127.876 150.919 137.887 147.9 137.887 144.17V138.736L128.437 138.662Z" fill="#1890FF"/>
<path d="M115.532 145.484C127.883 145.484 137.895 142.463 137.895 138.736C137.895 135.008 127.883 131.987 115.532 131.987C103.181 131.987 93.1689 135.008 93.1689 138.736C93.1689 142.463 103.181 145.484 115.532 145.484Z" fill="#74BCFF"/>
<path d="M101.512 130.33V135.757C101.512 137.903 107.79 139.641 115.532 139.641C123.274 139.641 129.551 137.903 129.551 135.757V130.33H101.512Z" fill="#1890FF"/>
<path d="M129.544 130.33C129.544 132.477 123.266 134.215 115.524 134.215C107.782 134.215 101.504 132.477 101.504 130.33C101.504 128.184 107.782 126.446 115.524 126.446C123.274 126.446 129.544 128.184 129.544 130.33Z" fill="#74BCFF"/>
<path d="M105.221 115.691V128.388C105.221 129.735 109.84 130.828 115.532 130.828C121.225 130.828 125.844 129.735 125.844 128.388V115.691H105.221Z" fill="#1562AA"/>
<path d="M24.5181 79.3039C24.5181 79.3039 24.6564 76.2111 25.8274 74.6036C26.9984 72.996 28.698 73.6978 28.698 73.6978L28.6167 80.2994L24.5181 86.4442L21.127 86.7379C21.127 86.7379 13.0601 85.9872 7.57906 83.9471C2.08993 81.9152 0 76.7089 0 76.7089L0.0162641 76.6926C0.79694 76.0969 1.9029 76.2274 2.52093 76.9945C3.76514 78.5368 6.03398 80.7809 8.74195 80.7483C8.74195 80.7483 5.73309 77.5086 4.54581 73.1428C4.43196 72.7348 4.6434 72.3105 5.03373 72.1555L5.05 72.1473C5.92826 71.7964 6.92037 72.2044 7.31884 73.0613C8.02633 74.5709 9.25426 76.815 10.775 78.0309C10.775 78.0309 10.344 73.9262 11.3117 69.7237C11.4011 69.3238 11.8159 69.079 12.2062 69.2096C13.0113 69.4789 13.5886 70.197 13.6781 71.0457L13.8407 77.3128L19.1184 80.4463L24.5181 79.3039Z" fill="#1562AA"/>
<path d="M184.158 105.344C167.796 105.344 159.868 92.3604 159.534 91.7973L163.364 89.4961C163.657 89.9776 170.634 101.271 184.963 100.855C199.04 100.431 208.774 88.5985 208.871 88.4761L212.336 91.2996C211.888 91.8545 201.187 104.846 185.093 105.335C184.776 105.344 184.467 105.344 184.158 105.344Z" fill="#1562AA"/>
<path d="M43.6773 103.059C26.9578 103.059 19.0209 85.0488 18.6875 84.2736L22.786 82.4946L20.7368 83.3841L22.786 82.4946C22.8592 82.6578 29.9179 98.5786 43.7098 98.5786C43.8887 98.5786 44.0676 98.5786 44.2465 98.5705C58.3231 98.1461 68.0571 86.3137 68.1547 86.1913L71.619 89.0147C71.1717 89.5696 60.4699 102.561 44.3766 103.05C44.1408 103.059 43.905 103.059 43.6773 103.059Z" fill="#1562AA"/>
<path d="M66.6909 94.9554C66.6909 79.3039 79.4989 53.5336 115.735 53.5336C151.972 53.5336 160.128 82.258 160.128 97.3464C160.128 112.435 143.23 120.399 114.898 120.399C86.5656 120.407 66.6909 112.329 66.6909 94.9554Z" fill="#1890FF"/>
<path d="M73.0339 98.5868C73.0339 82.9353 85.8419 57.165 122.078 57.165C130.446 57.165 137.31 58.6991 142.929 61.237C136.391 56.5937 127.559 53.5336 115.735 53.5336C79.4989 53.5336 66.6909 79.3039 66.6909 94.9554C66.6909 104.111 72.2126 110.68 81.5807 114.858C76.116 110.819 73.0339 105.425 73.0339 98.5868Z" fill="#74BCFF"/>
<path d="M102.366 80.5851C102.366 82.1927 101.065 83.4901 99.4712 83.4901C97.8692 83.4901 96.5762 82.1845 96.5762 80.5851C96.5762 78.9775 97.8773 77.68 99.4712 77.68C101.073 77.6718 102.366 78.9775 102.366 80.5851Z" fill="white"/>
<path d="M128.511 80.5851C128.511 82.1927 127.21 83.4901 125.616 83.4901C124.014 83.4901 122.721 82.1845 122.721 80.5851C122.721 78.9775 124.022 77.68 125.616 77.68C127.21 77.6718 128.511 78.9775 128.511 80.5851Z" fill="white"/>
<path d="M70.5131 79.867C70.5131 79.867 63.2512 82.7068 60.8604 89.8226C60.8604 89.8226 63.7472 96.7752 70.9116 98.4399C70.9116 98.4399 76.0754 89.0881 70.5131 79.867Z" fill="#0D82EE"/>
<path d="M156.241 79.867C156.241 79.867 163.503 82.7068 165.894 89.8226C165.894 89.8226 163.007 96.7752 155.843 98.4399C155.843 98.4399 150.679 89.0881 156.241 79.867Z" fill="#0D82EE"/>
<path d="M208.099 91.014C208.099 91.014 203.301 83.7758 203.204 81.8663C203.106 79.9567 206.025 80.4627 207.489 82.8781C208.953 85.2936 209.709 88.5088 214.556 89.3248C219.403 90.1327 223.273 86.4605 223.273 86.4605C223.273 86.4605 223.558 80.6259 224.103 79.4345C224.648 78.2431 226.534 78.0962 226.534 78.0962C226.534 78.0962 227.25 81.8581 226.721 85.0488L229.787 80.479C230.373 79.6059 231.373 79.1081 232.422 79.1734C232.942 79.206 233.3 79.7201 233.138 80.226C232.707 81.5643 231.747 84.0206 229.991 86.1504L234.488 83.6615C234.959 83.4004 235.545 83.5555 235.837 84.0124C236.114 84.4449 236.016 85.0162 235.626 85.3426C234.048 86.6319 230.072 89.7573 226.795 91.2262C221.297 93.6824 217.15 94.7106 208.628 94.6372L208.099 91.014Z" fill="#1562AA"/>
<path d="M101.992 170.463C104.593 170.463 106.701 168.347 106.701 165.738C106.701 163.129 104.593 161.013 101.992 161.013C99.3917 161.013 97.2837 163.129 97.2837 165.738C97.2837 168.347 99.3917 170.463 101.992 170.463Z" fill="#1562AA"/>
<path d="M128.486 170.463C131.087 170.463 133.195 168.347 133.195 165.738C133.195 163.129 131.087 161.013 128.486 161.013C125.886 161.013 123.778 163.129 123.778 165.738C123.778 168.347 125.886 170.463 128.486 170.463Z" fill="#1562AA"/>
<path d="M114.67 167.37C114.67 169.076 113.287 170.463 111.588 170.463C109.888 170.463 108.506 169.076 108.506 167.37C108.506 165.665 109.888 164.277 111.588 164.277C113.287 164.277 114.67 165.656 114.67 167.37Z" fill="#1562AA"/>
<path d="M122.151 167.37C122.151 169.076 120.769 170.463 119.069 170.463C117.37 170.463 115.987 169.076 115.987 167.37C115.987 165.665 117.37 164.277 119.069 164.277C120.769 164.277 122.151 165.656 122.151 167.37Z" fill="#1562AA"/>
<path d="M202.004 0H139.002C134.049 0 130 4.08713 130 9.08692V27.975C130 32.9748 134.049 37.0619 139.002 37.0619H147.875C148.374 38.5415 148.812 40.2988 149.037 42.2998C149.627 47.515 148.459 51.7098 147.627 54C149.638 52.7132 153.574 49.7938 156.371 44.5389C157.842 41.784 158.578 39.1593 158.96 37.0619H201.998C206.951 37.0619 211 32.9748 211 27.975V9.08692C211.006 4.08713 206.951 0 202.004 0Z" fill="#1562AA"/>
<path d="M156.981 22.464C156.837 22.464 156.717 22.416 156.621 22.32C156.525 22.224 156.477 22.112 156.477 21.984C156.477 21.648 156.485 21.392 156.501 21.216C156.581 20.464 156.821 19.8 157.221 19.224C157.621 18.648 158.173 18.008 158.877 17.304C159.421 16.76 159.821 16.312 160.077 15.96C160.349 15.608 160.501 15.24 160.533 14.856C160.597 14.2 160.381 13.68 159.885 13.296C159.405 12.912 158.821 12.72 158.133 12.72C156.581 12.72 155.645 13.496 155.325 15.048C155.213 15.416 154.981 15.6 154.629 15.6H152.541C152.381 15.6 152.245 15.544 152.133 15.432C152.037 15.32 151.989 15.176 151.989 15C152.021 14.12 152.285 13.296 152.781 12.528C153.293 11.76 154.021 11.144 154.965 10.68C155.909 10.2 157.021 9.96 158.301 9.96C159.629 9.96 160.717 10.176 161.565 10.608C162.429 11.024 163.053 11.56 163.437 12.216C163.837 12.872 164.037 13.552 164.037 14.256C164.037 15.056 163.853 15.752 163.485 16.344C163.133 16.936 162.605 17.616 161.901 18.384C161.389 18.928 160.989 19.4 160.701 19.8C160.429 20.184 160.245 20.6 160.149 21.048C160.085 21.448 160.045 21.72 160.029 21.864C159.949 22.072 159.861 22.224 159.765 22.32C159.669 22.416 159.533 22.464 159.357 22.464H156.981ZM156.909 27C156.749 27 156.613 26.944 156.501 26.832C156.389 26.72 156.333 26.584 156.333 26.424V24.288C156.333 24.128 156.389 23.992 156.501 23.88C156.613 23.768 156.749 23.712 156.909 23.712H159.285C159.445 23.712 159.581 23.768 159.693 23.88C159.821 23.992 159.885 24.128 159.885 24.288V26.424C159.885 26.584 159.829 26.72 159.717 26.832C159.605 26.944 159.461 27 159.285 27H156.909ZM171.415 22.464C171.271 22.464 171.151 22.416 171.055 22.32C170.959 22.224 170.911 22.112 170.911 21.984C170.911 21.648 170.919 21.392 170.935 21.216C171.015 20.464 171.255 19.8 171.655 19.224C172.055 18.648 172.607 18.008 173.311 17.304C173.855 16.76 174.255 16.312 174.511 15.96C174.783 15.608 174.935 15.24 174.967 14.856C175.031 14.2 174.815 13.68 174.319 13.296C173.839 12.912 173.255 12.72 172.567 12.72C171.015 12.72 170.079 13.496 169.759 15.048C169.647 15.416 169.415 15.6 169.063 15.6H166.975C166.815 15.6 166.679 15.544 166.567 15.432C166.471 15.32 166.423 15.176 166.423 15C166.455 14.12 166.719 13.296 167.215 12.528C167.727 11.76 168.455 11.144 169.399 10.68C170.343 10.2 171.455 9.96 172.735 9.96C174.063 9.96 175.151 10.176 175.999 10.608C176.863 11.024 177.487 11.56 177.871 12.216C178.271 12.872 178.471 13.552 178.471 14.256C178.471 15.056 178.287 15.752 177.919 16.344C177.567 16.936 177.039 17.616 176.335 18.384C175.823 18.928 175.423 19.4 175.135 19.8C174.863 20.184 174.679 20.6 174.583 21.048C174.519 21.448 174.479 21.72 174.463 21.864C174.383 22.072 174.295 22.224 174.199 22.32C174.103 22.416 173.967 22.464 173.791 22.464H171.415ZM171.343 27C171.183 27 171.047 26.944 170.935 26.832C170.823 26.72 170.767 26.584 170.767 26.424V24.288C170.767 24.128 170.823 23.992 170.935 23.88C171.047 23.768 171.183 23.712 171.343 23.712H173.719C173.879 23.712 174.015 23.768 174.127 23.88C174.255 23.992 174.319 24.128 174.319 24.288V26.424C174.319 26.584 174.263 26.72 174.151 26.832C174.039 26.944 173.895 27 173.719 27H171.343ZM185.849 22.464C185.705 22.464 185.585 22.416 185.489 22.32C185.393 22.224 185.345 22.112 185.345 21.984C185.345 21.648 185.353 21.392 185.369 21.216C185.449 20.464 185.689 19.8 186.089 19.224C186.489 18.648 187.041 18.008 187.745 17.304C188.289 16.76 188.689 16.312 188.945 15.96C189.217 15.608 189.369 15.24 189.401 14.856C189.465 14.2 189.249 13.68 188.753 13.296C188.273 12.912 187.689 12.72 187.001 12.72C185.449 12.72 184.513 13.496 184.193 15.048C184.081 15.416 183.849 15.6 183.497 15.6H181.409C181.249 15.6 181.113 15.544 181.001 15.432C180.905 15.32 180.857 15.176 180.857 15C180.889 14.12 181.153 13.296 181.649 12.528C182.161 11.76 182.889 11.144 183.833 10.68C184.777 10.2 185.889 9.96 187.169 9.96C188.497 9.96 189.585 10.176 190.433 10.608C191.297 11.024 191.921 11.56 192.305 12.216C192.705 12.872 192.905 13.552 192.905 14.256C192.905 15.056 192.721 15.752 192.353 16.344C192.001 16.936 191.473 17.616 190.769 18.384C190.257 18.928 189.857 19.4 189.569 19.8C189.297 20.184 189.113 20.6 189.017 21.048C188.953 21.448 188.913 21.72 188.897 21.864C188.817 22.072 188.729 22.224 188.633 22.32C188.537 22.416 188.401 22.464 188.225 22.464H185.849ZM185.777 27C185.617 27 185.481 26.944 185.369 26.832C185.257 26.72 185.201 26.584 185.201 26.424V24.288C185.201 24.128 185.257 23.992 185.369 23.88C185.481 23.768 185.617 23.712 185.777 23.712H188.153C188.313 23.712 188.449 23.768 188.561 23.88C188.689 23.992 188.753 24.128 188.753 24.288V26.424C188.753 26.584 188.697 26.72 188.585 26.832C188.473 26.944 188.329 27 188.153 27H185.777Z" fill="white"/>
</svg>