<svg width="18" height="18" viewBox="0 0 18 18" fill="none" xmlns="http://www.w3.org/2000/svg">
<rect x="0.5" y="0.5" width="17" height="16.9998" rx="2.5" fill="white" stroke="#E2E2E2"/>
<path d="M15 9.08709C15 8.65011 14.9655 8.33119 14.8904 8H10V9.97332H12.87C12.813 10.464 12.4992 11.203 11.8058 11.6998L11.7968 11.7657L13.3428 12.9893L13.4494 13C14.4326 12.0724 15 10.7062 15 9.08709Z" fill="#4285F4"/>
<path d="M10.1688 15C11.7317 15 13.0426 14.5573 14 13.7927L12.1753 12.5738C11.6866 12.8671 11.0311 13.0726 10.1688 13.0726C8.63936 13.0726 7.34007 12.203 6.87639 11L6.80801 11.0057L5.02335 12.1973L5 12.2519C5.9507 13.8818 7.90549 15 10.1688 15Z" fill="#34A853"/>
<path d="M6 10.6091C5.90241 10.2641 5.84492 9.89524 5.84492 9.51357C5.84492 9.13191 5.90107 8.76302 5.99465 8.41808L5.99198 8.34462L4.54278 7L4.49465 7.02715C4.18048 7.77771 4 8.62089 4 9.51357C4 10.4063 4.18048 11.2494 4.49465 12L6 10.6091Z" fill="#FBBC05"/>
<path d="M10.1469 5.92742C11.2281 5.92742 11.9588 6.3313 12.3741 6.6705L14 5.29644C13.0018 4.49299 11.7031 4 10.1469 4C7.89315 4 5.94667 5.11966 5 6.74811L6.86344 8C7.33013 6.79842 8.62392 5.92742 10.1469 5.92742Z" fill="#EB4335"/>
</svg>
