<svg width="20" height="20" viewBox="0 0 20 20" fill="none" xmlns="http://www.w3.org/2000/svg">
<g clip-path="url(#clip0)">
<path d="M19.9999 10.2302C19.9999 9.55044 19.9437 8.86699 19.8237 8.19824H10.2004V12.0491H15.7112C15.4825 13.291 14.7478 14.3897 13.6719 15.0878V17.5864H16.9596C18.8902 15.8448 19.9999 13.2726 19.9999 10.2302Z" fill="#4285F4"/>
<path d="M10.2006 20.0003C12.9523 20.0003 15.2728 19.1147 16.9635 17.5862L13.6758 15.0875C12.7611 15.6975 11.5802 16.0429 10.2044 16.0429C7.54273 16.0429 5.28593 14.2828 4.47619 11.9165H1.0835V14.4923C2.81545 17.8691 6.3431 20.0003 10.2006 20.0003Z" fill="#34A853"/>
<path d="M4.47227 11.9163C4.04491 10.6743 4.04491 9.32947 4.47227 8.0875V5.51172H1.08333C-0.363715 8.33737 -0.363715 11.6664 1.08333 14.4921L4.47227 11.9163Z" fill="#FBBC04"/>
<path d="M10.2006 3.95756C11.6552 3.93552 13.061 4.47198 14.1144 5.45674L17.0273 2.60169C15.1828 0.904099 12.7348 -0.0292099 10.2006 0.000185607C6.3431 0.000185607 2.81545 2.13136 1.0835 5.51185L4.47244 8.08764C5.27843 5.71762 7.53898 3.95756 10.2006 3.95756Z" fill="#EA4335"/>
</g>
<defs>
<clipPath id="clip0">
<rect width="20" height="20" fill="white"/>
</clipPath>
</defs>
</svg>
