<svg width="21" height="21" viewBox="0 0 21 21" fill="none" xmlns="http://www.w3.org/2000/svg">
<circle cx="10.7908" cy="10.5352" r="9.5" fill="#498AF4" stroke="white"/>
<path d="M15.5564 10.9014C15.5564 10.5889 15.5173 10.3545 15.4783 10.1006H10.8689V11.7607H13.6033C13.5056 12.4834 12.783 13.8506 10.8689 13.8506C9.20874 13.8506 7.86108 12.4834 7.86108 10.7842C7.86108 8.06934 11.0642 6.81934 12.783 8.47949L14.1111 7.20996C13.2712 6.42871 12.158 5.94043 10.8689 5.94043C8.17358 5.94043 6.02515 8.1084 6.02515 10.7842C6.02515 13.4795 8.17358 15.6279 10.8689 15.6279C13.6619 15.6279 15.5564 13.6748 15.5564 10.9014Z" fill="white"/>
</svg>