<svg width="19" height="19" viewBox="0 0 19 19" fill="none" xmlns="http://www.w3.org/2000/svg">
<rect x="0.572266" y="1.44922" width="17" height="16.976" rx="2.5" fill="white" stroke="#E2E2E2"/>
<path d="M14.5725 10.0599C14.5725 9.60873 14.5352 9.27945 14.4544 8.9375H9.18408V10.9749H12.277C12.2155 11.4815 11.8775 12.2446 11.1301 12.7575L11.1204 12.8256L12.7866 14.0889L12.9014 14.1C13.961 13.1422 14.5725 11.7317 14.5725 10.0599Z" fill="#4285F4"/>
<path d="M9.18398 15.4292C10.6997 15.4292 11.9712 14.9416 12.8997 14.0994L11.13 12.7569C10.656 13.0799 10.0203 13.3063 9.18398 13.3063C7.7006 13.3063 6.44045 12.3485 5.99075 11.0234L5.92443 11.0298L4.19355 12.3422L4.1709 12.4023C5.09296 14.1975 6.98884 15.4292 9.18398 15.4292Z" fill="#34A853"/>
<path d="M5.99226 11.0231C5.87417 10.6812 5.80462 10.3155 5.80462 9.9371C5.80462 9.55874 5.87256 9.19305 5.98579 8.8511L5.98256 8.77828L4.22903 7.44531L4.17079 7.47223C3.79065 8.21628 3.57227 9.05215 3.57227 9.9371C3.57227 10.8221 3.79065 11.6579 4.17079 12.402L5.99226 11.0231Z" fill="#FBBC05"/>
<path d="M9.18398 6.56824C10.2371 6.56824 10.9488 7.01309 11.3532 7.3867L12.9369 5.87326C11.9647 4.98831 10.6997 4.44531 9.18398 4.44531C6.98884 4.44531 5.09296 5.67854 4.1709 7.47219L5.9859 8.85107C6.44045 7.5276 7.7006 6.56824 9.18398 6.56824Z" fill="#EB4335"/>
</svg>
