<svg width="16" height="18" viewBox="0 0 16 18" fill="none" xmlns="http://www.w3.org/2000/svg">
<path d="M13.4648 3.41016C13.4648 3.30469 13.3945 3.26953 13.2891 3.26953C13.2188 3.26953 11.9883 3.23438 11.9883 3.23438C11.9883 3.23438 11.25 2.49609 10.9688 2.21484V17.4375L15.3633 16.3125C15.3633 16.3125 13.4648 3.48047 13.4648 3.41016ZM9.94922 2.21484C9.91406 2.03906 9.77344 1.75781 9.70312 1.58203C9.35156 0.878906 8.78906 0.492188 8.15625 0.492188C8.12109 0.492188 8.12109 0.492188 8.12109 0.492188C8.08594 0.492188 8.01562 0.527344 8.01562 0.527344C7.98047 0.492188 7.94531 0.492188 7.94531 0.457031C7.66406 0.140625 7.3125 0 6.85547 0C6.01172 0.0351562 5.16797 0.632812 4.5 1.72266C4.00781 2.49609 3.65625 3.44531 3.55078 4.18359C2.56641 4.5 1.89844 4.71094 1.89844 4.71094C1.40625 4.88672 1.37109 4.88672 1.33594 5.34375C1.30078 5.69531 0 15.6094 0 15.6094L10.6172 17.4375V2.03906C10.582 2.03906 10.5117 2.03906 10.4766 2.07422C10.4414 2.07422 10.2656 2.10938 9.94922 2.21484ZM8.01562 2.8125C7.45312 2.98828 6.82031 3.19922 6.22266 3.375C6.39844 2.70703 6.71484 2.03906 7.13672 1.61719C7.27734 1.44141 7.48828 1.26562 7.73438 1.16016C7.98047 1.65234 8.01562 2.35547 8.01562 2.8125ZM6.85547 0.597656H6.89062C7.03125 0.597656 7.24219 0.667969 7.38281 0.703125C7.13672 0.84375 6.92578 1.01953 6.71484 1.23047C6.15234 1.79297 5.76562 2.70703 5.58984 3.55078C5.09766 3.72656 4.57031 3.86719 4.11328 4.00781C4.42969 2.67188 5.55469 0.632812 6.85547 0.597656ZM5.23828 8.33203C5.27344 9.24609 7.66406 9.42188 7.80469 11.5664C7.91016 13.2188 6.92578 14.3789 5.48438 14.4492C3.76172 14.5547 2.84766 13.5703 2.84766 13.5703L3.19922 12.0234C3.19922 12.0234 4.14844 12.7266 4.88672 12.6562C5.37891 12.6562 5.58984 12.2344 5.55469 11.9531C5.48438 10.7578 3.55078 10.8281 3.41016 8.89453C3.30469 7.27734 4.39453 5.625 6.75 5.44922C7.66406 5.41406 8.12109 5.625 8.12109 5.625L7.59375 7.66406C7.59375 7.66406 6.99609 7.38281 6.25781 7.41797C5.23828 7.48828 5.20312 8.15625 5.23828 8.33203ZM8.57812 2.63672C8.57812 2.21484 8.50781 1.61719 8.33203 1.125C8.96484 1.23047 9.28125 1.96875 9.42188 2.39062C9.17578 2.46094 8.89453 2.56641 8.57812 2.63672Z" fill="white"/>
</svg>
