<svg width="16" height="17" viewBox="0 0 16 17" fill="none" xmlns="http://www.w3.org/2000/svg">
<path d="M10.143 2.01534C10.143 2.01534 9.92536 2.05915 9.62063 2.19059C9.3159 1.31435 8.79352 0.525741 7.83581 0.525741C7.79228 0.525741 7.79227 0.525741 7.74874 0.525741C7.48755 0.175247 7.13929 0 6.8781 0C4.70148 0 3.65671 2.76014 3.35198 4.11831C2.52487 4.38118 1.91542 4.55642 1.82836 4.60024C1.3495 4.73167 1.3495 4.77548 1.26244 5.2136C1.2189 5.5641 0 15.2027 0 15.2027L9.62063 16.999L10.3607 2.01534C10.2736 1.97153 10.1865 2.01534 10.143 2.01534ZM7.70521 2.67252V2.76014C7.18282 2.93539 6.6169 3.11064 6.00745 3.28588C6.31218 2.01534 6.92163 1.40198 7.48755 1.18292C7.61815 1.53341 7.70521 2.01534 7.70521 2.67252ZM6.83457 0.569553C6.92163 0.569553 7.00869 0.613365 7.09576 0.657177C6.39924 1.00767 5.65919 1.84009 5.35447 3.50494C4.91915 3.63638 4.44029 3.81162 4.0485 3.94306C4.39676 2.67252 5.2674 0.569553 6.83457 0.569553ZM7.22636 8.01755C7.22636 8.01755 6.66044 7.71087 5.96392 7.71087C4.96268 7.71087 4.91915 8.36805 4.91915 8.49948C4.91915 9.37572 7.18282 9.72621 7.18282 11.7854C7.18282 13.4064 6.18158 14.4579 4.78855 14.4579C3.13432 14.4579 2.30721 13.4064 2.30721 13.4064L2.74253 11.9168C2.74253 11.9168 3.61318 12.6616 4.35323 12.6616C4.83208 12.6616 5.00621 12.2673 5.00621 12.0044C5.00621 10.8653 3.13432 10.8215 3.13432 8.9376C3.13432 7.36038 4.26616 5.82697 6.57337 5.82697C7.44402 5.82697 7.87934 6.08984 7.87934 6.08984L7.22636 8.01755ZM8.27113 2.58489V2.40965C8.27113 1.88391 8.18407 1.44579 8.097 1.09529C8.57586 1.13911 8.88058 1.70866 9.09824 2.32202C8.83705 2.40965 8.57586 2.49727 8.27113 2.58489Z" fill="#95BF47"/>
<path d="M15.2798 15.8601L10.0559 16.9993L10.796 2.01562C10.8395 2.01562 10.8395 2.01562 10.883 2.01562C10.883 2.01562 10.883 2.01562 10.9266 2.01562C10.9266 2.01562 10.9266 2.01562 10.9701 2.01562C11.0136 2.19087 11.9278 3.06711 11.9278 3.06711C11.9278 3.06711 13.2338 3.15473 13.2773 3.15473C13.3208 3.15473 13.4079 3.19854 13.4079 3.28617C13.4514 3.4176 15.2798 15.8601 15.2798 15.8601Z" fill="#50B861"/>
</svg>