<svg width="14" height="16" viewBox="0 0 14 16" fill="none" xmlns="http://www.w3.org/2000/svg">
<path d="M12.125 3.28125C12.125 3.1875 12.0625 3.15625 11.9688 3.15625C11.9062 3.15625 10.8125 3.125 10.8125 3.125C10.8125 3.125 10.1562 2.46875 9.90625 2.21875V15.75L13.8125 14.75C13.8125 14.75 12.125 3.34375 12.125 3.28125ZM9 2.21875C8.96875 2.0625 8.84375 1.8125 8.78125 1.65625C8.46875 1.03125 7.96875 0.6875 7.40625 0.6875C7.375 0.6875 7.375 0.6875 7.375 0.6875C7.34375 0.6875 7.28125 0.71875 7.28125 0.71875C7.25 0.6875 7.21875 0.6875 7.21875 0.65625C6.96875 0.375 6.65625 0.25 6.25 0.25C5.5 0.28125 4.75 0.8125 4.15625 1.78125C3.71875 2.46875 3.40625 3.3125 3.3125 3.96875C2.4375 4.25 1.84375 4.4375 1.84375 4.4375C1.40625 4.59375 1.375 4.59375 1.34375 5C1.3125 5.3125 0.15625 14.125 0.15625 14.125L9.59375 15.75V2.0625C9.5625 2.0625 9.5 2.0625 9.46875 2.09375C9.4375 2.09375 9.28125 2.125 9 2.21875ZM7.28125 2.75C6.78125 2.90625 6.21875 3.09375 5.6875 3.25C5.84375 2.65625 6.125 2.0625 6.5 1.6875C6.625 1.53125 6.8125 1.375 7.03125 1.28125C7.25 1.71875 7.28125 2.34375 7.28125 2.75ZM6.25 0.78125H6.28125C6.40625 0.78125 6.59375 0.84375 6.71875 0.875C6.5 1 6.3125 1.15625 6.125 1.34375C5.625 1.84375 5.28125 2.65625 5.125 3.40625C4.6875 3.5625 4.21875 3.6875 3.8125 3.8125C4.09375 2.625 5.09375 0.8125 6.25 0.78125ZM4.8125 7.65625C4.84375 8.46875 6.96875 8.625 7.09375 10.5312C7.1875 12 6.3125 13.0312 5.03125 13.0938C3.5 13.1875 2.6875 12.3125 2.6875 12.3125L3 10.9375C3 10.9375 3.84375 11.5625 4.5 11.5C4.9375 11.5 5.125 11.125 5.09375 10.875C5.03125 9.8125 3.3125 9.875 3.1875 8.15625C3.09375 6.71875 4.0625 5.25 6.15625 5.09375C6.96875 5.0625 7.375 5.25 7.375 5.25L6.90625 7.0625C6.90625 7.0625 6.375 6.8125 5.71875 6.84375C4.8125 6.90625 4.78125 7.5 4.8125 7.65625ZM7.78125 2.59375C7.78125 2.21875 7.71875 1.6875 7.5625 1.25C8.125 1.34375 8.40625 2 8.53125 2.375C8.3125 2.4375 8.0625 2.53125 7.78125 2.59375Z" fill="#95BF47"/>
</svg>
