<svg width="152" height="34" viewBox="0 0 152 34" fill="none" xmlns="http://www.w3.org/2000/svg">
<path d="M32.3995 16.0046C32.2768 15.0019 32.1529 14.0005 32.0302 12.9978L31.4851 8.54869C31.368 7.64646 30.681 6.79497 30.0132 6.73069L24.1313 6.19837C24.1437 5.96491 24.1437 5.72469 24.1313 5.48447V5.45177C23.905 2.44393 21.3036 0.00225559 18.3215 0.00225559C18.1661 0.00225559 18.0096 0.00902237 17.8542 0.0214281C17.4904 0.0541342 17.1345 0.125185 16.7967 0.228943C16.0377 0.462396 15.3631 0.871786 14.8192 1.40411C13.996 2.20259 13.4577 3.28753 13.3338 4.51457C13.3146 4.74802 13.3146 4.98824 13.3203 5.22846H13.3011L12.4317 5.15064L11.9002 5.10553C11.9069 4.95554 11.9126 4.80667 11.9328 4.66344C12.05 3.63038 12.5624 2.74167 13.3135 2.13041C14.014 1.11765 15.0838 0.383451 16.3552 0.117291C15.9926 0.0394729 15.6233 0 15.2404 0C12.5748 0 10.4993 1.95447 10.2538 4.51344C10.2414 4.65667 10.2346 4.80554 10.2346 4.95554L6.86178 4.6499C5.81108 4.55291 4.98111 5.50026 5.15003 6.66302C5.8719 11.7889 6.59376 16.9158 7.31562 22.0416C7.61631 24.1675 8.40912 29.7806 8.7098 31.9065C8.90463 33.2576 9.80555 34.153 10.8236 33.9782L33.0212 30.2317C34.3478 29.996 33.9604 28.5795 33.903 28.1926L32.3995 16.0046ZM23.236 5.39876V5.45064C23.2552 5.67733 23.2496 5.90514 23.2293 6.11942L22.5153 6.05401L22.3531 6.0416L21.0626 5.92431C21.0626 5.78108 21.0558 5.63221 21.0502 5.48222V5.44951C20.9398 4.00142 20.0648 2.33905 19.0332 1.29922C21.1943 1.41764 23.0423 3.20407 23.236 5.39876ZM15.014 4.66569C15.1762 3.25595 16.0512 2.11349 17.2967 1.59358C18.8339 2.20371 20.0074 3.67887 20.156 5.39989V5.45177C20.1684 5.58823 20.1684 5.71793 20.1684 5.84762L14.9937 5.37959C14.9746 5.1326 14.9813 4.89915 15.014 4.66569Z" fill="#4080FF"/>
<path d="M0 33.5686C0 33.5686 4.87061 32.3799 7.88532 33.854L3.94266 7.66992L0 33.5686Z" fill="#1F4AA0"/>
<path d="M14.7448 12.5728L26.057 13.087L27.4512 15.7295L12.9441 15.4701L14.7448 12.5728Z" fill="white"/>
<path d="M20.2843 16.4118V17.1787C20.2843 17.9208 19.63 18.5309 18.8147 18.5399L18.6221 18.5422C17.7899 18.5512 17.1041 17.9366 17.1041 17.1719V16.3813L20.2843 16.4118Z" fill="white"/>
<path d="M12.7177 17.1608V16.3364L16.1671 16.3703V17.1676C16.1671 17.939 15.4588 18.5751 14.5747 18.5853L14.3653 18.5875C13.4632 18.5988 12.7177 17.9582 12.7177 17.1608Z" fill="white"/>
<path d="M22.3284 24.7348L13.7302 25.372V19.3868C13.9352 19.4274 14.1469 19.45 14.3654 19.4455L14.5748 19.4409C15.4341 19.424 16.183 19.0383 16.638 18.4665C17.0884 19.0248 17.8148 19.3789 18.6222 19.3631L18.8148 19.3597C19.6076 19.3451 20.2991 18.974 20.718 18.4248C21.0919 18.9064 21.6719 19.2312 22.3284 19.2819V24.7348Z" fill="white"/>
<path d="M22.5524 18.498C21.7833 18.507 21.1493 17.9149 21.1493 17.1796V16.4194L24.0908 16.4488V17.1863C24.0908 17.9002 23.4849 18.4878 22.7304 18.4957L22.5524 18.498Z" fill="white"/>
<path d="M26.8915 24.3966L23.1583 24.6729V19.2369C23.7101 19.1219 24.1808 18.8106 24.4928 18.3877C24.8779 18.9042 25.4996 19.2335 26.1933 19.22L26.3588 19.2166C26.5446 19.2132 26.7226 19.1828 26.8926 19.1343V24.3966H26.8915Z" fill="white"/>
<path d="M27.6201 17.1946C27.6201 17.8826 27.0581 18.4476 26.3577 18.4555L26.1921 18.4577C25.4793 18.4656 24.8903 17.8961 24.8903 17.189V16.457L27.619 16.4841V17.1946H27.6201Z" fill="white"/>
<path d="M51.44 25.2C50.24 25.2 49.2133 25.02 48.36 24.66C47.5067 24.3 46.86 23.8267 46.42 23.24C45.98 22.6533 45.7467 22.0133 45.72 21.32C45.72 21.2133 45.76 21.12 45.84 21.04C45.92 20.9467 46.02 20.9 46.14 20.9H47.96C48.1067 20.9 48.2267 20.9333 48.32 21C48.4133 21.0667 48.5 21.16 48.58 21.28C48.7133 21.7333 49.0133 22.1133 49.48 22.42C49.96 22.7267 50.6133 22.88 51.44 22.88C52.3733 22.88 53.0733 22.7267 53.54 22.42C54.02 22.1 54.26 21.6667 54.26 21.12C54.26 20.76 54.14 20.46 53.9 20.22C53.66 19.98 53.2933 19.7733 52.8 19.6C52.32 19.4133 51.6 19.1933 50.64 18.94C49.0667 18.5667 47.9133 18.0733 47.18 17.46C46.4467 16.8467 46.08 15.9667 46.08 14.82C46.08 14.0467 46.2933 13.36 46.72 12.76C47.1467 12.1467 47.7533 11.6667 48.54 11.32C49.34 10.9733 50.2667 10.8 51.32 10.8C52.4267 10.8 53.38 10.9933 54.18 11.38C54.9933 11.7667 55.6067 12.2533 56.02 12.84C56.4467 13.4133 56.6733 13.9867 56.7 14.56C56.7 14.6667 56.66 14.7667 56.58 14.86C56.5 14.94 56.4 14.98 56.28 14.98H54.38C54.0867 14.98 53.8867 14.86 53.78 14.62C53.7133 14.1933 53.4533 13.84 53 13.56C52.5467 13.2667 51.9867 13.12 51.32 13.12C50.5867 13.12 50.0067 13.26 49.58 13.54C49.1667 13.82 48.96 14.2267 48.96 14.76C48.96 15.12 49.0667 15.42 49.28 15.66C49.4933 15.9 49.8267 16.1133 50.28 16.3C50.7333 16.4733 51.3933 16.6733 52.26 16.9C53.4467 17.1667 54.3867 17.4667 55.08 17.8C55.7867 18.1333 56.3067 18.5533 56.64 19.06C56.9733 19.5667 57.14 20.2133 57.14 21C57.14 21.8667 56.9 22.62 56.42 23.26C55.9533 23.8867 55.2867 24.3667 54.42 24.7C53.5667 25.0333 52.5733 25.2 51.44 25.2ZM63.7916 25.2C62.2182 25.2 61.0049 24.8 60.1516 24C59.2982 23.2 58.8382 22.0933 58.7716 20.68L58.7516 19.8L58.7716 18.92C58.8382 17.52 59.3049 16.42 60.1716 15.62C61.0382 14.8067 62.2449 14.4 63.7916 14.4C65.3249 14.4 66.5249 14.8067 67.3916 15.62C68.2582 16.42 68.7249 17.52 68.7916 18.92C68.8049 19.08 68.8116 19.3733 68.8116 19.8C68.8116 20.2267 68.8049 20.52 68.7916 20.68C68.7249 22.0933 68.2649 23.2 67.4116 24C66.5582 24.8 65.3516 25.2 63.7916 25.2ZM63.7916 23.18C64.4982 23.18 65.0382 22.96 65.4116 22.52C65.7982 22.08 66.0049 21.4333 66.0316 20.58C66.0449 20.4467 66.0516 20.1867 66.0516 19.8C66.0516 19.4133 66.0449 19.1533 66.0316 19.02C66.0049 18.1667 65.7982 17.52 65.4116 17.08C65.0249 16.6267 64.4849 16.4 63.7916 16.4C63.0849 16.4 62.5382 16.6267 62.1516 17.08C61.7649 17.52 61.5582 18.1667 61.5316 19.02L61.5116 19.8L61.5316 20.58C61.5582 21.4333 61.7649 22.08 62.1516 22.52C62.5382 22.96 63.0849 23.18 63.7916 23.18ZM75.527 25.2C74.0604 25.2 72.887 24.7933 72.007 23.98C71.1404 23.1667 70.6804 22.04 70.627 20.6L70.607 19.8L70.627 19C70.6804 17.56 71.1404 16.4333 72.007 15.62C72.887 14.8067 74.0604 14.4 75.527 14.4C76.5804 14.4 77.467 14.5867 78.187 14.96C78.9204 15.3333 79.4604 15.7933 79.807 16.34C80.167 16.8733 80.3604 17.3867 80.387 17.88C80.4004 18.0133 80.3537 18.1267 80.247 18.22C80.1537 18.3133 80.0404 18.36 79.907 18.36H78.127C77.9804 18.36 77.8737 18.3333 77.807 18.28C77.7404 18.2133 77.6737 18.1 77.607 17.94C77.407 17.4333 77.1404 17.0667 76.807 16.84C76.487 16.6133 76.0737 16.5 75.567 16.5C74.887 16.5 74.3537 16.7133 73.967 17.14C73.5937 17.5667 73.3937 18.22 73.367 19.1L73.347 19.84L73.367 20.5C73.447 22.2333 74.1804 23.1 75.567 23.1C76.087 23.1 76.507 22.9933 76.827 22.78C77.147 22.5533 77.407 22.18 77.607 21.66C77.6604 21.5133 77.7204 21.4067 77.787 21.34C77.867 21.2733 77.9804 21.24 78.127 21.24H79.907C80.0404 21.24 80.1537 21.2867 80.247 21.38C80.3537 21.4733 80.4004 21.5867 80.387 21.72C80.3604 22.1867 80.1737 22.6933 79.827 23.24C79.4804 23.7733 78.947 24.2333 78.227 24.62C77.507 25.0067 76.607 25.2 75.527 25.2ZM82.8723 12.9C82.739 12.9 82.6257 12.8533 82.5323 12.76C82.439 12.6667 82.3923 12.5533 82.3923 12.42V10.96C82.3923 10.8133 82.439 10.6933 82.5323 10.6C82.6257 10.5067 82.739 10.46 82.8723 10.46H84.7123C84.859 10.46 84.979 10.5067 85.0723 10.6C85.1657 10.6933 85.2123 10.8133 85.2123 10.96V12.42C85.2123 12.5533 85.159 12.6667 85.0523 12.76C84.959 12.8533 84.8457 12.9 84.7123 12.9H82.8723ZM82.9523 25C82.819 25 82.7057 24.9533 82.6123 24.86C82.519 24.7667 82.4723 24.6533 82.4723 24.52V15.08C82.4723 14.9333 82.519 14.82 82.6123 14.74C82.7057 14.6467 82.819 14.6 82.9523 14.6H84.6523C84.7857 14.6 84.899 14.6467 84.9923 14.74C85.0857 14.8333 85.1323 14.9467 85.1323 15.08V24.52C85.1323 24.6533 85.0857 24.7667 84.9923 24.86C84.899 24.9533 84.7857 25 84.6523 25H82.9523ZM90.7853 25.2C90.1053 25.2 89.4786 25.0667 88.9053 24.8C88.3453 24.52 87.8986 24.1467 87.5653 23.68C87.2453 23.2133 87.0853 22.7 87.0853 22.14C87.0853 21.2333 87.452 20.5 88.1853 19.94C88.9186 19.38 89.9253 19 91.2053 18.8L93.9453 18.4V17.98C93.9453 17.4067 93.7986 16.9733 93.5053 16.68C93.212 16.3867 92.7453 16.24 92.1053 16.24C91.6653 16.24 91.312 16.32 91.0453 16.48C90.7786 16.64 90.5586 16.8067 90.3853 16.98C90.2253 17.14 90.1186 17.2467 90.0653 17.3C90.012 17.46 89.912 17.54 89.7653 17.54H88.2053C88.0853 17.54 87.9786 17.5 87.8853 17.42C87.8053 17.34 87.7653 17.2333 87.7653 17.1C87.7786 16.7667 87.9386 16.3933 88.2453 15.98C88.5653 15.5533 89.052 15.1867 89.7053 14.88C90.3586 14.56 91.1653 14.4 92.1253 14.4C93.6986 14.4 94.8453 14.7533 95.5653 15.46C96.2853 16.1667 96.6453 17.0933 96.6453 18.24V24.52C96.6453 24.6533 96.5986 24.7667 96.5053 24.86C96.4253 24.9533 96.312 25 96.1653 25H94.5053C94.372 25 94.2586 24.9533 94.1653 24.86C94.072 24.7667 94.0253 24.6533 94.0253 24.52V23.74C93.732 24.1667 93.3186 24.52 92.7853 24.8C92.252 25.0667 91.5853 25.2 90.7853 25.2ZM91.4653 23.28C92.1986 23.28 92.7986 23.04 93.2653 22.56C93.732 22.08 93.9653 21.3867 93.9653 20.48V20.08L91.9653 20.4C90.432 20.64 89.6653 21.1533 89.6653 21.94C89.6653 22.3667 89.8386 22.7 90.1853 22.94C90.5453 23.1667 90.972 23.28 91.4653 23.28ZM99.7106 25C99.5773 25 99.464 24.9533 99.3706 24.86C99.2773 24.7667 99.2306 24.6533 99.2306 24.52V11.28C99.2306 11.1333 99.2773 11.02 99.3706 10.94C99.464 10.8467 99.5773 10.8 99.7106 10.8H101.391C101.537 10.8 101.651 10.8467 101.731 10.94C101.824 11.02 101.871 11.1333 101.871 11.28V24.52C101.871 24.6533 101.824 24.7667 101.731 24.86C101.651 24.9533 101.537 25 101.391 25H99.7106ZM109.643 25.2C108.443 25.2 107.416 25.02 106.563 24.66C105.71 24.3 105.063 23.8267 104.623 23.24C104.183 22.6533 103.95 22.0133 103.923 21.32C103.923 21.2133 103.963 21.12 104.043 21.04C104.123 20.9467 104.223 20.9 104.343 20.9H106.163C106.31 20.9 106.43 20.9333 106.523 21C106.616 21.0667 106.703 21.16 106.783 21.28C106.916 21.7333 107.216 22.1133 107.683 22.42C108.163 22.7267 108.816 22.88 109.643 22.88C110.576 22.88 111.276 22.7267 111.743 22.42C112.223 22.1 112.463 21.6667 112.463 21.12C112.463 20.76 112.343 20.46 112.103 20.22C111.863 19.98 111.496 19.7733 111.003 19.6C110.523 19.4133 109.803 19.1933 108.843 18.94C107.27 18.5667 106.116 18.0733 105.383 17.46C104.65 16.8467 104.283 15.9667 104.283 14.82C104.283 14.0467 104.496 13.36 104.923 12.76C105.35 12.1467 105.956 11.6667 106.743 11.32C107.543 10.9733 108.47 10.8 109.523 10.8C110.63 10.8 111.583 10.9933 112.383 11.38C113.196 11.7667 113.81 12.2533 114.223 12.84C114.65 13.4133 114.876 13.9867 114.903 14.56C114.903 14.6667 114.863 14.7667 114.783 14.86C114.703 14.94 114.603 14.98 114.483 14.98H112.583C112.29 14.98 112.09 14.86 111.983 14.62C111.916 14.1933 111.656 13.84 111.203 13.56C110.75 13.2667 110.19 13.12 109.523 13.12C108.79 13.12 108.21 13.26 107.783 13.54C107.37 13.82 107.163 14.2267 107.163 14.76C107.163 15.12 107.27 15.42 107.483 15.66C107.696 15.9 108.03 16.1133 108.483 16.3C108.936 16.4733 109.596 16.6733 110.463 16.9C111.65 17.1667 112.59 17.4667 113.283 17.8C113.99 18.1333 114.51 18.5533 114.843 19.06C115.176 19.5667 115.343 20.2133 115.343 21C115.343 21.8667 115.103 22.62 114.623 23.26C114.156 23.8867 113.49 24.3667 112.623 24.7C111.77 25.0333 110.776 25.2 109.643 25.2ZM117.875 25C117.741 25 117.628 24.9533 117.535 24.86C117.441 24.7667 117.395 24.6533 117.395 24.52V11.28C117.395 11.1333 117.441 11.02 117.535 10.94C117.628 10.8467 117.741 10.8 117.875 10.8H119.695C119.841 10.8 119.955 10.8467 120.035 10.94C120.128 11.02 120.175 11.1333 120.175 11.28V15.84C120.975 14.88 122.048 14.4 123.395 14.4C124.621 14.4 125.601 14.8067 126.335 15.62C127.068 16.42 127.435 17.5133 127.435 18.9V24.52C127.435 24.6533 127.388 24.7667 127.295 24.86C127.215 24.9533 127.101 25 126.955 25H125.135C124.988 25 124.868 24.9533 124.775 24.86C124.681 24.7667 124.635 24.6533 124.635 24.52V19.02C124.635 18.2467 124.441 17.6467 124.055 17.22C123.681 16.78 123.141 16.56 122.435 16.56C121.755 16.56 121.208 16.78 120.795 17.22C120.381 17.66 120.175 18.26 120.175 19.02V24.52C120.175 24.6533 120.128 24.7667 120.035 24.86C119.955 24.9533 119.841 25 119.695 25H117.875ZM134.592 25.2C133.019 25.2 131.806 24.8 130.952 24C130.099 23.2 129.639 22.0933 129.572 20.68L129.552 19.8L129.572 18.92C129.639 17.52 130.106 16.42 130.972 15.62C131.839 14.8067 133.046 14.4 134.592 14.4C136.126 14.4 137.326 14.8067 138.192 15.62C139.059 16.42 139.526 17.52 139.592 18.92C139.606 19.08 139.612 19.3733 139.612 19.8C139.612 20.2267 139.606 20.52 139.592 20.68C139.526 22.0933 139.066 23.2 138.212 24C137.359 24.8 136.152 25.2 134.592 25.2ZM134.592 23.18C135.299 23.18 135.839 22.96 136.212 22.52C136.599 22.08 136.806 21.4333 136.832 20.58C136.846 20.4467 136.852 20.1867 136.852 19.8C136.852 19.4133 136.846 19.1533 136.832 19.02C136.806 18.1667 136.599 17.52 136.212 17.08C135.826 16.6267 135.286 16.4 134.592 16.4C133.886 16.4 133.339 16.6267 132.952 17.08C132.566 17.52 132.359 18.1667 132.332 19.02L132.312 19.8L132.332 20.58C132.359 21.4333 132.566 22.08 132.952 22.52C133.339 22.96 133.886 23.18 134.592 23.18ZM142.328 28.8C142.194 28.8 142.081 28.7533 141.988 28.66C141.894 28.58 141.848 28.4667 141.848 28.32V15.08C141.848 14.9333 141.894 14.82 141.988 14.74C142.081 14.6467 142.194 14.6 142.328 14.6H143.928C144.074 14.6 144.194 14.6467 144.288 14.74C144.381 14.8333 144.428 14.9467 144.428 15.08V15.88C145.134 14.8933 146.194 14.4 147.608 14.4C148.954 14.4 149.988 14.8267 150.708 15.68C151.428 16.52 151.814 17.6533 151.868 19.08C151.881 19.24 151.888 19.48 151.888 19.8C151.888 20.12 151.881 20.36 151.868 20.52C151.828 21.92 151.441 23.0533 150.708 23.92C149.988 24.7733 148.954 25.2 147.608 25.2C146.274 25.2 145.254 24.7267 144.548 23.78V28.32C144.548 28.4667 144.501 28.58 144.408 28.66C144.328 28.7533 144.214 28.8 144.068 28.8H142.328ZM146.848 23.04C148.274 23.04 149.034 22.16 149.128 20.4C149.141 20.2667 149.148 20.0667 149.148 19.8C149.148 19.5333 149.141 19.3333 149.128 19.2C149.034 17.44 148.274 16.56 146.848 16.56C146.088 16.56 145.521 16.8067 145.148 17.3C144.774 17.7933 144.574 18.3933 144.548 19.1C144.534 19.26 144.528 19.5133 144.528 19.86C144.528 20.2067 144.534 20.4667 144.548 20.64C144.574 21.3067 144.781 21.8733 145.168 22.34C145.554 22.8067 146.114 23.04 146.848 23.04Z" fill="#1890FF"/>
</svg>