<svg width="34" height="34" viewBox="0 0 34 34" fill="none" xmlns="http://www.w3.org/2000/svg">
<path d="M32.3995 16.0046C32.2768 15.0019 32.1529 14.0005 32.0302 12.9978L31.4851 8.54869C31.368 7.64646 30.681 6.79497 30.0132 6.73069L24.1313 6.19837C24.1437 5.96491 24.1437 5.72469 24.1313 5.48447V5.45177C23.905 2.44393 21.3036 0.00225559 18.3215 0.00225559C18.1661 0.00225559 18.0096 0.00902237 17.8542 0.0214281C17.4904 0.0541342 17.1345 0.125185 16.7967 0.228943C16.0377 0.462396 15.3631 0.871786 14.8192 1.40411C13.996 2.20259 13.4577 3.28753 13.3338 4.51457C13.3146 4.74802 13.3146 4.98824 13.3203 5.22846H13.3011L12.4317 5.15064L11.9002 5.10553C11.9069 4.95554 11.9126 4.80667 11.9328 4.66344C12.05 3.63038 12.5624 2.74167 13.3135 2.13041C14.014 1.11765 15.0838 0.383451 16.3552 0.117291C15.9926 0.0394729 15.6233 0 15.2404 0C12.5748 0 10.4993 1.95447 10.2538 4.51344C10.2414 4.65667 10.2346 4.80554 10.2346 4.95554L6.86178 4.6499C5.81108 4.55291 4.98111 5.50026 5.15003 6.66302C5.8719 11.7889 6.59376 16.9158 7.31562 22.0416C7.61631 24.1675 8.40912 29.7806 8.7098 31.9065C8.90463 33.2576 9.80555 34.153 10.8236 33.9782L33.0212 30.2317C34.3478 29.996 33.9604 28.5795 33.903 28.1926L32.3995 16.0046ZM23.236 5.39876V5.45064C23.2552 5.67733 23.2496 5.90514 23.2293 6.11942L22.5153 6.05401L22.3531 6.0416L21.0626 5.92431C21.0626 5.78108 21.0558 5.63221 21.0502 5.48222V5.44951C20.9398 4.00142 20.0648 2.33905 19.0332 1.29922C21.1943 1.41764 23.0423 3.20407 23.236 5.39876ZM15.014 4.66569C15.1762 3.25595 16.0512 2.11349 17.2967 1.59358C18.8339 2.20371 20.0074 3.67887 20.156 5.39989V5.45177C20.1684 5.58823 20.1684 5.71793 20.1684 5.84762L14.9937 5.37959C14.9746 5.1326 14.9813 4.89915 15.014 4.66569Z" fill="#4080FF"/>
<path d="M0 33.5686C0 33.5686 4.87061 32.3799 7.88532 33.854L3.94266 7.66992L0 33.5686Z" fill="#1F4AA0"/>
<path d="M14.7448 12.5728L26.057 13.087L27.4512 15.7295L12.9441 15.4701L14.7448 12.5728Z" fill="white"/>
<path d="M20.2843 16.4118V17.1787C20.2843 17.9208 19.63 18.5309 18.8147 18.5399L18.6221 18.5422C17.7899 18.5512 17.1041 17.9366 17.1041 17.1719V16.3813L20.2843 16.4118Z" fill="white"/>
<path d="M12.7177 17.1608V16.3364L16.1671 16.3703V17.1676C16.1671 17.939 15.4588 18.5751 14.5747 18.5853L14.3653 18.5875C13.4632 18.5988 12.7177 17.9582 12.7177 17.1608Z" fill="white"/>
<path d="M22.3284 24.7348L13.7302 25.372V19.3868C13.9352 19.4274 14.1469 19.45 14.3654 19.4455L14.5748 19.4409C15.4341 19.424 16.183 19.0383 16.638 18.4665C17.0884 19.0248 17.8148 19.3789 18.6222 19.3631L18.8148 19.3597C19.6076 19.3451 20.2991 18.974 20.718 18.4248C21.0919 18.9064 21.6719 19.2312 22.3284 19.2819V24.7348Z" fill="white"/>
<path d="M22.5524 18.498C21.7833 18.507 21.1493 17.9149 21.1493 17.1796V16.4194L24.0908 16.4488V17.1863C24.0908 17.9002 23.4849 18.4878 22.7304 18.4957L22.5524 18.498Z" fill="white"/>
<path d="M26.8915 24.3966L23.1583 24.6729V19.2369C23.7101 19.1219 24.1808 18.8106 24.4928 18.3877C24.8779 18.9042 25.4996 19.2335 26.1933 19.22L26.3588 19.2166C26.5446 19.2132 26.7226 19.1828 26.8926 19.1343V24.3966H26.8915Z" fill="white"/>
<path d="M27.6201 17.1946C27.6201 17.8826 27.0581 18.4476 26.3577 18.4555L26.1921 18.4577C25.4793 18.4656 24.8903 17.8961 24.8903 17.189V16.457L27.619 16.4841V17.1946H27.6201Z" fill="white"/>
</svg>