<svg width="206" height="33" viewBox="0 0 206 33" fill="none" xmlns="http://www.w3.org/2000/svg">
<path d="M43.434 26.154C42.4807 26.154 41.5493 26.0293 40.64 25.78C39.7307 25.5307 39.0047 25.2153 38.462 24.834L39.518 22.744C40.046 23.096 40.6767 23.382 41.41 23.602C42.158 23.8073 42.8913 23.91 43.61 23.91C45.2527 23.91 46.074 23.4773 46.074 22.612C46.074 22.2013 45.8613 21.9153 45.436 21.754C45.0253 21.5927 44.358 21.4387 43.434 21.292C42.466 21.1453 41.674 20.9767 41.058 20.786C40.4567 20.5953 39.9287 20.2653 39.474 19.796C39.034 19.312 38.814 18.6447 38.814 17.794C38.814 16.6793 39.276 15.792 40.2 15.132C41.1387 14.4573 42.4 14.12 43.984 14.12C44.7907 14.12 45.5973 14.2153 46.404 14.406C47.2107 14.582 47.8707 14.824 48.384 15.132L47.328 17.222C46.3307 16.6353 45.2087 16.342 43.962 16.342C43.1553 16.342 42.5393 16.4667 42.114 16.716C41.7033 16.9507 41.498 17.266 41.498 17.662C41.498 18.102 41.718 18.4173 42.158 18.608C42.6127 18.784 43.3093 18.9527 44.248 19.114C45.1867 19.2607 45.9567 19.4293 46.558 19.62C47.1593 19.8107 47.6727 20.1333 48.098 20.588C48.538 21.0427 48.758 21.688 48.758 22.524C48.758 23.624 48.2813 24.504 47.328 25.164C46.3747 25.824 45.0767 26.154 43.434 26.154ZM56.4063 26.154C55.2183 26.154 54.1476 25.8973 53.1943 25.384C52.2409 24.8707 51.4929 24.1593 50.9503 23.25C50.4223 22.326 50.1583 21.2847 50.1583 20.126C50.1583 18.9673 50.4223 17.9333 50.9503 17.024C51.4929 16.1147 52.2409 15.4033 53.1943 14.89C54.1476 14.3767 55.2183 14.12 56.4063 14.12C57.6089 14.12 58.6869 14.3767 59.6403 14.89C60.5936 15.4033 61.3343 16.1147 61.8623 17.024C62.4049 17.9333 62.6763 18.9673 62.6763 20.126C62.6763 21.2847 62.4049 22.326 61.8623 23.25C61.3343 24.1593 60.5936 24.8707 59.6403 25.384C58.6869 25.8973 57.6089 26.154 56.4063 26.154ZM56.4063 23.8C57.4183 23.8 58.2543 23.4627 58.9143 22.788C59.5743 22.1133 59.9043 21.226 59.9043 20.126C59.9043 19.026 59.5743 18.1387 58.9143 17.464C58.2543 16.7893 57.4183 16.452 56.4063 16.452C55.3943 16.452 54.5583 16.7893 53.8983 17.464C53.2529 18.1387 52.9303 19.026 52.9303 20.126C52.9303 21.226 53.2529 22.1133 53.8983 22.788C54.5583 23.4627 55.3943 23.8 56.4063 23.8ZM70.696 26.154C69.4786 26.154 68.386 25.8973 67.418 25.384C66.45 24.8707 65.6946 24.1593 65.152 23.25C64.6093 22.326 64.338 21.2847 64.338 20.126C64.338 18.9673 64.6093 17.9333 65.152 17.024C65.6946 16.1147 66.4426 15.4033 67.396 14.89C68.364 14.3767 69.464 14.12 70.696 14.12C71.8546 14.12 72.8666 14.3547 73.732 14.824C74.612 15.2933 75.272 15.968 75.712 16.848L73.6 18.08C73.2626 17.5373 72.8373 17.134 72.324 16.87C71.8253 16.5913 71.2753 16.452 70.674 16.452C69.6473 16.452 68.7966 16.7893 68.122 17.464C67.4473 18.124 67.11 19.0113 67.11 20.126C67.11 21.2407 67.44 22.1353 68.1 22.81C68.7746 23.47 69.6326 23.8 70.674 23.8C71.2753 23.8 71.8253 23.668 72.324 23.404C72.8373 23.1253 73.2626 22.7147 73.6 22.172L75.712 23.404C75.2573 24.284 74.59 24.966 73.71 25.45C72.8446 25.9193 71.84 26.154 70.696 26.154ZM78.0892 14.252H80.8392V26H78.0892V14.252ZM79.4752 12.316C78.9765 12.316 78.5585 12.162 78.2212 11.854C77.8838 11.5313 77.7152 11.1353 77.7152 10.666C77.7152 10.1967 77.8838 9.808 78.2212 9.5C78.5585 9.17733 78.9765 9.016 79.4752 9.016C79.9738 9.016 80.3918 9.17 80.7292 9.478C81.0665 9.77133 81.2352 10.1453 81.2352 10.6C81.2352 11.084 81.0665 11.4947 80.7292 11.832C80.4065 12.1547 79.9885 12.316 79.4752 12.316ZM88.9365 14.12C90.6672 14.12 91.9872 14.538 92.8965 15.374C93.8205 16.1953 94.2825 17.442 94.2825 19.114V26H91.6865V24.57C91.3492 25.0833 90.8652 25.4793 90.2345 25.758C89.6185 26.022 88.8705 26.154 87.9905 26.154C87.1105 26.154 86.3405 26.0073 85.6805 25.714C85.0205 25.406 84.5072 24.988 84.1405 24.46C83.7885 23.9173 83.6125 23.3087 83.6125 22.634C83.6125 21.578 84.0012 20.7347 84.7785 20.104C85.5705 19.4587 86.8099 19.136 88.4965 19.136H91.5325V18.96C91.5325 18.1387 91.2832 17.508 90.7845 17.068C90.3005 16.628 89.5745 16.408 88.6065 16.408C87.9465 16.408 87.2939 16.5107 86.6485 16.716C86.0179 16.9213 85.4825 17.2073 85.0425 17.574L83.9645 15.572C84.5805 15.1027 85.3212 14.7433 86.1865 14.494C87.0519 14.2447 87.9685 14.12 88.9365 14.12ZM88.5625 24.152C89.2519 24.152 89.8605 23.998 90.3885 23.69C90.9312 23.3673 91.3125 22.9127 91.5325 22.326V20.962H88.6945C87.1105 20.962 86.3185 21.4827 86.3185 22.524C86.3185 23.0227 86.5165 23.4187 86.9125 23.712C87.3085 24.0053 87.8585 24.152 88.5625 24.152ZM97.8118 9.676H100.562V26H97.8118V9.676ZM107.801 26.154C106.848 26.154 105.917 26.0293 105.007 25.78C104.098 25.5307 103.372 25.2153 102.829 24.834L103.885 22.744C104.413 23.096 105.044 23.382 105.777 23.602C106.525 23.8073 107.259 23.91 107.977 23.91C109.62 23.91 110.441 23.4773 110.441 22.612C110.441 22.2013 110.229 21.9153 109.803 21.754C109.393 21.5927 108.725 21.4387 107.801 21.292C106.833 21.1453 106.041 20.9767 105.425 20.786C104.824 20.5953 104.296 20.2653 103.841 19.796C103.401 19.312 103.181 18.6447 103.181 17.794C103.181 16.6793 103.643 15.792 104.567 15.132C105.506 14.4573 106.767 14.12 108.351 14.12C109.158 14.12 109.965 14.2153 110.771 14.406C111.578 14.582 112.238 14.824 112.751 15.132L111.695 17.222C110.698 16.6353 109.576 16.342 108.329 16.342C107.523 16.342 106.907 16.4667 106.481 16.716C106.071 16.9507 105.865 17.266 105.865 17.662C105.865 18.102 106.085 18.4173 106.525 18.608C106.98 18.784 107.677 18.9527 108.615 19.114C109.554 19.2607 110.324 19.4293 110.925 19.62C111.527 19.8107 112.04 20.1333 112.465 20.588C112.905 21.0427 113.125 21.688 113.125 22.524C113.125 23.624 112.649 24.504 111.695 25.164C110.742 25.824 109.444 26.154 107.801 26.154ZM122.159 14.12C123.641 14.12 124.829 14.5527 125.723 15.418C126.618 16.2833 127.065 17.5667 127.065 19.268V26H124.315V19.62C124.315 18.5933 124.073 17.8233 123.589 17.31C123.105 16.782 122.416 16.518 121.521 16.518C120.509 16.518 119.71 16.826 119.123 17.442C118.537 18.0433 118.243 18.916 118.243 20.06V26H115.493V9.676H118.243V15.616C118.698 15.132 119.255 14.7653 119.915 14.516C120.59 14.252 121.338 14.12 122.159 14.12ZM135.941 26.154C134.753 26.154 133.683 25.8973 132.729 25.384C131.776 24.8707 131.028 24.1593 130.485 23.25C129.957 22.326 129.693 21.2847 129.693 20.126C129.693 18.9673 129.957 17.9333 130.485 17.024C131.028 16.1147 131.776 15.4033 132.729 14.89C133.683 14.3767 134.753 14.12 135.941 14.12C137.144 14.12 138.222 14.3767 139.175 14.89C140.129 15.4033 140.869 16.1147 141.397 17.024C141.94 17.9333 142.211 18.9673 142.211 20.126C142.211 21.2847 141.94 22.326 141.397 23.25C140.869 24.1593 140.129 24.8707 139.175 25.384C138.222 25.8973 137.144 26.154 135.941 26.154ZM135.941 23.8C136.953 23.8 137.789 23.4627 138.449 22.788C139.109 22.1133 139.439 21.226 139.439 20.126C139.439 19.026 139.109 18.1387 138.449 17.464C137.789 16.7893 136.953 16.452 135.941 16.452C134.929 16.452 134.093 16.7893 133.433 17.464C132.788 18.1387 132.465 19.026 132.465 20.126C132.465 21.226 132.788 22.1133 133.433 22.788C134.093 23.4627 134.929 23.8 135.941 23.8ZM151.353 14.12C152.497 14.12 153.516 14.3693 154.411 14.868C155.32 15.3667 156.032 16.0707 156.545 16.98C157.058 17.8893 157.315 18.938 157.315 20.126C157.315 21.314 157.058 22.37 156.545 23.294C156.032 24.2033 155.32 24.9073 154.411 25.406C153.516 25.9047 152.497 26.154 151.353 26.154C149.769 26.154 148.515 25.626 147.591 24.57V30.268H144.841V14.252H147.459V15.792C147.914 15.2347 148.471 14.8167 149.131 14.538C149.806 14.2593 150.546 14.12 151.353 14.12ZM151.045 23.8C152.057 23.8 152.886 23.4627 153.531 22.788C154.191 22.1133 154.521 21.226 154.521 20.126C154.521 19.026 154.191 18.1387 153.531 17.464C152.886 16.7893 152.057 16.452 151.045 16.452C150.385 16.452 149.791 16.606 149.263 16.914C148.735 17.2073 148.317 17.6327 148.009 18.19C147.701 18.7473 147.547 19.3927 147.547 20.126C147.547 20.8593 147.701 21.5047 148.009 22.062C148.317 22.6193 148.735 23.052 149.263 23.36C149.791 23.6533 150.385 23.8 151.045 23.8Z" fill="#5B86E5"/>
<path d="M22.1616 14.3406C20.1483 10.677 17.8048 6.04514 17.2877 4.03178C17.1337 3.43767 17.1447 2.94258 17.6948 2.4915C18.1679 2.09543 18.751 2.11744 19.0811 2.32647C19.5651 2.64553 19.4551 3.34966 19.3451 3.73473C19.2021 4.26282 18.96 4.41685 18.773 4.49386L19.5761 6.51823C20.2143 6.26518 21.0614 5.67108 21.4465 4.31783C21.8976 2.70054 21.4575 1.27028 20.2693 0.500144C19.0921 -0.269995 17.4638 -0.137971 16.3086 0.808199C15.5164 1.45732 14.6803 2.63453 15.1754 4.57088C15.8685 7.27736 18.949 13.0424 20.2473 15.3858C20.2583 15.3968 20.2583 15.4188 20.2473 15.4298L13.6901 30.7886C13.6791 30.8106 13.6461 30.8326 13.6131 30.8216L2.21502 25.9587C2.18201 25.9477 2.17101 25.9147 2.18201 25.8817L8.7612 10.4789C8.7612 10.4679 8.7722 10.4569 8.7942 10.4459L15.1864 8.45458L14.5372 6.3862L8.12308 8.37756L8.10108 8.38856C7.49597 8.5866 7.01188 9.03768 6.75884 9.62079L0.179651 25.0236C-0.304436 26.1568 0.223659 27.466 1.35686 27.9501L12.7659 32.824C13.052 32.945 13.349 33 13.6461 33C13.9321 33 14.2072 32.945 14.4822 32.835C15.0323 32.6149 15.4724 32.1859 15.7034 31.6358L22.2606 16.277C22.5247 15.6609 22.4917 14.9457 22.1616 14.3406Z" fill="#5B86E5"/>
<path d="M12.5349 13.5815C12.1718 14.4177 12.5679 15.3858 13.404 15.7489C14.2402 16.112 15.2084 15.7159 15.5714 14.8797C15.9345 14.0436 15.5384 13.0754 14.7023 12.7123C13.8661 12.3603 12.8979 12.7454 12.5349 13.5815Z" fill="#5B86E5"/>
</svg>
