<svg width="181" height="176" viewBox="0 0 181 176" fill="none" xmlns="http://www.w3.org/2000/svg">
<path d="M82.9833 17.8276C75.2848 33.0964 30.9456 11.6607 18.8664 29.9694C7.02241 47.9207 26.3536 63.0916 18.2434 104.071C13.88 126.111 5.90271 133.781 10.7714 147.35C15.7948 161.347 30.6951 171.044 44.0749 174.439C71.6796 181.438 83.7043 159.305 114.729 166.966C125.405 169.603 129.039 173.473 140.251 173.504C142.937 173.51 163.861 173.589 174.801 161.362C191.77 142.393 163.715 117.275 169.041 59.0624C169.932 49.3328 171.775 38.4439 165.773 27.0909C157.458 11.3578 139.944 5.99293 133.195 3.77898C116.777 -1.61208 91.7688 -2.38348 85.0767 9.1744C82.9136 12.9094 84.7151 14.3933 82.9833 17.8276Z" fill="#F3F9FF"/>
<path d="M131.191 106.65C131.191 106.65 143.669 85.4054 161.43 88.5165C171.461 109.94 152.125 122.163 152.125 122.163L130.71 124.554L131.191 106.65Z" fill="#234564"/>
<path d="M159.14 115.804L140.533 113.32L153.335 98.3006L164.22 99.3876L164.193 98.8003L153.797 97.7595L161.725 88.4599L161.126 88.2197L146.602 105.259L142.988 93.1628L142.598 93.7254L146.189 105.744L130.03 124.698L130.467 125.131L140.086 113.846L158.598 116.318L159.14 115.804Z" fill="#01898C"/>
<path d="M134.111 118.885C134.111 118.885 153.132 112.364 163.804 124.943C158.685 155.101 122.015 142.008 122.015 142.008L134.111 118.885Z" fill="#4080FF"/>
<path d="M151.23 142.862L137.183 131.564L164.004 125.094L163.788 124.486L147.51 128.412L152.123 117.487L151.443 117.523L146.774 128.592L124.693 133.92L124.907 134.524L136.518 131.723L150.514 142.978L151.23 142.862Z" fill="white"/>
<path d="M49.8652 113.775C49.8652 113.775 20.861 104.149 7.76123 119.888C21.1128 159.461 72.6066 145.345 72.6066 145.345L49.8652 113.775Z" fill="#FFE58C"/>
<path d="M49.8662 113.775C49.8662 113.775 20.862 104.149 7.76221 119.888C21.1138 159.461 72.6076 145.345 72.6076 145.345L49.8662 113.775Z" fill="#4080FF"/>
<path d="M29.7915 144.237L48.0897 130.327L7.66406 120.279L7.86281 119.501L32.3929 125.6L23.5243 111.057L24.5225 111.15L33.5059 125.873L66.7899 134.149L66.5911 134.927L49.0923 130.578L30.8604 144.43L29.7915 144.237Z" fill="white"/>
<path d="M65.0438 111.2C65.0438 111.2 58.6502 74.8262 33.0853 66.6255C8.74777 102.372 55.204 133.411 55.204 133.411L65.0438 111.2Z" fill="#234564"/>
<path d="M25.1297 98.3277L25.0359 97.4594L50.6548 107.875L32.8472 66.7507L33.5589 66.4954L46.1935 95.6676L54.3258 83.0466L54.6338 84.0981L46.5895 96.5853L56.8402 120.262L56.3724 121.08L51.0903 108.887L25.1297 98.3277Z" fill="#01898C"/>
<path d="M140.672 77.2874L142.648 89.1414H83.1858L81.2026 77.2874H140.672Z" fill="#5B86E5"/>
<path d="M76.2414 66.9397H79.8085L83.1861 89.1414H79.619H49.485L46.1074 66.9397H76.2414Z" fill="#5B86E5"/>
<path d="M112.677 89.1954H49.6411V154.47H112.677V89.1954Z" fill="#97CDFF"/>
<path d="M142.655 89.1954H108.954V154.47H142.655V89.1954Z" fill="#5B86E5"/>
<path d="M109.049 89.3913H49.6745L34.6143 66.8384H93.9956L109.049 89.3913Z" fill="#64AAEA"/>
<path d="M142.648 89.3913H108.954L122.83 66.8384H156.531L142.648 89.3913Z" fill="#0575DD"/>
<path d="M118.348 111.532V124.622L131.818 124.71V111.62L118.348 111.532ZM129.584 122.522L126.186 122.501V116.531L127.425 116.537L125.083 114.639L122.734 116.504L123.973 116.51V122.481L120.575 122.454V113.707L129.577 113.761V122.522H129.584Z" fill="#0575DD"/>
<path d="M118.193 129.465V131.633L124.603 131.687V129.506L118.193 129.465Z" fill="#0575DD"/>
<path d="M131.67 126.243L118.193 126.162V128.331L131.67 128.445V126.243Z" fill="#0575DD"/>
<path d="M80.3106 99.2325L86.6055 111.965L100.684 114.004L90.4974 123.913L92.9071 137.901L80.3106 131.296L67.721 137.901L70.1238 123.913L59.937 114.004L74.0158 111.965L80.3106 99.2325Z" fill="#64AAEA"/>
<path d="M64.2474 46.4131L66.0411 50.047L70.0549 50.6278L67.1511 53.4579L67.8348 57.443L64.2474 55.5653L60.6532 57.443L61.3369 53.4579L58.4331 50.6278L62.4469 50.047L64.2474 46.4131Z" fill="#FFE58C"/>
<path d="M119.689 39.1386L121.49 42.7725L125.504 43.3534L122.593 46.1834L123.283 50.1753L119.689 48.2908L116.102 50.1753L116.786 46.1834L113.882 43.3534L117.896 42.7725L119.689 39.1386Z" fill="#FFE58C"/>
<path d="M108.203 53.6876L110.003 57.3215L114.017 57.9024L111.107 60.7325L111.797 64.7175L108.203 62.8331L104.616 64.7175L105.299 60.7325L102.396 57.9024L106.409 57.3215L108.203 53.6876Z" fill="#F2CE54"/>
<path d="M90.7601 26.1364L93.921 32.5328L100.987 33.5527L95.8704 38.5307L97.082 45.5621L90.7601 42.2456L84.4314 45.5621L85.643 38.5307L80.5259 33.5527L87.5923 32.5328L90.7601 26.1364Z" fill="#FFE58C"/>
</svg>
