<svg width="37" height="37" viewBox="0 0 37 37" fill="none" xmlns="http://www.w3.org/2000/svg">
<path d="M11.2907 15.1574C10.7856 14.6064 9.91312 14.5605 9.3621 15.0656C8.81108 15.5707 8.76517 16.4431 9.27027 16.9941L16.2039 24.5248C16.4794 24.8003 16.8009 24.9839 17.1682 24.9839C17.1682 24.9839 17.1682 24.9839 17.2141 24.9839C17.5815 24.9839 17.9488 24.8462 18.1784 24.5707L35.7192 7.07578C36.2703 6.52476 36.2703 5.65231 35.7192 5.14721C35.1682 4.64211 34.2958 4.59619 33.7907 5.14721L17.2601 21.6319L11.2907 15.1574Z" fill="#50B861"/>
<path d="M35.3978 17.0405C34.6172 17.0405 34.0203 17.6375 34.0203 18.4181C34.0203 26.9589 27.0407 33.9385 18.4999 33.9385C9.95906 33.9385 2.97947 26.9589 2.97947 18.4181C2.97947 9.87727 9.95906 2.89768 18.4999 2.89768C19.2805 2.89768 19.8774 2.30074 19.8774 1.52013C19.8774 0.739517 19.2805 0.142578 18.4999 0.142578C8.44375 0.142578 0.224365 8.36197 0.224365 18.4181C0.224365 28.4742 8.44375 36.6936 18.4999 36.6936C28.556 36.6936 36.7754 28.4742 36.7754 18.4181C36.7754 17.6375 36.1785 17.0405 35.3978 17.0405Z" fill="#50B861"/>
</svg>
