<svg width="538" height="292" viewBox="0 0 538 292" fill="none" xmlns="http://www.w3.org/2000/svg">
<path opacity="0.3" fill-rule="evenodd" clip-rule="evenodd" d="M417.972 155.561C417.972 155.561 445.528 142.323 457.188 163.504C468.846 184.686 457.188 200.572 457.188 200.572C457.188 200.572 475.737 193.16 485.275 206.927C494.813 220.694 489.515 240.816 489.515 240.816C489.515 240.816 503.824 237.11 510.713 254.053C517.602 270.998 511.773 273.644 511.773 273.644C511.773 273.644 457.717 276.294 452.419 274.704C447.122 273.116 397.306 268.879 397.306 266.232C397.306 263.586 417.972 155.031 417.972 155.561Z" fill="#9BCFFF"/>
<path d="M537.36 272.305H0V279.72H537.36V272.305Z" fill="#1562AA"/>
<path d="M161.286 0H107.232V250.997H161.286V0Z" fill="#9BCFFF" fill-opacity="0.3"/>
<path fill-rule="evenodd" clip-rule="evenodd" d="M196.262 41.3038H264.096V9.53015H272.574V41.3038H290.591V246.76H196.262V41.3038Z" fill="#9BCFFF" fill-opacity="0.3"/>
<path fill-rule="evenodd" clip-rule="evenodd" d="M128.401 287.15C100.087 287.15 76.9961 288.105 76.9961 289.273C76.9961 290.442 100.087 291.397 128.401 291.397C156.715 291.397 179.806 290.445 179.806 289.273C179.806 288.105 156.715 287.15 128.401 287.15Z" fill="#1562AA"/>
<path opacity="0.3" fill-rule="evenodd" clip-rule="evenodd" d="M92.2396 166.521H87.2368V154.11C87.2368 144.044 78.9954 135.809 68.9216 135.809H59.4472C49.3733 135.809 41.1319 144.044 41.1319 154.11V187.83C34.8864 190.752 30.5317 197.099 30.5317 204.414V235.063C30.5317 245.129 38.7731 253.364 48.847 253.364H58.3214C65.0299 253.364 70.9246 249.711 74.1145 244.299C76.6951 245.689 79.6412 246.483 82.7628 246.483H92.2372C102.309 246.483 110.552 238.248 110.552 228.182V184.822C110.555 174.759 102.313 166.521 92.2396 166.521Z" fill="#9BCFFF"/>
<path fill-rule="evenodd" clip-rule="evenodd" d="M70.5446 159.91C71.858 159.91 72.9254 160.979 72.9254 162.289V211.58L88.9743 206.433C90.2025 206.038 91.5306 206.72 91.9253 207.95C92.3201 209.179 91.6378 210.506 90.4096 210.898L73.4152 216.348C73.2519 216.401 73.0886 216.433 72.9229 216.45V275.885C72.9229 277.192 71.8532 278.264 70.5446 278.264H70.5422C69.2311 278.264 68.1638 277.192 68.1638 275.885V237.549L49.4148 228.07C48.4255 227.57 48.0283 226.355 48.5278 225.369V225.367C49.0274 224.378 50.2434 223.981 51.2327 224.48L68.1638 233.039V175.441L61.465 171.211C60.8436 170.819 60.6584 169.994 61.0507 169.375H61.0531C61.443 168.754 62.2691 168.569 62.8881 168.961L68.1662 172.292V162.289C68.1662 160.979 69.2336 159.91 70.5446 159.91Z" fill="#9BCFFF"/>
<path d="M133.297 73.4719H404.068C409.104 73.4719 413.223 77.5894 413.223 82.6225V258.808H124.139V82.62C124.139 77.5894 128.26 73.4719 133.297 73.4719Z" fill="#1890FF"/>
<path fill-rule="evenodd" clip-rule="evenodd" d="M40.1372 252.322H497.223V260.242C497.223 266.953 491.731 272.442 485.012 272.442H49.2948C44.2579 272.442 40.1372 268.324 40.1372 263.291V252.322V252.322Z" fill="white"/>
<path fill-rule="evenodd" clip-rule="evenodd" d="M143.998 80.441H393.364C398.308 80.441 402.354 84.4806 402.354 89.4236V262.383H135.009V89.4211C135.009 84.4806 139.054 80.441 143.998 80.441Z" fill="#1562AA"/>
<path d="M412.979 244.914H117.272V272.203H412.979V244.914Z" fill="#443E87"/>
<path fill-rule="evenodd" clip-rule="evenodd" d="M278.387 92.9396H384.883C388.244 92.9396 390.988 95.6838 390.988 99.0391V258.407C390.988 261.762 388.241 264.506 384.883 264.506H278.387C275.026 264.506 272.282 261.762 272.282 258.407V99.0391C272.28 95.6838 275.026 92.9396 278.387 92.9396Z" fill="white"/>
<path d="M384.63 157.013H278.64V264.509H384.63V157.013Z" fill="#1562AA"/>
<path d="M384.63 98.7615H278.64V148.539H384.63V98.7615Z" fill="#1562AA"/>
<path fill-rule="evenodd" clip-rule="evenodd" d="M146.53 84.3321H390.834C392.291 84.3321 393.483 85.5228 393.483 86.9789V86.9813C393.483 88.4374 392.291 89.6281 390.834 89.6281H146.53C145.075 89.6281 143.881 88.4374 143.881 86.9813V86.9789C143.881 85.5252 145.072 84.3321 146.53 84.3321Z" fill="#262979"/>
<path fill-rule="evenodd" clip-rule="evenodd" d="M149.061 124.046H260.073C261.752 124.046 263.127 125.419 263.127 127.097V254.438C263.127 256.115 261.755 257.489 260.073 257.489H149.061C147.382 257.489 146.008 256.115 146.008 254.438V127.097C146.008 125.419 147.382 124.046 149.061 124.046Z" fill="white"/>
<path fill-rule="evenodd" clip-rule="evenodd" d="M156.55 133.048H252.588C254.04 133.048 255.227 134.234 255.227 135.685V245.849C255.227 247.301 254.04 248.486 252.588 248.486H156.55C155.097 248.486 153.911 247.301 153.911 245.849V135.687C153.908 134.234 155.095 133.048 156.55 133.048Z" fill="#1562AA"/>
<path opacity="0.3" d="M413.633 174.773H135.084V190.659H413.633V174.773Z" fill="#231916"/>
<path d="M376.122 226.681H286.561V235.683H376.122V226.681Z" fill="#2977BF"/>
<path d="M376.122 242.302H286.561V251.304H376.122V242.302Z" fill="#2977BF"/>
<path d="M263.248 70.8351H259.273V85.2646H263.248V70.8351Z" fill="white"/>
<path d="M417.325 156.582H120.039V186.237H417.325V156.582Z" fill="#F9D539"/>
<path fill-rule="evenodd" clip-rule="evenodd" d="M136.337 156.582L120.612 186.237H131.361L147.083 156.582H136.337ZM413.882 156.582L398.157 186.237H408.906L417.325 170.359V156.582H413.882ZM390.752 156.582H401.5L385.776 186.237H375.029L390.752 156.582ZM367.624 156.582L351.899 186.237H362.648L378.37 156.582H367.624ZM159.465 156.582H170.214L154.489 186.237H143.74L159.465 156.582ZM182.593 156.582L166.87 186.237H177.617L193.341 156.582H182.593ZM205.723 156.582H216.469L200.747 186.237H189.998L205.723 156.582ZM228.851 156.582L213.126 186.237H223.873L239.597 156.582H228.851ZM251.981 156.582H262.728L247.003 186.237H236.256L251.981 156.582ZM275.109 156.582L259.384 186.237H270.133L285.856 156.582H275.109ZM298.237 156.582H308.986L293.261 186.237H282.515L298.237 156.582ZM321.365 156.582L305.643 186.237H316.389L332.114 156.582H321.365ZM344.496 156.582H355.242L339.517 186.237H328.771L344.496 156.582Z" fill="#262979"/>
<path opacity="0.27" fill-rule="evenodd" clip-rule="evenodd" d="M156.282 86.5138L269.489 93.0687C271.166 93.1661 272.457 94.6149 272.36 96.2901L270.627 126.147C270.53 127.823 269.08 129.113 267.403 129.016L154.196 122.461C152.519 122.364 151.228 120.915 151.325 119.24L153.058 89.3822C153.155 87.7094 154.605 86.4189 156.282 86.5138Z" fill="#231916"/>
<path d="M152.226 70.8351H148.251V85.2646H152.226V70.8351Z" fill="white"/>
<path fill-rule="evenodd" clip-rule="evenodd" d="M149.392 77.2491L262.6 83.804C264.276 83.9014 265.568 85.3502 265.47 87.0254L263.738 116.883C263.64 118.558 262.19 119.849 260.514 119.751L147.306 113.196C145.629 113.099 144.338 111.65 144.435 109.975L146.166 80.1174C146.265 78.4422 147.715 77.1517 149.392 77.2491Z" fill="white"/>
<path fill-rule="evenodd" clip-rule="evenodd" d="M153.055 80.6431L258.57 86.7524C259.949 86.8327 261.014 88.0258 260.933 89.4065L259.508 113.995C259.427 115.373 258.233 116.437 256.852 116.357L151.339 110.247C149.958 110.167 148.895 108.974 148.975 107.596L150.401 83.0074C150.481 81.6268 151.675 80.5627 153.055 80.6431Z" fill="#1562AA"/>
<path d="M156.56 86.423L156.375 89.5952L254.25 95.2674L254.434 92.0952L156.56 86.423Z" fill="#2977BF"/>
<path d="M156.116 94.0888L155.932 97.261L253.804 102.933L253.988 99.7609L156.116 94.0888Z" fill="#2977BF"/>
<path d="M155.671 101.756L155.487 104.928L253.361 110.6L253.545 107.428L155.671 101.756Z" fill="#2977BF"/>
<path fill-rule="evenodd" clip-rule="evenodd" d="M40.1367 258.146H497.223V266.067C497.223 272.778 491.73 278.266 485.012 278.266H49.2943C44.2574 278.266 40.1367 274.149 40.1367 269.116V258.146V258.146Z" fill="#1890FF"/>
<path fill-rule="evenodd" clip-rule="evenodd" d="M152.256 289.27H143.959L150.707 249.775H159.004L152.256 289.27Z" fill="#717171"/>
<path fill-rule="evenodd" clip-rule="evenodd" d="M157.453 289.27H165.75L159.002 249.775H150.705L157.453 289.27Z" fill="#EEEEEF"/>
<path fill-rule="evenodd" clip-rule="evenodd" d="M101.158 289.27H92.8608L99.6084 249.775H107.906L101.158 289.27Z" fill="#717171"/>
<path fill-rule="evenodd" clip-rule="evenodd" d="M106.465 289.27H114.762L108.015 249.775H99.7173L106.465 289.27Z" fill="#EEEEEF"/>
<path d="M165.826 236.575H92.7822V250.758H165.826V236.575Z" fill="#F9D539"/>
<path fill-rule="evenodd" clip-rule="evenodd" d="M102.863 236.575L92.7822 245.019V249.828L108.605 236.575H102.863ZM165.826 239.621L152.533 250.758H158.275L165.829 244.43V239.621H165.826ZM156.145 236.575H161.883L144.952 250.758H139.211L156.145 236.575ZM142.825 236.575L125.894 250.758H131.635L148.566 236.575H142.825ZM129.505 236.575H135.246L118.318 250.758H112.577L129.505 236.575ZM116.183 236.575H121.924L104.993 250.758H99.252L116.183 236.575Z" fill="#F19100"/>
<path d="M306.17 105.151H287.621V117.596H306.17V105.151Z" fill="#2977BF"/>
<path d="M329.223 105.151H310.674V117.596H329.223V105.151Z" fill="#2977BF"/>
<path d="M375.325 122.361H287.621V142.486H375.325V122.361Z" fill="#2977BF"/>
<path fill-rule="evenodd" clip-rule="evenodd" d="M365.81 199.03H377.339L385.753 251.085H394.845V258.338H348.089V251.085H357.284C359.413 239.041 365.988 199.388 365.81 199.03Z" fill="#F9D539"/>
<path fill-rule="evenodd" clip-rule="evenodd" d="M380.004 215.848C377.328 216.148 374.455 216.309 371.468 216.309C368.612 216.309 365.863 216.163 363.287 215.885L364.554 208.329C366.757 208.524 369.075 208.629 371.468 208.629C373.99 208.629 376.429 208.512 378.739 208.298L380.004 215.848Z" fill="#F19100"/>
<path fill-rule="evenodd" clip-rule="evenodd" d="M382.839 232.781C379.847 233.166 376.586 233.378 373.172 233.378C368.588 233.378 364.28 232.995 360.53 232.323L361.782 224.855C365.228 225.396 369.09 225.698 373.172 225.698C376.111 225.698 378.938 225.54 381.577 225.252L382.839 232.781Z" fill="#F19100"/>
<path fill-rule="evenodd" clip-rule="evenodd" d="M385.676 249.692C382.384 250.174 378.729 250.444 374.884 250.444C368.377 250.444 362.426 249.675 357.838 248.401L359.071 241.043C363.469 242.122 368.947 242.762 374.884 242.762C378.246 242.762 381.463 242.555 384.419 242.183L385.676 249.692Z" fill="#F19100"/>
<path fill-rule="evenodd" clip-rule="evenodd" d="M416.154 199.03H427.683L436.1 251.085H445.192V258.338H398.434V251.085H407.63C409.758 239.041 416.332 199.388 416.154 199.03Z" fill="#F9D539"/>
<path fill-rule="evenodd" clip-rule="evenodd" d="M430.35 215.848C427.674 216.148 424.801 216.309 421.814 216.309C418.955 216.309 416.209 216.163 413.633 215.885L414.9 208.329C417.103 208.524 419.421 208.629 421.814 208.629C424.336 208.629 426.775 208.512 429.083 208.298L430.35 215.848Z" fill="#F19100"/>
<path fill-rule="evenodd" clip-rule="evenodd" d="M433.188 232.781C430.195 233.166 426.935 233.378 423.521 233.378C418.937 233.378 414.629 232.995 410.878 232.323L412.131 224.855C415.577 225.396 419.439 225.698 423.521 225.698C426.46 225.698 429.286 225.54 431.925 225.252L433.188 232.781Z" fill="#F19100"/>
<path fill-rule="evenodd" clip-rule="evenodd" d="M436.022 249.692C432.73 250.174 429.075 250.444 425.227 250.444C418.723 250.444 412.77 249.675 408.181 248.401L409.414 241.043C413.813 242.122 419.291 242.762 425.227 242.762C428.592 242.762 431.809 242.555 434.765 242.183L436.022 249.692Z" fill="#F19100"/>
</svg>