<svg width="197" height="44" viewBox="0 0 197 44" fill="none" xmlns="http://www.w3.org/2000/svg">
<path d="M71.6 29.25C70.3333 29.25 69.275 29.0583 68.425 28.675C67.575 28.2917 66.9417 27.85 66.525 27.35C66.125 26.8333 65.925 26.3917 65.925 26.025C65.925 25.8583 65.975 25.725 66.075 25.625C66.1917 25.525 66.325 25.475 66.475 25.475H68.525C68.6583 25.475 68.775 25.5417 68.875 25.675C68.9583 25.7417 69.1417 25.9 69.425 26.15C69.725 26.4 70.0583 26.6 70.425 26.75C70.8083 26.8833 71.225 26.95 71.675 26.95C72.3417 26.95 72.8833 26.825 73.3 26.575C73.7167 26.3083 73.925 25.9333 73.925 25.45C73.925 25.1167 73.825 24.85 73.625 24.65C73.4417 24.4333 73.1 24.2417 72.6 24.075C72.1167 23.8917 71.3833 23.6917 70.4 23.475C68.9833 23.175 67.9333 22.7167 67.25 22.1C66.5833 21.4833 66.25 20.6667 66.25 19.65C66.25 18.9833 66.45 18.3583 66.85 17.775C67.25 17.175 67.8417 16.6917 68.625 16.325C69.425 15.9417 70.375 15.75 71.475 15.75C72.6083 15.75 73.5833 15.9333 74.4 16.3C75.2167 16.65 75.8333 17.075 76.25 17.575C76.6833 18.075 76.9 18.5167 76.9 18.9C76.9 19.05 76.8417 19.1833 76.725 19.3C76.625 19.4 76.5 19.45 76.35 19.45H74.475C74.2917 19.45 74.15 19.3833 74.05 19.25C73.9333 19.1667 73.7417 19.0167 73.475 18.8C73.225 18.5667 72.9417 18.3833 72.625 18.25C72.3083 18.1167 71.925 18.05 71.475 18.05C70.8583 18.05 70.3833 18.1833 70.05 18.45C69.7167 18.7167 69.55 19.0667 69.55 19.5C69.55 19.8 69.625 20.05 69.775 20.25C69.9417 20.45 70.2667 20.6417 70.75 20.825C71.2333 20.9917 71.9583 21.1667 72.925 21.35C75.925 21.9333 77.425 23.2417 77.425 25.275C77.425 26.4583 76.9083 27.4167 75.875 28.15C74.8583 28.8833 73.4333 29.25 71.6 29.25ZM85.7551 29.25C83.7884 29.25 82.2717 28.75 81.2051 27.75C80.1384 26.75 79.5634 25.3667 79.4801 23.6L79.4551 22.5L79.4801 21.4C79.5634 19.65 80.1467 18.275 81.2301 17.275C82.3134 16.2583 83.8217 15.75 85.7551 15.75C87.6717 15.75 89.1717 16.2583 90.2551 17.275C91.3384 18.275 91.9217 19.65 92.0051 21.4C92.0217 21.6 92.0301 21.9667 92.0301 22.5C92.0301 23.0333 92.0217 23.4 92.0051 23.6C91.9217 25.3667 91.3467 26.75 90.2801 27.75C89.2134 28.75 87.7051 29.25 85.7551 29.25ZM85.7551 26.725C86.6384 26.725 87.3134 26.45 87.7801 25.9C88.2634 25.35 88.5217 24.5417 88.5551 23.475C88.5717 23.3083 88.5801 22.9833 88.5801 22.5C88.5801 22.0167 88.5717 21.6917 88.5551 21.525C88.5217 20.4583 88.2634 19.65 87.7801 19.1C87.2967 18.5333 86.6217 18.25 85.7551 18.25C84.8717 18.25 84.1884 18.5333 83.7051 19.1C83.2217 19.65 82.9634 20.4583 82.9301 21.525L82.9051 22.5L82.9301 23.475C82.9634 24.5417 83.2217 25.35 83.7051 25.9C84.1884 26.45 84.8717 26.725 85.7551 26.725ZM100.424 29.25C98.5911 29.25 97.1244 28.7417 96.0244 27.725C94.9411 26.7083 94.3661 25.3 94.2994 23.5L94.2744 22.5L94.2994 21.5C94.3661 19.7 94.9411 18.2917 96.0244 17.275C97.1244 16.2583 98.5911 15.75 100.424 15.75C101.741 15.75 102.849 15.9833 103.749 16.45C104.666 16.9167 105.341 17.4917 105.774 18.175C106.224 18.8417 106.466 19.4833 106.499 20.1C106.516 20.2667 106.458 20.4083 106.324 20.525C106.208 20.6417 106.066 20.7 105.899 20.7H103.674C103.491 20.7 103.358 20.6667 103.274 20.6C103.191 20.5167 103.108 20.375 103.024 20.175C102.774 19.5417 102.441 19.0833 102.024 18.8C101.624 18.5167 101.108 18.375 100.474 18.375C99.6244 18.375 98.9577 18.6417 98.4744 19.175C98.0077 19.7083 97.7577 20.525 97.7244 21.625L97.6994 22.55L97.7244 23.375C97.8244 25.5417 98.7411 26.625 100.474 26.625C101.124 26.625 101.649 26.4917 102.049 26.225C102.449 25.9417 102.774 25.475 103.024 24.825C103.091 24.6417 103.166 24.5083 103.249 24.425C103.349 24.3417 103.491 24.3 103.674 24.3H105.899C106.066 24.3 106.208 24.3583 106.324 24.475C106.458 24.5917 106.516 24.7333 106.499 24.9C106.466 25.4833 106.233 26.1167 105.799 26.8C105.366 27.4667 104.699 28.0417 103.799 28.525C102.899 29.0083 101.774 29.25 100.424 29.25ZM109.606 13.875C109.439 13.875 109.298 13.8167 109.181 13.7C109.064 13.5833 109.006 13.4417 109.006 13.275V11.45C109.006 11.2667 109.064 11.1167 109.181 11C109.298 10.8833 109.439 10.825 109.606 10.825H111.906C112.089 10.825 112.239 10.8833 112.356 11C112.473 11.1167 112.531 11.2667 112.531 11.45V13.275C112.531 13.4417 112.464 13.5833 112.331 13.7C112.214 13.8167 112.073 13.875 111.906 13.875H109.606ZM109.706 29C109.539 29 109.398 28.9417 109.281 28.825C109.164 28.7083 109.106 28.5667 109.106 28.4V16.6C109.106 16.4167 109.164 16.275 109.281 16.175C109.398 16.0583 109.539 16 109.706 16H111.831C111.998 16 112.139 16.0583 112.256 16.175C112.373 16.2917 112.431 16.4333 112.431 16.6V28.4C112.431 28.5667 112.373 28.7083 112.256 28.825C112.139 28.9417 111.998 29 111.831 29H109.706ZM119.497 29.25C118.647 29.25 117.864 29.0833 117.147 28.75C116.447 28.4 115.889 27.9333 115.472 27.35C115.072 26.7667 114.872 26.125 114.872 25.425C114.872 24.2917 115.331 23.375 116.247 22.675C117.164 21.975 118.422 21.5 120.022 21.25L123.447 20.75V20.225C123.447 19.5083 123.264 18.9667 122.897 18.6C122.531 18.2333 121.947 18.05 121.147 18.05C120.597 18.05 120.156 18.15 119.822 18.35C119.489 18.55 119.214 18.7583 118.997 18.975C118.797 19.175 118.664 19.3083 118.597 19.375C118.531 19.575 118.406 19.675 118.222 19.675H116.272C116.122 19.675 115.989 19.625 115.872 19.525C115.772 19.425 115.722 19.2917 115.722 19.125C115.739 18.7083 115.939 18.2417 116.322 17.725C116.722 17.1917 117.331 16.7333 118.147 16.35C118.964 15.95 119.972 15.75 121.172 15.75C123.139 15.75 124.572 16.1917 125.472 17.075C126.372 17.9583 126.822 19.1167 126.822 20.55V28.4C126.822 28.5667 126.764 28.7083 126.647 28.825C126.547 28.9417 126.406 29 126.222 29H124.147C123.981 29 123.839 28.9417 123.722 28.825C123.606 28.7083 123.547 28.5667 123.547 28.4V27.425C123.181 27.9583 122.664 28.4 121.997 28.75C121.331 29.0833 120.497 29.25 119.497 29.25ZM120.347 26.85C121.264 26.85 122.014 26.55 122.597 25.95C123.181 25.35 123.472 24.4833 123.472 23.35V22.85L120.972 23.25C119.056 23.55 118.097 24.1917 118.097 25.175C118.097 25.7083 118.314 26.125 118.747 26.425C119.197 26.7083 119.731 26.85 120.347 26.85ZM130.654 29C130.487 29 130.346 28.9417 130.229 28.825C130.112 28.7083 130.054 28.5667 130.054 28.4V11.85C130.054 11.6667 130.112 11.525 130.229 11.425C130.346 11.3083 130.487 11.25 130.654 11.25H132.754C132.937 11.25 133.079 11.3083 133.179 11.425C133.296 11.525 133.354 11.6667 133.354 11.85V28.4C133.354 28.5667 133.296 28.7083 133.179 28.825C133.079 28.9417 132.937 29 132.754 29H130.654ZM137.27 29C137.103 29 136.961 28.9417 136.845 28.825C136.728 28.7083 136.67 28.5667 136.67 28.4V16.625C136.67 16.4417 136.728 16.2917 136.845 16.175C136.961 16.0583 137.103 16 137.27 16H139.32C139.503 16 139.653 16.0583 139.77 16.175C139.886 16.2917 139.945 16.4417 139.945 16.625V17.65C140.778 16.55 141.978 16 143.545 16H144.595C144.778 16 144.92 16.0583 145.02 16.175C145.136 16.275 145.195 16.4167 145.195 16.6V18.425C145.195 18.5917 145.136 18.7333 145.02 18.85C144.92 18.9667 144.778 19.025 144.595 19.025H142.62C141.836 19.025 141.22 19.25 140.77 19.7C140.32 20.15 140.095 20.7667 140.095 21.55V28.4C140.095 28.5667 140.036 28.7083 139.92 28.825C139.803 28.9417 139.661 29 139.495 29H137.27ZM152.597 29.25C150.731 29.25 149.247 28.7167 148.147 27.65C147.064 26.5833 146.489 25.0667 146.422 23.1L146.397 22.475C146.397 20.3917 146.939 18.75 148.022 17.55C149.122 16.35 150.639 15.75 152.572 15.75C154.556 15.75 156.081 16.35 157.147 17.55C158.231 18.75 158.772 20.35 158.772 22.35V22.875C158.772 23.0417 158.714 23.1833 158.597 23.3C158.481 23.4167 158.331 23.475 158.147 23.475H149.847V23.675C149.881 24.6083 150.131 25.3833 150.597 26C151.081 26.6 151.739 26.9 152.572 26.9C153.522 26.9 154.297 26.5167 154.897 25.75C155.047 25.5667 155.164 25.4583 155.247 25.425C155.331 25.375 155.472 25.35 155.672 25.35H157.872C158.022 25.35 158.147 25.3917 158.247 25.475C158.364 25.5583 158.422 25.675 158.422 25.825C158.422 26.225 158.181 26.7 157.697 27.25C157.231 27.7833 156.556 28.25 155.672 28.65C154.789 29.05 153.764 29.25 152.597 29.25ZM155.322 21.35V21.3C155.322 20.3167 155.072 19.5333 154.572 18.95C154.089 18.35 153.422 18.05 152.572 18.05C151.722 18.05 151.056 18.35 150.572 18.95C150.089 19.5333 149.847 20.3167 149.847 21.3V21.35H155.322ZM162.05 33.75C161.884 33.75 161.742 33.6917 161.625 33.575C161.509 33.475 161.45 33.3333 161.45 33.15V16.6C161.45 16.4167 161.509 16.275 161.625 16.175C161.742 16.0583 161.884 16 162.05 16H164.05C164.234 16 164.384 16.0583 164.5 16.175C164.617 16.2917 164.675 16.4333 164.675 16.6V17.6C165.559 16.3667 166.884 15.75 168.65 15.75C170.334 15.75 171.625 16.2833 172.525 17.35C173.425 18.4 173.909 19.8167 173.975 21.6C173.992 21.8 174 22.1 174 22.5C174 22.9 173.992 23.2 173.975 23.4C173.925 25.15 173.442 26.5667 172.525 27.65C171.625 28.7167 170.334 29.25 168.65 29.25C166.984 29.25 165.709 28.6583 164.825 27.475V33.15C164.825 33.3333 164.767 33.475 164.65 33.575C164.55 33.6917 164.409 33.75 164.225 33.75H162.05ZM167.7 26.55C169.484 26.55 170.434 25.45 170.55 23.25C170.567 23.0833 170.575 22.8333 170.575 22.5C170.575 22.1667 170.567 21.9167 170.55 21.75C170.434 19.55 169.484 18.45 167.7 18.45C166.75 18.45 166.042 18.7583 165.575 19.375C165.109 19.9917 164.859 20.7417 164.825 21.625C164.809 21.825 164.8 22.1417 164.8 22.575C164.8 23.0083 164.809 23.3333 164.825 23.55C164.859 24.3833 165.117 25.0917 165.6 25.675C166.084 26.2583 166.784 26.55 167.7 26.55ZM177.407 29C177.24 29 177.099 28.9417 176.982 28.825C176.865 28.7083 176.807 28.5667 176.807 28.4V11.85C176.807 11.6667 176.865 11.525 176.982 11.425C177.099 11.3083 177.24 11.25 177.407 11.25H179.507C179.69 11.25 179.832 11.3083 179.932 11.425C180.049 11.525 180.107 11.6667 180.107 11.85V28.4C180.107 28.5667 180.049 28.7083 179.932 28.825C179.832 28.9417 179.69 29 179.507 29H177.407ZM185.772 33.75C185.639 33.75 185.514 33.7 185.397 33.6C185.297 33.5 185.247 33.3833 185.247 33.25C185.247 33.1333 185.281 33 185.347 32.85L187.322 28.225L182.522 16.9C182.456 16.75 182.422 16.6333 182.422 16.55C182.439 16.4 182.497 16.275 182.597 16.175C182.697 16.0583 182.822 16 182.972 16H185.047C185.347 16 185.564 16.1583 185.697 16.475L189.022 24.625L192.397 16.475C192.564 16.1583 192.797 16 193.097 16H195.122C195.272 16 195.397 16.05 195.497 16.15C195.597 16.25 195.647 16.3667 195.647 16.5C195.647 16.6167 195.614 16.75 195.547 16.9L188.472 33.275C188.339 33.5917 188.106 33.75 187.772 33.75H185.772Z" fill="white"/>
<path fill-rule="evenodd" clip-rule="evenodd" d="M39.6739 0V7.9624C39.6739 10.1699 41.4655 11.9591 43.6759 11.9591H49.1964C52.5311 11.9591 55.234 14.6585 55.234 17.9887V25.6487C55.234 28.9789 52.5311 31.6783 49.1964 31.6783H24.0364C22.9748 31.6783 21.9554 32.1 21.206 32.8484L10.0396 44V37.0371C10.0396 34.8296 8.24797 33.0404 6.0376 33.0404C2.70299 33.0404 0 30.341 0 27.0108V11.9754C0 8.64517 2.70299 5.94576 6.0376 5.94576H25.8318V7.97866H6.0376C3.82722 7.97866 2.0356 9.76791 2.0356 11.9754V27.0108C2.0356 29.2182 3.82722 31.0075 6.0376 31.0075C9.3722 31.0075 12.0752 33.7069 12.0752 37.0371V39.0921L19.7666 31.4109C20.8981 30.2809 22.4354 29.6454 24.0364 29.6454H49.1964C51.4068 29.6454 53.1984 27.8562 53.1984 25.6487V17.9887C53.1984 15.7813 51.4068 13.992 49.1964 13.992H43.6759C40.3413 13.992 37.6383 11.2926 37.6383 7.9624V4.90644L29.552 12.9787C29.5519 12.9788 29.552 12.9787 29.552 12.9787C28.4205 14.1086 26.8831 14.7442 25.2822 14.7442H15.5724C13.362 14.7442 11.5704 16.5334 11.5704 18.7409V26.8725H9.53476V18.7409C9.53476 15.4107 12.2378 12.7113 15.5724 12.7113H25.2822C26.3438 12.7113 27.3632 12.2896 28.1126 11.5412L39.6739 0Z" fill="white"/>
<path d="M22.468 22C22.468 23.2915 21.4191 24.3404 20.1275 24.3404C18.836 24.3404 17.7871 23.2915 17.7871 22C17.7871 20.7084 18.836 19.6595 20.1275 19.6595C21.4234 19.6595 22.468 20.7041 22.468 22Z" fill="white"/>
<path d="M29.9572 22C29.9572 23.2915 28.9084 24.3404 27.6168 24.3404C26.3252 24.3404 25.2764 23.2915 25.2764 22C25.2764 20.7084 26.3252 19.6595 27.6168 19.6595C28.9084 19.6595 29.9572 20.7041 29.9572 22Z" fill="white"/>
<path d="M37.447 22C37.447 23.2915 36.3981 24.3404 35.1065 24.3404C33.815 24.3404 32.7661 23.2915 32.7661 22C32.7661 20.7084 33.815 19.6595 35.1065 19.6595C36.4024 19.6595 37.447 20.7041 37.447 22Z" fill="white"/>
</svg>
