<?xml version="1.0" encoding="utf-8"?>
<svg width="40px" height="40px" viewBox="0 0 40 40" version="1.1" xmlns:xlink="http://www.w3.org/1999/xlink" xmlns="http://www.w3.org/2000/svg">
  <desc>Created with Lunacy</desc>
  <defs>
    <path d="M0 0L40 0L40 40L0 40L0 0Z" id="path_1" />
    <clipPath id="mask_1">
      <use xlink:href="#path_1" />
    </clipPath>
  </defs>
  <g id="logo-Copy-2">
    <path d="M0 0L40 0L40 40L0 40L0 0Z" id="Background" fill="none" stroke="none" />
    <g clip-path="url(#mask_1)">
      <path d="M35.9217 0L4.0783 0C1.82708 0 0 1.82708 0 4.0783L0 35.9217C0 38.1729 1.82708 40 4.0783 40L35.9217 40C38.1729 40 40 38.1729 40 35.9217L40 4.0783C40 1.82708 38.1729 0 35.9217 0L35.9217 0Z" id="Shape" fill="#5B86E5" stroke="none" />
      <path d="M19.8181 4.10289L19.8181 0L13.9957 5.84758C13.6327 6.21211 13.1448 6.41781 12.6233 6.41781L7.78223 6.41781C6.10052 6.41781 4.73973 7.78445 4.73973 9.47352L4.73973 13.5421L5.84192 13.5421L5.84192 9.47352C5.84192 8.39586 6.70926 7.52477 7.78223 7.52477L12.6233 7.52477C13.4385 7.52477 14.2064 7.20148 14.7751 6.63031L18.7158 2.6725L18.7158 4.10289C18.7158 5.79195 20.0766 7.15859 21.7583 7.15859L24.513 7.15859C25.5861 7.15859 26.4533 8.02969 26.4533 9.10727L26.4533 12.9318C26.4533 14.0095 25.5861 14.8805 24.513 14.8805L11.9953 14.8805C11.18 14.8805 10.4122 15.2037 9.84341 15.775L6.08505 19.5497L6.08505 18.6279C6.08505 16.9388 4.72427 15.5722 3.04247 15.5722C1.9695 15.5722 1.10223 14.7011 1.10223 13.6234L1.10223 6.09656C1.10223 5.01891 1.9695 4.14781 3.04247 4.14781L12.8865 4.14781L12.8865 3.04086L3.04247 3.04086C1.36078 3.04086 0 4.4075 0 6.09656L0 13.6234C0 15.3125 1.36078 16.6791 3.04247 16.6791C4.11552 16.6791 4.98278 17.5502 4.98278 18.6279L4.98278 22.2222L10.6228 16.5577C10.9858 16.1931 11.4738 15.9875 11.9953 15.9875L24.513 15.9875C26.1948 15.9875 27.5556 14.6208 27.5556 12.9318L27.5556 9.10727C27.5556 7.41828 26.1948 6.05164 24.513 6.05164L21.7583 6.05164C20.6854 6.05164 19.8181 5.18055 19.8181 4.10289L19.8181 4.10289Z" transform="translate(6.22229 8.888916)" id="Shape" fill="#FFFFFF" stroke="none" />
      <path d="M1.09375 2.19703C1.70141 2.19703 2.1875 1.70883 2.1875 1.09852C2.1875 0.488203 1.70141 0 1.09375 0C0.486094 0 0 0.488203 0 1.09852C0 1.70883 0.486094 2.19703 1.09375 2.19703L1.09375 2.19703Z" transform="translate(15.09827 18.91168)" id="Shape" fill="#FFFFFF" stroke="none" />
      <path d="M2.1875 1.09852C2.1875 1.70883 1.70141 2.19703 1.09375 2.19703C0.486094 2.19703 0 1.70883 0 1.09852C0 0.488203 0.486094 0 1.09375 0C1.70141 0 2.1875 0.488203 2.1875 1.09852L2.1875 1.09852Z" transform="translate(18.90625 18.91168)" id="Shape" fill="#FFFFFF" stroke="none" />
      <path d="M1.09375 2.19703C1.7014 2.19703 2.18758 1.70883 2.18758 1.09852C2.18758 0.488203 1.7014 0 1.09375 0C0.486092 0 0 0.488203 0 1.09852C0 1.70883 0.486092 2.19703 1.09375 2.19703L1.09375 2.19703Z" transform="translate(22.71423 18.91168)" id="Shape" fill="#FFFFFF" stroke="none" />
    </g>
  </g>
</svg>