<svg width="24" height="24" viewBox="0 0 24 24" fill="none" xmlns="http://www.w3.org/2000/svg">
<path d="M20.1449 1.61719H3.83162C2.12599 1.61719 0.738281 3.00462 0.738281 4.71053V14.6939C0.738281 16.396 2.11995 17.7812 3.82063 17.7873V22.3176L10.3313 17.7873H20.1449C21.8506 17.7873 23.2383 16.3996 23.2383 14.6939V4.71053C23.2383 3.00462 21.8506 1.61719 20.1449 1.61719V1.61719ZM21.9199 14.6939C21.9199 15.6725 21.1237 16.4689 20.1449 16.4689H9.91763L5.13899 19.7942V16.4689H3.83162C2.85287 16.4689 2.05664 15.6725 2.05664 14.6939V4.71053C2.05664 3.73164 2.85287 2.93555 3.83162 2.93555H20.1449C21.1237 2.93555 21.9199 3.73164 21.9199 4.71053V14.6939Z" fill="#828282"/>
<path d="M6.76031 6.27551H17.2163V7.59387H6.76031V6.27551Z" fill="#828282"/>
<path d="M6.76031 9.08801H17.2163V10.4064H6.76031V9.08801Z" fill="#828282"/>
<path d="M6.76031 11.9005H17.2163V13.2189H6.76031V11.9005Z" fill="#828282"/>
</svg>
