<svg width="24" height="24" viewBox="0 0 24 24" fill="none" xmlns="http://www.w3.org/2000/svg">
<g clip-path="url(#clip0)">
<path d="M22.3145 7.54883H21.6572V14.7737C21.6572 15.8986 21.0023 16.9157 19.6892 16.9157H6.82507V17.2592C6.82507 18.2537 7.95622 19.2576 9.11781 19.2576H18.9531L22.7158 21.47L22.1701 19.2576H22.3145C23.4753 19.2576 23.9992 18.2561 23.9992 17.2592V9.26389C23.9992 8.26936 23.4753 7.54883 22.3145 7.54883Z" fill="#828282"/>
<path d="M17.7689 2.5293H2.82748C1.51288 2.5293 0 3.69713 0 4.82282V13.8782C0 14.9149 1.28181 15.6636 2.51132 15.7791L1.71116 18.8166L6.83841 15.8002H17.7689C19.0835 15.8002 20.2966 15.0031 20.2966 13.8782V6.55194V4.82282C20.2966 3.69713 19.0827 2.5293 17.7689 2.5293ZM5.10695 10.1733C4.36144 10.1733 3.75722 9.56911 3.75722 8.8236C3.75722 8.07809 4.36144 7.47387 5.10695 7.47387C5.85168 7.47387 6.45667 8.07809 6.45667 8.8236C6.45667 9.56911 5.85168 10.1733 5.10695 10.1733ZM10.1483 10.1733C9.40281 10.1733 8.79859 9.56911 8.79859 8.8236C8.79859 8.07809 9.40281 7.47387 10.1483 7.47387C10.8938 7.47387 11.498 8.07809 11.498 8.8236C11.498 9.56911 10.8938 10.1733 10.1483 10.1733ZM15.1905 10.1733C14.445 10.1733 13.84 9.56911 13.84 8.8236C13.84 8.07809 14.445 7.47387 15.1905 7.47387C15.9344 7.47387 16.5402 8.07809 16.5402 8.8236C16.5402 9.56911 15.9344 10.1733 15.1905 10.1733Z" fill="#828282"/>
</g>
<defs>
<clipPath id="clip0">
<rect width="23.9992" height="24" fill="white"/>
</clipPath>
</defs>
</svg>
