<svg width="24" height="24" viewBox="0 0 24 24" fill="none" xmlns="http://www.w3.org/2000/svg">
<g clip-path="url(#clip0)">
<path d="M21.5973 20.5858C25.7748 15.7674 24.3213 8.27677 18.6398 5.35467C16.999 2.1773 13.6826 0 9.86701 0C4.42651 0 0.000388648 4.42641 0.000388648 9.86719C0.000388648 12.2625 0.848264 14.5278 2.40212 16.3201L0.209592 18.4839C-0.234783 18.9225 0.0730449 19.6845 0.700139 19.6875L5.99495 19.7127C7.81956 22.3678 10.8338 24 14.1324 24C14.1392 24 23.294 23.9532 23.2994 23.9531C23.9244 23.9501 24.2357 23.1895 23.7899 22.7495L21.5973 20.5858ZM3.87929 15.8445C2.28475 14.247 1.40654 12.1242 1.40654 9.86719C1.40654 5.20181 5.20192 1.40625 9.86701 1.40625C14.5321 1.40625 18.3275 5.20181 18.3275 9.86719C18.3275 14.3378 14.7897 18.3642 9.59265 18.3236L2.40869 18.2894L3.87554 16.8418C4.15295 16.5679 4.15459 16.1204 3.87929 15.8445V15.8445ZM14.1324 22.5938C11.6652 22.5938 9.37197 21.5396 7.77784 19.7212C10.4546 19.7388 9.74401 19.7344 9.86701 19.7344C16.214 19.7344 20.9532 13.7808 19.4618 7.56483C23.3508 10.7417 23.6694 16.5545 20.1202 20.1102C19.8448 20.386 19.8465 20.8336 20.1239 21.1074L21.5908 22.555C21.5852 22.555 14.1379 22.5938 14.1324 22.5938Z" fill="#828282"/>
<path d="M5.67213 7.78125H14.1092C14.4975 7.78125 14.8123 7.46644 14.8123 7.07812C14.8123 6.68981 14.4975 6.375 14.1092 6.375H5.67213C5.28382 6.375 4.96906 6.68981 4.96906 7.07812C4.96906 7.46644 5.28387 7.78125 5.67213 7.78125Z" fill="#828282"/>
<path d="M5.67213 10.5938H14.1092C14.4975 10.5938 14.8123 10.2789 14.8123 9.89062C14.8123 9.50231 14.4975 9.1875 14.1092 9.1875H5.67213C5.28382 9.1875 4.96906 9.50231 4.96906 9.89062C4.96906 10.2789 5.28387 10.5938 5.67213 10.5938Z" fill="#828282"/>
<path d="M5.67213 13.4062H14.1092C14.4975 13.4062 14.8123 13.0914 14.8123 12.7031C14.8123 12.3148 14.4975 12 14.1092 12H5.67213C5.28382 12 4.96906 12.3148 4.96906 12.7031C4.96906 13.0914 5.28387 13.4062 5.67213 13.4062Z" fill="#828282"/>
</g>
<defs>
<clipPath id="clip0">
<rect width="24" height="24" fill="white"/>
</clipPath>
</defs>
</svg>
