<svg width="24" height="24" viewBox="0 0 24 24" fill="none" xmlns="http://www.w3.org/2000/svg">
<g clip-path="url(#clip0)">
<path d="M22.2273 18.9786L15.9498 16.9208V14.7553C16.3981 14.0926 16.7003 13.3129 16.807 12.4688H17.94C18.9294 12.4688 19.7344 11.6638 19.7344 10.6743V8.75245C19.7344 8.37792 19.6189 8.02997 19.4219 7.74197V7.42186C19.4219 3.32944 16.0924 0 12 0C7.90758 0 4.57814 3.32944 4.57814 7.42186V7.74197C4.38112 8.03002 4.26562 8.37797 4.26562 8.75245V10.6743C4.26562 11.6638 5.07061 12.4688 6.06005 12.4688H7.19306C7.3012 13.3246 7.61058 14.1142 8.0692 14.7827V16.9147L1.77267 18.9786C0.712406 19.3262 0 20.3095 0 21.4252V24H24V21.4252C24 20.3095 23.2876 19.3262 22.2273 18.9786ZM9.47545 16.1567C10.2113 16.632 11.0759 16.9063 12 16.9063C12.9322 16.9063 13.8036 16.6271 14.5435 16.1442V17.1145C14.0097 17.5747 12.9324 18.3348 12 18.3348C11.0692 18.3348 10.0028 17.576 9.47545 17.1168V16.1567ZM15.4436 8.21213C14.4246 8.03123 13.6481 7.13962 13.6481 6.06947H12.2418C12.2418 7.26975 11.2653 8.24625 10.065 8.24625H8.55642V7.56853C8.55642 5.66977 10.1012 4.125 12 4.125C13.8988 4.125 15.4436 5.66977 15.4436 7.56853V8.21213ZM8.55642 9.70148V9.65255H10.065C11.2439 9.65255 12.2916 9.0803 12.945 8.199C13.527 8.98406 14.4218 9.52383 15.4436 9.63239V11.7892C15.4436 12.0655 15.4145 12.3345 15.3611 12.5938H12.807V14H14.7639C14.1357 14.9096 13.1307 15.5 12 15.5C10.1013 15.5 8.55647 13.8353 8.55647 11.7892V9.70148H8.55642ZM18.3281 10.6743C18.3281 10.8884 18.154 11.0625 17.94 11.0625H16.8498V8.36428H17.94C18.154 8.36428 18.3281 8.53842 18.3281 8.75245V10.6743ZM12 1.40625C15.1615 1.40625 17.7612 3.85767 17.998 6.95948C17.9787 6.95887 17.9595 6.95803 17.94 6.95803H16.8115C16.5104 4.57097 14.4675 2.71875 12 2.71875C9.53255 2.71875 7.48964 4.57097 7.18847 6.95803H6.06C6.04055 6.95803 6.02123 6.95887 6.00192 6.95948C6.23883 3.85767 8.83852 1.40625 12 1.40625V1.40625ZM5.67188 10.6743V8.75245C5.67188 8.53842 5.84602 8.36428 6.06005 8.36428H7.15017V11.0625H6.06005C5.84602 11.0625 5.67188 10.8884 5.67188 10.6743V10.6743ZM22.5938 22.5938H19.1585V21.1406H17.7522V22.5938H6.24778V21.1406H4.84153V22.5938H1.40625V21.4252C1.40625 20.9189 1.72955 20.4727 2.21077 20.3149L8.60325 18.2195C9.20981 18.7368 10.5711 19.7411 12 19.7411C13.426 19.7411 14.7959 18.7402 15.4083 18.2233L21.7893 20.315C22.2705 20.4727 22.5938 20.9189 22.5938 21.4252V22.5938Z" fill="#828282"/>
</g>
<defs>
<clipPath id="clip0">
<rect width="24" height="24" fill="white"/>
</clipPath>
</defs>
</svg>
