<svg width="401" height="287" viewBox="0 0 401 287" fill="none" xmlns="http://www.w3.org/2000/svg">
<path fill-rule="evenodd" clip-rule="evenodd" d="M178.729 140.146C178.371 140.157 178.038 140.066 177.8 139.787C177.265 139.15 176.742 138.49 176.232 137.82C176.095 137.637 175.937 137.388 175.937 137.14C175.921 135.551 175.218 134.354 174.825 132.98C174.717 132.596 174.807 132.174 175.118 131.818C175.317 131.595 175.405 131.321 175.416 131.044C175.417 130.907 175.41 130.767 175.398 130.63C175.361 130.224 175.321 129.813 175.275 129.409C175.214 128.841 174.996 128.406 174.613 128.111C174.432 127.97 174.228 127.857 174.048 127.712C173.764 127.479 173.762 127.145 174.104 126.737C174.504 126.265 174.688 125.745 174.551 125.192C174.422 124.684 174.223 124.208 174.029 123.739C173.828 123.257 173.732 122.751 173.741 122.177C173.744 121.908 173.729 121.6 173.622 121.392C173.347 120.829 173.059 120.268 172.703 119.787C172.298 119.24 172.315 118.616 172.447 117.876C172.572 117.144 172.439 117.031 171.708 116.968C171.595 116.958 171.479 116.957 171.359 116.955C171.126 116.943 170.913 116.854 170.772 116.638C170.506 116.232 170.308 115.741 169.987 115.405C169.568 114.959 169.296 114.435 169.102 113.797C168.882 113.075 168.778 112.274 168.308 111.73C167.966 112.318 167.782 112.917 168.001 113.554C168.082 113.796 168.164 114.038 168.241 114.278C168.28 114.399 168.303 114.529 168.336 114.652C168.469 115.183 168.305 115.673 168.04 116.152C168.06 116.154 168.079 116.161 168.099 116.163C168.092 116.193 168.084 116.227 168.075 116.261C168.255 116.348 168.303 116.477 168.202 116.662C168.144 116.614 168.045 116.578 168.039 116.517C168.032 116.435 168.055 116.348 168.077 116.256C168.051 116.246 168.033 116.229 168.003 116.218C168.016 116.196 168.03 116.17 168.042 116.148C167.595 116.094 167.218 115.875 166.906 115.548C166.424 115.036 165.95 114.506 165.535 113.914C165.177 113.406 164.702 113.113 164.227 112.8C164.138 112.746 164.024 112.582 164.048 112.496C164.108 112.275 164.321 112.184 164.585 112.213C164.913 112.249 165.238 112.374 165.575 112.059C165.555 111.777 165.446 111.562 165.317 111.35C165.123 111.04 164.967 110.696 164.792 110.367C164.737 110.257 164.689 110.139 164.647 110.017C164.43 109.354 163.954 109.12 163.397 109.004C163.054 109.381 162.732 109.495 162.573 109.283C162.282 108.899 162.026 108.477 161.706 108.136C161.209 107.608 160.863 106.956 160.591 106.226C160.364 105.623 160.126 105.027 159.851 104.465C159.684 104.128 159.423 103.878 159.11 103.73C158.802 103.585 158.478 103.47 158.166 103.344C157.843 103.214 157.561 103.02 157.41 102.652C157.109 101.943 156.76 101.3 156.222 100.815C155.878 100.508 155.646 100.02 155.294 99.7312C154.563 99.1276 153.977 98.3922 153.581 97.425C153.339 96.8275 152.964 96.3553 152.525 95.9547C151.401 94.9255 150.416 93.725 149.463 92.4833C148.945 91.8102 148.336 91.262 147.593 90.9397C147.068 90.714 146.571 90.4458 146.132 90.0453C145.424 89.3918 144.553 89.1334 143.641 88.9869C143.19 88.9103 142.716 88.9417 142.257 88.8991C141.906 88.8697 141.608 88.7067 141.35 88.4578C140.995 88.1204 140.578 87.9873 140.085 88.0592C139.496 88.1433 138.904 88.2106 138.318 88.264C137.952 88.2979 137.643 88.1414 137.399 87.8767C136.994 87.4409 136.611 86.9447 136.453 86.299C136.04 84.6109 135.222 83.218 134.585 81.696C134.001 80.2784 133.42 78.8515 132.974 77.3526C132.562 75.9773 132.322 74.507 132.005 73.0769C131.777 72.0394 131.564 70.9919 131.311 69.9616C131.061 68.9373 131.063 67.7944 130.609 66.8589C130.455 66.5427 130.452 66.0759 130.44 65.6691C130.375 64.009 130.335 62.3371 130.275 60.6737C130.254 60.1208 130.257 59.55 130.141 59.0412C129.915 58.0524 130.063 57.1224 130.601 56.1939C130.909 55.6668 130.939 55.1116 130.98 54.5497C131.021 53.9771 131.18 53.4219 131.459 52.9054C131.739 52.3842 132.1 51.9935 132.603 51.8036C133.202 51.5803 133.771 51.4835 134.261 51.903C135.416 52.8804 136.52 53.9182 137.424 55.237C137.902 55.9378 138.422 56.6276 139.036 57.1512C139.682 57.7023 140.138 58.363 140.397 59.274C140.501 59.646 140.697 59.9832 140.918 60.2658C141.812 61.4065 142.49 62.7526 143.308 63.9655C143.366 64.0559 143.485 64.1159 143.589 64.1278C143.934 64.1651 144.03 63.9836 143.947 63.5877C143.842 63.0723 143.553 62.648 143.588 62.068C143.591 61.958 143.645 61.8456 143.687 61.7338C143.663 61.7304 143.636 61.7255 143.612 61.7221C143.613 61.6854 143.618 61.6501 143.622 61.6148C143.455 61.5372 143.398 61.4208 143.46 61.2531C143.517 61.2901 143.618 61.3114 143.628 61.3734C143.643 61.4475 143.635 61.5348 143.624 61.6208C143.652 61.6363 143.679 61.6518 143.718 61.6607C143.708 61.6886 143.699 61.7119 143.689 61.7399C144.365 61.8257 144.894 62.1854 145.276 62.8084C145.722 63.5291 146.188 64.2305 146.582 65.0009C147.029 65.8757 147.398 66.8166 147.979 67.5768C148.187 67.8493 148.328 68.2349 148.408 68.6141C148.553 69.2924 148.917 69.7285 149.336 70.1377C149.663 70.4596 149.958 70.8333 150.266 71.1852C150.528 72.595 151.611 73.1225 152.33 74.0395C152.398 74.1279 152.511 74.1699 152.612 74.2124C152.68 74.2428 152.75 74.2579 152.821 74.279C152.855 73.9158 152.803 73.5841 152.709 73.2634C152.57 72.8046 152.403 72.3562 152.284 71.8887C152.175 71.4514 152.071 71 152.135 70.4996C152.1 70.4921 152.067 70.4799 152.029 70.471C152.048 70.4091 152.052 70.3631 152.065 70.3045C151.879 70.0767 151.771 69.804 151.808 69.4468C151.771 69.4226 151.748 69.3932 151.708 69.3676C151.714 69.3276 151.73 69.2857 151.742 69.2424C151.592 69.1396 151.553 69.0193 151.645 68.8731C151.693 68.9227 151.772 68.9679 151.775 69.0272C151.779 69.0973 151.765 69.1665 151.742 69.2424C151.767 69.2626 151.791 69.2767 151.826 69.2949C151.815 69.3489 151.819 69.3929 151.813 69.4435C152.073 69.6297 152.159 69.9156 152.071 70.3012C152.097 70.332 152.121 70.3675 152.151 70.3997C152.144 70.429 152.145 70.461 152.142 70.4916C152.444 70.566 152.707 70.7215 152.907 70.9807C153.684 71.988 156.323 76.2666 156.778 77.2767C157.089 77.9686 157.35 78.7056 157.66 79.3975C157.75 79.5947 157.909 79.7383 158.049 79.9011C158.163 79.6944 158.275 79.4816 158.396 79.2776C158.679 78.7945 159.267 78.5564 159.654 78.7473C160.281 79.0476 160.856 79.4189 161.28 80.0415C161.617 80.5475 162.007 81.0251 162.256 81.604C162.569 82.3233 163.04 82.8414 163.475 83.4206C164.199 84.3923 164.866 85.4276 165.576 86.4152C166.14 87.2005 166.72 87.976 167.353 88.6971C168.213 89.6822 168.977 90.7954 169.766 91.8708C170.124 92.3576 170.421 92.9174 170.784 93.4008C171.506 94.3665 172.134 95.4509 173.079 96.1498C174.605 97.8148 176.138 99.4718 177.461 101.38C177.881 101.98 178.336 102.54 178.809 103.074C179.284 103.615 179.721 104.19 180.075 104.855C180.249 105.184 180.445 105.522 180.706 105.74C181.691 106.58 182.387 107.774 183.313 108.683C184.239 109.592 185.155 110.507 186.06 111.44C186.402 111.789 186.818 111.958 187.226 112.162C187.886 112.496 188.182 113.204 188.301 114.031C188.344 114.322 188.37 114.623 188.387 114.926L194.944 97.1838C194.879 97.022 194.824 96.8537 194.795 96.6628C194.524 94.9269 193.807 93.4179 193.614 91.6417C193.56 91.1346 192.973 90.4785 192.349 89.9828C192.189 90.1093 192.036 90.2538 191.869 90.3349C191.38 90.5622 191.062 90.2643 191.073 89.6122C191.08 89.3129 191.227 89.1076 191.46 88.9609C191.632 88.8552 191.813 88.7949 192.004 88.7966C192.191 88.4263 192.297 88.0261 192.231 87.6523C192.028 86.4549 191.79 85.2713 191.371 84.1847C190.316 81.4175 189.486 78.5115 188.52 75.682C187.633 73.0778 187.671 73.0546 186.416 70.7804C186.236 70.4546 186.039 70.1434 185.847 69.8289C185.328 68.9805 184.927 68.0593 184.731 66.976C184.561 66.0502 184.259 65.1869 183.859 64.3985C183.069 62.8303 182.303 61.2397 181.2 59.9638C180.887 59.6046 180.65 59.1518 180.339 58.788C179.94 58.323 179.708 57.7449 179.54 57.0951C179.439 56.7138 179.241 56.3493 178.932 56.2035C177.941 55.7311 177.776 54.3152 176.906 53.7075C176.723 53.5817 176.573 53.3675 176.458 53.1501C176.284 52.8211 176.159 52.447 175.999 52.102C175.893 51.872 175.805 51.6014 175.637 51.4598C175.004 50.9187 174.528 50.2346 174.195 49.3758C174.053 49.0056 173.781 48.7727 173.49 48.591C173.097 48.3454 172.673 48.1303 172.452 47.6676C172.01 46.7469 171.407 46.0106 170.763 45.3068C170.279 44.7787 169.912 44.1398 169.663 43.3809C169.546 43.0201 169.391 42.6185 169.137 42.4137C168.333 41.751 167.685 40.8658 166.734 40.3976C165.491 39.7798 164.498 38.7719 163.883 37.3008C163.683 36.8189 163.35 36.4789 162.982 36.1894C162.618 35.9013 162.263 35.6006 161.886 35.3344C159.773 33.8281 159.438 33.5508 158.141 32.2245C157.645 31.7183 157.139 31.2293 156.635 30.731C156.212 30.3098 155.71 30.0449 155.17 29.8505C154.42 29.5789 153.611 29.4916 152.908 29.0728C152.322 28.7188 151.781 28.2436 151.102 28.0984C150.286 27.9291 149.748 27.2539 149.07 26.834C148.683 26.5957 148.233 26.4718 147.8 26.338C147.355 26.2001 146.902 26.2762 146.426 26.5609C145.399 27.1766 144.36 27.4281 143.303 27.2121C142.684 27.0839 142.161 27.4623 141.678 28.0144C141.399 28.3402 141.139 28.7048 141.048 29.1211C140.799 30.2466 140.423 31.3414 140.075 32.441C139.946 32.8483 139.898 33.2915 139.989 33.6901C140.332 35.2517 140.691 36.8034 141.039 38.3664C141.299 39.5428 141.634 40.6669 142.092 41.7258C142.7 43.1255 143.155 44.6331 143.812 45.9984C143.975 46.3341 144.051 46.738 144.146 47.1226C144.168 47.21 144.132 47.3979 144.077 47.4462C143.986 47.5237 143.844 47.5563 143.741 47.5444C143.629 47.5297 143.506 47.479 143.439 47.3906C142.387 46.0437 141.178 44.9666 139.639 44.4085C139.325 44.298 139.072 44.0138 138.815 43.7757C138.297 43.304 137.755 42.8548 137.291 42.3074C136.594 41.4779 135.724 40.9022 134.968 40.1624C134.623 39.823 134.154 39.729 133.666 39.967C132.732 40.4211 131.784 40.4731 130.846 40.6665C130.489 40.7412 130.148 40.7053 129.822 40.5847C129.287 40.387 128.75 40.1939 128.203 40.0288C127.985 39.9642 127.748 39.9188 127.516 39.9602C126.692 40.1162 125.863 40.2069 125.052 40.5744C124.829 40.6718 124.615 40.8573 124.422 41.0509C124.134 41.3467 123.861 41.6692 123.608 42.0045C123.259 42.4633 122.968 42.9804 122.964 43.5665C122.955 44.5694 122.806 45.5361 122.373 46.4825C122.255 46.7459 122.157 47.0221 122.068 47.2963C121.884 47.8527 121.77 48.4302 121.908 48.9577C122.148 49.8773 122.135 50.8468 122.047 51.8412C122.008 52.2611 121.913 52.6866 121.857 53.1104C121.783 53.6814 121.807 54.2357 121.951 54.7493C122.057 55.1273 122.159 55.5146 122.282 55.8827C122.592 56.8127 122.459 57.7695 122.05 58.7514C121.997 58.8851 121.94 59.0175 121.882 59.1498C121.628 59.6912 121.549 60.2549 121.562 60.8157C121.574 61.3706 121.553 61.9559 121.673 62.4661C121.978 63.7701 121.917 65.198 122.21 66.5027C122.326 67.0327 122.31 67.5828 122.226 68.1604C122.168 68.5782 122.106 69.016 122.141 69.4156C122.208 70.1708 121.948 70.7841 121.53 71.3972C121.3 71.736 121.313 72.3335 121.521 72.5587C122.088 73.1654 122.566 73.8556 122.873 74.7155C122.972 74.9902 122.887 75.2077 122.695 75.4807C122.183 76.2126 121.925 77.012 122.088 77.8878C122.138 78.1495 122.151 78.4296 122.2 78.6913C122.265 79.0437 122.15 79.2551 121.825 79.2779C121.717 79.286 121.601 79.206 121.529 79.1209C120.986 78.481 120.784 77.5063 120.142 76.9566C119.879 76.7324 119.646 76.461 119.249 76.5421C118.77 76.6454 118.321 76.5642 117.86 76.5156C117.752 76.5023 117.551 76.5498 117.527 76.615C117.467 76.7781 117.621 76.9356 117.843 77.1023C118.026 77.2387 118.18 77.4176 118.337 77.5918C118.53 77.8223 118.514 78.0916 118.274 78.347C118.082 78.5513 117.848 78.6446 117.625 78.594C117.168 78.4887 116.847 78.1162 116.475 77.8513C115.908 77.4461 115.313 77.1046 114.648 76.9221C114.66 76.9689 114.672 77.0156 114.68 77.061C114.648 77.0335 114.61 77.0139 114.578 76.9864C114.088 77.4671 114.02 77.5054 113.735 77.4317C113.503 77.3724 113.389 77.161 113.45 76.8607C113.461 76.7961 113.665 76.7072 113.772 76.6991C114.081 76.6755 114.338 76.813 114.578 76.9864C114.603 76.9639 114.623 76.9447 114.648 76.9221C114.568 76.5749 114.411 76.2893 114.163 76.1025C113.886 75.8943 113.581 75.7285 113.285 75.5608C112.349 75.04 111.334 74.9776 110.239 75.3722C109.741 75.5481 109.344 75.8992 109.092 76.4466C108.357 78.0174 107.837 79.6729 107.312 81.3209C107.168 81.7655 107.283 82.1523 107.467 82.4794C107.657 82.8199 107.725 83.1997 107.661 83.6314C107.62 83.9126 107.54 84.1955 107.515 84.4774C107.467 85.0473 107.978 85.3789 108.435 85.0874C108.653 84.9506 108.864 84.7851 109.079 84.653C109.322 84.5043 109.556 84.501 109.745 84.6554C109.911 84.791 110.06 85.0313 110.004 85.3284C109.795 86.4474 109.354 87.5498 109.39 88.691C109.146 89.6805 108.82 90.6402 108.18 91.4254C107.9 91.7665 107.709 92.1462 107.678 92.5795C107.637 93.1413 107.629 93.6941 107.457 94.2606C107.335 94.6706 107.244 95.0975 107.189 95.5167C107.149 95.8145 107.256 96.0658 107.423 96.2228C107.492 96.2852 107.616 96.3099 107.708 96.2858C107.81 96.2597 107.982 96.154 107.993 96.0787C108.038 95.7989 108.043 95.5148 108.041 95.2388C108.05 94.628 108.227 94.1269 108.74 93.8084C109.071 93.6022 109.416 93.4335 109.718 93.1798C110.167 92.8109 110.276 92.2001 110.465 91.6664C110.608 91.2584 110.711 90.8309 110.812 90.4127C110.997 89.6289 111.48 89.1562 112.038 88.796C112.476 88.5131 112.939 88.287 113.4 88.0869C113.751 87.9361 114.098 87.9688 114.384 88.2071C114.473 88.2823 114.553 88.3701 114.628 88.4612C115.801 89.8055 116.853 91.3111 118.149 92.5047C118.393 92.7328 118.57 93.1106 118.682 93.4746C118.951 94.3683 119.308 95.1619 119.975 95.6891C120.149 95.8274 120.29 96.065 120.36 96.3027C120.507 96.807 120.573 97.3502 120.716 97.8531C121.228 99.625 121.674 100.335 120.514 102.638C120.451 102.763 120.433 102.915 120.394 103.054C120.15 103.907 120.025 104.739 120.272 105.535C120.475 106.192 120.372 106.89 120.175 107.601C120.098 107.879 120.047 108.162 119.969 108.441C119.808 109.011 119.526 109.505 119.136 109.917C118.946 110.116 118.739 110.294 118.58 110.521C118.401 110.767 118.369 111.057 118.422 111.331C118.545 111.98 118.949 112.452 118.93 113.202C118.911 113.963 118.906 114.078 118.245 114.527C117.666 114.922 117.599 115.013 117.533 115.46C117.43 116.169 117.335 116.875 117.241 117.581C117.164 118.172 117.305 118.669 117.526 119.132C117.714 119.524 117.619 119.928 117.385 120.313C117.081 120.82 116.901 121.341 116.831 121.924C116.643 123.628 116.556 125.317 116.638 126.978C116.679 127.813 116.673 128.632 116.516 129.495C116.339 130.493 116.547 131.439 116.529 132.412C116.48 134.945 116.717 137.394 117.165 139.778C117.214 140.039 117.296 140.324 117.243 140.59C116.994 141.784 117.303 142.772 117.554 143.807C117.675 144.313 117.647 144.895 117.686 145.444C117.39 146.876 117.441 148.25 117.53 149.632C117.603 150.74 117.664 151.826 118.005 152.831C118.426 154.072 118.504 155.461 118.612 156.835C118.773 158.891 118.867 160.969 119.423 162.879C119.531 163.253 119.547 163.682 119.614 164.077C119.904 165.805 120.162 167.552 120.494 169.258C120.675 170.177 120.995 171.025 121.237 171.914C121.338 172.296 121.429 172.69 121.462 173.099C121.537 174.079 121.818 174.94 122.195 175.747C122.461 176.322 122.674 176.919 122.802 177.586C123.085 179.03 123.456 180.437 123.772 181.872C124.081 183.3 124.634 184.6 124.764 186.13C124.807 186.654 125.072 187.123 125.269 187.593C125.471 188.059 125.736 188.48 125.933 188.95C126.029 189.176 126.104 189.468 126.073 189.732C125.874 191.422 125.774 193.111 125.279 194.802C124.993 195.765 124.856 196.768 124.649 197.756C124.498 198.457 124.401 199.184 124.171 199.861C123.712 201.237 123.427 202.641 123.125 204.043C123.064 204.333 122.872 204.606 122.624 204.668C122.412 204.722 122.23 204.528 122.091 204.307C122.025 204.203 121.963 204.101 121.91 203.986C121.176 202.354 121.029 200.373 120.248 198.777C120.144 197.965 120.024 197.164 119.938 196.348C119.838 195.39 119.652 194.474 119.37 193.603C119.212 193.105 119.049 192.6 118.99 192.059C118.826 190.532 118.329 189.216 117.739 187.949C117.464 187.366 117.31 186.732 117.278 186.032C117.259 185.596 117.096 185.26 116.886 184.961C116.603 184.554 116.413 184.087 116.315 183.553C116.24 183.16 116.198 182.742 116.08 182.375C115.872 181.732 115.879 181.047 115.993 180.332C116.063 179.907 116.123 179.485 116.185 179.058C116.247 178.62 116.183 178.231 115.967 177.913C115.691 177.509 115.438 177.077 115.345 176.54C115.128 175.348 115.01 174.113 114.72 172.958C114.424 171.774 114.54 170.493 114.411 169.275C114.383 169 114.393 168.713 114.33 168.456C114.104 167.457 113.936 166.41 113.316 165.678C113.111 166.153 112.904 166.622 112.7 167.097C112.724 167.111 112.742 167.129 112.766 167.143C112.762 167.199 112.754 167.255 112.75 167.311C112.858 167.436 112.884 167.557 112.823 167.677C112.796 167.614 112.744 167.563 112.741 167.493C112.738 167.434 112.744 167.373 112.75 167.311C112.72 167.279 112.69 167.247 112.653 167.212C112.672 167.171 112.686 167.134 112.705 167.094C112.161 166.728 112.029 166.06 112.068 165.312C112.085 164.974 112.205 164.627 112.294 164.284C111.877 163.913 111.681 163.306 111.308 162.882C111.158 162.715 111.05 162.443 111.019 162.188C110.933 161.372 110.831 160.567 110.693 159.769C110.414 158.179 110.249 156.54 110.039 154.922C110.162 153.215 109.781 151.629 109.83 149.942C109.837 149.664 109.851 149.378 109.892 149.097C109.912 148.966 109.996 148.828 110.068 148.701C110.238 148.42 110.443 148.295 110.634 148.376C110.731 148.417 110.84 148.516 110.87 148.627C110.971 149.009 111.048 149.408 111.12 149.8C111.179 150.123 111.307 150.319 111.492 150.223C111.719 150.106 111.864 149.836 111.929 149.537C112.018 149.104 112.009 148.678 111.905 148.295C111.559 147.023 111.18 145.772 110.636 144.628C110.586 144.525 110.497 144.439 110.411 144.402C110.31 144.36 110.184 144.387 110.067 144.376C109.349 144.312 109.093 143.989 108.995 143.185C108.828 141.821 108.901 140.408 108.837 139.024C108.811 138.475 108.902 137.868 108.778 137.372C108.383 135.802 108.404 134.121 108.41 132.45C108.414 131.186 108.446 129.927 108.163 128.743C108.074 128.366 108.054 127.924 108.091 127.509C108.265 125.503 107.722 123.693 107.75 121.734C107.439 120.83 107.544 119.869 107.767 118.86C107.859 118.455 107.833 118.006 107.765 117.615C107.471 116.009 107.466 114.344 107.618 112.638C107.656 112.218 107.689 111.769 107.613 111.387C107.404 110.319 107.491 109.181 107.361 108.101C107.335 107.89 107.192 107.726 107.073 107.55C107.067 107.569 107.063 107.589 107.058 107.603C107.011 107.596 106.965 107.584 106.919 107.572C106.513 108.074 106.039 108.422 105.487 108.552C105.226 108.614 105.038 108.46 105.01 108.174C104.981 107.936 105.142 107.704 105.396 107.592C105.618 107.499 105.854 107.422 106.073 107.429C106.36 107.44 106.638 107.511 106.919 107.572C106.951 107.531 106.989 107.498 107.017 107.455C107.034 107.488 107.053 107.516 107.075 107.545C107.394 106.456 107.714 105.367 108.029 104.277C108.111 104 107.84 103.391 107.599 103.287C107.276 103.146 106.934 103.136 106.583 103.298C106.358 103.4 106.155 103.6 105.932 103.729C105.549 103.953 105.227 103.765 105.149 103.334C104.972 102.395 104.966 101.429 105.118 100.432C105.172 100.071 105.063 99.8929 104.79 99.8767C104.426 99.8586 104.195 99.5826 103.928 99.357C103.412 98.9174 103.345 98.9617 103.133 99.9527C102.918 100.964 102.59 101.896 101.936 102.687C101.579 103.121 101.243 103.569 101.005 104.111C100.826 104.516 100.749 104.927 100.755 105.352C100.756 105.787 101.023 106.081 101.393 106.049C101.763 106.016 102.079 105.815 102.376 105.507C102.657 105.208 102.777 104.739 103.147 104.537C103.381 104.412 103.579 104.427 103.733 104.653C103.799 104.746 103.898 104.894 103.871 104.99C103.704 105.542 103.505 106.083 103.316 106.627C102.672 107.411 102.363 108.372 102.037 109.331C101.947 109.599 101.807 109.855 101.686 110.112C101.526 110.455 100.975 110.786 100.771 110.663C100.583 110.551 100.41 110.398 100.341 110.123C100.283 109.874 100.285 109.589 100.239 109.328C100.189 109.035 100.016 108.907 99.7479 108.967C99.3969 109.049 99.0588 109.58 99.1097 109.927C99.127 110.061 99.0902 110.217 99.1291 110.337C99.2867 110.835 99.4497 111.329 99.636 111.805C99.978 112.684 99.8607 113.689 99.8337 114.663C99.8307 114.784 99.7485 114.939 99.6727 115.054C99.4438 115.414 99.1834 115.746 98.9638 116.115C98.7408 116.493 98.5792 116.942 98.7307 117.321C99.1667 118.44 99.0048 119.746 99.1536 120.955C98.93 122.53 99.0813 124.036 99.1167 125.564C99.1225 125.841 99.1268 126.134 99.0633 126.407C99.0017 126.675 98.8934 126.979 98.7321 127.179C98.4715 127.501 98.1514 127.759 97.8535 128.035C97.3079 128.553 97.297 128.819 97.9033 129.208C98.703 129.715 99.2202 130.536 99.7002 131.412C99.757 131.518 99.7836 131.66 99.81 131.792C99.9913 132.732 100.064 133.675 99.5716 134.668C99.4476 134.914 99.5098 135.196 99.6921 135.39C100.131 135.86 100.223 136.524 100.223 137.233C100.222 137.958 100.047 138.645 99.5073 139.181C99.2988 139.385 99.1545 139.618 99.1446 139.926C99.0923 141.612 99.1466 143.257 99.3948 144.873C99.5112 145.663 99.4927 146.524 99.5208 147.35C99.5559 148.337 99.825 149.209 99.9409 150.147C100.039 150.951 99.9358 151.829 100.006 152.643C100.063 153.321 100.231 153.971 100.385 154.615C100.476 154.998 100.67 155.319 100.971 155.52C101.157 155.647 101.369 155.794 101.47 156.006C101.908 156.93 102.237 157.899 101.937 159.128C101.789 159.73 101.96 160.237 102.259 160.634C102.618 161.116 103.008 161.572 103.418 161.994C103.675 162.258 103.907 162.555 103.94 162.96C104.04 164.066 104.391 165.043 104.613 166.088C104.724 166.611 104.779 167.161 104.623 167.739C104.509 168.173 104.528 168.582 104.631 168.97C104.967 170.248 105.256 171.551 105.773 172.722C105.933 173.077 105.963 173.48 105.941 173.912C105.919 174.343 106.003 174.723 106.198 175.055C106.643 175.823 106.469 176.923 106.907 177.71C107.081 178.018 107.116 178.464 107.181 178.864C107.331 179.799 107.458 180.74 107.797 181.58C107.948 181.949 107.883 182.385 107.868 182.808C107.857 183.085 107.82 183.4 107.907 183.627C108.38 184.962 108.299 186.589 109 187.817C109.371 188.467 109.487 189.304 109.4 190.172C109.255 191.622 109.506 192.927 109.847 194.213C110.12 195.245 110.453 196.215 111.024 197.025C111.387 197.54 111.51 198.189 111.556 198.889C111.616 199.853 111.746 200.796 111.817 201.754C111.912 202.996 112.048 204.206 112.402 205.332C112.601 205.978 112.599 206.638 112.414 207.375C112.269 207.935 112.339 208.491 112.47 209.016C112.601 209.53 112.728 210.043 112.835 210.564C112.888 210.848 112.821 211.131 112.645 211.314C112.565 211.396 112.407 211.406 112.301 211.388C111.963 211.322 111.615 211.272 111.308 211.133C109.455 210.252 107.576 209.42 106.048 207.897C105.628 207.477 105.085 207.213 104.509 207.18C103.65 207.138 103.03 206.628 102.379 206.16C101.991 205.879 101.755 205.447 101.69 204.878C101.612 204.188 101.445 203.57 101.049 203.085C100.062 201.868 99.2641 200.477 98.5836 198.971C98.2232 198.165 97.8765 197.322 97.2574 196.755C96.648 195.518 96.0565 194.267 95.3452 193.115C95.1552 192.807 95.0864 192.384 94.9605 192.015C94.7549 191.399 94.6718 190.722 94.5453 190.061C94.3941 189.264 93.8242 188.789 93.5399 188.059C93.0178 186.733 92.509 185.439 92.6677 183.803C92.7099 183.385 92.6504 182.971 92.6327 182.557C92.6012 181.83 92.3689 181.242 91.8778 180.88C91.4862 180.587 91.2441 180.228 91.2746 179.593C91.3337 178.328 91.0724 177.131 91.2038 175.84C91.3077 174.804 91.0287 173.89 90.4306 173.288C89.7155 172.563 89.4246 171.604 89.3233 170.491C89.2753 169.934 89.4362 169.363 89.72 168.843C89.8601 168.588 90.0745 168.402 90.3081 168.356C90.5417 168.31 90.7734 168.348 91.0074 168.324C91.1163 168.311 91.257 168.257 91.3315 168.168C91.4558 168.024 91.3711 167.802 91.1083 167.667C90.3988 167.299 89.6701 166.972 88.9623 166.599C88.659 166.439 88.4278 166.163 88.2426 165.83C88.1895 165.726 88.0828 165.665 87.9905 165.599C87.793 165.458 87.5618 165.441 87.3399 165.613C87.261 165.669 87.2163 165.88 87.2099 166.01C87.1974 166.37 87.0816 166.571 86.8208 166.623C86.5782 166.671 86.3747 166.59 86.2304 166.384C86.0166 166.072 85.9213 165.687 85.9305 165.256C85.9398 164.826 86.0018 164.399 86.3594 164.107C86.6668 163.85 86.9969 163.633 87.3079 163.378C87.7711 163.004 87.9188 162.502 87.6851 161.929C87.5377 161.573 87.354 161.224 87.36 160.813C87.3682 159.98 87.2004 159.172 87.4169 158.304C87.6367 157.416 87.5202 156.627 87.119 155.954C87.0549 155.846 86.9803 155.755 86.9162 155.646C86.6562 155.212 86.524 154.713 86.579 154.124C86.6707 153.11 86.5919 152.207 86.0255 151.463C85.4927 150.763 85.4283 149.765 85.4458 148.771C85.4555 148.362 85.5847 147.933 85.6687 147.514C85.7562 147.086 85.8506 146.639 85.7301 146.266C85.4427 145.387 85.4188 144.415 85.3245 143.464C85.2776 142.96 85.1204 142.483 84.806 142.14C84.5905 142.621 84.4042 143.103 84.5405 143.624C84.4825 145.032 84.754 146.372 84.5908 147.794C84.5853 147.876 84.4257 147.981 84.3285 148.03C84.2313 148.079 84.0901 148.111 84.0235 148.055C83.5299 147.666 83.369 147.008 83.3653 146.308C83.3582 145.617 83.4688 144.901 83.4778 144.2C83.4865 143.478 83.4548 142.831 82.9888 142.368C82.8309 142.209 82.6857 141.959 82.655 141.705C82.5265 140.598 82.1306 139.663 81.7454 138.711C81.6035 138.362 81.5727 137.927 81.5479 137.521C81.5092 136.972 81.5047 136.409 81.5203 135.848C81.5508 134.165 81.4692 132.515 81.1273 130.938C80.9883 130.289 80.9176 129.601 80.811 128.931C80.7004 128.25 80.7459 127.552 80.942 126.841C81.1362 126.124 80.8425 125.465 81.0313 124.751C81.2319 123.994 81.0994 123.394 80.737 122.842C80.5399 122.542 80.4493 122.122 80.5564 121.674C80.7954 120.667 80.6808 119.703 80.6643 118.734C80.646 118.028 80.6951 117.331 80.8477 116.626C81.0388 115.759 80.9984 114.955 80.7783 114.165C80.5716 113.405 80.4817 112.578 80.3002 111.807C80.1727 111.273 80.2338 110.713 80.235 110.157C80.2361 109.602 80.1576 109.059 80.1316 108.51C80.1204 108.236 80.261 108.002 80.4542 107.761C80.7467 107.398 80.8231 106.965 80.6555 106.596C80.3218 105.854 80.3384 105.076 80.5508 104.186C80.875 102.813 80.7482 102.401 79.9709 101.224C79.8413 101.022 79.7364 100.788 79.6334 100.559C79.4772 100.216 79.6119 99.7835 79.9677 99.4968C80.5953 98.9822 80.5916 98.9809 80.4972 98.5489C80.4654 98.4207 80.4659 98.2727 80.4271 98.1524C80.1362 97.2826 79.8782 96.4143 80.0799 95.3612C80.1222 95.1227 79.9658 94.8584 79.8736 94.6232C79.7868 94.3846 79.6462 94.1791 79.5702 93.934C79.5408 93.8331 79.5823 93.642 79.651 93.535C79.8006 93.2992 80.0236 93.1804 80.2624 93.2104C80.6162 93.2564 80.8599 93.5212 81.1247 93.7514C81.7451 94.293 81.7356 94.2736 81.9832 93.9416C82.2486 93.5844 82.3548 93.1842 82.4004 92.7564C82.448 92.3346 82.4973 91.9081 82.565 91.4884C82.6128 91.1673 82.792 90.9529 83.05 90.8523C83.2827 90.7636 83.4946 90.8102 83.6693 90.9912C83.9147 91.2513 84.1388 91.5353 84.3913 91.7875C84.911 92.2972 85.2483 92.9512 85.373 93.7861C85.4496 94.3227 85.5424 94.8493 85.6388 95.3773C85.7067 95.7571 86.0079 95.9902 86.4148 95.8812C87.0712 95.7055 87.5668 95.841 87.8271 96.5566C88.0026 97.0397 88.1926 97.5176 88.361 98.0086C88.6436 98.8331 88.6367 98.8517 88.6884 100.808C88.7007 101.226 88.6897 101.661 88.7831 102.04C89.0618 103.202 89.3728 104.344 89.8741 105.365C89.9861 105.592 90.2133 105.676 90.4584 105.656C90.8196 105.625 91.1546 105.473 91.4609 105.163C91.7761 104.84 91.9478 104.353 91.8695 104.001C91.5947 102.851 90.9669 101.868 91.1532 100.507C91.0469 100.118 90.8301 99.837 90.5651 99.5961C89.8722 98.9801 89.6734 98.0754 90.07 97.0361C90.4526 96.0234 90.4641 95.0906 90.3389 94.1443C90.2887 93.7393 90.1592 93.3685 90.0656 92.9792C89.9012 92.3308 89.8704 91.6365 89.9012 90.9331C89.909 90.6978 90.0203 90.453 90.1062 90.2095C90.0842 90.2013 90.0622 90.1932 90.0419 90.1804C90.052 90.1418 90.055 90.1112 90.0634 90.0772C89.767 89.8988 89.7236 89.5652 89.7792 89.1781C89.7406 89.1585 89.7182 89.129 89.6742 89.1128C89.6858 89.0588 89.7011 89.0062 89.7144 88.9476C89.6083 88.829 89.5841 88.7142 89.6491 88.6059C89.6813 88.6654 89.7369 88.7177 89.7365 88.7864C89.734 88.8384 89.726 88.8937 89.7144 88.9476C89.7405 88.9785 89.7684 89.0046 89.8035 89.0335C89.7936 89.0828 89.7891 89.1288 89.7829 89.1794C90.0774 89.3518 90.1763 89.6477 90.0671 90.0785C90.091 90.0927 90.1132 90.1115 90.1425 90.1223C90.1322 90.1503 90.1202 90.1829 90.1098 90.2108C90.1924 90.2466 90.275 90.2824 90.3416 90.3388C90.4231 90.4113 90.498 90.5131 90.5276 90.6246C90.8689 92.0002 91.5699 93.1804 91.521 94.7665C91.509 95.1485 91.7183 95.5064 91.8457 95.8606C92.0581 96.4579 92.2453 97.0671 92.3427 97.7278C92.4818 98.6474 92.6227 99.5624 92.8123 100.458C93.0788 101.732 93.358 103.005 93.7648 104.204C93.8382 104.411 94.0042 104.525 94.2002 104.592C94.266 104.347 94.3643 104.092 94.3523 103.865C94.2915 102.779 94.1515 101.726 93.9336 100.693C93.6314 99.2788 93.4301 97.8173 93.5488 96.2676C93.5933 95.6964 93.4665 95.1942 93.3396 94.6921C93.2109 94.1839 93.1239 93.6753 93.1828 93.0988C93.2385 92.5424 93.247 91.9896 93.223 91.446C93.1932 90.625 93.1343 89.8039 92.872 89.0822C92.704 88.6125 92.4051 88.2267 92.1833 87.79C92.1472 87.7185 92.1943 87.5347 92.2488 87.4437C92.4632 87.0888 92.9767 86.8603 93.1732 87.0388C93.4011 87.2448 93.6094 87.47 93.8268 87.6933C94.0187 87.0389 94.0166 86.4134 93.8511 85.8017C93.5753 84.7786 93.2367 83.8011 92.7816 82.9023C92.3852 82.1153 91.9925 81.3295 91.5765 80.5617C91.272 79.9992 91.1135 79.3688 91.0572 78.6756C91.009 78.1072 90.7603 77.6871 90.4702 77.2887C90.0396 76.6955 89.5722 76.168 88.9403 75.8604C88.6226 75.7059 88.4105 75.3893 88.2937 75.0179C88.0935 74.3986 87.9435 73.7449 87.7417 73.1303C87.5786 72.636 87.3745 72.174 87.0736 71.7822C86.8736 71.5231 86.388 71.5183 86.1401 71.8397C85.9702 72.0627 85.8245 72.3106 85.6489 72.5263C85.2376 73.0308 84.7592 73.1081 84.4072 72.708C83.6195 71.8187 82.7414 71.0389 82.0636 70.0102C81.7856 69.5792 81.3348 69.4126 80.8744 69.396C79.9463 69.36 78.9904 69.5573 78.0861 69.3555C77.7323 69.4789 77.3899 69.6276 77.1602 70.0351C76.7432 70.7916 76.3203 71.53 75.7331 72.1495C75.3577 72.5454 75.0518 73.0465 74.7139 73.4987C74.4503 73.8512 74.3169 74.2572 74.2659 74.6884C74.247 74.8296 74.2572 74.9711 74.2383 75.1123C73.9855 76.946 73.8256 78.7875 73.2707 80.6047C73.1463 81.0088 73.1048 81.4593 73.1115 81.8694C73.1333 83.2645 73.1041 84.662 72.8356 86.0875C72.8074 86.22 72.8215 86.3734 72.8604 86.4937C72.9401 86.7402 73.0234 86.9881 73.1477 87.1928C73.1986 87.2805 73.3458 87.2766 73.4538 87.3112C74.0557 87.486 74.1237 87.6965 73.6536 88.4386C73.3173 88.9655 73.2006 89.4729 73.2505 90.0367C73.2624 90.1734 73.2401 90.324 73.2665 90.4555C73.2909 90.581 73.3216 90.7459 73.401 90.8017C73.5594 90.9026 73.7344 90.7449 73.884 90.419C73.9449 90.288 74.0131 90.1597 74.0611 90.0186C74.1639 89.7178 74.3319 89.4887 74.5924 89.4262C74.7987 89.3753 75.0628 89.9229 75.0941 90.2892C75.1686 91.2485 74.8312 92.2514 75.0385 93.2122C75.2073 93.984 75.1925 94.8467 75.2406 95.6745C75.287 96.507 75.4235 97.2986 75.5908 98.0857C75.9235 99.6539 75.5661 101.444 75.9912 102.998C76.0599 103.241 76.0045 103.549 75.9995 103.833C75.9987 103.97 75.9781 104.116 75.9683 104.255C75.8214 106.197 75.8891 107.005 76.3022 109.122C76.5096 110.173 76.6719 111.244 76.8432 112.313C76.9516 112.978 77.1272 113.641 77.1143 114.33C77.0898 115.602 77.3308 116.787 77.3857 118.025C77.4102 118.59 77.309 119.145 77.0511 119.685C76.7915 120.23 76.7304 120.79 76.829 121.334C76.9923 122.279 77.0541 123.239 76.6693 124.235C76.2467 125.333 76.5164 126.148 77.0481 126.884C77.1866 127.073 77.2682 127.326 77.3658 127.558C77.5095 127.912 77.3189 128.451 76.9794 128.648C76.6596 128.837 76.209 128.851 76.0495 129.226C75.8934 129.592 75.945 130.061 75.9229 130.481C75.9148 130.616 75.9394 130.752 75.9567 130.886C75.989 131.125 76.0876 131.32 76.2328 131.48C76.2377 131.455 76.2409 131.435 76.2459 131.411C76.3075 131.402 76.351 131.397 76.3963 131.387C76.4439 131.314 76.4917 131.253 76.5191 131.258C76.6505 131.285 76.5991 131.345 76.3963 131.387C76.3592 131.442 76.3222 131.497 76.2886 131.543C76.2664 131.524 76.2496 131.502 76.2328 131.48C76.1556 131.88 76.044 132.284 76.0322 132.676C76.0096 133.515 76.0687 134.347 76.0462 135.186C76.0169 136.313 76.0327 137.42 76.2294 138.488C76.3066 138.877 76.292 139.311 76.3024 139.722C76.3524 141.255 76.4889 142.745 76.9917 144.101C77.1245 144.452 77.1588 144.878 77.1946 145.288C77.2662 146.108 77.2475 146.959 77.3732 147.757C77.6095 149.237 77.6681 150.746 77.624 152.297C77.599 153.278 77.6972 154.241 77.9738 155.126C78.4787 156.758 78.7115 158.507 78.8992 160.275C78.944 160.684 78.9602 161.113 79.0805 161.475C79.5823 162.958 79.726 164.62 80.2601 166.083C80.5282 166.823 80.6395 167.626 80.6389 168.473C80.6347 169.319 80.7567 170.115 80.9492 170.891C81.2705 172.174 81.5773 173.463 81.8626 174.765C81.9149 175.006 81.8636 175.337 81.7726 175.594C81.6355 175.999 81.4791 176.434 81.2293 176.749C80.9017 177.173 80.9582 177.528 81.0659 177.901C81.1366 178.149 81.2809 178.356 81.3892 178.582C81.4425 178.697 81.5083 178.8 81.5599 178.92C81.7052 179.259 81.5665 179.849 81.3013 180.037C81.0719 180.195 80.826 180.263 80.6317 180.102C80.0876 179.646 79.5324 179.267 78.7575 179.425C78.2614 179.527 77.8464 179.332 77.5222 178.958C77.2093 178.599 76.9194 178.211 76.6082 177.847C76.2094 177.382 75.7327 177.105 75.1109 177.108C74.7563 177.11 74.4155 176.984 74.2549 176.607C73.752 175.42 73.0925 174.398 72.3152 173.481C72.086 173.211 72.0083 172.801 71.9831 172.374C71.9461 171.82 71.8391 171.309 71.5503 170.885C71.1413 170.278 70.7465 169.656 70.3749 169.016C70.1883 168.698 69.9702 168.353 69.9277 167.972C69.801 166.861 69.2722 166.004 69.0289 164.971C68.9353 164.582 68.8114 164.219 68.605 163.909C68.2635 163.402 67.9629 162.851 67.5984 162.373C66.991 161.582 66.6923 160.598 66.5225 159.513C66.4614 159.115 66.4021 158.712 66.3573 158.303C66.2947 157.74 66.0692 157.302 65.7969 156.889C65.4516 156.37 65.1811 155.783 65.1232 155.094C65.0292 153.985 64.8294 152.948 64.3291 152.058C63.9554 151.402 63.9406 150.517 63.6406 149.819C63.2927 149.002 62.8123 148.284 62.468 147.469C62.0739 146.529 61.7914 145.535 61.8323 144.354C61.8666 143.382 61.8063 142.407 61.4269 141.562C61.2152 141.087 61.2795 140.507 61.3494 139.935C61.492 138.749 61.2636 137.733 60.6913 136.881C60.4904 136.579 60.2659 136.273 60.1601 135.906C59.7657 134.516 59.409 133.103 59.0506 131.695C58.9516 131.309 58.9376 130.896 58.985 130.463C59.0173 130.184 59.0223 129.9 59.0021 129.628C58.9576 129.061 58.7711 128.574 58.442 128.225C58.1185 127.883 57.7366 127.62 57.3776 127.318C57.1074 127.091 56.887 126.808 56.7555 126.431C56.5817 125.944 56.4079 125.456 56.2378 124.969C56.0331 124.396 55.6347 124.302 55.1197 124.456C55.0312 124.481 54.9365 124.478 54.8473 124.471C54.5031 125.234 54.1719 126.006 53.7982 126.747C53.669 127.006 53.3986 127.118 53.1771 127.131C52.9318 127.141 52.7595 126.987 52.6451 126.733C52.5918 126.618 52.517 126.517 52.4889 126.39C52.2827 125.482 52.1395 124.54 51.8794 123.666C51.5823 122.667 51.1916 121.717 50.8386 120.745C50.7961 120.624 50.7607 120.494 50.7343 120.363C50.6552 119.968 50.6196 119.568 50.7269 119.132C50.8073 118.801 50.7166 118.551 50.4859 118.476C50.2242 118.395 50.0273 118.545 49.9702 118.857C49.8473 119.505 49.4857 119.864 48.9916 120.063C48.7608 120.157 48.5216 120.196 48.2848 120.262C47.325 120.537 46.4064 120.521 45.5204 120.236C45.2037 120.135 44.9021 119.97 44.5271 120.038C44.2607 120.083 44.0804 120.244 44.0733 120.601C44.0364 121.884 44.4739 122.988 44.5958 124.214C44.7077 125.309 44.9833 126.321 45.3634 127.288C45.88 128.606 46.2509 130.003 46.3555 131.535C46.3922 132.078 46.5234 132.613 46.7006 133.092C47.0646 134.068 47.2394 135.128 47.3818 136.208C47.4531 136.748 47.5965 137.261 47.9153 137.638C48.3982 138.214 48.6318 138.957 48.6875 139.798C48.8171 141.746 49.2256 143.549 49.8934 145.236C50.0814 145.708 50.1872 146.244 50.325 146.751C50.5021 147.399 50.5613 148.061 50.3894 148.797C50.289 149.215 50.2996 149.637 50.3951 150.032C50.4886 150.422 50.5677 150.816 50.6667 151.202C50.833 151.857 50.8546 152.542 50.6878 153.264C50.5525 153.844 50.5264 154.422 50.7775 154.87C51.3461 155.89 51.5914 157.018 51.345 158.372C51.27 158.789 51.2899 159.22 51.3076 159.634C51.3289 160.05 51.4352 160.439 51.6309 160.755C51.7608 160.967 51.8906 161.179 52.0524 161.35C52.3129 161.637 52.4429 162.029 52.3496 162.439C52.1622 163.307 52.1069 164.144 52.2617 164.942C52.4223 165.759 52.4353 166.558 52.1224 167.427C51.9746 167.838 52.0018 168.272 52.0665 168.671C52.1995 169.472 52.3722 170.256 52.471 171.071C52.5174 171.464 52.52 171.941 52.3842 172.32C52.0352 173.287 52.0725 174.291 51.7396 175.248C51.6471 175.521 51.4289 175.694 51.1686 175.767C51.0529 175.799 50.9313 175.812 50.8238 175.799C49.621 175.672 48.6349 175.207 48.2231 173.763C48.1153 173.389 47.8677 173.113 47.5585 172.935C47.1646 172.705 46.7845 172.437 46.3766 172.233C45.8253 171.955 45.533 171.45 45.431 170.746C44.7113 169.278 44.0632 167.752 43.415 166.226C43.1683 165.642 42.782 165.166 42.5138 164.596C42.2415 164.003 42.4436 163.23 42.3244 162.572C42.3017 162.442 42.2788 162.301 42.2399 162.181C42.2028 162.056 42.1583 161.928 42.0891 161.834C41.6456 161.231 41.4572 160.478 41.3185 159.67C41.1797 158.851 40.8047 158.22 40.1769 157.845C39.8804 157.667 39.6365 157.391 39.4962 157.027C39.1525 156.154 38.6002 155.563 37.8299 155.247C37.2448 155.004 37.0307 154.411 36.929 153.717C36.8658 153.302 36.9517 152.889 37.0211 152.465C37.1053 151.966 36.9897 151.828 36.4939 151.772C36.1458 151.734 35.7691 151.716 35.5822 151.388C35.2029 150.723 34.6507 150.313 34.1353 149.836C33.872 149.591 33.7334 149.222 33.6758 148.814C33.6185 148.417 33.5971 148.002 33.5434 147.606C33.4895 147.2 33.1637 147.01 32.7603 147.11C32.1742 147.253 31.5989 147.57 31.0028 147.583C30.7265 147.587 30.2955 147.321 30.2228 146.977C30.1102 146.459 30.0356 145.928 29.9303 145.413C29.8122 144.808 28.895 144.596 28.4759 145.077C28.3852 145.175 28.2928 145.279 28.2097 145.391C28.1266 145.503 28.0566 145.636 27.9735 145.749C27.5066 146.381 26.9386 146.61 26.348 146.45C25.5782 146.245 24.8355 145.944 24.0778 145.707C23.322 145.475 22.828 145.854 22.405 146.931C22.0854 147.739 21.7602 148.54 21.4297 149.344C21.1962 149.92 21.1603 150.468 21.3994 150.948C21.6234 151.401 21.8853 151.842 21.8537 152.423C21.8175 153.13 21.7862 153.812 22.0752 154.416C22.174 154.622 22.1665 154.958 22.1175 155.226C22.0056 155.788 21.8774 156.36 21.6778 156.901C21.2681 158.009 21.084 159.127 20.9895 160.262C20.9278 160.97 20.8371 161.678 20.7517 162.382C20.6852 162.945 20.6627 163.524 20.5215 164.076C20.0631 165.902 19.7739 167.733 19.6521 169.573C19.6034 170.291 19.4178 170.984 19.1812 171.67C18.9927 172.225 18.9098 172.787 18.9451 173.346C18.9906 174.045 18.8923 174.74 18.6487 175.444C18.4564 175.987 18.2425 176.543 18.154 177.098C17.9964 178.088 17.8916 179.082 18.6144 179.74C18.8665 179.971 19.1094 180.283 19.2187 180.641C19.3923 181.209 19.717 181.434 20.2035 181.482C20.4367 181.504 20.597 181.691 20.7038 181.931C20.908 182.393 21.105 182.863 21.3021 183.333C22.2846 183.977 22.8985 185.077 23.6506 186.006C23.8708 186.278 24.1765 186.465 24.4762 186.624C24.8807 186.837 25.283 187.033 25.6334 187.359C26.0302 187.728 26.5409 187.63 26.8562 187.228C27.2014 186.779 27.5281 186.312 27.7386 185.765C28.3557 184.14 28.9326 182.5 29.5754 180.885C30.1698 179.389 30.6363 177.867 30.8311 176.304C30.9947 174.993 31.554 173.818 31.9703 172.59C32.0576 172.331 32.2601 172.099 32.4337 171.877C32.6942 171.555 32.9714 171.245 33.2562 170.947C33.4929 170.701 33.7091 170.691 33.8732 170.89C34.0279 171.068 34.1844 171.253 34.3231 171.453C34.6118 171.867 34.7619 172.351 34.6672 172.956C34.4726 174.182 34.8034 175.135 35.4201 175.935C35.6442 176.219 35.8349 176.559 36.1047 176.765C36.8751 177.351 37.2884 178.251 37.6327 179.246C38.1416 180.721 39.0316 181.896 39.589 183.341C39.6332 183.458 39.7208 183.559 39.8111 183.619C40.5977 184.106 41.1168 185.023 41.927 185.423C42.66 185.784 43.2407 186.343 43.8502 186.88C44.0427 187.047 44.2843 187.035 44.5213 186.89C44.7404 186.759 44.9554 186.606 45.1784 186.487C45.5344 186.29 45.9611 186.353 46.1163 186.643C47.1265 188.53 48.3674 190.143 49.8929 191.448C50.352 191.84 50.8297 192.08 51.4184 192.144C51.7628 192.181 52.0242 192.421 52.2575 192.714C52.6331 193.197 53.1175 193.497 53.6601 193.709C54.4043 193.994 55.1625 194.253 55.9697 194.334C56.5747 194.399 57.1673 194.216 57.6353 193.637C57.9881 193.201 58.2942 192.711 58.7409 192.415C60.2563 191.403 61.2116 189.866 61.8642 188.021C62.2007 187.065 62.5646 186.115 62.9488 185.177C63.4937 183.837 63.989 182.475 64.6881 181.203C64.7582 181.081 64.8441 180.927 64.945 180.88C65.0223 180.839 65.1726 180.895 65.2252 180.978C65.8884 182.001 66.5922 182.971 67.1201 184.135C67.5356 185.051 68.1479 185.817 68.7044 186.61C68.8336 186.79 69.0738 186.884 69.2876 186.937C70.1505 187.16 70.1988 187.12 70.3795 187.589C70.7708 188.57 71.4977 189.162 72.1128 189.887C72.3421 190.157 72.6813 190.028 72.9956 189.493C73.6417 188.387 73.811 188.481 74.4042 188.939C74.6722 189.149 74.9303 189.409 75.1204 189.717C75.4496 190.246 75.835 190.68 76.276 191.076C77.2542 191.946 78.3834 192.474 79.5601 192.92C79.9761 193.079 80.4527 193.175 80.9152 193.119C82.3678 192.93 83.6223 193.537 84.9725 193.76C85.1123 194.103 85.201 194.517 85.4156 194.782C85.8672 195.341 86.3809 195.822 86.8715 196.331C87.208 196.683 87.4462 197.121 87.4709 197.696C87.4888 198.121 87.5606 198.513 87.7043 198.868C87.9422 199.464 88.2609 200.01 88.346 200.693C88.451 201.547 89.0229 202.029 89.2602 202.773C89.3399 203.019 89.3838 203.295 89.4831 203.522C89.5861 203.751 89.7144 203.978 89.8723 204.137C90.3937 204.642 90.7474 205.297 90.9651 206.06C91.3299 207.339 91.8515 208.463 92.642 209.401C93.0222 209.849 93.2375 210.495 93.554 211.025C93.9892 211.752 94.5501 212.319 95.2118 212.749C95.2131 212.723 95.2144 212.697 95.2193 212.673C95.234 212.678 95.2486 212.683 95.2633 212.689C95.233 212.455 95.1973 212.225 95.1723 211.988C95.1346 211.662 95.2166 211.406 95.4219 211.313C95.6561 211.209 95.8795 211.281 96.0223 211.503C96.1556 211.706 96.2676 211.932 96.3615 212.163C96.4075 212.275 96.4382 212.44 96.3971 212.563C96.3168 212.814 96.1014 212.946 95.8514 212.901C95.6451 212.862 95.4558 212.765 95.265 212.684C95.2693 212.718 95.2737 212.751 95.2799 212.79C95.256 212.776 95.2374 212.759 95.2135 212.745C95.1601 213.148 95.2437 213.497 95.4084 213.807C95.808 214.574 96.2791 215.283 96.895 215.78C97.5218 216.282 97.9856 216.988 98.5644 217.541C98.8946 217.853 99.0994 218.347 99.4436 218.633C99.7823 218.923 100.22 219.058 100.618 219.253C100.929 219.404 101.138 219.694 101.35 219.978C101.567 220.27 101.82 220.486 102.125 220.63C102.338 220.73 102.566 220.735 102.779 220.565C102.848 220.511 102.873 220.287 102.856 220.164C102.806 219.77 102.727 219.386 102.659 218.995C102.616 218.763 102.642 218.523 102.735 218.282C102.711 218.279 102.687 218.275 102.66 218.271C102.65 218.23 102.636 218.188 102.628 218.142C102.469 218.089 102.313 218.037 102.159 217.969C101.92 217.86 101.824 217.67 101.925 217.486C101.966 217.411 102.121 217.362 102.207 217.378C102.309 217.394 102.418 217.472 102.458 217.566C102.529 217.746 102.577 217.943 102.628 218.142C102.676 218.16 102.721 218.172 102.769 218.189C102.753 218.221 102.747 218.25 102.736 218.278C103.757 218.39 104.62 218.794 105.375 219.592C106.429 220.707 107.774 221.384 108.987 222.261C109.17 222.397 109.388 222.483 109.602 222.557C110.139 222.75 110.686 222.904 111.214 223.11C111.965 223.398 112.736 223.567 113.571 223.494C114.406 223.422 115.17 223.677 115.919 223.949C116.238 224.067 116.527 224.253 116.704 224.61C117.038 225.284 117.375 225.959 117.713 226.624C118.058 227.291 118.478 227.902 118.731 228.625C118.998 229.38 119.497 229.888 119.849 230.537C120.089 230.98 120.241 231.481 120.253 232.047C120.265 232.623 120.46 233.076 120.688 233.531C121.084 234.329 121.552 235.025 122.197 235.544C122.367 235.681 122.534 235.918 122.568 236.163C122.621 236.538 122.334 236.987 122.504 237.363C122.664 237.708 122.877 238.009 123.012 238.366C123.468 239.566 123.89 240.792 124.342 241.991C124.525 242.477 124.793 242.889 125.181 243.159C125.851 243.624 126.494 244.115 126.651 245.142C126.67 245.271 126.724 245.408 126.797 245.493C127.98 246.856 128.721 248.639 129.661 250.231C129.921 250.665 130.025 251.185 130.22 251.649C130.315 251.875 130.465 252.158 130.651 252.195C131.36 252.341 131.81 252.915 132.353 253.338C132.906 253.77 133.349 254.341 133.779 254.924C134.208 255.511 134.531 256.213 134.999 256.751C135.236 257.024 135.506 257.261 135.771 257.502L140.154 245.643C140.033 245.429 139.921 245.202 139.821 244.964C139.423 243.991 138.824 243.256 138.076 242.689C137.893 242.552 137.718 242.382 137.59 242.176C137.137 241.442 136.662 240.721 136.28 239.928C135.955 239.252 135.755 238.474 135.502 237.74C135.241 236.993 134.686 236.533 134.33 235.883C134.274 235.777 134.265 235.631 134.228 235.506C134.148 235.26 134.104 234.974 133.969 234.776C133.21 233.674 132.491 232.519 131.534 231.636C131.184 231.311 130.91 230.913 130.724 230.426C130.27 229.221 129.822 228.007 129.397 226.781C129.142 226.04 128.847 225.349 128.386 224.771C128.009 224.293 127.803 223.688 127.702 222.993C127.466 221.344 126.894 219.937 125.851 218.895C125.687 218.728 125.54 218.531 125.415 218.315C125.293 218.106 125.164 217.879 125.108 217.625C124.916 216.712 124.706 215.804 124.601 214.859C124.537 214.322 124.536 213.798 124.331 213.304C123.829 212.102 123.584 210.804 124.053 209.31C124.162 208.958 124.01 208.828 123.687 208.857C123.31 208.887 123.045 208.678 122.867 208.326C122.689 207.974 122.665 207.542 122.773 207.127C122.997 206.283 123.314 205.426 123.822 204.762C124.764 203.532 125.512 202.104 126.573 200.992C126.662 200.898 126.806 200.835 126.91 200.836C126.983 200.842 127.067 200.974 127.084 201.075C127.149 201.475 127.19 201.882 127.236 202.286C127.254 202.419 127.295 202.567 127.263 202.698C127.205 202.968 127.142 203.262 127.007 203.493C126.793 203.858 126.501 204.163 126.272 204.523C126.003 204.948 126.053 205.644 126.359 206.069C126.492 206.262 126.694 206.209 126.968 206.067C127.302 205.894 127.664 205.715 128.005 205.683C128.626 205.626 129.163 205.401 129.631 204.812C129.709 204.713 129.887 204.615 129.962 204.648C130.127 204.72 130.169 204.979 130.121 205.3C130.076 205.58 130.009 205.862 129.962 206.147C129.895 206.588 129.963 206.967 130.191 207.274C130.36 207.506 130.556 207.393 131.039 206.783C131.126 206.672 131.194 206.544 131.283 206.428C131.548 206.082 131.931 206.228 132.013 206.719C132.058 206.979 132.107 207.262 132.066 207.533C131.974 208.097 131.809 208.656 131.686 209.214C131.582 209.689 131.865 210.016 132.249 209.766C133.255 209.105 134.086 209.301 134.865 209.912C135.419 210.35 135.893 210.858 136.049 211.71C136.125 212.103 136.231 212.492 136.362 212.858C136.49 213.223 136.677 213.552 136.997 213.712C137.302 213.867 137.652 213.933 137.873 214.237C138.654 215.336 139.63 216.167 140.596 217.012C140.948 217.322 141.357 217.568 141.634 217.957C142.412 219.065 143.364 219.925 144.361 220.733C144.81 221.502 145.486 221.937 146.156 222.391C146.532 222.647 146.849 223.018 147.192 223.341C147.483 223.612 147.792 223.848 148.137 224.007L150.166 218.516C150.085 218.454 150.004 218.392 149.908 218.346C148.975 217.874 148.374 216.884 147.485 216.349C146.814 215.503 146.124 214.677 145.435 213.85C145.213 213.583 145.074 213.192 144.966 212.819C144.819 212.315 144.708 211.792 144.468 211.348C143.808 210.146 143.175 208.917 142.484 207.746C141.982 206.883 141.537 206.025 141.397 204.893C141.3 204.095 140.965 203.378 140.601 202.719C140.058 201.73 139.67 200.639 139.291 199.525C138.828 198.173 138.39 196.81 137.998 195.415C137.535 193.772 137.005 192.163 136.471 190.552C136.267 189.931 136.085 189.308 136.09 188.595C136.094 187.469 135.881 186.411 135.651 185.378C135.509 184.749 134.979 184.378 134.841 183.692C134.764 183.303 134.596 182.945 134.428 182.613C134.2 182.158 133.978 181.711 133.906 181.16C133.71 179.674 133.155 178.357 133.036 176.831C132.982 176.154 132.776 175.517 132.592 174.888C132.36 174.108 132.316 173.314 132.496 172.433C132.613 171.867 132.551 171.315 132.395 170.802C132.201 170.175 132.017 169.545 131.695 169.008C131.499 168.682 131.375 168.308 131.358 167.893C131.297 166.357 130.98 164.927 130.7 163.473C130.497 162.424 130.334 161.353 130.098 160.313C130.052 158.363 129.522 156.563 129.631 154.565C129.644 154.305 129.513 154.051 129.414 153.823C129.191 153.323 129.128 152.828 129.536 152.275C129.901 151.785 129.946 151.235 129.941 150.662C129.936 149.919 129.786 149.323 129.219 149.008C129.022 148.898 128.825 148.767 128.67 148.588C128.436 148.311 128.282 147.936 128.344 147.499C128.386 147.217 128.612 146.999 128.827 146.835C128.932 146.752 129.043 146.677 129.145 146.582C129.696 146.071 129.718 146.058 129.624 145.547C129.33 143.94 129.267 142.286 129.455 140.571C129.53 139.848 129.392 139.198 129.276 138.53C129.23 138.249 129.419 137.985 129.638 137.833C129.856 137.681 130.052 137.737 130.178 138.027C130.624 139.098 130.982 140.225 131.156 141.433C131.335 142.664 131.897 143.644 132.172 144.805C132.306 145.368 132.15 145.924 131.785 146.393C131.479 146.793 131.457 147.214 131.566 147.583C131.867 148.583 132.112 149.622 132.754 150.388C132.976 150.655 133.166 151.007 133.265 151.382C133.713 153.067 134.465 154.493 135.429 155.75C135.575 155.941 135.708 156.155 135.813 156.379C135.98 156.737 135.978 157.139 135.781 157.558C135.292 158.6 135.31 158.596 135.311 159.147C135.311 160.195 135.664 161.03 136.295 161.565C136.921 162.093 137.472 162.688 137.992 163.341C138.153 163.538 138.417 163.477 138.632 163.234C138.705 163.149 138.732 162.953 138.718 162.831C138.649 162.297 138.547 161.773 138.487 161.237C138.474 161.126 138.561 160.936 138.641 160.844C138.863 160.603 139.102 160.554 139.23 160.749C139.58 161.265 139.996 161.652 140.579 161.798C141.03 161.907 141.408 162.158 141.681 162.592C141.942 163.012 142.198 163.434 142.485 163.831C142.782 164.243 143.161 164.436 143.693 164.225C144.045 164.085 144.412 164.083 144.669 164.369C145.464 165.25 146.324 166.055 146.977 167.117C147.169 167.431 147.404 167.709 147.653 167.96C148.396 168.721 149.161 169.459 149.909 170.207C150.831 170.383 151.467 171.175 152.337 171.47C153.128 171.741 153.644 172.387 154.001 173.244C154.097 173.481 154.229 173.709 154.393 173.865C155.503 174.906 156.505 176.128 158.002 176.507C158.792 176.703 159.454 177.154 160.054 177.741C160.217 177.897 160.443 178.018 160.66 178.029C160.92 178.046 161.15 177.829 161.208 177.548C161.258 177.276 161.299 176.963 161.234 176.732C161.084 176.237 160.862 175.779 160.67 175.306C160.557 175.037 160.553 174.733 160.752 174.521C160.927 174.342 161.191 174.133 161.379 174.155C162.301 174.252 163.212 174.345 164.163 174.23C164.406 174.204 164.609 174.295 164.807 174.426C165.177 174.664 165.685 174.777 166.312 174.781L179.113 140.145C178.954 140.134 178.842 140.145 178.729 140.146ZM192.652 94.2668L192.487 94.1739L192.658 94.0362L192.652 94.2668ZM157.877 58.5921C157.733 58.2266 157.55 57.9101 157.259 57.7178C156.161 56.9787 155.504 55.8041 155.089 54.3908C154.905 53.7616 154.664 53.1641 154.526 52.5098C154.303 51.4477 153.93 50.5054 153.327 49.7371C153.023 49.3546 152.784 48.9172 152.677 48.3851C152.516 47.5794 152.132 46.9504 151.763 46.3055C151.515 45.87 151.319 45.3634 151.449 44.7761C151.64 43.8989 151.629 43.106 151.308 42.3627C151.056 41.7825 150.881 41.1514 150.984 40.4111C151.036 40.044 151.189 39.8675 151.485 39.8872C151.6 39.8925 151.721 39.8685 151.815 39.919C152.935 40.4968 153.975 41.1882 154.875 42.1562C156.411 43.7932 158.019 45.346 159.594 46.934C160.383 47.4372 160.984 48.1674 161.493 49.0332C161.676 49.3496 161.946 49.5872 162.264 49.731C162.37 49.781 162.462 49.8468 162.57 49.8815C163.68 50.2492 164.587 50.9391 165.223 52.0583C165.593 52.7032 166.096 53.2015 166.575 53.733C167.047 54.2571 167.632 54.6372 167.99 55.3253C168.224 55.7721 168.644 56.0012 169.066 56.1783C169.605 56.4094 169.967 56.8395 170.257 57.4286C170.589 58.0967 171.079 58.6322 171.446 59.2711C171.958 60.1535 172.667 60.7597 173.489 61.1484C173.928 61.3583 174.223 61.552 174.327 62.162C174.42 62.6994 174.901 62.9088 175.243 63.2208C175.319 62.9365 175.481 62.7794 175.71 62.8267C175.779 62.8417 175.828 62.9921 175.852 63.0962C175.876 63.2004 175.858 63.3263 175.857 63.4423C176.267 63.6627 176.5 64.1034 176.788 64.4852C177.432 65.3583 177.996 66.2764 178.187 67.5064C178.223 67.758 178.363 67.9895 178.505 68.169C179.095 68.9165 179.699 69.6481 180.304 70.3797C180.766 70.9318 181.182 71.5409 181.392 72.2909C181.713 73.4523 182.292 74.3652 182.969 75.1925C183.273 75.5643 183.603 75.9136 183.712 76.441C184.062 78.1427 184.96 79.126 186.407 79.4276C186.516 79.4468 186.616 79.5261 186.692 79.6125C186.862 79.8075 186.927 80.0486 186.894 80.3172C186.864 80.6131 186.716 80.8443 186.444 80.9501C186.134 81.0684 185.845 81.0254 185.557 80.9611C185.569 81.2092 185.634 81.4289 185.763 81.5984C186.056 81.9875 186.296 82.3989 186.305 82.9951C186.31 83.4099 186.383 83.8077 186.599 84.1257C186.802 84.4336 187.044 84.7243 187.152 85.087C187.295 85.5793 187.28 86.1613 187.41 86.6648C187.57 87.2905 187.937 87.7861 187.929 88.5295C187.925 89.227 188.091 89.8707 188.335 90.4742C188.956 92.0381 189.335 93.7186 189.353 95.5518C189.36 96.412 189.617 97.137 189.799 97.9082C189.887 98.3007 189.77 98.7395 189.639 99.1515C189.934 99.3559 190.052 99.6693 189.986 100.095C190.019 100.107 190.057 100.116 190.09 100.128C190.082 100.173 190.074 100.218 190.066 100.262C190.214 100.37 190.253 100.501 190.165 100.659C190.124 100.601 190.048 100.557 190.043 100.492C190.036 100.421 190.053 100.342 190.066 100.262C190.036 100.241 190.01 100.221 189.972 100.201C189.982 100.162 189.978 100.129 189.982 100.094C189.779 100.024 189.574 99.9587 189.371 99.8888C189.331 100.155 189.304 100.42 189.242 100.688C189.083 101.376 189.127 102.001 189.361 102.585C189.49 102.913 189.532 103.273 189.422 103.661C189.453 103.657 189.489 103.649 189.52 103.645C189.515 103.68 189.507 103.714 189.5 103.754C189.7 103.844 189.767 103.979 189.676 104.179C189.605 104.136 189.484 104.113 189.472 104.045C189.457 103.96 189.479 103.857 189.498 103.758C189.469 103.748 189.443 103.727 189.409 103.72C189.415 103.701 189.417 103.686 189.42 103.666C188.982 103.737 188.542 103.834 188.109 103.843C187.895 103.849 187.654 103.723 187.509 103.552C187.198 103.199 186.917 102.799 186.664 102.377C186.09 101.429 185.521 100.499 184.7 99.8037C183.991 99.2082 183.496 98.3159 183.041 97.4171C182.752 96.8447 182.367 96.4004 181.85 96.1301C181.216 95.7951 180.818 95.1821 180.58 94.4165C180.348 93.6477 179.963 93.0767 179.422 92.5802C178.562 91.7965 177.745 90.9284 177.231 89.7379C176.25 88.5281 175.327 87.2606 174.63 85.7643C174.526 85.5403 174.38 85.3274 174.207 85.1844C173.395 84.4977 172.778 83.5973 172.234 82.6127C172.12 82.4013 171.925 82.2549 171.754 82.0965C170.628 81.0399 169.752 79.7367 169.123 78.1701C168.929 77.6909 168.752 77.2018 168.423 76.8525C167.759 76.1573 167.354 75.2134 166.844 74.3737C166.335 73.5293 165.87 72.6478 165.224 71.938C164.911 71.5895 164.712 71.1029 164.428 70.7119C163.649 69.6299 163.076 68.3491 162.306 67.2544C161.611 66.2616 160.998 65.1826 160.384 64.1036C159.895 63.2399 159.444 62.3425 159.027 61.4206C158.617 60.5014 158.255 59.5418 157.877 58.5921ZM124.305 52.7975C124.327 52.6576 124.319 52.5115 124.356 52.377C124.618 51.4096 124.964 50.4627 125.054 49.4637C125.092 49.0118 125.422 48.7049 125.708 48.4031C126.185 47.9124 126.627 48.0123 126.761 48.6545C126.81 48.9055 126.819 49.1949 126.79 49.4648C126.716 50.1839 126.333 50.8259 126.083 51.718C125.935 52.0606 125.741 52.6083 125.473 53.1075C125.358 53.3189 125.093 53.4488 124.883 53.5776C124.668 53.7204 124.25 53.1159 124.305 52.7975ZM124.982 63.7364C124.938 63.6301 124.904 63.5066 124.905 63.3799C124.899 63.0124 125.016 62.6637 125.181 62.3279C125.163 62.3211 125.146 62.3097 125.126 62.3076C125.142 62.287 125.156 62.2604 125.172 62.2398C124.963 62.1413 124.807 61.9777 124.803 61.7276C124.783 60.9047 124.784 60.0791 124.804 59.2451C124.815 58.9684 125.001 58.7354 125.188 58.5344C125.481 58.2247 125.732 58.4708 125.762 59.1011C125.776 59.3766 125.793 59.6474 125.804 59.9215C125.812 60.057 125.797 60.1996 125.796 60.3369C125.795 61.0404 125.562 61.6692 125.167 62.2431C125.182 62.2485 125.191 62.2573 125.209 62.264C125.197 62.286 125.188 62.3093 125.176 62.3312C125.59 62.4842 125.719 62.9131 125.782 63.3969C125.825 63.7198 125.716 63.9126 125.469 63.9852C125.255 64.044 125.085 63.9757 124.982 63.7364ZM110.547 86.8684C110.437 86.6264 110.506 86.3608 110.703 86.1425C110.914 85.9083 111.139 85.8749 111.339 86.0548C111.417 86.1259 111.496 86.2397 111.504 86.3537C111.516 86.6125 111.368 86.8117 111.12 86.9424C110.857 87.0782 110.646 87.0744 110.547 86.8684ZM114.63 183.762C114.599 183.755 114.573 183.746 114.541 183.744C114.556 183.692 114.579 183.642 114.594 183.589C114.474 183.429 114.338 183.278 114.285 183.083C114.157 182.597 114.046 182.085 114.003 181.56C113.887 180.104 113.885 178.621 113.69 177.188C113.649 176.871 113.775 176.494 113.855 176.132C113.824 176.105 113.796 176.078 113.77 176.048C113.774 175.991 113.78 175.93 113.786 175.868C113.687 175.752 113.659 175.636 113.708 175.527C113.736 175.585 113.788 175.636 113.793 175.702C113.798 175.756 113.794 175.813 113.786 175.868C113.816 175.901 113.847 175.939 113.894 175.972C113.884 176.021 113.87 176.08 113.857 176.127C113.916 176.181 113.97 176.238 114.001 176.313C114.323 177.142 114.637 177.983 114.944 178.822C115.077 179.183 115.16 179.6 115.065 180.015C114.865 180.873 114.938 181.689 114.904 182.523C114.89 182.867 114.719 183.228 114.59 183.588C114.609 183.616 114.629 183.639 114.648 183.668C114.643 183.703 114.639 183.728 114.63 183.762C114.796 183.796 114.897 183.918 114.889 184.143C114.888 184.201 114.737 184.272 114.655 184.337C114.588 184.159 114.58 183.965 114.63 183.762ZM115.007 186.675C114.978 186.675 114.956 186.667 114.922 186.67C114.946 186.637 114.958 186.604 114.98 186.569C114.82 186.495 114.728 186.349 114.734 186.129C114.737 186.109 114.959 186.006 114.983 186.041C115.092 186.198 115.077 186.383 114.98 186.569C114.998 186.576 115.014 186.588 115.033 186.594C115.021 186.627 115.016 186.652 115.007 186.675C115.22 186.685 115.348 186.812 115.341 187.09C115.343 187.154 115.108 187.326 115.086 187.308C114.928 187.149 114.914 186.926 115.007 186.675ZM91.0952 84.5238C91.1721 84.4622 91.2499 84.3533 91.31 84.3597C91.3956 84.3648 91.4648 84.4592 91.5388 84.5183C91.5278 84.6043 91.5256 84.757 91.5021 84.7642C91.4155 84.7957 91.3049 84.8131 91.2404 84.7734C91.174 84.7276 91.1425 84.6101 91.0952 84.5238ZM84.3759 153.718C84.356 153.636 84.3747 153.484 84.4261 153.424C84.4953 153.338 84.6191 153.262 84.7064 153.263C84.9556 153.265 85.0975 153.444 85.0873 153.742C85.0833 153.81 84.9368 153.936 84.8485 153.972C84.6067 154.062 84.4392 153.963 84.3759 153.718ZM45.1678 121.381L45.3373 121.227L45.3168 121.463L45.1678 121.381ZM33.6799 152.331L33.8777 152.314L33.7729 152.519L33.6799 152.331ZM35.7786 157.945C35.7048 157.717 35.6452 157.473 35.6472 157.219C35.6514 156.723 36.258 156.254 36.6472 156.429C36.8582 156.523 36.9167 156.974 36.781 157.442C36.6588 157.863 36.3359 158.162 36.0404 158.116C35.9402 158.106 35.8097 158.042 35.7786 157.945ZM28.4003 179.815C28.3301 180.197 28.2217 180.58 28.2083 180.639C27.977 181.231 27.7924 181.449 27.5592 181.426C27.4025 181.411 27.3603 181.13 27.3942 180.836C27.4478 180.443 27.5343 180.051 27.7782 179.718C27.9497 179.479 28.1531 179.38 28.2971 179.486C28.3689 179.528 28.4216 179.701 28.4003 179.815ZM61.5453 182.741C61.4891 182.837 61.3859 182.947 61.301 182.974C61.1075 183.024 61.0294 182.853 61.0936 182.532C61.1186 182.42 61.1849 182.285 61.2633 182.208C61.3451 182.122 61.5302 182.016 61.5507 182.039C61.6877 182.243 61.6803 182.5 61.5453 182.741ZM126.302 154.489C126.464 155.11 126.47 155.218 126.311 155.625C126.224 155.715 126.15 155.836 126.055 155.891C125.997 155.922 125.877 155.888 125.841 155.828C125.654 155.52 125.639 155.123 125.624 154.736C125.61 154.435 125.717 154.178 125.946 154.077C126.105 154.009 126.223 154.195 126.302 154.489ZM158.955 126.321C158.599 125.808 158.155 125.454 157.637 125.209C157.321 125.061 157.088 124.79 156.855 124.518C156.384 123.968 156.055 123.291 155.721 122.617C155.493 122.162 155.177 121.812 154.783 121.56C154.492 121.379 154.187 121.224 153.918 121.003C153.01 120.249 152.361 119.22 151.899 118.001C151.632 117.294 151.618 117.241 152.19 116.584C152.584 116.126 152.669 115.829 152.489 115.482C152.091 114.71 151.564 114.029 151.541 112.998C151.538 112.86 151.519 112.651 151.58 112.589C151.754 112.41 151.98 112.43 152.228 112.537C152.642 112.712 152.999 112.986 153.195 113.493C153.514 114.331 153.714 115.268 154.217 115.957C154.936 116.942 155.485 118.061 155.991 119.227C156.145 119.576 156.336 119.906 156.56 120.179C157.331 121.089 158.101 122.003 158.915 122.855C159.971 123.954 160.161 124.061 160.516 125.22C160.861 126.359 161.434 127.301 161.879 128.349C161.915 128.432 161.856 128.627 161.794 128.736C161.66 128.988 161.442 129.114 161.205 129.09C161.092 129.081 160.969 129.03 160.902 128.941C160.244 128.073 159.581 127.22 158.955 126.321ZM122.35 123.143C122.131 122.845 122.036 122.482 122.114 122.045C122.165 121.773 122.256 121.504 122.326 121.234C122.477 120.781 122.882 120.428 123.091 120.564C123.288 120.695 123.4 120.911 123.404 121.203C123.408 121.475 123.423 121.75 123.381 122.021C123.339 122.291 123.256 122.573 123.152 122.831C123.054 123.086 122.853 123.281 122.605 123.354C122.531 123.374 122.419 123.238 122.35 123.143ZM167.124 168.585C167.452 169.141 166.927 170.503 166.342 170.61C165.967 170.678 165.628 170.457 165.713 170.081C165.776 169.819 165.853 169.556 165.925 169.291C166.055 169.053 166.183 168.809 166.314 168.567C166.516 168.212 166.931 168.26 167.124 168.585ZM152.857 135.011C153.207 135.495 153.728 135.788 154.124 136.225C154.524 136.664 154.859 137.18 155.23 137.651C155.751 138.314 156.263 138.98 157.086 139.189C157.291 139.243 157.459 139.454 157.601 139.644C158.34 140.631 159.341 141.203 160.275 141.876C160.541 142.07 160.913 142.122 161.25 142.146C162.005 142.198 162.517 142.684 162.871 143.338C163.463 144.431 163.824 145.708 164.477 146.759C164.597 146.952 164.582 147.274 164.626 147.539C164.876 149.003 165.229 150.415 165.715 151.748C165.983 152.477 166.186 153.246 166.236 154.08C166.301 155.189 166.519 156.233 166.777 157.26C166.872 157.634 166.938 158.087 166.853 158.485C166.645 159.488 166.627 160.439 166.747 161.4C166.797 161.794 166.761 162.241 166.678 162.656C166.484 163.643 166.243 164.623 166.016 165.608C166.009 165.606 166 165.608 165.992 165.605C165.864 166.166 165.732 166.726 165.615 167.292C165.459 168.028 165.033 168.607 164.632 169.184C164.488 169.395 164.213 169.574 163.999 169.612C163.177 169.763 162.349 169.817 161.523 169.967C160.534 170.142 159.649 169.921 158.908 169.345C158.17 168.771 157.416 168.275 156.562 167.927C155.83 167.631 155.167 167.147 154.498 166.704C154.214 166.514 153.952 166.254 153.75 165.956C153.063 164.951 152.35 163.962 151.749 162.872C151.214 161.896 150.745 160.854 150.405 159.712C149.77 157.577 148.977 155.552 147.968 153.671C147.142 152.143 146.376 150.541 146.051 148.648C145.962 148.122 145.734 147.657 145.555 147.173C144.89 145.344 144.424 143.414 144.268 141.345C144.217 140.627 144.002 140.071 143.631 139.563C143.423 139.28 143.268 138.9 143.195 138.513C142.991 137.463 142.751 136.422 142.704 135.308C142.647 134.054 142.397 132.882 142.111 131.717C141.889 130.82 141.571 129.966 141.513 128.986C141.452 127.99 141.122 127.169 140.659 126.426C140.528 126.219 140.409 126 140.259 125.807C139.712 125.113 139.576 124.173 139.48 123.216C139.438 122.788 139.559 122.372 139.73 121.975C139.843 121.715 139.971 121.413 140.159 121.254C140.33 121.106 140.541 121.326 140.762 121.403C141.627 121.712 141.926 121.849 142.195 122.203C143.068 123.357 143.945 124.512 144.818 125.666C145.116 126.056 145.474 126.337 145.907 126.507C146.222 126.634 146.55 126.74 146.843 126.917C147.032 127.034 147.175 127.246 147.33 127.425C147.404 127.516 147.472 127.626 147.518 127.738C148.015 128.917 148.521 130.084 149.475 130.817C150.338 132.528 151.788 133.541 152.857 135.011Z" fill="#D7DDFF"/>
<path d="M91.123 149.616C93.6725 144.398 96.0339 140.81 101.306 137.275C99.8502 131.502 100.204 125.524 102.447 119.934C105.964 111.179 113.896 103.908 124.343 99.8724C126.282 99.3707 128.221 98.8635 130.16 98.3618C132.956 92.9973 138.175 88.4482 144.969 86.5112C153.911 83.9599 162.707 84.0342 171.763 86.9637C181.702 90.176 190.728 95.551 198.807 101.101C200.982 102.593 203.167 104.11 205.313 105.666C209.771 104.677 214.144 103.49 218.588 102.436C228.653 100.048 238.498 97.4464 248.816 95.7195C258.381 94.1204 267.932 92.4847 277.361 90.4683C277.446 90.4486 277.538 90.4301 277.631 90.4061C278.086 90.2442 278.541 90.0823 278.996 89.9203C280.825 89.2628 282.634 88.5675 284.454 87.8856C290.559 85.6191 296.69 83.2714 302.972 81.3038C308.741 79.4995 315.711 78.9522 321.819 80.4108C326.405 81.5057 330.325 83.7487 332.781 87.0546C336.156 91.6035 335.538 96.1646 333.126 100.675C332.213 102.375 330.929 103.88 329.409 105.236C330 106.137 330.492 107.119 330.842 108.201C331.145 109.144 331.309 110.121 331.353 111.111C333.576 111.475 335.747 112.184 337.696 113.272C346.749 118.349 354.086 125.765 360.314 132.928C367.663 141.375 374.376 150.226 378.35 159.968C380.521 165.281 376.067 170.858 369.959 172.828C373.785 180.784 376.416 189.004 375.784 197.333C375.203 204.951 364.457 212.255 354.482 210.276C353.435 210.068 352.424 209.831 351.433 209.57C349.958 210.214 348.467 210.678 346.967 210.998C348.364 216.059 349.487 221.17 350.293 226.381C351.17 232.101 345.627 238.108 339.719 240.688C333.663 243.335 324.447 243.737 318.373 240.313C316.923 239.493 315.564 238.626 314.281 237.715C307.891 240.447 299.908 240.398 293.204 237.534C292.579 242.648 289.095 247.335 283.627 250.157C283.641 250.342 283.664 250.523 283.679 250.708C284.375 259.385 276.066 267.294 265.787 269.411C261.464 270.292 257.118 270.255 252.747 269.3C245.9 267.783 241.746 264.518 237.533 260.208C234.639 257.244 232.377 253.982 230.409 250.594C224.566 249.713 219.146 247.075 215.093 243.199C211.977 240.214 209.318 236.901 206.903 233.425C203.007 234.54 198.988 234.816 194.832 234.252C190.768 233.669 187.102 232.361 183.835 230.321C178.06 227.486 173.727 222.973 170.45 218.041C170.016 218.052 169.576 218.057 169.139 218.05C162.669 217.969 156.299 215.855 151.591 212.248C150.249 211.218 149.141 210.154 148.23 209.061C145.406 207.903 142.818 206.299 140.672 204.309C138.046 201.877 135.963 199.252 134.246 196.501C128.343 196.123 121.983 194.09 118.703 190.346C114.681 185.754 113.077 183.234 110.731 178.074C109.755 175.93 109.164 173.732 108.674 171.506C108.637 171.322 108.6 171.139 108.555 170.96C104.216 170.301 100.127 168.618 96.9556 166.115C91.9239 162.144 88.4911 154.998 91.123 149.616Z" fill="#EBF5FF"/>
<path d="M224.132 117.08H191.331C189.022 117.08 187.246 119.051 187.246 121.361V130.048H227.015V120.059C227.015 118.468 225.723 117.08 224.132 117.08Z" fill="#3454FE"/>
<path d="M324.211 129.75L324.122 135.807L322.993 214.042L322.411 254.082C322.411 256.284 320.607 258 318.407 258H101.91C99.7083 258 97.9063 256.282 97.9063 254.082L96.9884 214.042L95.1724 135.807V135.789L94.9653 128.41C94.8976 125.65 95.955 122.994 97.9123 121.041C99.8676 119.091 102.532 118.026 105.295 118.098L316.874 123.577C321.623 123.253 324.211 127.548 324.211 129.75Z" fill="#3454FE"/>
<path d="M101.859 250.213C101.859 252.296 103.563 254 105.646 254H313.186C315.269 254 316.973 252.296 316.973 250.213L318.674 137.268C318.473 130.473 312.515 128.03 308.903 128.173L106.112 122.731C104.17 122.679 102.293 123.426 100.919 124.798C99.545 126.17 98.7943 128.045 98.8421 129.987L101.859 250.213Z" fill="#1630B8"/>
<path d="M319.239 135.667L318.154 213.91H100.803L99.0273 135.667H319.239Z" fill="#132BAA"/>
<path d="M238.253 223.991C238.253 221.526 236.256 219.529 233.791 219.529H185.655C183.19 219.529 181.192 221.526 181.192 223.991V243.166C181.192 245.631 183.19 247.628 185.655 247.628H233.791C236.256 247.628 238.253 245.631 238.253 243.166V223.991Z" fill="#3454FE"/>
<path d="M118.228 141.767H109.288C108.053 141.767 107.052 142.768 107.052 144.003V149.964C107.052 151.199 108.053 152.2 109.288 152.2H118.228C119.463 152.2 120.464 151.199 120.464 149.964V144.003C120.462 142.768 119.463 141.767 118.228 141.767Z" fill="#3454FE"/>
<path d="M135.364 141.766H126.424C125.189 141.766 124.188 142.768 124.188 144.002V149.964C124.188 151.198 125.189 152.2 126.424 152.2H135.364C136.598 152.2 137.6 151.198 137.6 149.964V144.002C137.6 142.768 136.598 141.766 135.364 141.766Z" fill="#3454FE"/>
<path d="M152.502 141.766H143.561C142.327 141.766 141.325 142.768 141.325 144.002V149.964C141.325 151.198 142.327 152.2 143.561 152.2H152.502C153.736 152.2 154.738 151.198 154.738 149.964V144.002C154.738 142.768 153.736 141.766 152.502 141.766Z" fill="#3454FE"/>
<path d="M169.64 141.766H160.699C159.465 141.766 158.463 142.768 158.463 144.002V149.964C158.463 151.198 159.465 152.2 160.699 152.2H169.64C170.874 152.2 171.876 151.198 171.876 149.964V144.002C171.874 142.768 170.874 141.766 169.64 141.766Z" fill="#3454FE"/>
<path d="M186.776 141.766H177.835C176.601 141.766 175.599 142.768 175.599 144.002V149.964C175.599 151.198 176.601 152.2 177.835 152.2H186.776C188.01 152.2 189.012 151.198 189.012 149.964V144.002C189.012 142.768 188.01 141.766 186.776 141.766Z" fill="#3454FE"/>
<path d="M203.913 141.766H194.973C193.739 141.766 192.737 142.768 192.737 144.002V149.964C192.737 151.198 193.739 152.2 194.973 152.2H203.913C205.148 152.2 206.15 151.198 206.15 149.964V144.002C206.148 142.768 205.148 141.766 203.913 141.766Z" fill="#3454FE"/>
<path d="M221.049 141.766H212.109C210.875 141.766 209.873 142.768 209.873 144.002V149.964C209.873 151.198 210.875 152.2 212.109 152.2H221.049C222.284 152.2 223.285 151.198 223.285 149.964V144.002C223.285 142.768 222.284 141.766 221.049 141.766Z" fill="#3454FE"/>
<path d="M238.187 141.766H229.247C228.012 141.766 227.011 142.768 227.011 144.002V149.964C227.011 151.198 228.012 152.2 229.247 152.2H238.187C239.422 152.2 240.423 151.198 240.423 149.964V144.002C240.423 142.768 239.422 141.766 238.187 141.766Z" fill="#3454FE"/>
<path d="M255.323 141.766H246.383C245.148 141.766 244.147 142.768 244.147 144.002V149.964C244.147 151.198 245.148 152.2 246.383 152.2H255.323C256.558 152.2 257.559 151.198 257.559 149.964V144.002C257.559 142.768 256.558 141.766 255.323 141.766Z" fill="#3454FE"/>
<path d="M272.461 141.766H263.521C262.286 141.766 261.285 142.768 261.285 144.002V149.964C261.285 151.198 262.286 152.2 263.521 152.2H272.461C273.696 152.2 274.697 151.198 274.697 149.964V144.002C274.697 142.768 273.696 141.766 272.461 141.766Z" fill="#3454FE"/>
<path d="M289.599 141.766H280.659C279.424 141.766 278.422 142.768 278.422 144.002V149.964C278.422 151.198 279.424 152.2 280.659 152.2H289.599C290.833 152.2 291.835 151.198 291.835 149.964V144.002C291.833 142.768 290.833 141.766 289.599 141.766Z" fill="#3454FE"/>
<path d="M306.735 141.766H297.795C296.56 141.766 295.558 142.768 295.558 144.002V149.964C295.558 151.198 296.56 152.2 297.795 152.2H306.735C307.969 152.2 308.971 151.198 308.971 149.964V144.002C308.971 142.768 307.969 141.766 306.735 141.766Z" fill="#3454FE"/>
<path d="M126.294 158.219C126.294 156.985 125.293 155.983 124.058 155.983H109.509C108.274 155.983 107.273 156.985 107.273 158.219V163.259C107.273 164.493 108.274 165.495 109.509 165.495H124.058C125.293 165.495 126.294 164.493 126.294 163.259V158.219Z" fill="#3454FE"/>
<path d="M306.986 158.219C306.986 156.985 305.984 155.983 304.75 155.983H290.2C288.966 155.983 287.964 156.985 287.964 158.219V163.259C287.964 164.493 288.966 165.495 290.2 165.495H304.75C305.984 165.495 306.986 164.493 306.986 163.259V158.219Z" fill="#3454FE"/>
<path d="M131.049 172.484C131.049 171.249 130.048 170.248 128.813 170.248H109.509C108.274 170.248 107.273 171.249 107.273 172.484V177.523C107.273 178.758 108.274 179.76 109.509 179.76H128.813C130.048 179.76 131.049 178.758 131.049 177.523V172.484Z" fill="#3454FE"/>
<path d="M138.83 188.047C138.83 186.812 137.829 185.811 136.594 185.811H109.509C108.274 185.811 107.273 186.812 107.273 188.047V193.951C107.273 195.185 108.274 196.187 109.509 196.187H136.594C137.829 196.187 138.83 195.185 138.83 193.951V188.047Z" fill="#3454FE"/>
<path d="M142.07 155.551H133.13C131.895 155.551 130.894 156.553 130.894 157.787V163.749C130.894 164.983 131.895 165.985 133.13 165.985H142.07C143.305 165.985 144.306 164.983 144.306 163.749V157.787C144.306 156.553 143.305 155.551 142.07 155.551Z" fill="#3454FE"/>
<path d="M159.208 155.551H150.268C149.033 155.551 148.032 156.553 148.032 157.787V163.749C148.032 164.983 149.033 165.985 150.268 165.985H159.208C160.443 165.985 161.444 164.983 161.444 163.749V157.787C161.442 156.553 160.443 155.551 159.208 155.551Z" fill="#3454FE"/>
<path d="M176.344 155.551H167.404C166.169 155.551 165.168 156.553 165.168 157.787V163.749C165.168 164.983 166.169 165.985 167.404 165.985H176.344C177.578 165.985 178.58 164.983 178.58 163.749V157.787C178.58 156.553 177.578 155.551 176.344 155.551Z" fill="#3454FE"/>
<path d="M193.482 155.551H184.541C183.307 155.551 182.305 156.553 182.305 157.787V163.749C182.305 164.983 183.307 165.985 184.541 165.985H193.482C194.716 165.985 195.718 164.983 195.718 163.749V157.787C195.718 156.553 194.716 155.551 193.482 155.551Z" fill="#3454FE"/>
<path d="M210.62 155.551H201.679C200.445 155.551 199.443 156.553 199.443 157.787V163.749C199.443 164.983 200.445 165.985 201.679 165.985H210.62C211.854 165.985 212.856 164.983 212.856 163.749V157.787C212.854 156.553 211.854 155.551 210.62 155.551Z" fill="#3454FE"/>
<path d="M227.756 155.551H218.815C217.581 155.551 216.579 156.553 216.579 157.787V163.749C216.579 164.983 217.581 165.985 218.815 165.985H227.756C228.99 165.985 229.992 164.983 229.992 163.749V157.787C229.992 156.553 228.99 155.551 227.756 155.551Z" fill="#3454FE"/>
<path d="M244.893 155.551H235.953C234.719 155.551 233.717 156.553 233.717 157.787V163.749C233.717 164.983 234.719 165.985 235.953 165.985H244.893C246.128 165.985 247.13 164.983 247.13 163.749V157.787C247.128 156.553 246.128 155.551 244.893 155.551Z" fill="#3454FE"/>
<path d="M262.029 155.551H253.089C251.855 155.551 250.853 156.553 250.853 157.787V163.749C250.853 164.983 251.855 165.985 253.089 165.985H262.029C263.264 165.985 264.265 164.983 264.265 163.749V157.787C264.265 156.553 263.264 155.551 262.029 155.551Z" fill="#3454FE"/>
<path d="M279.167 155.551H270.227C268.992 155.551 267.991 156.553 267.991 157.787V163.749C267.991 164.983 268.992 165.985 270.227 165.985H279.167C280.402 165.985 281.403 164.983 281.403 163.749V157.787C281.401 156.553 280.402 155.551 279.167 155.551Z" fill="#3454FE"/>
<path d="M147.659 169.708H138.719C137.484 169.708 136.483 170.71 136.483 171.944V177.906C136.483 179.14 137.484 180.142 138.719 180.142H147.659C148.894 180.142 149.895 179.14 149.895 177.906V171.944C149.893 170.71 148.894 169.708 147.659 169.708Z" fill="#3454FE"/>
<path d="M164.795 169.708H155.855C154.62 169.708 153.619 170.71 153.619 171.944V177.906C153.619 179.14 154.62 180.142 155.855 180.142H164.795C166.03 180.142 167.031 179.14 167.031 177.906V171.944C167.031 170.71 166.03 169.708 164.795 169.708Z" fill="#3454FE"/>
<path d="M181.933 169.708H172.993C171.758 169.708 170.757 170.71 170.757 171.944V177.906C170.757 179.14 171.758 180.142 172.993 180.142H181.933C183.168 180.142 184.169 179.14 184.169 177.906V171.944C184.167 170.71 183.168 169.708 181.933 169.708Z" fill="#3454FE"/>
<path d="M199.069 169.708H190.129C188.894 169.708 187.893 170.71 187.893 171.944V177.906C187.893 179.14 188.894 180.142 190.129 180.142H199.069C200.303 180.142 201.305 179.14 201.305 177.906V171.944C201.305 170.71 200.303 169.708 199.069 169.708Z" fill="#3454FE"/>
<path d="M216.207 169.708H207.267C206.032 169.708 205.03 170.71 205.03 171.944V177.906C205.03 179.14 206.032 180.142 207.267 180.142H216.207C217.441 180.142 218.443 179.14 218.443 177.906V171.944C218.443 170.71 217.441 169.708 216.207 169.708Z" fill="#3454FE"/>
<path d="M233.345 169.708H224.404C223.17 169.708 222.168 170.71 222.168 171.944V177.906C222.168 179.14 223.17 180.142 224.404 180.142H233.345C234.579 180.142 235.581 179.14 235.581 177.906V171.944C235.579 170.71 234.579 169.708 233.345 169.708Z" fill="#3454FE"/>
<path d="M250.481 169.708H241.54C240.306 169.708 239.304 170.71 239.304 171.944V177.906C239.304 179.14 240.306 180.142 241.54 180.142H250.481C251.715 180.142 252.717 179.14 252.717 177.906V171.944C252.717 170.71 251.715 169.708 250.481 169.708Z" fill="#3454FE"/>
<path d="M267.618 169.708H258.678C257.444 169.708 256.442 170.71 256.442 171.944V177.906C256.442 179.14 257.444 180.142 258.678 180.142H267.618C268.853 180.142 269.855 179.14 269.855 177.906V171.944C269.853 170.71 268.853 169.708 267.618 169.708Z" fill="#3454FE"/>
<path d="M284.754 169.708H275.814C274.58 169.708 273.578 170.71 273.578 171.944V177.906C273.578 179.14 274.58 180.142 275.814 180.142H284.754C285.989 180.142 286.99 179.14 286.99 177.906V171.944C286.99 170.71 285.989 169.708 284.754 169.708Z" fill="#3454FE"/>
<path d="M153.619 185.727H144.679C143.444 185.727 142.442 186.729 142.442 187.963V193.925C142.442 195.159 143.444 196.161 144.679 196.161H153.619C154.853 196.161 155.855 195.159 155.855 193.925V187.963C155.855 186.729 154.853 185.727 153.619 185.727Z" fill="#3454FE"/>
<path d="M170.757 185.727H161.816C160.582 185.727 159.58 186.729 159.58 187.963V193.925C159.58 195.159 160.582 196.161 161.816 196.161H170.757C171.991 196.161 172.993 195.159 172.993 193.925V187.963C172.993 186.729 171.991 185.727 170.757 185.727Z" fill="#3454FE"/>
<path d="M187.893 185.727H178.952C177.718 185.727 176.716 186.729 176.716 187.963V193.925C176.716 195.159 177.718 196.161 178.952 196.161H187.893C189.127 196.161 190.129 195.159 190.129 193.925V187.963C190.129 186.729 189.127 185.727 187.893 185.727Z" fill="#3454FE"/>
<path d="M205.031 185.727H196.09C194.856 185.727 193.854 186.729 193.854 187.963V193.925C193.854 195.159 194.856 196.161 196.09 196.161H205.031C206.265 196.161 207.267 195.159 207.267 193.925V187.963C207.267 186.729 206.265 185.727 205.031 185.727Z" fill="#3454FE"/>
<path d="M222.168 185.727H213.228C211.994 185.727 210.992 186.729 210.992 187.963V193.925C210.992 195.159 211.994 196.161 213.228 196.161H222.168C223.403 196.161 224.404 195.159 224.404 193.925V187.963C224.402 186.729 223.403 185.727 222.168 185.727Z" fill="#3454FE"/>
<path d="M239.304 185.727H230.364C229.129 185.727 228.128 186.729 228.128 187.963V193.925C228.128 195.159 229.129 196.161 230.364 196.161H239.304C240.539 196.161 241.54 195.159 241.54 193.925V187.963C241.54 186.729 240.539 185.727 239.304 185.727Z" fill="#3454FE"/>
<path d="M256.442 185.727H247.502C246.267 185.727 245.266 186.729 245.266 187.963V193.925C245.266 195.159 246.267 196.161 247.502 196.161H256.442C257.677 196.161 258.678 195.159 258.678 193.925V187.963C258.676 186.729 257.677 185.727 256.442 185.727Z" fill="#3454FE"/>
<path d="M273.578 185.727H264.638C263.403 185.727 262.402 186.729 262.402 187.963V193.925C262.402 195.159 263.403 196.161 264.638 196.161H273.578C274.813 196.161 275.814 195.159 275.814 193.925V187.963C275.814 186.729 274.813 185.727 273.578 185.727Z" fill="#3454FE"/>
<path d="M307.79 170.25H298.601C296.92 170.25 295.746 171.442 295.746 173.123V185.106C295.746 185.448 295.282 185.811 294.937 185.811H282.218C281.15 185.811 280.183 186.593 280.183 187.66V194.223C280.183 195.291 281.15 196.185 282.218 196.185H295.558H307.79C309.471 196.185 310.874 194.795 310.874 193.114V185.725V173.121C310.874 171.442 309.471 170.25 307.79 170.25Z" fill="#3454FE"/>
<path d="M244.738 202.803C244.738 201.774 243.904 200.939 242.876 200.939H167.061C166.032 200.939 165.197 201.774 165.197 202.803V209.02C165.197 210.049 166.032 210.881 167.061 210.881H242.874C243.904 210.881 244.736 210.047 244.736 209.02V202.803H244.738Z" fill="#3454FE"/>
<path d="M262.029 200.629H253.089C251.855 200.629 250.853 201.63 250.853 202.865V208.827C250.853 210.061 251.855 211.063 253.089 211.063H262.029C263.264 211.063 264.265 210.061 264.265 208.827V202.865C264.265 201.63 263.264 200.629 262.029 200.629Z" fill="#3454FE"/>
<path d="M280.284 200.629H271.344C270.109 200.629 269.108 201.63 269.108 202.865V208.827C269.108 210.061 270.109 211.063 271.344 211.063H280.284C281.519 211.063 282.52 210.061 282.52 208.827V202.865C282.52 201.63 281.519 200.629 280.284 200.629Z" fill="#3454FE"/>
<path d="M157.344 200.629H148.404C147.169 200.629 146.168 201.63 146.168 202.865V208.827C146.168 210.061 147.169 211.063 148.404 211.063H157.344C158.579 211.063 159.58 210.061 159.58 208.827V202.865C159.58 201.63 158.579 200.629 157.344 200.629Z" fill="#3454FE"/>
<path d="M119.345 200.629H110.405C109.17 200.629 108.169 201.63 108.169 202.865V208.827C108.169 210.061 109.17 211.063 110.405 211.063H119.345C120.58 211.063 121.581 210.061 121.581 208.827V202.865C121.581 201.63 120.58 200.629 119.345 200.629Z" fill="#3454FE"/>
<path d="M137.972 200.629H129.032C127.797 200.629 126.796 201.63 126.796 202.865V208.827C126.796 210.061 127.797 211.063 129.032 211.063H137.972C139.207 211.063 140.208 210.061 140.208 208.827V202.865C140.208 201.63 139.207 200.629 137.972 200.629Z" fill="#3454FE"/>
<path d="M302.472 202.238C302.472 203.198 301.771 203.966 300.909 203.966H296.044C295.18 203.966 294.481 203.198 294.481 202.238C294.481 201.278 295.182 200.51 296.044 200.51H300.909C301.773 200.51 302.472 201.278 302.472 202.238Z" fill="#3454FE"/>
<path d="M302.472 209.37C302.472 210.33 301.771 210.883 300.909 210.883H296.044C295.18 210.883 294.481 210.33 294.481 209.37C294.481 208.41 295.182 207.857 296.044 207.857H300.909C301.773 207.857 302.472 208.41 302.472 209.37Z" fill="#3454FE"/>
<path d="M292.745 209.37C292.745 210.33 292.044 210.883 291.182 210.883H286.317C285.453 210.883 284.754 210.33 284.754 209.37C284.754 208.41 285.455 207.857 286.317 207.857H291.182C292.046 207.857 292.745 208.41 292.745 209.37Z" fill="#3454FE"/>
<path d="M312.199 209.37C312.199 210.33 311.498 210.883 310.635 210.883H305.771C304.907 210.883 304.208 210.33 304.208 209.37C304.208 208.41 304.909 207.857 305.771 207.857H310.635C311.5 207.857 312.199 208.41 312.199 209.37Z" fill="#3454FE"/>
<path d="M121.971 130.246C121.971 132.046 120.512 133.505 118.712 133.505H110.534C108.734 133.505 107.275 132.046 107.275 130.246V129.849C107.275 128.049 108.734 126.59 110.534 126.59H118.712C120.512 126.59 121.971 128.049 121.971 129.849V130.246Z" fill="#7D97F4"/>
<path d="M89.6748 246.72C90.3956 248.799 92.6875 249.908 94.7682 249.185L299.298 178.2C301.379 177.477 302.49 175.188 301.769 173.109L262.678 54.9834C261.958 52.9047 258.101 49.6969 253.718 51.5606L52.034 115.761C49.3997 116.6 47.2254 118.479 46.0167 120.964C44.8081 123.447 44.6707 126.319 45.6384 128.905L89.6748 246.72Z" fill="#3454FE"/>
<path d="M92.1499 241.8C92.8328 243.767 95.0012 244.818 96.9705 244.135L293.038 176.088C295.005 175.405 296.056 173.236 295.373 171.267L259.949 64.0094C257.531 57.6536 251.1 57.2992 247.735 58.6213L54.3697 119.971C52.5179 120.558 50.9907 121.88 50.1424 123.627C49.2942 125.373 49.2006 127.392 49.8816 129.21L92.1499 241.8Z" fill="#FFD37A"/>
<g opacity="0.64">
<path opacity="0.64" d="M275.649 121.273C275.647 121.273 275.645 121.275 275.641 121.275C275.372 121.365 275.081 121.217 274.992 120.949L272.117 112.251C272.027 111.982 272.18 111.712 272.443 111.602C272.712 111.513 273.003 111.66 273.092 111.929L275.967 120.626C276.055 120.895 275.914 121.182 275.649 121.273Z" fill="#FEFEFE"/>
<path opacity="0.64" d="M268.6 99.9598C268.598 99.9598 268.596 99.9618 268.592 99.9618C268.323 100.051 268.033 99.9041 267.943 99.6353L256.928 66.3232C256.231 64.346 255.08 62.9741 253.511 62.2533C250.586 60.9133 247.143 62.2294 246.996 62.2852L185.197 81.8941C184.926 81.9797 184.639 81.8304 184.551 81.5596C184.468 81.2947 184.611 81.01 184.872 80.9204C184.876 80.9184 184.88 80.9164 184.886 80.9164L246.652 61.3194C247.026 61.1701 250.68 59.8261 253.937 61.3214C255.769 62.1617 257.101 63.7327 257.898 65.9927L268.917 99.3147C269.008 99.5815 268.865 99.8682 268.6 99.9598Z" fill="#FEFEFE"/>
</g>
<path d="M240.569 79.0504L74.9562 135.948C72.5768 136.766 71.3761 139.369 72.2741 141.76L79.5916 161.231C80.4837 163.605 83.1259 164.863 85.4894 164.041L250.132 106.839C252.402 106.05 253.587 103.51 252.78 101.164L246.168 81.9157C245.359 79.5502 242.851 78.2679 240.569 79.0504Z" fill="#FF8514"/>
<path d="M128.317 160.433L89.2487 174.061C86.8892 174.883 85.6945 177.468 86.5826 179.829L104.155 226.585C105.027 228.909 107.627 230.116 109.959 229.283L148.569 215.519C150.879 214.696 152.062 212.151 151.212 209.836L134.111 163.221C133.247 160.867 130.653 159.617 128.317 160.433Z" fill="#FF8514"/>
<path opacity="0.1" d="M250.926 117.238L141.937 155.369C139.612 156.184 138.421 158.756 139.279 161.113L155.655 206.032C156.501 208.354 159.052 209.565 161.353 208.743L269.129 170.232C271.367 169.432 272.542 166.919 271.754 164.616L256.475 120.04C255.675 117.701 253.19 116.445 250.926 117.238Z" fill="#FF8514"/>
<path d="M321.658 85.0601L329.754 94.9115L332.946 85.1915L321.658 85.0601Z" fill="#FF8514"/>
<path d="M361.306 43L353.883 88.1977C353.74 89.0646 353.254 89.8332 352.53 90.3309C351.807 90.8285 350.917 91.0117 350.054 90.8365L304.957 81.6735C304.441 81.5689 304.04 81.1607 303.943 80.6439C303.846 80.127 304.076 79.6021 304.517 79.3183L361.306 43Z" fill="#FFD37A"/>
<path d="M321.665 85.0578L361.306 43L328.938 86.5592L331.065 89.3867L321.665 85.0578Z" fill="#FF8514"/>
<path d="M333.256 87.4169L329.754 94.9111L328.938 86.5587L333.256 87.4169Z" fill="#3454FE"/>
<path d="M321.831 104.255C322.575 103.108 324.407 104.194 323.663 105.34C321.758 108.26 319.571 110.958 317.094 113.419C316.124 114.387 314.631 112.865 315.6 111.905C317.948 109.57 320.02 107.027 321.831 104.255Z" fill="#FF8514"/>
<path d="M309.367 118.918C310.217 117.85 311.703 119.379 310.861 120.432C309.364 122.301 307.403 123.628 305.148 124.435C303.856 124.897 303.32 122.84 304.605 122.384C306.51 121.701 308.108 120.492 309.367 118.918Z" fill="#FF8514"/>
<path d="M294.576 126.934C295.874 126.479 296.41 128.537 295.125 128.992C291.957 130.102 288.721 130.751 285.369 130.982C284.002 131.075 284.029 128.952 285.389 128.859C288.549 128.64 291.593 127.982 294.576 126.934Z" fill="#FF8514"/>
<path d="M280.769 129.998C282.109 129.685 282.659 131.735 281.319 132.048C277.883 132.845 274.447 132.904 271.031 132.229C271.599 131.632 272.117 131 272.593 130.346C275.306 130.747 278.024 130.63 280.769 129.998Z" fill="#FF8514"/>
<path d="M272.717 104.795C275.901 108.102 277.475 112.462 277.042 117.017C276.915 118.375 274.781 118.362 274.908 116.997C275.287 112.966 274.02 109.217 271.195 106.288C270.244 105.295 271.766 103.809 272.717 104.795Z" fill="#FF8514"/>
<path d="M273.884 122.353C274.181 121.018 276.231 121.61 275.934 122.938C275.332 125.679 274.192 128.167 272.593 130.347C271.825 130.24 271.059 130.084 270.292 129.886C272.055 127.715 273.267 125.15 273.884 122.353Z" fill="#FF8514"/>
<path d="M272.593 130.346C272.117 131 271.599 131.633 271.032 132.229C270.478 132.125 269.924 131.992 269.378 131.845C269.129 131.779 268.946 131.65 268.819 131.493C269.35 130.989 269.839 130.448 270.292 129.886C271.059 130.084 271.825 130.24 272.593 130.346Z" fill="#FF8514"/>
<path d="M269.959 129.805C270.072 129.834 270.179 129.864 270.292 129.886C269.839 130.448 269.35 130.989 268.819 131.493C268.292 130.802 268.88 129.512 269.959 129.805Z" fill="#FF8514"/>
<path d="M269.378 131.845C269.924 131.992 270.478 132.124 271.032 132.229C270.191 133.134 269.258 133.968 268.241 134.737C267.145 135.562 266.103 133.705 267.184 132.894C267.764 132.46 268.309 131.991 268.819 131.493C268.946 131.65 269.129 131.779 269.378 131.845Z" fill="#FF8514"/>
<path d="M266.192 129.423C267.258 130.282 265.722 131.762 264.663 130.909C261.938 128.725 259.701 126.064 257.994 123.033C257.315 121.837 259.174 120.786 259.846 121.974C261.469 124.87 263.594 127.346 266.192 129.423Z" fill="#FF8514"/>
<path d="M264.426 104.427C265.753 104.043 266.289 106.094 264.976 106.478C261.553 107.479 259.035 110.471 258.725 114.029C258.605 115.38 256.472 115.367 256.591 114.009C256.989 109.49 260.04 105.71 264.426 104.427Z" fill="#FF8514"/>
<path d="M257.078 138.087C258.356 137.589 258.891 139.647 257.621 140.138C252.338 142.177 246.938 143.79 241.4 144.998C240.06 145.29 239.51 143.239 240.85 142.947C246.388 141.739 251.788 140.119 257.078 138.087Z" fill="#FF8514"/>
<path d="M245.016 172.969C245.495 174.255 243.427 174.788 242.948 173.516C241.095 168.566 238.005 164.339 233.918 160.967C232.866 160.094 234.395 158.615 235.447 159.481C239.823 163.096 243.024 167.678 245.016 172.969Z" fill="#FF8514"/>
<path d="M241.33 179.185C241.535 177.835 243.585 178.435 243.381 179.771C242.54 185.206 238.644 189.608 233.414 191.315C232.109 191.741 231.573 189.684 232.871 189.257C237.438 187.77 240.604 183.879 241.33 179.185Z" fill="#FF8514"/>
<path d="M231.681 146.061C232.875 145.385 233.932 147.229 232.738 147.904C230.456 149.199 228.175 150.495 225.887 151.79C224.693 152.472 223.636 150.622 224.83 149.947C227.111 148.651 229.4 147.356 231.681 146.061Z" fill="#FF8514"/>
<path d="M229.712 155.782C230.973 156.325 229.868 158.141 228.621 157.605C222.302 154.885 215.624 153.966 208.802 154.745C207.435 154.902 207.476 152.779 208.822 152.622C216.049 151.797 223.045 152.91 229.712 155.782Z" fill="#FF8514"/>
<path d="M221.666 184.155C222.71 185.057 221.174 186.536 220.144 185.641C215.656 181.756 210.963 177.09 211.883 170.643C212.074 169.307 214.208 169.313 214.017 170.663C213.172 176.587 217.588 180.62 221.666 184.155Z" fill="#FF8514"/>
<path d="M217.558 156.341C218.492 155.338 219.986 156.86 219.052 157.856C217.327 159.701 216.247 161.9 215.762 164.373C215.493 165.715 213.443 165.123 213.711 163.787C214.264 160.968 215.596 158.447 217.558 156.341Z" fill="#FF8514"/>
<path d="M199.027 153.387C200.373 153.173 200.923 155.224 199.577 155.438C196.065 155.999 192.853 157.222 189.862 159.141C188.702 159.888 187.652 158.037 188.805 157.298C191.925 155.295 195.358 153.975 199.027 153.387Z" fill="#FF8514"/>
<path d="M342.5 247.75C342.5 260.31 332.31 270.5 319.75 270.5C307.19 270.5 297 260.32 297 247.75C297 235.19 307.18 225 319.75 225C332.31 225 342.5 235.18 342.5 247.75Z" fill="#1890FF"/>
<path d="M319.9 242.489C316.9 242.489 314.509 244.927 314.509 247.88C314.509 250.88 316.9 253.271 319.9 253.271C322.853 253.271 325.291 250.88 325.291 247.88C325.291 244.927 322.853 242.489 319.9 242.489ZM319.9 251.396C317.978 251.396 316.384 249.849 316.384 247.88C316.384 245.958 317.931 244.411 319.9 244.411C321.822 244.411 323.369 245.958 323.369 247.88C323.369 249.849 321.822 251.396 319.9 251.396ZM326.744 242.302C326.744 241.599 326.181 241.036 325.478 241.036C324.775 241.036 324.213 241.599 324.213 242.302C324.213 243.005 324.775 243.567 325.478 243.567C326.181 243.567 326.744 243.005 326.744 242.302ZM330.306 243.567C330.213 241.88 329.838 240.38 328.619 239.161C327.4 237.942 325.9 237.567 324.213 237.474C322.478 237.38 317.275 237.38 315.541 237.474C313.853 237.567 312.4 237.942 311.134 239.161C309.916 240.38 309.541 241.88 309.447 243.567C309.353 245.302 309.353 250.505 309.447 252.239C309.541 253.927 309.916 255.38 311.134 256.646C312.4 257.864 313.853 258.239 315.541 258.333C317.275 258.427 322.478 258.427 324.213 258.333C325.9 258.239 327.4 257.864 328.619 256.646C329.838 255.38 330.213 253.927 330.306 252.239C330.4 250.505 330.4 245.302 330.306 243.567ZM328.056 254.067C327.728 255.005 326.978 255.708 326.088 256.083C324.681 256.646 321.4 256.505 319.9 256.505C318.353 256.505 315.072 256.646 313.713 256.083C312.775 255.708 312.072 255.005 311.697 254.067C311.134 252.708 311.275 249.427 311.275 247.88C311.275 246.38 311.134 243.099 311.697 241.692C312.072 240.802 312.775 240.099 313.713 239.724C315.072 239.161 318.353 239.302 319.9 239.302C321.4 239.302 324.681 239.161 326.088 239.724C326.978 240.052 327.681 240.802 328.056 241.692C328.619 243.099 328.478 246.38 328.478 247.88C328.478 249.427 328.619 252.708 328.056 254.067Z" fill="#FEFEFE"/>
<path d="M67.5 121.75C67.5 134.31 57.32 144.5 44.75 144.5C32.19 144.5 22 134.32 22 121.75C22 109.19 32.19 99 44.75 99C57.31 99 67.5 109.18 67.5 121.75Z" fill="#3454FE"/>
<path d="M49.6182 123.39L50.2744 119.077H46.1025V116.265C46.1025 115.046 46.665 113.921 48.54 113.921H50.4619V110.218C50.4619 110.218 48.7275 109.89 47.0869 109.89C43.665 109.89 41.415 111.999 41.415 115.749V119.077H37.5713V123.39H41.415V133.89H46.1025V123.39H49.6182Z" fill="#FEFEFE"/>
</svg>
