<svg width="504" height="292" viewBox="0 0 504 292" fill="none" xmlns="http://www.w3.org/2000/svg">
<g filter="url(#filter0_d)">
<rect x="80.0564" y="4" width="394.789" height="225.118" rx="6" fill="#FFEEF6"/>
<rect x="80.0564" y="4" width="394.789" height="225.118" rx="6" fill="url(#paint0_linear)"/>
</g>
<rect x="365.058" y="20.6343" width="90.9345" height="90.9345" rx="6" fill="#F9A5C3"/>
<g filter="url(#filter1_d)">
<path d="M409.971 54.9226C403.721 54.9226 398.74 60.0007 398.74 66.1531C398.74 72.4031 403.721 77.3835 409.971 77.3835C416.123 77.3835 421.201 72.4031 421.201 66.1531C421.201 60.0007 416.123 54.9226 409.971 54.9226ZM409.971 73.4773C405.967 73.4773 402.647 70.2546 402.647 66.1531C402.647 62.1492 405.869 58.9265 409.971 58.9265C413.975 58.9265 417.198 62.1492 417.198 66.1531C417.198 70.2546 413.975 73.4773 409.971 73.4773ZM424.229 54.532C424.229 53.0671 423.057 51.8953 421.592 51.8953C420.127 51.8953 418.955 53.0671 418.955 54.532C418.955 55.9968 420.127 57.1687 421.592 57.1687C423.057 57.1687 424.229 55.9968 424.229 54.532ZM431.651 57.1687C431.455 53.6531 430.674 50.5281 428.135 47.989C425.596 45.45 422.471 44.6687 418.955 44.4734C415.342 44.2781 404.502 44.2781 400.889 44.4734C397.373 44.6687 394.346 45.45 391.709 47.989C389.17 50.5281 388.389 53.6531 388.194 57.1687C387.998 60.782 387.998 71.6218 388.194 75.2351C388.389 78.7507 389.17 81.7781 391.709 84.4148C394.346 86.9539 397.373 87.7351 400.889 87.9304C404.502 88.1257 415.342 88.1257 418.955 87.9304C422.471 87.7351 425.596 86.9539 428.135 84.4148C430.674 81.7781 431.455 78.7507 431.651 75.2351C431.846 71.6218 431.846 60.782 431.651 57.1687ZM426.963 79.0437C426.28 80.9968 424.717 82.4617 422.862 83.2429C419.932 84.4148 413.096 84.1218 409.971 84.1218C406.748 84.1218 399.912 84.4148 397.08 83.2429C395.127 82.4617 393.662 80.9968 392.881 79.0437C391.709 76.2117 392.002 69.3757 392.002 66.1531C392.002 63.0281 391.709 56.1921 392.881 53.2625C393.662 51.407 395.127 49.9421 397.08 49.1609C399.912 47.989 406.748 48.282 409.971 48.282C413.096 48.282 419.932 47.989 422.862 49.1609C424.717 49.8445 426.182 51.407 426.963 53.2625C428.135 56.1921 427.842 63.0281 427.842 66.1531C427.842 69.3757 428.135 76.2117 426.963 79.0437Z" fill="#E17090"/>
<path d="M409.971 54.9226C403.721 54.9226 398.74 60.0007 398.74 66.1531C398.74 72.4031 403.721 77.3835 409.971 77.3835C416.123 77.3835 421.201 72.4031 421.201 66.1531C421.201 60.0007 416.123 54.9226 409.971 54.9226ZM409.971 73.4773C405.967 73.4773 402.647 70.2546 402.647 66.1531C402.647 62.1492 405.869 58.9265 409.971 58.9265C413.975 58.9265 417.198 62.1492 417.198 66.1531C417.198 70.2546 413.975 73.4773 409.971 73.4773ZM424.229 54.532C424.229 53.0671 423.057 51.8953 421.592 51.8953C420.127 51.8953 418.955 53.0671 418.955 54.532C418.955 55.9968 420.127 57.1687 421.592 57.1687C423.057 57.1687 424.229 55.9968 424.229 54.532ZM431.651 57.1687C431.455 53.6531 430.674 50.5281 428.135 47.989C425.596 45.45 422.471 44.6687 418.955 44.4734C415.342 44.2781 404.502 44.2781 400.889 44.4734C397.373 44.6687 394.346 45.45 391.709 47.989C389.17 50.5281 388.389 53.6531 388.194 57.1687C387.998 60.782 387.998 71.6218 388.194 75.2351C388.389 78.7507 389.17 81.7781 391.709 84.4148C394.346 86.9539 397.373 87.7351 400.889 87.9304C404.502 88.1257 415.342 88.1257 418.955 87.9304C422.471 87.7351 425.596 86.9539 428.135 84.4148C430.674 81.7781 431.455 78.7507 431.651 75.2351C431.846 71.6218 431.846 60.782 431.651 57.1687ZM426.963 79.0437C426.28 80.9968 424.717 82.4617 422.862 83.2429C419.932 84.4148 413.096 84.1218 409.971 84.1218C406.748 84.1218 399.912 84.4148 397.08 83.2429C395.127 82.4617 393.662 80.9968 392.881 79.0437C391.709 76.2117 392.002 69.3757 392.002 66.1531C392.002 63.0281 391.709 56.1921 392.881 53.2625C393.662 51.407 395.127 49.9421 397.08 49.1609C399.912 47.989 406.748 48.282 409.971 48.282C413.096 48.282 419.932 47.989 422.862 49.1609C424.717 49.8445 426.182 51.407 426.963 53.2625C428.135 56.1921 427.842 63.0281 427.842 66.1531C427.842 69.3757 428.135 76.2117 426.963 79.0437Z" fill="url(#paint1_linear)"/>
</g>
<rect x="148.812" y="20.6343" width="205.157" height="191.85" rx="6"/>
<rect x="365.058" y="121.55" width="90.9345" height="90.9345" rx="6"/>
<rect x="365.058" y="121.55" width="90.9345" height="90.9345" rx="6"/>
<g filter="url(#filter2_d)">
<rect x="271.906" y="190.076" width="220.094" height="81.7016" rx="6" fill="#EBF1FF"/>
<rect x="271.906" y="190.076" width="220.094" height="81.7016" rx="6" fill="url(#paint2_linear)"/>
</g>
<g filter="url(#filter3_d)">
<rect x="287.431" y="203.384" width="54.1898" height="54.1898" rx="3" fill="#EBF1FF"/>
<rect x="287.431" y="203.384" width="54.1898" height="54.1898" rx="3" fill="url(#paint3_linear)"/>
</g>
<path d="M325.17 220.127H302.42C300.943 220.127 299.795 221.33 299.795 222.752V238.502C299.795 239.978 300.943 241.127 302.42 241.127H325.17C326.591 241.127 327.795 239.978 327.795 238.502V222.752C327.795 221.33 326.591 220.127 325.17 220.127ZM324.841 238.502H302.748C302.529 238.502 302.42 238.392 302.42 238.174V223.08C302.42 222.916 302.529 222.752 302.748 222.752H324.841C325.005 222.752 325.17 222.916 325.17 223.08V238.174C325.17 238.392 325.005 238.502 324.841 238.502ZM306.795 224.939C305.537 224.939 304.607 225.924 304.607 227.127C304.607 228.385 305.537 229.314 306.795 229.314C307.998 229.314 308.982 228.385 308.982 227.127C308.982 225.924 307.998 224.939 306.795 224.939ZM305.045 235.877H322.545V231.502L317.732 226.744C317.459 226.47 317.076 226.47 316.802 226.744L310.295 233.252L308.107 231.119C307.834 230.845 307.451 230.845 307.177 231.119L305.045 233.252V235.877Z" fill="#EC819F"/>
<path d="M325.17 220.127H302.42C300.943 220.127 299.795 221.33 299.795 222.752V238.502C299.795 239.978 300.943 241.127 302.42 241.127H325.17C326.591 241.127 327.795 239.978 327.795 238.502V222.752C327.795 221.33 326.591 220.127 325.17 220.127ZM324.841 238.502H302.748C302.529 238.502 302.42 238.392 302.42 238.174V223.08C302.42 222.916 302.529 222.752 302.748 222.752H324.841C325.005 222.752 325.17 222.916 325.17 223.08V238.174C325.17 238.392 325.005 238.502 324.841 238.502ZM306.795 224.939C305.537 224.939 304.607 225.924 304.607 227.127C304.607 228.385 305.537 229.314 306.795 229.314C307.998 229.314 308.982 228.385 308.982 227.127C308.982 225.924 307.998 224.939 306.795 224.939ZM305.045 235.877H322.545V231.502L317.732 226.744C317.459 226.47 317.076 226.47 316.802 226.744L310.295 233.252L308.107 231.119C307.834 230.845 307.451 230.845 307.177 231.119L305.045 233.252V235.877Z" fill="url(#paint4_linear)"/>
<g filter="url(#filter4_d)">
<rect x="353.969" y="203.384" width="54.1898" height="54.1898" rx="3" fill="#EBF1FF"/>
<rect x="353.969" y="203.384" width="54.1898" height="54.1898" rx="3" fill="url(#paint5_linear)"/>
</g>
<path d="M386.144 224.502H392.816V240.252H370.066V224.502H376.683L377.996 221.002H384.832L386.144 224.502ZM385.16 218.377H377.996C376.902 218.377 375.918 219.088 375.535 220.127L374.878 221.877H370.066C368.589 221.877 367.441 223.08 367.441 224.502V240.252C367.441 241.728 368.589 242.877 370.066 242.877H392.816C394.238 242.877 395.441 241.728 395.441 240.252V224.502C395.441 223.08 394.238 221.877 392.816 221.877H388.003L387.183 219.799C386.855 218.978 386.089 218.377 385.16 218.377ZM381.441 238.939C385.05 238.939 388.003 236.041 388.003 232.377C388.003 228.767 385.05 225.814 381.441 225.814C377.777 225.814 374.878 228.767 374.878 232.377C374.878 236.041 377.777 238.939 381.441 238.939ZM381.441 228.439C383.574 228.439 385.378 230.244 385.378 232.377C385.378 234.564 383.574 236.314 381.441 236.314C379.253 236.314 377.503 234.564 377.503 232.377C377.503 230.244 379.253 228.439 381.441 228.439Z" fill="#EC819F"/>
<path d="M386.144 224.502H392.816V240.252H370.066V224.502H376.683L377.996 221.002H384.832L386.144 224.502ZM385.16 218.377H377.996C376.902 218.377 375.918 219.088 375.535 220.127L374.878 221.877H370.066C368.589 221.877 367.441 223.08 367.441 224.502V240.252C367.441 241.728 368.589 242.877 370.066 242.877H392.816C394.238 242.877 395.441 241.728 395.441 240.252V224.502C395.441 223.08 394.238 221.877 392.816 221.877H388.003L387.183 219.799C386.855 218.978 386.089 218.377 385.16 218.377ZM381.441 238.939C385.05 238.939 388.003 236.041 388.003 232.377C388.003 228.767 385.05 225.814 381.441 225.814C377.777 225.814 374.878 228.767 374.878 232.377C374.878 236.041 377.777 238.939 381.441 238.939ZM381.441 228.439C383.574 228.439 385.378 230.244 385.378 232.377C385.378 234.564 383.574 236.314 381.441 236.314C379.253 236.314 377.503 234.564 377.503 232.377C377.503 230.244 379.253 228.439 381.441 228.439Z" fill="url(#paint6_linear)"/>
<g filter="url(#filter5_d)">
<rect x="421.615" y="203.384" width="54.1898" height="54.1898" rx="3" fill="#EBF1FF"/>
<rect x="421.615" y="203.384" width="54.1898" height="54.1898" rx="3" fill="url(#paint7_linear)"/>
</g>
<path d="M460.462 224.502H458.986C459.368 223.845 459.587 223.135 459.587 222.314C459.587 219.689 457.4 217.502 454.775 217.502C452.478 217.502 451.001 218.705 449.142 221.275C447.228 218.705 445.751 217.502 443.509 217.502C440.829 217.502 438.697 219.689 438.697 222.314C438.697 223.135 438.861 223.845 439.243 224.502H437.712C436.236 224.502 435.087 225.705 435.087 227.127V234.127C435.087 234.619 435.47 235.002 435.962 235.002H436.837V240.908C436.837 242.494 438.095 243.752 439.681 243.752H458.439C460.025 243.752 461.337 242.494 461.337 240.908V235.002H462.212C462.65 235.002 463.087 234.619 463.087 234.127V227.127C463.087 225.705 461.884 224.502 460.462 224.502ZM447.775 241.127H439.681C439.572 241.127 439.462 241.017 439.462 240.908V235.002H445.587V232.377H437.712V227.127H447.775V241.127ZM443.454 224.502C442.251 224.502 441.267 223.572 441.267 222.314C441.267 221.111 442.251 220.127 443.454 220.127C444.658 220.127 445.533 220.564 448.103 224.338L448.212 224.502H443.454ZM450.126 224.338C452.697 220.564 453.572 220.127 454.775 220.127C455.978 220.127 456.962 221.111 456.962 222.314C456.962 223.572 455.978 224.502 454.775 224.502H450.017L450.126 224.338ZM460.462 232.377H452.587V235.002H458.712V240.908C458.712 241.017 458.603 241.127 458.439 241.127H450.4V227.127H460.462V232.377Z" fill="#EC819F"/>
<path d="M460.462 224.502H458.986C459.368 223.845 459.587 223.135 459.587 222.314C459.587 219.689 457.4 217.502 454.775 217.502C452.478 217.502 451.001 218.705 449.142 221.275C447.228 218.705 445.751 217.502 443.509 217.502C440.829 217.502 438.697 219.689 438.697 222.314C438.697 223.135 438.861 223.845 439.243 224.502H437.712C436.236 224.502 435.087 225.705 435.087 227.127V234.127C435.087 234.619 435.47 235.002 435.962 235.002H436.837V240.908C436.837 242.494 438.095 243.752 439.681 243.752H458.439C460.025 243.752 461.337 242.494 461.337 240.908V235.002H462.212C462.65 235.002 463.087 234.619 463.087 234.127V227.127C463.087 225.705 461.884 224.502 460.462 224.502ZM447.775 241.127H439.681C439.572 241.127 439.462 241.017 439.462 240.908V235.002H445.587V232.377H437.712V227.127H447.775V241.127ZM443.454 224.502C442.251 224.502 441.267 223.572 441.267 222.314C441.267 221.111 442.251 220.127 443.454 220.127C444.658 220.127 445.533 220.564 448.103 224.338L448.212 224.502H443.454ZM450.126 224.338C452.697 220.564 453.572 220.127 454.775 220.127C455.978 220.127 456.962 221.111 456.962 222.314C456.962 223.572 455.978 224.502 454.775 224.502H450.017L450.126 224.338ZM460.462 232.377H452.587V235.002H458.712V240.908C458.712 241.017 458.603 241.127 458.439 241.127H450.4V227.127H460.462V232.377Z" fill="url(#paint8_linear)"/>
<g filter="url(#filter6_d)">
<rect x="12" y="20.709" width="121.985" height="225.118" rx="6" fill="#EBF1FF"/>
<rect x="12" y="20.709" width="121.985" height="225.118" rx="6" fill="url(#paint9_linear)"/>
</g>
<line x1="25.3074" y1="163.264" x2="125.114" y2="163.264" stroke="#CCDCFF" stroke-dasharray="3 4"/>
<rect x="25.3083" y="141.842" width="64.3195" height="8.87166" rx="4.43583" fill="#D4E1F8"/>
<g filter="url(#filter7_d)">
<rect x="25.6709" y="178.758" width="28.1013" height="22.0253" rx="3" fill="#EBF1FF"/>
<rect x="25.6709" y="178.758" width="28.1013" height="22.0253" rx="3" fill="url(#paint10_linear)"/>
</g>
<g filter="url(#filter8_d)">
<rect x="61.3672" y="178.758" width="28.1013" height="22.0253" rx="3" fill="#EBF1FF"/>
<rect x="61.3672" y="178.758" width="28.1013" height="22.0253" rx="3" fill="url(#paint11_linear)"/>
</g>
<g filter="url(#filter9_d)">
<rect x="97.0632" y="178.758" width="28.1013" height="22.0253" rx="3" fill="#EBF1FF"/>
<rect x="97.0632" y="178.758" width="28.1013" height="22.0253" rx="3" fill="url(#paint12_linear)"/>
</g>
<g filter="url(#filter10_d)">
<rect x="25.6709" y="208.378" width="28.1013" height="21.2658" rx="3" fill="#EBF1FF"/>
<rect x="25.6709" y="208.378" width="28.1013" height="21.2658" rx="3" fill="url(#paint13_linear)"/>
</g>
<g filter="url(#filter11_d)">
<rect x="61.3672" y="208.378" width="28.1013" height="21.2658" rx="3" fill="#EBF1FF"/>
<rect x="61.3672" y="208.378" width="28.1013" height="21.2658" rx="3" fill="url(#paint14_linear)"/>
</g>
<g filter="url(#filter12_d)">
<rect x="97.0632" y="208.378" width="28.1013" height="21.2658" rx="3" fill="#EBF1FF"/>
<rect x="97.0632" y="208.378" width="28.1013" height="21.2658" rx="3" fill="url(#paint15_linear)"/>
</g>
<rect x="96.2808" y="141.842" width="28.8329" height="8.87166" rx="4.43583" fill="#D4E1F8"/>
<path opacity="0.6" d="M32.288 39.66V40.776H30.068V48H28.7V40.776H26.468V39.66H32.288ZM37.0934 41.28C37.5974 41.28 38.0454 41.388 38.4374 41.604C38.8374 41.82 39.1494 42.14 39.3734 42.564C39.6054 42.988 39.7214 43.5 39.7214 44.1V48H38.3654V44.304C38.3654 43.712 38.2174 43.26 37.9214 42.948C37.6254 42.628 37.2214 42.468 36.7094 42.468C36.1974 42.468 35.7894 42.628 35.4854 42.948C35.1894 43.26 35.0414 43.712 35.0414 44.304V48H33.6734V39.12H35.0414V42.156C35.2734 41.876 35.5654 41.66 35.9174 41.508C36.2774 41.356 36.6694 41.28 37.0934 41.28ZM47.5264 44.532C47.5264 44.78 47.5104 45.004 47.4784 45.204H42.4264C42.4664 45.732 42.6624 46.156 43.0144 46.476C43.3664 46.796 43.7984 46.956 44.3104 46.956C45.0464 46.956 45.5664 46.648 45.8704 46.032H47.3464C47.1464 46.64 46.7824 47.14 46.2544 47.532C45.7344 47.916 45.0864 48.108 44.3104 48.108C43.6784 48.108 43.1104 47.968 42.6064 47.688C42.1104 47.4 41.7184 47 41.4304 46.488C41.1504 45.968 41.0104 45.368 41.0104 44.688C41.0104 44.008 41.1464 43.412 41.4184 42.9C41.6984 42.38 42.0864 41.98 42.5824 41.7C43.0864 41.42 43.6624 41.28 44.3104 41.28C44.9344 41.28 45.4904 41.416 45.9784 41.688C46.4664 41.96 46.8464 42.344 47.1184 42.84C47.3904 43.328 47.5264 43.892 47.5264 44.532ZM46.0984 44.1C46.0904 43.596 45.9104 43.192 45.5584 42.888C45.2064 42.584 44.7704 42.432 44.2504 42.432C43.7784 42.432 43.3744 42.584 43.0384 42.888C42.7024 43.184 42.5024 43.588 42.4384 44.1H46.0984ZM56.8767 41.28C57.3967 41.28 57.8607 41.388 58.2687 41.604C58.6847 41.82 59.0087 42.14 59.2407 42.564C59.4807 42.988 59.6007 43.5 59.6007 44.1V48H58.2447V44.304C58.2447 43.712 58.0967 43.26 57.8007 42.948C57.5047 42.628 57.1007 42.468 56.5887 42.468C56.0767 42.468 55.6687 42.628 55.3647 42.948C55.0687 43.26 54.9207 43.712 54.9207 44.304V48H53.5647V44.304C53.5647 43.712 53.4167 43.26 53.1207 42.948C52.8247 42.628 52.4207 42.468 51.9087 42.468C51.3967 42.468 50.9887 42.628 50.6847 42.948C50.3887 43.26 50.2407 43.712 50.2407 44.304V48H48.8727V41.388H50.2407V42.144C50.4647 41.872 50.7487 41.66 51.0927 41.508C51.4367 41.356 51.8047 41.28 52.1967 41.28C52.7247 41.28 53.1967 41.392 53.6127 41.616C54.0287 41.84 54.3487 42.164 54.5727 42.588C54.7727 42.188 55.0847 41.872 55.5087 41.64C55.9327 41.4 56.3887 41.28 56.8767 41.28ZM67.4014 44.532C67.4014 44.78 67.3854 45.004 67.3534 45.204H62.3014C62.3414 45.732 62.5374 46.156 62.8894 46.476C63.2414 46.796 63.6734 46.956 64.1854 46.956C64.9214 46.956 65.4414 46.648 65.7454 46.032H67.2214C67.0214 46.64 66.6574 47.14 66.1294 47.532C65.6094 47.916 64.9614 48.108 64.1854 48.108C63.5534 48.108 62.9854 47.968 62.4814 47.688C61.9854 47.4 61.5934 47 61.3054 46.488C61.0254 45.968 60.8854 45.368 60.8854 44.688C60.8854 44.008 61.0214 43.412 61.2934 42.9C61.5734 42.38 61.9614 41.98 62.4574 41.7C62.9614 41.42 63.5374 41.28 64.1854 41.28C64.8094 41.28 65.3654 41.416 65.8534 41.688C66.3414 41.96 66.7214 42.344 66.9934 42.84C67.2654 43.328 67.4014 43.892 67.4014 44.532ZM65.9734 44.1C65.9654 43.596 65.7854 43.192 65.4334 42.888C65.0814 42.584 64.6454 42.432 64.1254 42.432C63.6534 42.432 63.2494 42.584 62.9134 42.888C62.5774 43.184 62.3774 43.588 62.3134 44.1H65.9734ZM74.6128 48.084C74.0528 48.084 73.5488 47.988 73.1008 47.796C72.6528 47.596 72.3008 47.316 72.0448 46.956C71.7888 46.596 71.6608 46.176 71.6608 45.696H73.1248C73.1568 46.056 73.2968 46.352 73.5448 46.584C73.8008 46.816 74.1568 46.932 74.6128 46.932C75.0848 46.932 75.4528 46.82 75.7168 46.596C75.9808 46.364 76.1128 46.068 76.1128 45.708C76.1128 45.428 76.0288 45.2 75.8608 45.024C75.7008 44.848 75.4968 44.712 75.2488 44.616C75.0088 44.52 74.6728 44.416 74.2408 44.304C73.6968 44.16 73.2528 44.016 72.9088 43.872C72.5728 43.72 72.2848 43.488 72.0448 43.176C71.8048 42.864 71.6848 42.448 71.6848 41.928C71.6848 41.448 71.8048 41.028 72.0448 40.668C72.2848 40.308 72.6208 40.032 73.0528 39.84C73.4848 39.648 73.9848 39.552 74.5528 39.552C75.3608 39.552 76.0208 39.756 76.5328 40.164C77.0528 40.564 77.3408 41.116 77.3968 41.82H75.8848C75.8608 41.516 75.7168 41.256 75.4528 41.04C75.1888 40.824 74.8408 40.716 74.4088 40.716C74.0168 40.716 73.6968 40.816 73.4488 41.016C73.2008 41.216 73.0768 41.504 73.0768 41.88C73.0768 42.136 73.1528 42.348 73.3048 42.516C73.4648 42.676 73.6648 42.804 73.9048 42.9C74.1448 42.996 74.4728 43.1 74.8888 43.212C75.4408 43.364 75.8888 43.516 76.2328 43.668C76.5848 43.82 76.8808 44.056 77.1208 44.376C77.3688 44.688 77.4928 45.108 77.4928 45.636C77.4928 46.06 77.3768 46.46 77.1448 46.836C76.9208 47.212 76.5888 47.516 76.1488 47.748C75.7168 47.972 75.2048 48.084 74.6128 48.084ZM85.167 44.532C85.167 44.78 85.151 45.004 85.119 45.204H80.067C80.107 45.732 80.303 46.156 80.655 46.476C81.007 46.796 81.439 46.956 81.951 46.956C82.687 46.956 83.207 46.648 83.511 46.032H84.987C84.787 46.64 84.423 47.14 83.895 47.532C83.375 47.916 82.727 48.108 81.951 48.108C81.319 48.108 80.751 47.968 80.247 47.688C79.751 47.4 79.359 47 79.071 46.488C78.791 45.968 78.651 45.368 78.651 44.688C78.651 44.008 78.787 43.412 79.059 42.9C79.339 42.38 79.727 41.98 80.223 41.7C80.727 41.42 81.303 41.28 81.951 41.28C82.575 41.28 83.131 41.416 83.619 41.688C84.107 41.96 84.487 42.344 84.759 42.84C85.031 43.328 85.167 43.892 85.167 44.532ZM83.739 44.1C83.731 43.596 83.551 43.192 83.199 42.888C82.847 42.584 82.411 42.432 81.891 42.432C81.419 42.432 81.015 42.584 80.679 42.888C80.343 43.184 80.143 43.588 80.079 44.1H83.739ZM88.1093 42.504V46.164C88.1093 46.412 88.1653 46.592 88.2773 46.704C88.3973 46.808 88.5973 46.86 88.8773 46.86H89.7173V48H88.6373C88.0213 48 87.5493 47.856 87.2213 47.568C86.8933 47.28 86.7293 46.812 86.7293 46.164V42.504H85.9493V41.388H86.7293V39.744H88.1093V41.388H89.7173V42.504H88.1093ZM92.5741 42.504V46.164C92.5741 46.412 92.6301 46.592 92.7421 46.704C92.8621 46.808 93.0621 46.86 93.3421 46.86H94.1821V48H93.1021C92.4861 48 92.0141 47.856 91.6861 47.568C91.3581 47.28 91.1941 46.812 91.1941 46.164V42.504H90.4141V41.388H91.1941V39.744H92.5741V41.388H94.1821V42.504H92.5741ZM96.139 40.512C95.891 40.512 95.683 40.428 95.515 40.26C95.347 40.092 95.263 39.884 95.263 39.636C95.263 39.388 95.347 39.18 95.515 39.012C95.683 38.844 95.891 38.76 96.139 38.76C96.379 38.76 96.583 38.844 96.751 39.012C96.919 39.18 97.003 39.388 97.003 39.636C97.003 39.884 96.919 40.092 96.751 40.26C96.583 40.428 96.379 40.512 96.139 40.512ZM96.811 41.388V48H95.443V41.388H96.811ZM101.943 41.28C102.463 41.28 102.927 41.388 103.335 41.604C103.751 41.82 104.075 42.14 104.307 42.564C104.539 42.988 104.655 43.5 104.655 44.1V48H103.299V44.304C103.299 43.712 103.151 43.26 102.855 42.948C102.559 42.628 102.155 42.468 101.643 42.468C101.131 42.468 100.723 42.628 100.419 42.948C100.123 43.26 99.975 43.712 99.975 44.304V48H98.607V41.388H99.975V42.144C100.199 41.872 100.483 41.66 100.827 41.508C101.179 41.356 101.551 41.28 101.943 41.28ZM109.064 41.28C109.576 41.28 110.028 41.384 110.42 41.592C110.82 41.792 111.132 42.044 111.356 42.348V41.388H112.736V48.108C112.736 48.716 112.608 49.256 112.352 49.728C112.096 50.208 111.724 50.584 111.236 50.856C110.756 51.128 110.18 51.264 109.508 51.264C108.612 51.264 107.868 51.052 107.276 50.628C106.684 50.212 106.348 49.644 106.268 48.924H107.624C107.728 49.268 107.948 49.544 108.284 49.752C108.628 49.968 109.036 50.076 109.508 50.076C110.06 50.076 110.504 49.908 110.84 49.572C111.184 49.236 111.356 48.748 111.356 48.108V47.004C111.124 47.316 110.808 47.58 110.408 47.796C110.016 48.004 109.568 48.108 109.064 48.108C108.488 48.108 107.96 47.964 107.48 47.676C107.008 47.38 106.632 46.972 106.352 46.452C106.08 45.924 105.944 45.328 105.944 44.664C105.944 44 106.08 43.412 106.352 42.9C106.632 42.388 107.008 41.992 107.48 41.712C107.96 41.424 108.488 41.28 109.064 41.28ZM111.356 44.688C111.356 44.232 111.26 43.836 111.068 43.5C110.884 43.164 110.64 42.908 110.336 42.732C110.032 42.556 109.704 42.468 109.352 42.468C109 42.468 108.672 42.556 108.368 42.732C108.064 42.9 107.816 43.152 107.624 43.488C107.44 43.816 107.348 44.208 107.348 44.664C107.348 45.12 107.44 45.52 107.624 45.864C107.816 46.208 108.064 46.472 108.368 46.656C108.68 46.832 109.008 46.92 109.352 46.92C109.704 46.92 110.032 46.832 110.336 46.656C110.64 46.48 110.884 46.224 111.068 45.888C111.26 45.544 111.356 45.144 111.356 44.688Z" fill="#3D5A99"/>
<rect x="21.114" y="62.5557" width="101.013" height="57.7215"/>
<path d="M64.905 81.7454C64.905 79.8124 66.472 78.2454 68.405 78.2454H94.2848V98.5112H68.405C66.472 98.5112 64.905 96.9442 64.905 95.0112V81.7454Z" fill="#CCDCFF" stroke="#CCDCFF"/>
<path d="M124.665 81.7454C124.665 79.8124 123.098 78.2454 121.165 78.2454H95.2848V98.5112H121.165C123.098 98.5112 124.665 96.9442 124.665 95.0112V81.7454Z" fill="white" stroke="#CCDCFF"/>
<path d="M85.3003 82.4995H74.7378C74.0522 82.4995 73.519 83.0581 73.519 83.7183V92.6558C73.519 93.3413 74.0522 93.8745 74.7378 93.8745H85.3003C85.9604 93.8745 86.519 93.3413 86.519 92.6558V83.7183C86.519 83.0581 85.9604 82.4995 85.3003 82.4995ZM80.019 84.5308C80.019 84.0991 80.3745 83.7183 80.8315 83.7183C81.2632 83.7183 81.644 84.0991 81.644 84.5308C81.644 84.9878 81.2632 85.3433 80.8315 85.3433C80.3745 85.3433 80.019 84.9878 80.019 84.5308ZM77.5815 84.5308C77.5815 84.0991 77.937 83.7183 78.394 83.7183C78.8257 83.7183 79.2065 84.0991 79.2065 84.5308C79.2065 84.9878 78.8257 85.3433 78.394 85.3433C77.937 85.3433 77.5815 84.9878 77.5815 84.5308ZM75.144 84.5308C75.144 84.0991 75.4995 83.7183 75.9565 83.7183C76.3882 83.7183 76.769 84.0991 76.769 84.5308C76.769 84.9878 76.3882 85.3433 75.9565 85.3433C75.4995 85.3433 75.144 84.9878 75.144 84.5308ZM85.3003 92.5034C85.3003 92.605 85.2241 92.6558 85.1479 92.6558H74.8901C74.7886 92.6558 74.7378 92.605 74.7378 92.5034V86.562H85.3003V92.5034Z" fill="white"/>
<path d="M113.843 81.7629H108.156C107.47 81.7629 106.937 82.3215 106.937 82.9817V93.5442C106.937 94.2297 107.47 94.7629 108.156 94.7629H113.843C114.503 94.7629 115.062 94.2297 115.062 93.5442V82.9817C115.062 82.3215 114.503 81.7629 113.843 81.7629ZM113.691 93.5442H108.308C108.206 93.5442 108.156 93.4934 108.156 93.3918V83.134C108.156 83.0579 108.206 82.9817 108.308 82.9817H113.691C113.767 82.9817 113.843 83.0579 113.843 83.134V93.3918C113.843 93.4934 113.767 93.5442 113.691 93.5442ZM111.913 92.7317C112.066 92.7317 112.218 92.6047 112.218 92.427V92.2239C112.218 92.0715 112.066 91.9192 111.913 91.9192H110.085C109.907 91.9192 109.781 92.0715 109.781 92.2239V92.427C109.781 92.6047 109.907 92.7317 110.085 92.7317H111.913Z" fill="#CCDCFF"/>
<g filter="url(#filter13_d)">
<circle cx="31.7468" cy="124.074" r="6.07595" fill="#C2F2D8"/>
</g>
<g filter="url(#filter14_d)">
<circle cx="53.7722" cy="124.074" r="6.07595" fill="#FFF0BF"/>
</g>
<g filter="url(#filter15_d)">
<circle cx="75.7974" cy="124.074" r="6.07595" fill="#CCDCFF"/>
</g>
<g filter="url(#filter16_d)">
<circle cx="97.8228" cy="124.074" r="6.07595" fill="#EBC8F9"/>
</g>
<g filter="url(#filter17_d)">
<circle cx="119.848" cy="124.074" r="6.07595" fill="#FEB4B8"/>
</g>
<defs>
<filter id="filter0_d" x="68.0564" y="0" width="418.789" height="249.118" filterUnits="userSpaceOnUse" color-interpolation-filters="sRGB">
<feFlood flood-opacity="0" result="BackgroundImageFix"/>
<feColorMatrix in="SourceAlpha" type="matrix" values="0 0 0 0 0 0 0 0 0 0 0 0 0 0 0 0 0 0 127 0"/>
<feOffset dy="8"/>
<feGaussianBlur stdDeviation="6"/>
<feColorMatrix type="matrix" values="0 0 0 0 0.24 0 0 0 0 0.352174 0 0 0 0 0.6 0 0 0 0.15 0"/>
<feBlend mode="normal" in2="BackgroundImageFix" result="effect1_dropShadow"/>
<feBlend mode="normal" in="SourceGraphic" in2="effect1_dropShadow" result="shape"/>
</filter>
<filter id="filter1_d" x="380.047" y="42.3269" width="59.75" height="59.75" filterUnits="userSpaceOnUse" color-interpolation-filters="sRGB">
<feFlood flood-opacity="0" result="BackgroundImageFix"/>
<feColorMatrix in="SourceAlpha" type="matrix" values="0 0 0 0 0 0 0 0 0 0 0 0 0 0 0 0 0 0 127 0"/>
<feOffset dy="6"/>
<feGaussianBlur stdDeviation="4"/>
<feColorMatrix type="matrix" values="0 0 0 0 0 0 0 0 0 0 0 0 0 0 0 0 0 0 0.15 0"/>
<feBlend mode="normal" in2="BackgroundImageFix" result="effect1_dropShadow"/>
<feBlend mode="normal" in="SourceGraphic" in2="effect1_dropShadow" result="shape"/>
</filter>
<filter id="filter2_d" x="259.906" y="186.076" width="244.094" height="105.702" filterUnits="userSpaceOnUse" color-interpolation-filters="sRGB">
<feFlood flood-opacity="0" result="BackgroundImageFix"/>
<feColorMatrix in="SourceAlpha" type="matrix" values="0 0 0 0 0 0 0 0 0 0 0 0 0 0 0 0 0 0 127 0"/>
<feOffset dy="8"/>
<feGaussianBlur stdDeviation="6"/>
<feColorMatrix type="matrix" values="0 0 0 0 0.24 0 0 0 0 0.352174 0 0 0 0 0.6 0 0 0 0.15 0"/>
<feBlend mode="normal" in2="BackgroundImageFix" result="effect1_dropShadow"/>
<feBlend mode="normal" in="SourceGraphic" in2="effect1_dropShadow" result="shape"/>
</filter>
<filter id="filter3_d" x="281.431" y="201.384" width="66.1898" height="66.1898" filterUnits="userSpaceOnUse" color-interpolation-filters="sRGB">
<feFlood flood-opacity="0" result="BackgroundImageFix"/>
<feColorMatrix in="SourceAlpha" type="matrix" values="0 0 0 0 0 0 0 0 0 0 0 0 0 0 0 0 0 0 127 0"/>
<feOffset dy="4"/>
<feGaussianBlur stdDeviation="3"/>
<feColorMatrix type="matrix" values="0 0 0 0 0.356863 0 0 0 0 0.52549 0 0 0 0 0.898039 0 0 0 0.1 0"/>
<feBlend mode="normal" in2="BackgroundImageFix" result="effect1_dropShadow"/>
<feBlend mode="normal" in="SourceGraphic" in2="effect1_dropShadow" result="shape"/>
</filter>
<filter id="filter4_d" x="347.969" y="201.384" width="66.1898" height="66.1898" filterUnits="userSpaceOnUse" color-interpolation-filters="sRGB">
<feFlood flood-opacity="0" result="BackgroundImageFix"/>
<feColorMatrix in="SourceAlpha" type="matrix" values="0 0 0 0 0 0 0 0 0 0 0 0 0 0 0 0 0 0 127 0"/>
<feOffset dy="4"/>
<feGaussianBlur stdDeviation="3"/>
<feColorMatrix type="matrix" values="0 0 0 0 0.356863 0 0 0 0 0.52549 0 0 0 0 0.898039 0 0 0 0.1 0"/>
<feBlend mode="normal" in2="BackgroundImageFix" result="effect1_dropShadow"/>
<feBlend mode="normal" in="SourceGraphic" in2="effect1_dropShadow" result="shape"/>
</filter>
<filter id="filter5_d" x="415.615" y="201.384" width="66.1898" height="66.1898" filterUnits="userSpaceOnUse" color-interpolation-filters="sRGB">
<feFlood flood-opacity="0" result="BackgroundImageFix"/>
<feColorMatrix in="SourceAlpha" type="matrix" values="0 0 0 0 0 0 0 0 0 0 0 0 0 0 0 0 0 0 127 0"/>
<feOffset dy="4"/>
<feGaussianBlur stdDeviation="3"/>
<feColorMatrix type="matrix" values="0 0 0 0 0.356863 0 0 0 0 0.52549 0 0 0 0 0.898039 0 0 0 0.1 0"/>
<feBlend mode="normal" in2="BackgroundImageFix" result="effect1_dropShadow"/>
<feBlend mode="normal" in="SourceGraphic" in2="effect1_dropShadow" result="shape"/>
</filter>
<filter id="filter6_d" x="0" y="16.709" width="145.985" height="249.118" filterUnits="userSpaceOnUse" color-interpolation-filters="sRGB">
<feFlood flood-opacity="0" result="BackgroundImageFix"/>
<feColorMatrix in="SourceAlpha" type="matrix" values="0 0 0 0 0 0 0 0 0 0 0 0 0 0 0 0 0 0 127 0"/>
<feOffset dy="8"/>
<feGaussianBlur stdDeviation="6"/>
<feColorMatrix type="matrix" values="0 0 0 0 0.24 0 0 0 0 0.352174 0 0 0 0 0.6 0 0 0 0.15 0"/>
<feBlend mode="normal" in2="BackgroundImageFix" result="effect1_dropShadow"/>
<feBlend mode="normal" in="SourceGraphic" in2="effect1_dropShadow" result="shape"/>
</filter>
<filter id="filter7_d" x="19.6709" y="176.758" width="40.1013" height="34.0253" filterUnits="userSpaceOnUse" color-interpolation-filters="sRGB">
<feFlood flood-opacity="0" result="BackgroundImageFix"/>
<feColorMatrix in="SourceAlpha" type="matrix" values="0 0 0 0 0 0 0 0 0 0 0 0 0 0 0 0 0 0 127 0"/>
<feOffset dy="4"/>
<feGaussianBlur stdDeviation="3"/>
<feColorMatrix type="matrix" values="0 0 0 0 0.356863 0 0 0 0 0.52549 0 0 0 0 0.898039 0 0 0 0.1 0"/>
<feBlend mode="normal" in2="BackgroundImageFix" result="effect1_dropShadow"/>
<feBlend mode="normal" in="SourceGraphic" in2="effect1_dropShadow" result="shape"/>
</filter>
<filter id="filter8_d" x="55.3672" y="176.758" width="40.1013" height="34.0253" filterUnits="userSpaceOnUse" color-interpolation-filters="sRGB">
<feFlood flood-opacity="0" result="BackgroundImageFix"/>
<feColorMatrix in="SourceAlpha" type="matrix" values="0 0 0 0 0 0 0 0 0 0 0 0 0 0 0 0 0 0 127 0"/>
<feOffset dy="4"/>
<feGaussianBlur stdDeviation="3"/>
<feColorMatrix type="matrix" values="0 0 0 0 0.356863 0 0 0 0 0.52549 0 0 0 0 0.898039 0 0 0 0.1 0"/>
<feBlend mode="normal" in2="BackgroundImageFix" result="effect1_dropShadow"/>
<feBlend mode="normal" in="SourceGraphic" in2="effect1_dropShadow" result="shape"/>
</filter>
<filter id="filter9_d" x="91.0632" y="176.758" width="40.1013" height="34.0253" filterUnits="userSpaceOnUse" color-interpolation-filters="sRGB">
<feFlood flood-opacity="0" result="BackgroundImageFix"/>
<feColorMatrix in="SourceAlpha" type="matrix" values="0 0 0 0 0 0 0 0 0 0 0 0 0 0 0 0 0 0 127 0"/>
<feOffset dy="4"/>
<feGaussianBlur stdDeviation="3"/>
<feColorMatrix type="matrix" values="0 0 0 0 0.356863 0 0 0 0 0.52549 0 0 0 0 0.898039 0 0 0 0.1 0"/>
<feBlend mode="normal" in2="BackgroundImageFix" result="effect1_dropShadow"/>
<feBlend mode="normal" in="SourceGraphic" in2="effect1_dropShadow" result="shape"/>
</filter>
<filter id="filter10_d" x="19.6709" y="206.378" width="40.1013" height="33.2658" filterUnits="userSpaceOnUse" color-interpolation-filters="sRGB">
<feFlood flood-opacity="0" result="BackgroundImageFix"/>
<feColorMatrix in="SourceAlpha" type="matrix" values="0 0 0 0 0 0 0 0 0 0 0 0 0 0 0 0 0 0 127 0"/>
<feOffset dy="4"/>
<feGaussianBlur stdDeviation="3"/>
<feColorMatrix type="matrix" values="0 0 0 0 0.356863 0 0 0 0 0.52549 0 0 0 0 0.898039 0 0 0 0.1 0"/>
<feBlend mode="normal" in2="BackgroundImageFix" result="effect1_dropShadow"/>
<feBlend mode="normal" in="SourceGraphic" in2="effect1_dropShadow" result="shape"/>
</filter>
<filter id="filter11_d" x="55.3672" y="206.378" width="40.1013" height="33.2658" filterUnits="userSpaceOnUse" color-interpolation-filters="sRGB">
<feFlood flood-opacity="0" result="BackgroundImageFix"/>
<feColorMatrix in="SourceAlpha" type="matrix" values="0 0 0 0 0 0 0 0 0 0 0 0 0 0 0 0 0 0 127 0"/>
<feOffset dy="4"/>
<feGaussianBlur stdDeviation="3"/>
<feColorMatrix type="matrix" values="0 0 0 0 0.356863 0 0 0 0 0.52549 0 0 0 0 0.898039 0 0 0 0.1 0"/>
<feBlend mode="normal" in2="BackgroundImageFix" result="effect1_dropShadow"/>
<feBlend mode="normal" in="SourceGraphic" in2="effect1_dropShadow" result="shape"/>
</filter>
<filter id="filter12_d" x="91.0632" y="206.378" width="40.1013" height="33.2658" filterUnits="userSpaceOnUse" color-interpolation-filters="sRGB">
<feFlood flood-opacity="0" result="BackgroundImageFix"/>
<feColorMatrix in="SourceAlpha" type="matrix" values="0 0 0 0 0 0 0 0 0 0 0 0 0 0 0 0 0 0 127 0"/>
<feOffset dy="4"/>
<feGaussianBlur stdDeviation="3"/>
<feColorMatrix type="matrix" values="0 0 0 0 0.356863 0 0 0 0 0.52549 0 0 0 0 0.898039 0 0 0 0.1 0"/>
<feBlend mode="normal" in2="BackgroundImageFix" result="effect1_dropShadow"/>
<feBlend mode="normal" in="SourceGraphic" in2="effect1_dropShadow" result="shape"/>
</filter>
<filter id="filter13_d" x="19.6709" y="115.999" width="24.1519" height="24.1519" filterUnits="userSpaceOnUse" color-interpolation-filters="sRGB">
<feFlood flood-opacity="0" result="BackgroundImageFix"/>
<feColorMatrix in="SourceAlpha" type="matrix" values="0 0 0 0 0 0 0 0 0 0 0 0 0 0 0 0 0 0 127 0"/>
<feOffset dy="4"/>
<feGaussianBlur stdDeviation="3"/>
<feColorMatrix type="matrix" values="0 0 0 0 0.356863 0 0 0 0 0.52549 0 0 0 0 0.898039 0 0 0 0.1 0"/>
<feBlend mode="normal" in2="BackgroundImageFix" result="effect1_dropShadow"/>
<feBlend mode="normal" in="SourceGraphic" in2="effect1_dropShadow" result="shape"/>
</filter>
<filter id="filter14_d" x="41.6963" y="115.999" width="24.1519" height="24.1519" filterUnits="userSpaceOnUse" color-interpolation-filters="sRGB">
<feFlood flood-opacity="0" result="BackgroundImageFix"/>
<feColorMatrix in="SourceAlpha" type="matrix" values="0 0 0 0 0 0 0 0 0 0 0 0 0 0 0 0 0 0 127 0"/>
<feOffset dy="4"/>
<feGaussianBlur stdDeviation="3"/>
<feColorMatrix type="matrix" values="0 0 0 0 0.356863 0 0 0 0 0.52549 0 0 0 0 0.898039 0 0 0 0.1 0"/>
<feBlend mode="normal" in2="BackgroundImageFix" result="effect1_dropShadow"/>
<feBlend mode="normal" in="SourceGraphic" in2="effect1_dropShadow" result="shape"/>
</filter>
<filter id="filter15_d" x="63.7214" y="115.999" width="24.1519" height="24.1519" filterUnits="userSpaceOnUse" color-interpolation-filters="sRGB">
<feFlood flood-opacity="0" result="BackgroundImageFix"/>
<feColorMatrix in="SourceAlpha" type="matrix" values="0 0 0 0 0 0 0 0 0 0 0 0 0 0 0 0 0 0 127 0"/>
<feOffset dy="4"/>
<feGaussianBlur stdDeviation="3"/>
<feColorMatrix type="matrix" values="0 0 0 0 0.356863 0 0 0 0 0.52549 0 0 0 0 0.898039 0 0 0 0.1 0"/>
<feBlend mode="normal" in2="BackgroundImageFix" result="effect1_dropShadow"/>
<feBlend mode="normal" in="SourceGraphic" in2="effect1_dropShadow" result="shape"/>
</filter>
<filter id="filter16_d" x="85.7468" y="115.999" width="24.1519" height="24.1519" filterUnits="userSpaceOnUse" color-interpolation-filters="sRGB">
<feFlood flood-opacity="0" result="BackgroundImageFix"/>
<feColorMatrix in="SourceAlpha" type="matrix" values="0 0 0 0 0 0 0 0 0 0 0 0 0 0 0 0 0 0 127 0"/>
<feOffset dy="4"/>
<feGaussianBlur stdDeviation="3"/>
<feColorMatrix type="matrix" values="0 0 0 0 0.356863 0 0 0 0 0.52549 0 0 0 0 0.898039 0 0 0 0.1 0"/>
<feBlend mode="normal" in2="BackgroundImageFix" result="effect1_dropShadow"/>
<feBlend mode="normal" in="SourceGraphic" in2="effect1_dropShadow" result="shape"/>
</filter>
<filter id="filter17_d" x="107.772" y="115.999" width="24.1519" height="24.1519" filterUnits="userSpaceOnUse" color-interpolation-filters="sRGB">
<feFlood flood-opacity="0" result="BackgroundImageFix"/>
<feColorMatrix in="SourceAlpha" type="matrix" values="0 0 0 0 0 0 0 0 0 0 0 0 0 0 0 0 0 0 127 0"/>
<feOffset dy="4"/>
<feGaussianBlur stdDeviation="3"/>
<feColorMatrix type="matrix" values="0 0 0 0 0.356863 0 0 0 0 0.52549 0 0 0 0 0.898039 0 0 0 0.1 0"/>
<feBlend mode="normal" in2="BackgroundImageFix" result="effect1_dropShadow"/>
<feBlend mode="normal" in="SourceGraphic" in2="effect1_dropShadow" result="shape"/>
</filter>
<linearGradient id="paint0_linear" x1="277.451" y1="4" x2="277.451" y2="229.118" gradientUnits="userSpaceOnUse">
<stop stop-color="white" stop-opacity="0.04"/>
<stop offset="1" stop-color="#F7D2D2" stop-opacity="0.36"/>
</linearGradient>
<linearGradient id="paint1_linear" x1="409.971" y1="53.9031" x2="409.971" y2="78.3001" gradientUnits="userSpaceOnUse">
<stop stop-color="white" stop-opacity="0.9"/>
<stop offset="1" stop-color="white" stop-opacity="0.6"/>
</linearGradient>
<linearGradient id="paint2_linear" x1="381.953" y1="190.076" x2="381.953" y2="271.778" gradientUnits="userSpaceOnUse">
<stop stop-color="white" stop-opacity="0.7"/>
<stop offset="1" stop-color="white" stop-opacity="0.35"/>
</linearGradient>
<linearGradient id="paint3_linear" x1="314.526" y1="203.384" x2="314.526" y2="257.573" gradientUnits="userSpaceOnUse">
<stop stop-color="white" stop-opacity="0.9"/>
<stop offset="1" stop-color="white" stop-opacity="0.7"/>
</linearGradient>
<linearGradient id="paint4_linear" x1="313.795" y1="221.127" x2="313.795" y2="239.468" gradientUnits="userSpaceOnUse">
<stop stop-color="white" stop-opacity="0.25"/>
<stop offset="1" stop-color="white" stop-opacity="0"/>
</linearGradient>
<linearGradient id="paint5_linear" x1="381.063" y1="203.384" x2="381.063" y2="257.573" gradientUnits="userSpaceOnUse">
<stop stop-color="white" stop-opacity="0.9"/>
<stop offset="1" stop-color="white" stop-opacity="0.7"/>
</linearGradient>
<linearGradient id="paint6_linear" x1="381.441" y1="221.127" x2="381.441" y2="239.468" gradientUnits="userSpaceOnUse">
<stop stop-color="white" stop-opacity="0.25"/>
<stop offset="1" stop-color="white" stop-opacity="0"/>
</linearGradient>
<linearGradient id="paint7_linear" x1="448.71" y1="203.384" x2="448.71" y2="257.573" gradientUnits="userSpaceOnUse">
<stop stop-color="white" stop-opacity="0.9"/>
<stop offset="1" stop-color="white" stop-opacity="0.7"/>
</linearGradient>
<linearGradient id="paint8_linear" x1="449.087" y1="221.127" x2="449.087" y2="239.468" gradientUnits="userSpaceOnUse">
<stop stop-color="white" stop-opacity="0.25"/>
<stop offset="1" stop-color="white" stop-opacity="0"/>
</linearGradient>
<linearGradient id="paint9_linear" x1="72.9927" y1="20.709" x2="72.9927" y2="245.827" gradientUnits="userSpaceOnUse">
<stop stop-color="white" stop-opacity="0.7"/>
<stop offset="1" stop-color="white" stop-opacity="0.35"/>
</linearGradient>
<linearGradient id="paint10_linear" x1="39.7215" y1="178.758" x2="39.7215" y2="200.783" gradientUnits="userSpaceOnUse">
<stop stop-color="white" stop-opacity="0.9"/>
<stop offset="1" stop-color="white" stop-opacity="0.7"/>
</linearGradient>
<linearGradient id="paint11_linear" x1="75.4178" y1="178.758" x2="75.4178" y2="200.783" gradientUnits="userSpaceOnUse">
<stop stop-color="white" stop-opacity="0.9"/>
<stop offset="1" stop-color="white" stop-opacity="0.7"/>
</linearGradient>
<linearGradient id="paint12_linear" x1="111.114" y1="178.758" x2="111.114" y2="200.783" gradientUnits="userSpaceOnUse">
<stop stop-color="white" stop-opacity="0.9"/>
<stop offset="1" stop-color="white" stop-opacity="0.7"/>
</linearGradient>
<linearGradient id="paint13_linear" x1="39.7215" y1="208.378" x2="39.7215" y2="229.644" gradientUnits="userSpaceOnUse">
<stop stop-color="white" stop-opacity="0.9"/>
<stop offset="1" stop-color="white" stop-opacity="0.7"/>
</linearGradient>
<linearGradient id="paint14_linear" x1="75.4178" y1="208.378" x2="75.4178" y2="229.644" gradientUnits="userSpaceOnUse">
<stop stop-color="white" stop-opacity="0.9"/>
<stop offset="1" stop-color="white" stop-opacity="0.7"/>
</linearGradient>
<linearGradient id="paint15_linear" x1="111.114" y1="208.378" x2="111.114" y2="229.644" gradientUnits="userSpaceOnUse">
<stop stop-color="white" stop-opacity="0.9"/>
<stop offset="1" stop-color="white" stop-opacity="0.7"/>
</linearGradient>
</defs>
</svg>
