<svg width="223" height="50" viewBox="0 0 223 50" fill="none" xmlns="http://www.w3.org/2000/svg">
<path d="M35.9217 5H4.0783C1.82708 5 0 6.82708 0 9.0783V40.9217C0 43.1729 1.82708 45 4.0783 45H35.9217C38.1729 45 40 43.1729 40 40.9217V9.0783C40 6.82708 38.1729 5 35.9217 5Z" fill="white"/>
<path d="M19.07 40V35.07H21.09V37.23C23.87 36.17 26.08 34.57 27.8 32.37C29.76 29.88 30.75 26.99 30.75 23.77C30.75 20.69 29.78 18.18 27.79 16.09C25.81 14.02 23.43 13.02 20.52 13.02C17.55 13.02 15.02 14.05 13.02 16.08C11 18.13 10.02 20.61 10.02 23.68C10.02 26.57 10.94 28.92 12.82 30.87C14.02 32.12 15.48 33.01 17.16 33.53L16.56 35.46C14.55 34.84 12.8 33.77 11.36 32.27C9.13 29.96 8 27.07 8 23.68C8 20.11 9.21 17.07 11.59 14.66C13.99 12.23 17 11 20.53 11C23.97 11 26.91 12.24 29.26 14.7C31.59 17.15 32.78 20.21 32.78 23.78C32.78 27.46 31.64 30.77 29.4 33.62C27.18 36.45 24.15 38.47 20.38 39.61L19.07 40Z" fill="#5B86E5"/>
<path d="M20.39 22.1C20.37 22.09 20.36 22.09 20.36 22.09C20.33 22.06 20.29 22.03 20.26 22C19.8 21.61 19.29 21.34 18.66 21.38C18.06 21.41 17.57 21.77 17.41 22.34C17.21 23.02 17.38 23.64 17.78 24.19C18.09 24.62 18.45 25.01 18.81 25.39C19.28 25.88 19.81 26.3 20.39 26.69C20.69 26.46 20.99 26.25 21.26 26.01C21.59 25.73 21.9 25.43 22.21 25.12C22.58 24.75 22.92 24.35 23.17 23.88C23.41 23.42 23.51 22.94 23.38 22.43C23.18 21.62 22.37 21.2 21.5 21.44C21.08 21.55 20.72 21.79 20.39 22.1Z" fill="#5B86E5"/>
<path d="M20.39 22.1C20.72 21.79 21.07 21.55 21.51 21.43C22.38 21.19 23.19 21.61 23.39 22.42C23.52 22.93 23.42 23.41 23.18 23.87C22.94 24.34 22.59 24.74 22.22 25.11C21.91 25.42 21.6 25.71 21.27 26C20.99 26.24 20.69 26.45 20.4 26.68C19.82 26.29 19.29 25.87 18.82 25.38C18.45 25 18.1 24.6 17.79 24.18C17.39 23.63 17.22 23.01 17.42 22.33C17.59 21.76 18.08 21.4 18.67 21.37C19.3 21.34 19.81 21.6 20.27 21.99C20.3 22.02 20.34 22.05 20.37 22.08C20.37 22.09 20.37 22.09 20.39 22.1Z" fill="#5B86E5"/>
<path d="M52.86 31.12C51.9933 31.12 51.16 31.0067 50.36 30.78C49.56 30.54 48.9333 30.24 48.48 29.88L49.28 28.36C49.7467 28.6933 50.3133 28.96 50.98 29.16C51.6467 29.36 52.32 29.46 53 29.46C54.68 29.46 55.52 28.98 55.52 28.02C55.52 27.7 55.4067 27.4467 55.18 27.26C54.9533 27.0733 54.6667 26.94 54.32 26.86C53.9867 26.7667 53.5067 26.6667 52.88 26.56C52.0267 26.4267 51.3267 26.2733 50.78 26.1C50.2467 25.9267 49.7867 25.6333 49.4 25.22C49.0133 24.8067 48.82 24.2267 48.82 23.48C48.82 22.52 49.22 21.7533 50.02 21.18C50.82 20.5933 51.8933 20.3 53.24 20.3C53.9467 20.3 54.6533 20.3867 55.36 20.56C56.0667 20.7333 56.6467 20.9667 57.1 21.26L56.28 22.78C55.4133 22.22 54.3933 21.94 53.22 21.94C52.4067 21.94 51.7867 22.0733 51.36 22.34C50.9333 22.6067 50.72 22.96 50.72 23.4C50.72 23.7467 50.84 24.02 51.08 24.22C51.32 24.42 51.6133 24.5667 51.96 24.66C52.32 24.7533 52.82 24.86 53.46 24.98C54.3133 25.1267 55 25.2867 55.52 25.46C56.0533 25.62 56.5067 25.9 56.88 26.3C57.2533 26.7 57.44 27.26 57.44 27.98C57.44 28.94 57.0267 29.7067 56.2 30.28C55.3867 30.84 54.2733 31.12 52.86 31.12ZM64.3795 31.12C63.3262 31.12 62.3795 30.8867 61.5395 30.42C60.6995 29.9533 60.0395 29.3133 59.5595 28.5C59.0929 27.6733 58.8595 26.74 58.8595 25.7C58.8595 24.66 59.0929 23.7333 59.5595 22.92C60.0395 22.0933 60.6995 21.4533 61.5395 21C62.3795 20.5333 63.3262 20.3 64.3795 20.3C65.4329 20.3 66.3729 20.5333 67.1995 21C68.0395 21.4533 68.6929 22.0933 69.1595 22.92C69.6395 23.7333 69.8795 24.66 69.8795 25.7C69.8795 26.74 69.6395 27.6733 69.1595 28.5C68.6929 29.3133 68.0395 29.9533 67.1995 30.42C66.3729 30.8867 65.4329 31.12 64.3795 31.12ZM64.3795 29.44C65.0595 29.44 65.6662 29.2867 66.1995 28.98C66.7462 28.66 67.1729 28.22 67.4795 27.66C67.7862 27.0867 67.9395 26.4333 67.9395 25.7C67.9395 24.9667 67.7862 24.32 67.4795 23.76C67.1729 23.1867 66.7462 22.7467 66.1995 22.44C65.6662 22.1333 65.0595 21.98 64.3795 21.98C63.6995 21.98 63.0862 22.1333 62.5395 22.44C62.0062 22.7467 61.5795 23.1867 61.2595 23.76C60.9529 24.32 60.7995 24.9667 60.7995 25.7C60.7995 26.4333 60.9529 27.0867 61.2595 27.66C61.5795 28.22 62.0062 28.66 62.5395 28.98C63.0862 29.2867 63.6995 29.44 64.3795 29.44ZM77.1548 31.12C76.0748 31.12 75.1082 30.8867 74.2548 30.42C73.4148 29.9533 72.7548 29.3133 72.2748 28.5C71.7948 27.6733 71.5548 26.74 71.5548 25.7C71.5548 24.66 71.7948 23.7333 72.2748 22.92C72.7548 22.0933 73.4148 21.4533 74.2548 21C75.1082 20.5333 76.0748 20.3 77.1548 20.3C78.1148 20.3 78.9682 20.4933 79.7148 20.88C80.4748 21.2667 81.0615 21.8267 81.4748 22.56L80.0148 23.5C79.6815 22.9933 79.2682 22.6133 78.7748 22.36C78.2815 22.1067 77.7348 21.98 77.1348 21.98C76.4415 21.98 75.8148 22.1333 75.2548 22.44C74.7082 22.7467 74.2748 23.1867 73.9548 23.76C73.6482 24.32 73.4948 24.9667 73.4948 25.7C73.4948 26.4467 73.6482 27.1067 73.9548 27.68C74.2748 28.24 74.7082 28.6733 75.2548 28.98C75.8148 29.2867 76.4415 29.44 77.1348 29.44C77.7348 29.44 78.2815 29.3133 78.7748 29.06C79.2682 28.8067 79.6815 28.4267 80.0148 27.92L81.4748 28.84C81.0615 29.5733 80.4748 30.14 79.7148 30.54C78.9682 30.9267 78.1148 31.12 77.1548 31.12ZM83.9606 20.4H85.8806V31H83.9606V20.4ZM84.9206 18.36C84.5473 18.36 84.234 18.24 83.9806 18C83.7406 17.76 83.6206 17.4667 83.6206 17.12C83.6206 16.7733 83.7406 16.48 83.9806 16.24C84.234 15.9867 84.5473 15.86 84.9206 15.86C85.294 15.86 85.6006 15.98 85.8406 16.22C86.094 16.4467 86.2206 16.7333 86.2206 17.08C86.2206 17.44 86.094 17.7467 85.8406 18C85.6006 18.24 85.294 18.36 84.9206 18.36ZM93.4066 20.3C94.8732 20.3 95.9932 20.66 96.7666 21.38C97.5532 22.1 97.9466 23.1733 97.9466 24.6V31H96.1266V29.6C95.8066 30.0933 95.3466 30.4733 94.7466 30.74C94.1599 30.9933 93.4599 31.12 92.6466 31.12C91.4599 31.12 90.5066 30.8333 89.7866 30.26C89.0799 29.6867 88.7266 28.9333 88.7266 28C88.7266 27.0667 89.0666 26.32 89.7466 25.76C90.4266 25.1867 91.5066 24.9 92.9866 24.9H96.0266V24.52C96.0266 23.6933 95.7866 23.06 95.3066 22.62C94.8266 22.18 94.1199 21.96 93.1866 21.96C92.5599 21.96 91.9466 22.0667 91.3466 22.28C90.7466 22.48 90.2399 22.7533 89.8266 23.1L89.0266 21.66C89.5732 21.22 90.2266 20.8867 90.9866 20.66C91.7466 20.42 92.5532 20.3 93.4066 20.3ZM92.9666 29.64C93.6999 29.64 94.3332 29.48 94.8666 29.16C95.3999 28.8267 95.7866 28.36 96.0266 27.76V26.28H93.0666C91.4399 26.28 90.6266 26.8267 90.6266 27.92C90.6266 28.4533 90.8332 28.8733 91.2466 29.18C91.6599 29.4867 92.2332 29.64 92.9666 29.64ZM101.5 16.16H103.42V31H101.5V16.16ZM123.126 20.4L119.166 31H117.326L114.266 22.96L111.166 31H109.326L105.386 20.4H107.206L110.286 28.84L113.486 20.4H115.106L118.246 28.88L121.406 20.4H123.126ZM125.074 20.4H126.994V31H125.074V20.4ZM126.034 18.36C125.661 18.36 125.347 18.24 125.094 18C124.854 17.76 124.734 17.4667 124.734 17.12C124.734 16.7733 124.854 16.48 125.094 16.24C125.347 15.9867 125.661 15.86 126.034 15.86C126.407 15.86 126.714 15.98 126.954 16.22C127.207 16.4467 127.334 16.7333 127.334 17.08C127.334 17.44 127.207 17.7467 126.954 18C126.714 18.24 126.407 18.36 126.034 18.36ZM140.66 16.16V31H138.82V29.32C138.393 29.9067 137.853 30.3533 137.2 30.66C136.547 30.9667 135.827 31.12 135.04 31.12C134.013 31.12 133.093 30.8933 132.28 30.44C131.467 29.9867 130.827 29.3533 130.36 28.54C129.907 27.7133 129.68 26.7667 129.68 25.7C129.68 24.6333 129.907 23.6933 130.36 22.88C130.827 22.0667 131.467 21.4333 132.28 20.98C133.093 20.5267 134.013 20.3 135.04 20.3C135.8 20.3 136.5 20.4467 137.14 20.74C137.78 21.02 138.313 21.44 138.74 22V16.16H140.66ZM135.2 29.44C135.867 29.44 136.473 29.2867 137.02 28.98C137.567 28.66 137.993 28.22 138.3 27.66C138.607 27.0867 138.76 26.4333 138.76 25.7C138.76 24.9667 138.607 24.32 138.3 23.76C137.993 23.1867 137.567 22.7467 137.02 22.44C136.473 22.1333 135.867 21.98 135.2 21.98C134.52 21.98 133.907 22.1333 133.36 22.44C132.827 22.7467 132.4 23.1867 132.08 23.76C131.773 24.32 131.62 24.9667 131.62 25.7C131.62 26.4333 131.773 27.0867 132.08 27.66C132.4 28.22 132.827 28.66 133.36 28.98C133.907 29.2867 134.52 29.44 135.2 29.44ZM154.433 20.4V29.56C154.433 31.4133 153.973 32.78 153.053 33.66C152.133 34.5533 150.759 35 148.933 35C147.933 35 146.979 34.86 146.073 34.58C145.166 34.3133 144.433 33.9267 143.873 33.42L144.793 31.94C145.286 32.3667 145.893 32.7 146.613 32.94C147.346 33.1933 148.099 33.32 148.873 33.32C150.113 33.32 151.026 33.0267 151.613 32.44C152.213 31.8533 152.513 30.96 152.513 29.76V28.92C152.059 29.4667 151.499 29.88 150.833 30.16C150.179 30.4267 149.466 30.56 148.693 30.56C147.679 30.56 146.759 30.3467 145.933 29.92C145.119 29.48 144.479 28.8733 144.013 28.1C143.546 27.3133 143.313 26.42 143.313 25.42C143.313 24.42 143.546 23.5333 144.013 22.76C144.479 21.9733 145.119 21.3667 145.933 20.94C146.759 20.5133 147.679 20.3 148.693 20.3C149.493 20.3 150.233 20.4467 150.913 20.74C151.606 21.0333 152.173 21.4667 152.613 22.04V20.4H154.433ZM148.913 28.88C149.606 28.88 150.226 28.7333 150.773 28.44C151.333 28.1467 151.766 27.74 152.073 27.22C152.393 26.6867 152.553 26.0867 152.553 25.42C152.553 24.3933 152.213 23.5667 151.533 22.94C150.853 22.3 149.979 21.98 148.913 21.98C147.833 21.98 146.953 22.3 146.273 22.94C145.593 23.5667 145.253 24.3933 145.253 25.42C145.253 26.0867 145.406 26.6867 145.713 27.22C146.033 27.74 146.466 28.1467 147.013 28.44C147.573 28.7333 148.206 28.88 148.913 28.88ZM167.681 25.76C167.681 25.9067 167.668 26.1 167.641 26.34H159.041C159.161 27.2733 159.568 28.0267 160.261 28.6C160.968 29.16 161.841 29.44 162.881 29.44C164.148 29.44 165.168 29.0133 165.941 28.16L167.001 29.4C166.521 29.96 165.921 30.3867 165.201 30.68C164.495 30.9733 163.701 31.12 162.821 31.12C161.701 31.12 160.708 30.8933 159.841 30.44C158.975 29.9733 158.301 29.3267 157.821 28.5C157.355 27.6733 157.121 26.74 157.121 25.7C157.121 24.6733 157.348 23.7467 157.801 22.92C158.268 22.0933 158.901 21.4533 159.701 21C160.515 20.5333 161.428 20.3 162.441 20.3C163.455 20.3 164.355 20.5333 165.141 21C165.941 21.4533 166.561 22.0933 167.001 22.92C167.455 23.7467 167.681 24.6933 167.681 25.76ZM162.441 21.92C161.521 21.92 160.748 22.2 160.121 22.76C159.508 23.32 159.148 24.0533 159.041 24.96H165.841C165.735 24.0667 165.368 23.34 164.741 22.78C164.128 22.2067 163.361 21.92 162.441 21.92ZM176.307 30.38C176.027 30.62 175.681 30.8067 175.267 30.94C174.854 31.06 174.427 31.12 173.987 31.12C172.921 31.12 172.094 30.8333 171.507 30.26C170.921 29.6867 170.627 28.8667 170.627 27.8V21.98H168.827V20.4H170.627V18.08H172.547V20.4H175.587V21.98H172.547V27.72C172.547 28.2933 172.687 28.7333 172.967 29.04C173.261 29.3467 173.674 29.5 174.207 29.5C174.794 29.5 175.294 29.3333 175.707 29L176.307 30.38Z" fill="white"/>
</svg>
