<svg width="68" height="68" viewBox="0 0 68 68" fill="none" xmlns="http://www.w3.org/2000/svg">
<rect width="68" height="68" rx="8" fill="#FF881B"/>
<path d="M13.692 32.011C13.9881 29.0752 14.9238 26.2376 16.4346 23.6931C17.9454 21.1486 19.9956 18.9576 22.4442 17.2707C24.8929 15.5837 27.682 14.4407 30.6199 13.9203C33.5579 13.3999 36.5749 13.5143 39.4639 14.2558C42.3528 14.9973 45.0451 16.3482 47.3557 18.2158C49.6664 20.0833 51.5406 22.4232 52.8497 25.0747C54.1588 27.7261 54.8716 30.6263 54.9393 33.5759C55.0069 36.5255 54.4278 39.4546 53.2416 42.162C53.055 42.6704 53.0266 43.2224 53.1603 43.7469C53.723 45.6501 54.3636 47.4746 54.9263 49.3778C55.567 51.2793 55.006 51.9143 53.0009 51.6764C50.9146 51.4385 48.8265 51.1302 46.7418 50.9627C46.2387 50.906 45.731 51.0174 45.2995 51.2793C41.1554 53.8189 36.2475 54.8565 31.4152 54.2145C26.3495 53.4976 21.7303 50.9562 18.4445 47.0783C15.1587 43.2004 13.4378 38.2594 13.6123 33.2039C13.6123 32.8805 13.692 32.4835 13.692 32.011ZM39.2844 25.9797C38.7525 25.9651 38.2421 25.7685 37.8404 25.4235C36.315 23.9978 34.9591 22.49 33.4337 21.0676C32.149 19.7994 31.1863 20.0356 30.4643 21.7026C29.7423 23.527 29.1084 25.4286 28.2983 27.3318C28.0213 27.837 27.5974 28.2484 27.0814 28.5129C25.2357 29.2266 23.312 29.8532 21.4663 30.4948C19.7816 31.1298 19.5409 32.0814 20.8239 33.4301C22.429 35.0954 24.1137 36.6803 25.717 38.426C26.0549 38.8038 26.2777 39.2685 26.3594 39.7663C26.6 41.7482 26.8407 43.7318 27.0017 45.7138C27.1627 47.5382 28.1254 48.014 29.7288 47.1412C31.6575 46.0438 33.5846 44.8543 35.5896 43.7586C36.101 43.4692 36.6858 43.3313 37.2743 43.3616C39.4403 43.5207 41.6064 43.8374 43.7724 44.1557C45.9384 44.474 46.5808 43.6799 45.9384 41.6175C45.3774 39.7931 44.7351 38.049 44.2537 36.2262C44.079 35.706 44.108 35.1398 44.3351 34.6397C45.0571 32.4986 45.9384 30.3575 46.7418 28.2951C47.3842 26.4723 46.8215 25.6799 45.2164 25.7586C43.0555 25.7586 41.1267 25.9111 39.2844 25.9898V25.9797Z" fill="white"/>
</svg>
