<svg width="31" height="31" viewBox="0 0 31 31" fill="none" xmlns="http://www.w3.org/2000/svg">
<path d="M0.0684017 13.9889C0.289219 11.7583 0.986816 9.60224 2.11326 7.66894C3.23971 5.73563 4.7683 4.0709 6.59401 2.78913C8.41971 1.50735 10.4992 0.638924 12.6897 0.243507C14.8802 -0.15191 17.1297 -0.064937 19.2837 0.498445C21.4376 1.06183 23.445 2.08827 25.1678 3.50723C26.8906 4.9262 28.288 6.70405 29.264 8.71864C30.24 10.7332 30.7715 12.9368 30.822 15.1779C30.8724 17.419 30.4406 19.6446 29.5562 21.7017C29.417 22.088 29.3959 22.5074 29.4955 22.9059C29.9151 24.3519 30.3928 25.7382 30.8123 27.1842C31.29 28.629 30.8717 29.1115 29.3768 28.9307C27.8212 28.75 26.2643 28.5157 24.71 28.3884C24.3349 28.3454 23.9563 28.4301 23.6346 28.629C20.5449 30.5586 16.8856 31.347 13.2826 30.8592C9.50573 30.3145 6.06172 28.3835 3.61184 25.4371C1.16196 22.4906 -0.121104 18.7364 0.00900891 14.8953C0.00900891 14.6496 0.0684017 14.3479 0.0684017 13.9889ZM19.1499 9.40632C18.7532 9.39516 18.3727 9.2458 18.0732 8.98371C16.9359 7.90043 15.925 6.75478 14.7877 5.67405C13.8298 4.71044 13.112 4.88992 12.5737 6.1565C12.0354 7.54274 11.5628 8.98753 10.9587 10.4336C10.7522 10.8174 10.4362 11.1301 10.0514 11.331C8.67527 11.8733 7.24101 12.3494 5.86487 12.8369C4.60878 13.3193 4.42934 14.0424 5.38594 15.0671C6.58263 16.3324 7.83872 17.5366 9.03416 18.863C9.28611 19.1501 9.45216 19.5032 9.51309 19.8814C9.69253 21.3873 9.87197 22.8944 9.99202 24.4003C10.1121 25.7865 10.8298 26.1481 12.0253 25.4849C13.4633 24.6511 14.9001 23.7473 16.3951 22.9148C16.7763 22.6949 17.2124 22.5901 17.6511 22.6131C19.2661 22.734 20.8811 22.9746 22.4961 23.2165C24.111 23.4583 24.59 22.855 24.111 21.288C23.6928 19.9017 23.2138 18.5766 22.8549 17.1916C22.7247 16.7963 22.7463 16.3662 22.9156 15.9862C23.4539 14.3593 24.111 12.7325 24.71 11.1655C25.1889 9.78057 24.7694 9.17847 23.5727 9.23829C21.9615 9.23829 20.5235 9.35413 19.1499 9.41396V9.40632Z" fill="#F27E54"/>
</svg>
