<svg width="21" height="18" viewBox="0 0 21 18" fill="none" xmlns="http://www.w3.org/2000/svg">
<path d="M19.8926 14.7676L11.9238 0.921875C11.3262 -0.107422 9.76562 -0.140625 9.16797 0.921875L1.19922 14.7676C0.601562 15.7969 1.36523 17.125 2.59375 17.125H18.498C19.7266 17.125 20.4902 15.8301 19.8926 14.7676ZM10.5625 11.8789C11.3926 11.8789 12.0898 12.5762 12.0898 13.4062C12.0898 14.2695 11.3926 14.9336 10.5625 14.9336C9.69922 14.9336 9.03516 14.2695 9.03516 13.4062C9.03516 12.5762 9.69922 11.8789 10.5625 11.8789ZM9.10156 6.40039C9.06836 6.16797 9.26758 5.96875 9.5 5.96875H11.5918C11.8242 5.96875 12.0234 6.16797 11.9902 6.40039L11.7578 10.916C11.7246 11.1484 11.5586 11.2812 11.3594 11.2812H9.73242C9.5332 11.2812 9.36719 11.1484 9.33398 10.916L9.10156 6.40039Z" fill="#F5222D"/>
</svg>