<?xml version="1.0" encoding="UTF-8"?>
<svg width="20px" height="20px" viewBox="0 0 20 20" version="1.1" xmlns="http://www.w3.org/2000/svg" xmlns:xlink="http://www.w3.org/1999/xlink">
    <!-- Generator: Sketch 53.1 (72631) - https://sketchapp.com -->
    <title>IG-bookmark</title>
    <desc>Created with Sketch.</desc>
    <g id="IG-bookmark" stroke="none" stroke-width="1" fill="none" fill-rule="evenodd">
        <rect id="bound" stroke-opacity="0" stroke="#979797" x="0.5" y="0.5" width="19" height="19"></rect>
        <path d="M17.1073554,17.8950582 C17.1073554,18.0158413 17.0225542,18.0668386 16.9868484,18.0847324 C16.9502499,18.1008368 16.8565223,18.1321509 16.7645799,18.0534182 L10.7901095,12.9205831 C10.623185,12.7765381 10.3759224,12.7765381 10.2089979,12.9205831 L4.23542014,18.0534182 C4.14347774,18.1321509 4.0506427,18.1008368 4.01315163,18.0847324 C3.97744585,18.0668386 3.89264461,18.0158413 3.89264461,17.8950582 L3.89264461,3.51739382 C3.89264461,3.17383296 4.17114973,2.89468975 4.51303261,2.89468975 L16.4869674,2.89468975 C16.8288503,2.89468975 17.1073554,3.17383296 17.1073554,3.51739382 L17.1073554,17.8950582 Z M16.4869674,2 L4.51303261,2 C3.67930255,2 3,2.6808589 3,3.51739382 L3,17.8950582 C3,18.3307721 3.24547727,18.7154887 3.64002618,18.8971107 C3.78999048,18.9660018 3.94798857,19 4.10241609,19 C4.35949774,19 4.61122352,18.9087416 4.81563913,18.7324878 L10.4991074,13.8492711 L16.1843609,18.7324878 C16.5146394,19.0161044 16.9654249,19.0787327 17.3599738,18.8971107 C17.7545227,18.714594 18,18.3307721 18,17.8950582 L18,3.51739382 C18,2.6808589 17.3206975,2 16.4869674,2 L16.4869674,2 Z" id="Fill-900" fill="#363733"></path>
    </g>
</svg>