<?xml version="1.0" encoding="UTF-8"?>
<svg width="20px" height="20px" viewBox="0 0 20 20" version="1.1" xmlns="http://www.w3.org/2000/svg" xmlns:xlink="http://www.w3.org/1999/xlink">
    <!-- Generator: Sketch 53.1 (72631) - https://sketchapp.com -->
    <title>IG-comment</title>
    <desc>Created with Sketch.</desc>
    <g id="IG-comment" stroke="none" stroke-width="1" fill="none" fill-rule="evenodd">
        <rect id="bound" stroke-opacity="0" stroke="#979797" x="0.5" y="0.5" width="19" height="19"></rect>
        <path d="M17.0910598,13.5079957 L17.0910598,13.5079957 C16.8608895,13.9596511 16.7862681,14.441626 16.8735016,14.9016454 L17.3863923,17.6178508 C17.4126675,17.7589931 17.33174,17.848906 17.2960058,17.8813165 C17.2613227,17.9126814 17.1646301,17.9848208 17.0227444,17.9409099 L14.505586,17.1735139 C14.307997,17.112875 14.1030509,17.0825555 13.8960028,17.0825555 C13.6027723,17.0825555 13.3042867,17.1431944 13.0110561,17.2634268 C11.5406993,17.8666795 9.92950779,18.0151403 8.34564239,17.6889447 C5.21995182,17.0459631 2.74378269,14.5263114 2.18464773,11.4190894 C1.70959321,8.78129637 2.5178165,6.20205124 4.40121848,4.34210917 C6.28567147,2.48216711 8.88796127,1.69804313 11.5375463,2.19047299 C14.5455243,2.74876926 17.0343055,5.11682366 17.7290201,8.08185778 C18.1672895,9.95434583 17.9465783,11.8310159 17.0910598,13.5079957 Z M18.7516486,7.84452959 C17.9644454,4.48220599 15.1424954,1.79632001 11.7309313,1.16274783 C8.73556546,0.605497063 5.79380086,1.4941709 3.66131056,3.59980515 C1.52882025,5.70543939 0.613394399,8.62342607 1.15045825,11.6041427 C1.78421461,15.1264276 4.59039948,17.9848208 8.13333926,18.7135334 C9.92109974,19.0794579 11.7466964,18.9132236 13.4125403,18.2294675 C13.6017213,18.1531461 13.8907478,18.0789157 14.1976414,18.1730106 L16.7147998,18.9404066 C16.8451244,18.9801355 16.9786022,19 17.1099779,19 C17.4326366,19 17.7468872,18.8829042 17.9970266,18.6602129 C18.3491134,18.3465634 18.5067643,17.8854985 18.4184798,17.4244336 L17.9055891,14.7082281 C17.8498858,14.4154885 17.9413233,14.1520228 18.0285567,13.9816066 C18.9975839,12.0819355 19.2477232,9.95957333 18.7516486,7.84452959 L18.7516486,7.84452959 Z" id="Fill-902" fill="#363733"></path>
    </g>
</svg>