<?xml version="1.0" encoding="UTF-8"?>
<svg width="20px" height="20px" viewBox="0 0 20 20" version="1.1" xmlns="http://www.w3.org/2000/svg" xmlns:xlink="http://www.w3.org/1999/xlink">
    <!-- Generator: Sketch 53.2 (72643) - https://sketchapp.com -->
    <title>IG-like-heart</title>
    <desc>Created with Sketch.</desc>
    <g id="IG-like-heart" stroke="none" stroke-width="1" fill="none" fill-rule="evenodd">
        <rect id="bound" stroke-opacity="0" stroke="#979797" x="0.5" y="0.5" width="19" height="19"></rect>
        <path d="M19.2149504,9.68331299 C18.8839926,10.7133116 18.2368961,11.6408031 17.3428163,12.3642663 L10.3087292,18.0376365 C10.2198152,18.1105742 10.1111425,18.15 9.99753017,18.15 C9.88885747,18.15 9.78018478,18.1105742 9.68633109,18.0376365 L2.65718373,12.3642663 C1.76310385,11.6408031 1.1110677,10.7133116 0.785049617,9.68331299 C0.0786771136,7.48138298 0.710954599,5.03599876 2.39538134,3.45995307 C3.95631638,2.00021343 6.11001156,1.6059556 8.16491339,2.40925594 C8.96019992,2.72071963 9.60235674,3.43038373 9.99753017,3.96263181 C10.3976433,3.43038373 11.0398001,2.72071963 11.8350866,2.40925594 C13.8850488,1.6059556 16.0436836,2.00021343 17.6046187,3.45995307 C19.2890454,5.03599876 19.9213229,7.48138298 19.2149504,9.68331299" id="Fill-901" stroke="#2F3638" stroke-width="0.833333333"></path>
    </g>
</svg>