<?xml version="1.0" encoding="UTF-8"?>
<svg width="20px" height="20px" viewBox="0 0 20 20" version="1.1" xmlns="http://www.w3.org/2000/svg" xmlns:xlink="http://www.w3.org/1999/xlink">
    <!-- Generator: Sketch 53.1 (72631) - https://sketchapp.com -->
    <title>IG-share</title>
    <desc>Created with Sketch.</desc>
    <g id="IG-share" stroke="none" stroke-width="1" fill="none" fill-rule="evenodd">
        <rect id="bound" stroke-opacity="0" stroke="#979797" x="0.5" y="0.5" width="19" height="19"></rect>
        <path d="M8.45542492,8.59399326 L17.9777734,3.81811316 L8.46587234,17.0258511 L8.45542492,8.59399326 Z M2.75968145,2.98756826 L17.4478043,2.98756826 L8.05272436,7.69925642 L2.75968145,2.98756826 Z M19.9494865,2.27256884 C19.8687565,2.1056698 19.7053968,2 19.5249414,2 L1.47464878,2 C1.27614779,2 1.09854165,2.12838387 1.02920877,2.32194725 C0.960825661,2.5164982 1.01496229,2.73376322 1.165975,2.86906007 L7.50565946,8.5120251 L7.51800641,18.5072034 C7.51895618,18.7195306 7.64907404,18.9081562 7.8428262,18.9753108 L7.99288914,19 C8.13915302,19 8.28161784,18.9298827 8.37279533,18.8024863 L19.9057973,2.79005461 C20.0131208,2.63994423 20.0302166,2.44045544 19.9494865,2.27256884 L19.9494865,2.27256884 Z" id="Fill-903" fill="#363733"></path>
    </g>
</svg>