<svg width="35" height="35" viewBox="0 0 35 35" fill="none" xmlns="http://www.w3.org/2000/svg">
<rect width="35" height="35" rx="3" fill="#F00075"/>
<path d="M18.1301 11.0777C14.6818 11.0777 11.934 13.8794 11.934 17.2738C11.934 20.7221 14.6818 23.47 18.1301 23.47C21.5245 23.47 24.3262 20.7221 24.3262 17.2738C24.3262 13.8794 21.5245 11.0777 18.1301 11.0777ZM18.1301 21.3148C15.921 21.3148 14.0891 19.5368 14.0891 17.2738C14.0891 15.0648 15.8672 13.2868 18.1301 13.2868C20.3391 13.2868 22.1172 15.0648 22.1172 17.2738C22.1172 19.5368 20.3391 21.3148 18.1301 21.3148ZM25.9965 10.8622C25.9965 10.054 25.3499 9.40746 24.5417 9.40746C23.7335 9.40746 23.087 10.054 23.087 10.8622C23.087 11.6704 23.7335 12.3169 24.5417 12.3169C25.3499 12.3169 25.9965 11.6704 25.9965 10.8622ZM30.0913 12.3169C29.9835 10.3773 29.5525 8.65315 28.1516 7.25229C26.7508 5.85142 25.0266 5.42039 23.087 5.31263C21.0934 5.20487 15.1128 5.20487 13.1193 5.31263C11.1797 5.42039 9.5094 5.85142 8.05465 7.25229C6.65379 8.65315 6.22276 10.3773 6.115 12.3169C6.00724 14.3105 6.00724 20.2911 6.115 22.2846C6.22276 24.2243 6.65379 25.8945 8.05465 27.3493C9.5094 28.7501 11.1797 29.1812 13.1193 29.2889C15.1128 29.3967 21.0934 29.3967 23.087 29.2889C25.0266 29.1812 26.7508 28.7501 28.1516 27.3493C29.5525 25.8945 29.9835 24.2243 30.0913 22.2846C30.1991 20.2911 30.1991 14.3105 30.0913 12.3169ZM27.5051 24.3859C27.1279 25.4635 26.2659 26.2717 25.2422 26.7027C23.6258 27.3493 19.8542 27.1876 18.1301 27.1876C16.3521 27.1876 12.5805 27.3493 11.018 26.7027C9.94043 26.2717 9.13224 25.4635 8.70121 24.3859C8.05465 22.8234 8.21629 19.0519 8.21629 17.2738C8.21629 15.5497 8.05465 11.7781 8.70121 10.1618C9.13224 9.13806 9.94043 8.32987 11.018 7.89884C12.5805 7.25229 16.3521 7.41392 18.1301 7.41392C19.8542 7.41392 23.6258 7.25229 25.2422 7.89884C26.2659 8.27599 27.0741 9.13806 27.5051 10.1618C28.1516 11.7781 27.99 15.5497 27.99 17.2738C27.99 19.0519 28.1516 22.8234 27.5051 24.3859Z" fill="white"/>
</svg>