<svg width="284" height="284" viewBox="0 0 284 284" fill="none" xmlns="http://www.w3.org/2000/svg">
<path d="M195.04 273.655C187.26 281.435 172.21 285.465 161.58 282.615L54.1802 253.845C43.5502 250.995 32.5302 239.975 29.6902 229.355L0.91022 121.955C-1.92978 111.325 2.10022 96.2654 9.88022 88.4954L88.5002 9.87543C96.2802 2.09543 111.33 -1.93457 121.96 0.915432L229.35 29.6954C239.98 32.5454 251 43.5654 253.85 54.1954L282.63 161.585C285.48 172.215 281.44 187.265 273.66 195.045L195.04 273.655Z" fill="#F3F9FF"/>
<path d="M114.66 34.7654L245.66 158.765" stroke="#1890FF" stroke-width="2" stroke-miterlimit="2" stroke-dasharray="4 4"/>
<path d="M138.66 245.765L245.66 159.765" stroke="#1890FF" stroke-width="2" stroke-miterlimit="2" stroke-dasharray="4 4"/>
<path d="M139.66 249.765L114.66 35.7654" stroke="#1890FF" stroke-width="2" stroke-miterlimit="2" stroke-dasharray="4 4"/>
<path d="M208.29 195.916C208.29 198.866 205.9 201.256 202.95 201.256H43.0705C40.1205 201.256 37.7305 198.866 37.7305 195.916V86.5155C37.7305 83.5655 40.1205 81.1755 43.0705 81.1755H202.94C205.89 81.1755 208.28 83.5655 208.28 86.5155V195.916H208.29Z" fill="white" stroke="#1890FF" stroke-width="3"/>
<path d="M199.931 88.8354H46.0908V187.025H199.931V88.8354Z" fill="#CCE6FF"/>
<path d="M190.001 97.9956H57.001V158.996H190.001V97.9956Z" fill="#B3DAFF"/>
<path d="M190.001 164.996H57.001V171.996H190.001V164.996Z" fill="#B3DAFF"/>
<path d="M237.591 195.216H8.43066V201.926H237.591V195.216Z" fill="white" stroke="#1890FF" stroke-width="3"/>
<path d="M8.76074 201.916C11.4707 204.786 16.4507 205.906 19.8907 205.906H226.121C229.561 205.906 234.541 204.776 237.251 201.916H8.76074Z" fill="white" stroke="#1890FF" stroke-width="3" stroke-linejoin="bevel"/>
<path d="M107.94 195.936V195.716H138.06V195.936C138.06 196.991 137.213 197.836 136.17 197.836H109.83C108.789 197.836 107.94 196.982 107.94 195.936Z" fill="#1890FF" stroke="#1890FF"/>
<path d="M59.0977 81.3411V91.99L71.3905 102.639V70.6841L59.0977 81.3411Z" fill="#1890FF" stroke="#1890FF" stroke-width="3"/>
<path d="M60.3322 102.639C60.3322 104.675 58.68 106.328 56.6435 106.328H24.6887C22.6521 106.328 21 104.675 21 102.639V70.684C21 68.6475 22.6521 66.9954 24.6887 66.9954H56.6435C58.68 66.9954 60.3322 68.6475 60.3322 70.684V102.639Z" fill="#1890FF" stroke="#1890FF" stroke-width="3"/>
<path d="M34.5 75.9607L50.133 87.0031L34.5 98.0308V75.9607Z" fill="white" stroke="#1890FF"/>
<path d="M140.101 36.8655C140.101 49.4255 129.911 59.6155 117.351 59.6155C104.791 59.6155 94.6006 49.4355 94.6006 36.8655C94.6006 24.3055 104.781 14.1155 117.351 14.1155C129.911 14.1155 140.101 24.2955 140.101 36.8655Z" fill="#CCE6FF" stroke="#1890FF" stroke-width="3"/>
<path d="M117.501 31.6047C114.501 31.6047 112.11 34.0422 112.11 36.9954C112.11 39.9954 114.501 42.386 117.501 42.386C120.454 42.386 122.891 39.9954 122.891 36.9954C122.891 34.0422 120.454 31.6047 117.501 31.6047ZM117.501 40.511C115.579 40.511 113.985 38.9641 113.985 36.9954C113.985 35.0735 115.532 33.5266 117.501 33.5266C119.422 33.5266 120.969 35.0735 120.969 36.9954C120.969 38.9641 119.422 40.511 117.501 40.511ZM124.344 31.4172C124.344 30.7141 123.782 30.1516 123.079 30.1516C122.376 30.1516 121.813 30.7141 121.813 31.4172C121.813 32.1204 122.376 32.6829 123.079 32.6829C123.782 32.6829 124.344 32.1204 124.344 31.4172ZM127.907 32.6829C127.813 30.9954 127.438 29.4954 126.219 28.2766C125.001 27.0579 123.501 26.6829 121.813 26.5891C120.079 26.4954 114.876 26.4954 113.141 26.5891C111.454 26.6829 110.001 27.0579 108.735 28.2766C107.516 29.4954 107.141 30.9954 107.047 32.6829C106.954 34.4172 106.954 39.6204 107.047 41.3547C107.141 43.0422 107.516 44.4954 108.735 45.761C110.001 46.9797 111.454 47.3547 113.141 47.4485C114.876 47.5422 120.079 47.5422 121.813 47.4485C123.501 47.3547 125.001 46.9797 126.219 45.761C127.438 44.4954 127.813 43.0422 127.907 41.3547C128.001 39.6204 128.001 34.4172 127.907 32.6829ZM125.657 43.1829C125.329 44.1204 124.579 44.8235 123.688 45.1985C122.282 45.761 119.001 45.6204 117.501 45.6204C115.954 45.6204 112.672 45.761 111.313 45.1985C110.376 44.8235 109.672 44.1204 109.297 43.1829C108.735 41.8235 108.876 38.5422 108.876 36.9954C108.876 35.4954 108.735 32.2141 109.297 30.8079C109.672 29.9172 110.376 29.2141 111.313 28.8391C112.672 28.2766 115.954 28.4172 117.501 28.4172C119.001 28.4172 122.282 28.2766 123.688 28.8391C124.579 29.1672 125.282 29.9172 125.657 30.8079C126.219 32.2141 126.079 35.4954 126.079 36.9954C126.079 38.5422 126.219 41.8235 125.657 43.1829Z" fill="#1890FF"/>
<path d="M265.96 157.855C265.96 170.415 255.78 180.605 243.21 180.605C230.65 180.605 220.46 170.425 220.46 157.855C220.46 145.295 230.65 135.105 243.21 135.105C255.77 135.105 265.96 145.285 265.96 157.855Z" fill="#CCE6FF" stroke="#1890FF" stroke-width="3"/>
<path d="M248.078 159.495L248.734 155.183H244.562V152.37C244.562 151.152 245.125 150.027 247 150.027H248.922V146.323C248.922 146.323 247.188 145.995 245.547 145.995C242.125 145.995 239.875 148.105 239.875 151.855V155.183H236.031V159.495H239.875V169.995H244.562V159.495H248.078Z" fill="#1890FF"/>
<path d="M162.46 244.845C162.46 257.405 152.28 267.595 139.71 267.595C127.15 267.595 116.96 257.415 116.96 244.845C116.96 232.285 127.15 222.095 139.71 222.095C152.28 222.105 162.46 232.285 162.46 244.845Z" fill="#CCE6FF" stroke="#1890FF" stroke-width="3"/>
<path d="M139.562 243.87C142.16 243.87 144.312 241.755 144.312 239.12C144.312 236.523 142.16 234.37 139.562 234.37C136.927 234.37 134.812 236.523 134.812 239.12C134.812 241.755 136.927 243.87 139.562 243.87ZM142.865 245.058H142.234C141.418 245.466 140.527 245.652 139.562 245.652C138.597 245.652 137.67 245.466 136.853 245.058H136.222C133.476 245.058 131.25 247.322 131.25 250.068V251.589C131.25 252.591 132.029 253.37 133.031 253.37H146.093C147.058 253.37 147.875 252.591 147.875 251.589V250.068C147.875 247.322 145.611 245.058 142.865 245.058Z" fill="#1890FF"/>
<path d="M177 106.995C177 108.655 178.34 109.995 180 109.995H193V121.995L211 109.995H276C277.66 109.995 279 108.655 279 106.995V48.9954C279 47.3354 277.66 45.9954 276 45.9954H180C178.34 45.9954 177 47.3354 177 48.9954V106.995Z" fill="white" stroke="#1890FF" stroke-width="3"/>
<path d="M200.5 71.9954V69.9954C200.5 67.7854 198.71 65.9954 196.5 65.9954H189.5C187.29 65.9954 185.5 67.7854 185.5 69.9954V71.9954H200.5Z" fill="#1890FF"/>
<path d="M193 62.9954C194.933 62.9954 196.5 61.4284 196.5 59.4954C196.5 57.5624 194.933 55.9954 193 55.9954C191.067 55.9954 189.5 57.5624 189.5 59.4954C189.5 61.4284 191.067 62.9954 193 62.9954Z" fill="#1890FF"/>
<path d="M210.4 58.4954H239" stroke="#1890FF" stroke-width="3"/>
<path d="M259.311 58.4954H266.901" stroke="#1890FF" stroke-width="3"/>
<path d="M210.4 66.7754H266.9" stroke="#1890FF" stroke-width="3"/>
<path d="M210.4 73.8354H266.9" stroke="#1890FF" stroke-width="3"/>
<path d="M210.4 80.8853H266.9" stroke="#1890FF" stroke-width="3"/>
<path d="M210.4 87.9353H266.9" stroke="#1890FF" stroke-width="3"/>
<path d="M210.4 94.9954H258.9" stroke="#1890FF" stroke-width="3"/>
</svg>