<svg width="28" height="21" viewBox="0 0 28 21" fill="none" xmlns="http://www.w3.org/2000/svg">
<path d="M25.375 0H2.625C1.14844 0 0 1.20312 0 2.625V18.375C0 19.8516 1.14844 21 2.625 21H25.375C26.7969 21 28 19.8516 28 18.375V2.625C28 1.20312 26.7969 0 25.375 0ZM25.0469 18.375H2.95312C2.73438 18.375 2.625 18.2656 2.625 18.0469V2.95312C2.625 2.78906 2.73438 2.625 2.95312 2.625H25.0469C25.2109 2.625 25.375 2.78906 25.375 2.95312V18.0469C25.375 18.2656 25.2109 18.375 25.0469 18.375ZM7 4.8125C5.74219 4.8125 4.8125 5.79688 4.8125 7C4.8125 8.25781 5.74219 9.1875 7 9.1875C8.20312 9.1875 9.1875 8.25781 9.1875 7C9.1875 5.79688 8.20312 4.8125 7 4.8125ZM5.25 15.75H22.75V11.375L17.9375 6.61719C17.6641 6.34375 17.2812 6.34375 17.0078 6.61719L10.5 13.125L8.3125 10.9922C8.03906 10.7188 7.65625 10.7188 7.38281 10.9922L5.25 13.125V15.75Z" fill="#E6E6E6"/>
</svg>