<svg width="444" height="238" viewBox="0 0 444 238" fill="none" xmlns="http://www.w3.org/2000/svg">
<path fill-rule="evenodd" clip-rule="evenodd" d="M172.774 45.5945C75.9623 49.3831 0 86.0651 0 130.757C0 177.97 84.7704 216.243 189.34 216.243C228.345 216.243 264.595 210.918 294.719 201.79C305.344 204.185 316.618 205.473 328.298 205.473C391.968 205.473 443.582 167.2 443.582 119.988C443.582 72.8811 392.199 34.6737 328.726 34.5027C309.334 23.5221 285.106 17 258.823 17C224.615 17 193.887 28.048 172.774 45.5945Z" fill="#F3F9FF"/>
<path d="M306.992 64.3966V170.221C306.992 172.933 304.797 175.131 302.087 175.131H132.649C129.94 175.131 127.744 172.933 127.744 170.221V64.3966C127.744 61.6833 129.94 59.4856 132.649 59.4856H302.087C304.795 59.4856 306.992 61.6833 306.992 64.3966Z" fill="white"/>
<path d="M133.152 175.907L302.086 175.907C305.219 175.907 307.768 173.357 307.768 170.221V64.3963C307.768 61.2602 305.221 58.7085 302.086 58.7085L133.152 58.7085C130.019 58.7085 127.471 61.2601 127.471 64.3962V170.221C127.471 173.356 130.019 175.907 133.152 175.907ZM129.024 64.3962C129.024 62.1172 130.877 60.2621 133.152 60.2621L302.086 60.2621C304.362 60.2621 306.215 62.1161 306.215 64.3963V170.221C306.215 172.5 304.362 174.354 302.086 174.354L133.152 174.354C130.877 174.354 129.024 172.5 129.024 170.221V64.3962Z" fill="#1890FF" stroke="#1890FF"/>
<path d="M184.109 93.2449H171.213V122.261H184.109V93.2449Z" fill="#CCE6FF"/>
<path d="M171.363 86.5475V72.5022H292.875V86.5475H171.363Z" stroke="#CCE6FF"/>
<path d="M210.975 101.842H195.93V122.261H210.975V101.842Z" fill="#CCE6FF"/>
<path d="M238.916 107.216H223.871V122.261H238.916V107.216Z" fill="#CCE6FF"/>
<path d="M264.708 113.663H251.812V122.261H264.708V113.663Z" fill="#CCE6FF"/>
<path d="M291.574 114.738H278.678V122.261H291.574V114.738Z" fill="#CCE6FF"/>
<path d="M270.024 133.02H170.863V133.85H270.024V133.02Z" fill="#CCE6FF"/>
<path d="M270.024 146.507H170.863V147.338H270.024V146.507Z" fill="#CCE6FF"/>
<path d="M270.024 159.581H170.863V160.411H270.024V159.581Z" fill="#CCE6FF"/>
<path d="M127.879 64.1064C127.879 61.345 130.117 59.1064 132.879 59.1064H156.895V175.17H132.879C130.117 175.17 127.879 172.931 127.879 170.17V64.1064Z" fill="#1890FF"/>
<path d="M393.05 119.415H393.55V118.915V86.0457V85.5457H393.05H392.289H391.789V86.0457V117.653H307.27H306.77V118.153V118.915V119.415H307.27H393.05Z" fill="#1890FF" stroke="#1890FF"/>
<path d="M357.095 118.534V118.034H356.595H355.834H355.334V118.534V163.714V164.214H355.834H356.595H357.095V163.714V118.534Z" fill="#1890FF" stroke="#1890FF"/>
<path d="M239.111 175.371V174.871H238.611H237.85H237.35V175.371V217.082V217.582H237.85H238.611H239.111V217.082V175.371Z" fill="#1890FF" stroke="#1890FF"/>
<path d="M206.753 17.1946V16.6946H206.253H205.492H204.992V17.1946V58.9054V59.4054H205.492H206.253H206.753V58.9054V17.1946Z" fill="#1890FF" stroke="#1890FF"/>
<path d="M127.466 117.083V116.583H126.966H14.4473H13.9473V117.083V117.788V118.288H14.4473H126.966H127.466V117.788V117.083Z" fill="#1890FF" stroke="#1890FF"/>
<path d="M79.5112 72.0022V71.5022H79.0112H78.2168H77.7168V72.0022V117.435V117.935H78.2168H79.0112H79.5112V117.435V72.0022Z" fill="#1890FF" stroke="#1890FF"/>
<path d="M44.6322 117.435V116.935H44.1322H43.3711H42.8711V117.435V168.198V168.698H43.3711H44.1322H44.6322V168.198V117.435Z" fill="#1890FF" stroke="#1890FF"/>
<path d="M253.638 221.251C253.638 229.531 246.933 236.241 238.663 236.241C230.393 236.241 223.688 229.531 223.688 221.251C223.688 212.971 230.393 206.26 238.663 206.26C246.933 206.26 253.638 212.971 253.638 221.251Z" fill="#CCE6FF" stroke="#1890FF" stroke-width="2"/>
<path d="M13.4271 125.735C17.8785 125.735 21.4871 122.127 21.4871 117.675C21.4871 113.224 17.8785 109.615 13.4271 109.615C8.97575 109.615 5.36719 113.224 5.36719 117.675C5.36719 122.127 8.97575 125.735 13.4271 125.735Z" fill="#1890FF"/>
<path d="M215.567 11.4756C221.118 17.032 221.118 26.0407 215.567 31.5971C210.016 37.1535 201.016 37.1535 195.465 31.5971C189.914 26.0407 189.914 17.032 195.465 11.4757C201.016 5.91927 210.016 5.91926 215.567 11.4756Z" fill="#CCE6FF" stroke="#1890FF" stroke-width="2"/>
<path d="M355.945 167.328C364.752 167.328 371.891 160.182 371.891 151.368C371.891 142.553 364.752 135.407 355.945 135.407C347.139 135.407 340 142.553 340 151.368C340 160.182 347.139 167.328 355.945 167.328Z" fill="#CCE6FF"/>
<path d="M370.891 151.368C370.891 159.631 364.198 166.328 355.945 166.328C347.692 166.328 341 159.631 341 151.368C341 143.105 347.692 136.407 355.945 136.407C364.198 136.407 370.891 143.105 370.891 151.368Z" fill="#CCE6FF" stroke="#1890FF" stroke-width="2"/>
<path d="M408.8 49H378C375.239 49 373 51.2386 373 54V85.5078C373 88.2692 375.239 90.5078 378 90.5078H408.8C411.562 90.5078 413.8 88.2692 413.8 85.5078V54C413.8 51.2386 411.562 49 408.8 49Z" fill="#CCE6FF"/>
<path d="M378 50H408.8C411.009 50 412.8 51.7909 412.8 54V85.5078C412.8 87.7169 411.009 89.5078 408.8 89.5078H378C375.791 89.5078 374 87.7169 374 85.5078V54C374 51.7909 375.791 50 378 50Z" fill="#CCE6FF" stroke="#1890FF" stroke-width="2"/>
<path d="M402.544 64.2693C403.482 63.5662 404.325 62.7224 404.982 61.738C404.138 62.113 403.154 62.3943 402.169 62.488C403.2 61.8787 403.95 60.9412 404.325 59.7693C403.388 60.3318 402.31 60.7537 401.232 60.988C400.294 60.0037 399.029 59.4412 397.622 59.4412C394.904 59.4412 392.7 61.6443 392.7 64.363C392.7 64.738 392.747 65.113 392.841 65.488C388.763 65.2537 385.107 63.2849 382.669 60.3318C382.247 61.0349 382.013 61.8787 382.013 62.8162C382.013 64.5037 382.857 66.0037 384.216 66.8943C383.419 66.8474 382.622 66.6599 381.966 66.2849V66.3318C381.966 68.7224 383.654 70.6912 385.904 71.1599C385.529 71.2537 385.06 71.3474 384.638 71.3474C384.31 71.3474 384.029 71.3005 383.7 71.2537C384.31 73.2224 386.138 74.6287 388.294 74.6755C386.607 75.988 384.497 76.7849 382.2 76.7849C381.779 76.7849 381.404 76.738 381.029 76.6912C383.185 78.0974 385.763 78.8943 388.575 78.8943C397.622 78.8943 402.544 71.4412 402.544 64.9255C402.544 64.6912 402.544 64.5037 402.544 64.2693Z" fill="#1890FF"/>
<path d="M60.8273 166.429L60.8271 166.43C59.6497 174.667 52.5631 181 43.9997 181C34.6112 181 27 173.389 27 164C27 158.619 29.4987 153.822 33.4032 150.706L33.4033 150.706C36.3093 148.386 39.9917 147 44.0003 147H44.0003C53.3888 146.999 61 154.611 61 164C61 164.826 60.9415 165.637 60.8273 166.429Z" fill="#CCE6FF" stroke="#1890FF" stroke-width="2"/>
<path d="M67 43.9866H90.2069C92.4161 43.9866 94.2069 45.7774 94.2069 47.9866V71.2248C94.2069 73.4339 92.4161 75.2248 90.2069 75.2248H67C64.7909 75.2248 63 73.4339 63 71.2248V47.9866C63 45.7774 64.7909 43.9866 67 43.9866Z" fill="#CCE6FF" stroke="#1890FF" stroke-width="2"/>
<path d="M48.8809 165.438L49.4551 161.664H45.8047V159.203C45.8047 158.137 46.2969 157.152 47.9375 157.152H49.6191V153.912C49.6191 153.912 48.1016 153.625 46.666 153.625C43.6719 153.625 41.7031 155.471 41.7031 158.752V161.664H38.3398V165.438H41.7031V174.625H45.8047V165.438H48.8809Z" fill="#1890FF"/>
<path d="M210.698 13.6345L197.104 21.4568C196.576 21.7498 196.635 22.5115 197.162 22.7166L200.297 24.0349L208.705 16.6228C208.852 16.4763 209.086 16.6814 208.94 16.8572L201.908 25.4412V27.8142C201.908 28.5173 202.729 28.781 203.139 28.283L205.014 25.9978L208.647 27.5505C209.057 27.7263 209.555 27.4626 209.614 26.9939L211.723 14.3376C211.84 13.7517 211.196 13.3416 210.698 13.6345Z" fill="#1890FF"/>
<path d="M238.57 220.517C240.621 220.517 242.32 218.847 242.32 216.767C242.32 214.717 240.621 213.017 238.57 213.017C236.49 213.017 234.82 214.717 234.82 216.767C234.82 218.847 236.49 220.517 238.57 220.517ZM241.177 221.455H240.679C240.035 221.777 239.332 221.924 238.57 221.924C237.808 221.924 237.076 221.777 236.431 221.455H235.933C233.765 221.455 232.008 223.242 232.008 225.41V226.611C232.008 227.402 232.623 228.017 233.414 228.017H243.726C244.488 228.017 245.133 227.402 245.133 226.611V225.41C245.133 223.242 243.345 221.455 241.177 221.455Z" fill="#1890FF"/>
<path d="M362.376 145.32H350.189C349.398 145.32 348.782 145.964 348.782 146.726V157.038C348.782 157.829 349.398 158.445 350.189 158.445H362.376C363.138 158.445 363.782 157.829 363.782 157.038V146.726C363.782 145.964 363.138 145.32 362.376 145.32ZM362.2 157.038H350.364C350.247 157.038 350.189 156.98 350.189 156.863V146.902C350.189 146.814 350.247 146.726 350.364 146.726H362.2C362.288 146.726 362.376 146.814 362.376 146.902V156.863C362.376 156.98 362.288 157.038 362.2 157.038ZM360.97 154.343C360.97 154.167 360.794 153.991 360.618 153.991H354.759C354.554 153.991 354.407 154.167 354.407 154.343V155.046C354.407 155.251 354.554 155.398 354.759 155.398H360.618C360.794 155.398 360.97 155.251 360.97 155.046V154.343ZM360.97 151.531C360.97 151.355 360.794 151.179 360.618 151.179H354.759C354.554 151.179 354.407 151.355 354.407 151.531V152.234C354.407 152.439 354.554 152.585 354.759 152.585H360.618C360.794 152.585 360.97 152.439 360.97 152.234V151.531ZM360.97 148.718C360.97 148.542 360.794 148.366 360.618 148.366H354.759C354.554 148.366 354.407 148.542 354.407 148.718V149.421C354.407 149.626 354.554 149.773 354.759 149.773H360.618C360.794 149.773 360.97 149.626 360.97 149.421V148.718ZM353.587 149.07C353.587 148.513 353.089 148.015 352.532 148.015C351.946 148.015 351.478 148.513 351.478 149.07C351.478 149.656 351.946 150.124 352.532 150.124C353.089 150.124 353.587 149.656 353.587 149.07ZM353.587 151.882C353.587 151.325 353.089 150.827 352.532 150.827C351.946 150.827 351.478 151.325 351.478 151.882C351.478 152.468 351.946 152.937 352.532 152.937C353.089 152.937 353.587 152.468 353.587 151.882ZM353.587 154.695C353.587 154.138 353.089 153.64 352.532 153.64C351.946 153.64 351.478 154.138 351.478 154.695C351.478 155.281 351.946 155.749 352.532 155.749C353.089 155.749 353.587 155.281 353.587 154.695Z" fill="#1890FF"/>
<path d="M78.8375 54.2815C75.8375 54.2815 73.4468 56.719 73.4468 59.6721C73.4468 62.6721 75.8375 65.0627 78.8375 65.0627C81.7906 65.0627 84.2281 62.6721 84.2281 59.6721C84.2281 56.719 81.7906 54.2815 78.8375 54.2815ZM78.8375 63.1877C76.9156 63.1877 75.3218 61.6409 75.3218 59.6721C75.3218 57.7502 76.8687 56.2034 78.8375 56.2034C80.7593 56.2034 82.3062 57.7502 82.3062 59.6721C82.3062 61.6409 80.7593 63.1877 78.8375 63.1877ZM85.6812 54.094C85.6812 53.3909 85.1187 52.8284 84.4156 52.8284C83.7125 52.8284 83.15 53.3909 83.15 54.094C83.15 54.7971 83.7125 55.3596 84.4156 55.3596C85.1187 55.3596 85.6812 54.7971 85.6812 54.094ZM89.2437 55.3596C89.15 53.6721 88.775 52.1721 87.5562 50.9534C86.3375 49.7346 84.8375 49.3596 83.15 49.2659C81.4156 49.1721 76.2125 49.1721 74.4781 49.2659C72.7906 49.3596 71.3375 49.7346 70.0718 50.9534C68.8531 52.1721 68.4781 53.6721 68.3843 55.3596C68.2906 57.094 68.2906 62.2971 68.3843 64.0315C68.4781 65.719 68.8531 67.1721 70.0718 68.4377C71.3375 69.6565 72.7906 70.0315 74.4781 70.1252C76.2125 70.219 81.4156 70.219 83.15 70.1252C84.8375 70.0315 86.3375 69.6565 87.5562 68.4377C88.775 67.1721 89.15 65.719 89.2437 64.0315C89.3375 62.2971 89.3375 57.094 89.2437 55.3596ZM86.9937 65.8596C86.6656 66.7971 85.9156 67.5002 85.025 67.8752C83.6187 68.4377 80.3375 68.2971 78.8375 68.2971C77.2906 68.2971 74.0093 68.4377 72.65 67.8752C71.7125 67.5002 71.0093 66.7971 70.6343 65.8596C70.0718 64.5002 70.2125 61.219 70.2125 59.6721C70.2125 58.1721 70.0718 54.8909 70.6343 53.4846C71.0093 52.594 71.7125 51.8909 72.65 51.5159C74.0093 50.9534 77.2906 51.094 78.8375 51.094C80.3375 51.094 83.6187 50.9534 85.025 51.5159C85.9156 51.844 86.6187 52.594 86.9937 53.4846C87.5562 54.8909 87.4156 58.1721 87.4156 59.6721C87.4156 61.219 87.5562 64.5002 86.9937 65.8596Z" fill="#1890FF"/>
</svg>