<svg width="50" height="50" viewBox="0 0 50 50" fill="none" xmlns="http://www.w3.org/2000/svg">
<path d="M44.9021 0H5.09788C2.28385 0 0 2.28385 0 5.09788V44.9021C0 47.7162 2.28385 50 5.09788 50H44.9021C47.7162 50 50 47.7162 50 44.9021V5.09788C50 2.28385 47.7162 0 44.9021 0Z" fill="#5B86E5"/>
<path d="M40.4417 9.7C39.8417 9.275 39.0292 9.325 38.5042 9.8L21.6917 24.25C21.6292 24.3 21.5417 24.3125 21.4667 24.275L12.3042 20.425L36.4917 10.6375L35.7292 8.75L11.2417 18.65C10.5417 18.9125 10.0542 19.55 10.0042 20.3C9.9542 21.0625 10.3542 21.775 11.0292 22.1125L20.5667 26.125C21.3792 26.525 22.3792 26.375 23.0292 25.7875L38.3792 12.6L28.4667 37.125L24.2917 27.85C24.0542 27.3375 23.5792 26.975 23.0292 26.875C22.4792 26.775 21.9167 26.9375 21.5167 27.3125L14.3042 33.6875L15.6542 35.225L22.6042 29.0875L26.7792 38.35L26.8042 38.4C27.1292 39.0375 27.7667 39.425 28.4792 39.425C28.5042 39.425 28.5417 39.425 28.5667 39.425C29.3167 39.3875 29.9542 38.9375 30.2292 38.25L41.0042 11.5875C41.2792 10.9 41.0542 10.125 40.4417 9.7Z" fill="white"/>
<path d="M20.6345 31.6451L12.9178 38.4667L14.2755 40.0026L21.9922 33.1809L20.6345 31.6451Z" fill="white"/>
<path d="M18.6775 26.248L15.699 28.8802L17.0566 30.4163L20.035 27.784L18.6775 26.248Z" fill="white"/>
</svg>
