<svg width="35" height="36" viewBox="0 0 35 36" fill="none" xmlns="http://www.w3.org/2000/svg">
<path d="M31.25 0.5H3.75C1.64062 0.5 0 2.21875 0 4.25V31.75C0 33.8594 1.64062 35.5 3.75 35.5H31.25C33.2812 35.5 35 33.8594 35 31.75V4.25C35 2.21875 33.2812 0.5 31.25 0.5ZM27.4219 12.9219C27.4219 13.1562 27.4219 13.3906 27.4219 13.625C27.4219 20.3438 22.2656 28.1562 12.8125 28.1562C9.92188 28.1562 7.26562 27.375 5 25.8906C5.39062 25.9688 5.78125 25.9688 6.17188 25.9688C8.59375 25.9688 10.7812 25.1094 12.5781 23.7812C10.3125 23.7031 8.4375 22.2188 7.73438 20.1875C8.59375 20.3438 9.29688 20.3438 10.0781 20.1094C7.73438 19.6406 6.01562 17.6094 6.01562 15.1094V15.0312C6.64062 15.4219 7.42188 15.6562 8.28125 15.6562C7.03125 14.7969 6.01562 12.9219 6.01562 11.4375C6.01562 10.4219 6.25 9.5625 6.71875 8.78125C9.21875 11.9062 13.0469 13.9375 17.2656 14.1719C16.5625 10.7344 19.1406 7.84375 22.2656 7.84375C23.75 7.84375 25.0781 8.46875 26.0156 9.48438C27.1875 9.25 28.2812 8.85938 29.2969 8.23438C28.9062 9.48438 28.0469 10.4219 27.0312 11.0469C28.0469 10.9688 29.0625 10.6562 30 10.2656C29.2969 11.2812 28.3594 12.2188 27.4219 12.9219Z" fill="#1DA1F2"/>
</svg>