<svg width="127" height="77" viewBox="0 0 127 77" fill="none" xmlns="http://www.w3.org/2000/svg">
<circle cx="62.5469" cy="38.5" r="38" fill="white" stroke="#CCDCFF" stroke-dasharray="4 4"/>
<circle cx="62.5469" cy="38.5" r="30.4688" fill="#EBF1FF"/>
<g filter="url(#filter0_d)">
<rect x="12.1562" y="21" width="101.953" height="37.5" rx="2" fill="#EBF1FF"/>
<rect x="12.1562" y="21" width="101.953" height="37.5" rx="2" fill="url(#paint0_linear)"/>
<rect x="12.4062" y="21.25" width="101.453" height="37" rx="1.75" stroke="#CCDCFF" stroke-width="0.5"/>
<rect x="12.4062" y="21.25" width="101.453" height="37" rx="1.75" stroke="url(#paint1_linear)" stroke-width="0.5"/>
</g>
<path d="M40.9555 38.5C40.9555 33.1484 36.6196 28.8125 31.268 28.8125C25.9164 28.8125 21.5805 33.1484 21.5805 38.5C21.5805 43.3438 25.0961 47.3672 29.7446 48.0703V41.3125H27.2836V38.5H29.7446V36.3906C29.7446 33.9688 31.1899 32.6016 33.3774 32.6016C34.4711 32.6016 35.5649 32.7969 35.5649 32.7969V35.1797H34.3539C33.143 35.1797 32.7524 35.9219 32.7524 36.7031V38.5H35.4477L35.018 41.3125H32.7524V48.0703C37.4008 47.3672 40.9555 43.3438 40.9555 38.5Z" fill="#B4C8F5"/>
<circle cx="41" cy="45" r="5.5" fill="#EB5757" stroke="#F3F7FF"/>
<path d="M43.4062 43.9375H43.0781V42.9531C43.0781 41.8184 42.1348 40.875 41 40.875C39.8516 40.875 38.9219 41.8184 38.9219 42.9531V43.9375H38.5938C38.2246 43.9375 37.9375 44.2383 37.9375 44.5938V47.2188C37.9375 47.5879 38.2246 47.875 38.5938 47.875H43.4062C43.7617 47.875 44.0625 47.5879 44.0625 47.2188V44.5938C44.0625 44.2383 43.7617 43.9375 43.4062 43.9375ZM41.9844 43.9375H40.0156V42.9531C40.0156 42.4199 40.4531 41.9688 41 41.9688C41.5332 41.9688 41.9844 42.4199 41.9844 42.9531V43.9375Z" fill="white"/>
<rect x="53" y="35" width="47" height="8" rx="4" fill="#CCDCFF"/>
<defs>
<filter id="filter0_d" x="0.15625" y="10" width="125.953" height="61.5" filterUnits="userSpaceOnUse" color-interpolation-filters="sRGB">
<feFlood flood-opacity="0" result="BackgroundImageFix"/>
<feColorMatrix in="SourceAlpha" type="matrix" values="0 0 0 0 0 0 0 0 0 0 0 0 0 0 0 0 0 0 127 0"/>
<feOffset dy="1"/>
<feGaussianBlur stdDeviation="6"/>
<feColorMatrix type="matrix" values="0 0 0 0 0.24 0 0 0 0 0.352174 0 0 0 0 0.6 0 0 0 0.2 0"/>
<feBlend mode="normal" in2="BackgroundImageFix" result="effect1_dropShadow"/>
<feBlend mode="normal" in="SourceGraphic" in2="effect1_dropShadow" result="shape"/>
</filter>
<linearGradient id="paint0_linear" x1="63.1328" y1="21" x2="63.1328" y2="58.5" gradientUnits="userSpaceOnUse">
<stop stop-color="white" stop-opacity="0.7"/>
<stop offset="1" stop-color="white" stop-opacity="0.3"/>
</linearGradient>
<linearGradient id="paint1_linear" x1="63.1328" y1="21" x2="63.1328" y2="58.5" gradientUnits="userSpaceOnUse">
<stop stop-color="white" stop-opacity="0.9"/>
<stop offset="1" stop-color="white" stop-opacity="0.15"/>
</linearGradient>
</defs>
</svg>
