<svg width="45" height="42" viewBox="0 0 45 42" fill="none" xmlns="http://www.w3.org/2000/svg">
<circle cx="20" cy="20" r="20" fill="#EBF1FF"/>
<path d="M26.0781 21.5L26.7344 17.1875H22.5625V14.375C22.5625 13.1562 23.125 12.0312 25 12.0312H26.9219V8.32812C26.9219 8.32812 25.1875 8 23.5469 8C20.125 8 17.875 10.1094 17.875 13.8594V17.1875H14.0312V21.5H17.875V32H22.5625V21.5H26.0781Z" fill="#4267B2"/>
<circle cx="36" cy="33" r="8" fill="#EB5757" stroke="white" stroke-width="2"/>
<path d="M37.1445 33.25L39.1562 31.2578L39.5664 30.8477C39.625 30.7891 39.625 30.6914 39.5664 30.6133L39.1367 30.1836C39.0586 30.125 38.9609 30.125 38.9023 30.1836L36.5 32.6055L34.0781 30.1836C34.0195 30.125 33.9219 30.125 33.8438 30.1836L33.4141 30.6133C33.3555 30.6914 33.3555 30.7891 33.4141 30.8477L35.8359 33.25L33.4141 35.6719C33.3555 35.7305 33.3555 35.8281 33.4141 35.9062L33.8438 36.3359C33.9219 36.3945 34.0195 36.3945 34.0781 36.3359L36.5 33.9141L38.4922 35.9258L38.9023 36.3359C38.9609 36.3945 39.0586 36.3945 39.1367 36.3359L39.5664 35.9062C39.625 35.8281 39.625 35.7305 39.5664 35.6719L37.1445 33.25Z" fill="white"/>
</svg>
