<svg width="32" height="32" viewBox="0 0 32 32" fill="none" xmlns="http://www.w3.org/2000/svg">
<circle cx="16" cy="16" r="15.75" fill="#F3F3F3" stroke="#E2E2E2" stroke-width="0.5"/>
<mask id="mask0" mask-type="alpha" maskUnits="userSpaceOnUse" x="0" y="0" width="32" height="32">
<circle cx="16" cy="16" r="16" fill="#F3F3F3"/>
</mask>
<g mask="url(#mask0)">
<path d="M21.6875 10.5H10.3125C9.57422 10.5 9 11.1016 9 11.8125V19.6875C9 20.4258 9.57422 21 10.3125 21H21.6875C22.3984 21 23 20.4258 23 19.6875V11.8125C23 11.1016 22.3984 10.5 21.6875 10.5ZM21.5234 19.6875H10.4766C10.3672 19.6875 10.3125 19.6328 10.3125 19.5234V11.9766C10.3125 11.8945 10.3672 11.8125 10.4766 11.8125H21.5234C21.6055 11.8125 21.6875 11.8945 21.6875 11.9766V19.5234C21.6875 19.6328 21.6055 19.6875 21.5234 19.6875ZM12.5 12.9062C11.8711 12.9062 11.4062 13.3984 11.4062 14C11.4062 14.6289 11.8711 15.0938 12.5 15.0938C13.1016 15.0938 13.5938 14.6289 13.5938 14C13.5938 13.3984 13.1016 12.9062 12.5 12.9062ZM11.625 18.375H20.375V16.1875L17.9688 13.8086C17.832 13.6719 17.6406 13.6719 17.5039 13.8086L14.25 17.0625L13.1562 15.9961C13.0195 15.8594 12.8281 15.8594 12.6914 15.9961L11.625 17.0625V18.375Z" fill="#CECECE"/>
</g>
</svg>
