<svg width="512" height="512" viewBox="0 0 512 512" fill="none" xmlns="http://www.w3.org/2000/svg">
<path d="M459.798 0H52.2023C23.3866 0 0 23.3866 0 52.2023V459.798C0 488.613 23.3866 512 52.2023 512H459.798C488.613 512 512 488.613 512 459.798V52.2023C512 23.3866 488.613 0 459.798 0Z" fill="#5B86E5"/>
<path d="M333.316 166.295V113.778L258.79 188.627C254.143 193.293 247.898 195.926 241.222 195.926H179.257C157.731 195.926 140.313 213.419 140.313 235.039V287.117H154.421V235.039C154.421 221.245 165.523 210.095 179.257 210.095H241.222C251.657 210.095 261.486 205.957 268.766 198.646L319.207 147.986V166.295C319.207 187.915 336.625 205.408 358.151 205.408H393.411C407.146 205.408 418.247 216.558 418.247 230.351V279.305C418.247 293.099 407.146 304.248 393.411 304.248H233.184C222.749 304.248 212.92 308.386 205.64 315.698L157.533 364.014V352.215C157.533 330.595 140.115 313.102 118.588 313.102C104.854 313.102 93.7529 301.952 93.7529 288.158V191.814C93.7529 178.02 104.854 166.87 118.588 166.87H244.592V152.701H118.588C97.0624 152.701 79.6444 170.194 79.6444 191.814V288.158C79.6444 309.778 97.0624 327.271 118.588 327.271C132.323 327.271 143.424 338.421 143.424 352.215V398.222L215.616 325.717C220.263 321.05 226.509 318.418 233.184 318.418H393.411C414.938 318.418 432.356 300.924 432.356 279.305V230.351C432.356 208.732 414.938 191.239 393.411 191.239H358.151C344.417 191.239 333.316 180.089 333.316 166.295Z" fill="white"/>
<path d="M207.258 270.191C215.036 270.191 221.258 263.942 221.258 256.13C221.258 248.318 215.036 242.069 207.258 242.069C199.48 242.069 193.258 248.318 193.258 256.13C193.258 263.942 199.48 270.191 207.258 270.191Z" fill="white"/>
<path d="M270 256.13C270 263.942 263.778 270.191 256 270.191C248.222 270.191 242 263.942 242 256.13C242 248.318 248.222 242.069 256 242.069C263.778 242.069 270 248.318 270 256.13Z" fill="white"/>
<path d="M304.742 270.191C312.52 270.191 318.743 263.942 318.743 256.13C318.743 248.318 312.52 242.069 304.742 242.069C296.964 242.069 290.742 248.318 290.742 256.13C290.742 263.942 296.964 270.191 304.742 270.191Z" fill="white"/>
</svg>
