<svg width="40" height="40" viewBox="0 0 40 40" fill="none" xmlns="http://www.w3.org/2000/svg">
<rect width="40" height="40" rx="4" fill="#5B86E5"/>
<mask id="mask0" mask-type="alpha" maskUnits="userSpaceOnUse" x="0" y="0" width="40" height="40">
<rect width="40" height="40" rx="4" fill="#5B86E5"/>
</mask>
<g mask="url(#mask0)">
<path d="M0 40L40 40L-1.55175e-06 4.5L0 40Z" fill="#0084FF"/>
</g>
<path fill-rule="evenodd" clip-rule="evenodd" d="M26.112 9V13.0536C26.112 14.1774 27.0203 15.0883 28.1408 15.0883H30.9393C32.6298 15.0883 34 16.4625 34 18.1579V22.0575C34 23.7529 32.6298 25.1271 30.9393 25.1271H18.1849C17.6467 25.1271 17.1299 25.3418 16.75 25.7228L11.0894 31.4V27.8552C11.0894 26.7314 10.1812 25.8206 9.06066 25.8206C7.37024 25.8206 6 24.4463 6 22.7509V15.0965C6 13.4012 7.37024 12.0269 9.06066 12.0269H19.095V13.0619H9.06066C7.94015 13.0619 7.03192 13.9728 7.03192 15.0965V22.7509C7.03192 23.8747 7.94015 24.7856 9.06066 24.7856C10.7511 24.7856 12.1213 26.1599 12.1213 27.8552V28.9014L16.0204 24.991C16.594 24.4157 17.3733 24.0922 18.1849 24.0922H30.9393C32.0599 24.0922 32.9681 23.1813 32.9681 22.0575V18.1579C32.9681 17.0341 32.0599 16.1232 30.9393 16.1232H28.1408C26.4504 16.1232 25.0801 14.749 25.0801 13.0536V11.4978L20.9809 15.6073C20.9809 15.6074 20.9809 15.6073 20.9809 15.6073C20.4073 16.1826 19.6279 16.5061 18.8164 16.5061H13.8942C12.7736 16.5061 11.8654 17.417 11.8654 18.5408V22.6806H10.8335V18.5408C10.8335 16.8454 12.2037 15.4712 13.8942 15.4712H18.8164C19.3546 15.4712 19.8713 15.2565 20.2512 14.8755L26.112 9Z" fill="#FEFEFE"/>
<path d="M17.2 20.55C17.2 21.1294 16.7295 21.6 16.15 21.6C15.5706 21.6 15.1 21.1294 15.1 20.55C15.1 19.9706 15.5706 19.5 16.15 19.5C16.7314 19.5 17.2 19.9686 17.2 20.55Z" fill="#FEFEFE"/>
<path d="M20.7 20.55C20.7 21.1294 20.2295 21.6 19.65 21.6C19.0706 21.6 18.6 21.1294 18.6 20.55C18.6 19.9706 19.0706 19.5 19.65 19.5C20.2295 19.5 20.7 19.9686 20.7 20.55Z" fill="#FEFEFE"/>
<path d="M24.9 20.55C24.9 21.1294 24.4294 21.6 23.85 21.6C23.2705 21.6 22.8 21.1294 22.8 20.55C22.8 19.9706 23.2705 19.5 23.85 19.5C24.4314 19.5 24.9 19.9686 24.9 20.55Z" fill="#FEFEFE"/>
</svg>
