<svg width="35"  viewBox="0 0 29 28" fill="none" xmlns="http://www.w3.org/2000/svg">
<rect x="0.814209" y="0.149818" width="27.7347" height="27.7347" rx="3" fill="#F00075"/>
<path d="M15.0179 9.875C12.7321 9.875 10.9107 11.7321 10.9107 13.9821C10.9107 16.2679 12.7321 18.0893 15.0179 18.0893C17.2679 18.0893 19.125 16.2679 19.125 13.9821C19.125 11.7321 17.2679 9.875 15.0179 9.875ZM15.0179 16.6607C13.5536 16.6607 12.3393 15.4821 12.3393 13.9821C12.3393 12.5179 13.5179 11.3393 15.0179 11.3393C16.4821 11.3393 17.6607 12.5179 17.6607 13.9821C17.6607 15.4821 16.4821 16.6607 15.0179 16.6607ZM20.2321 9.73214C20.2321 9.19643 19.8036 8.76786 19.2679 8.76786C18.7321 8.76786 18.3036 9.19643 18.3036 9.73214C18.3036 10.2679 18.7321 10.6964 19.2679 10.6964C19.8036 10.6964 20.2321 10.2679 20.2321 9.73214ZM22.9464 10.6964C22.875 9.41071 22.5893 8.26786 21.6607 7.33929C20.7321 6.41071 19.5893 6.125 18.3036 6.05357C16.9821 5.98214 13.0179 5.98214 11.6964 6.05357C10.4107 6.125 9.30357 6.41071 8.33929 7.33929C7.41071 8.26786 7.125 9.41071 7.05357 10.6964C6.98214 12.0179 6.98214 15.9821 7.05357 17.3036C7.125 18.5893 7.41071 19.6964 8.33929 20.6607C9.30357 21.5893 10.4107 21.875 11.6964 21.9464C13.0179 22.0179 16.9821 22.0179 18.3036 21.9464C19.5893 21.875 20.7321 21.5893 21.6607 20.6607C22.5893 19.6964 22.875 18.5893 22.9464 17.3036C23.0179 15.9821 23.0179 12.0179 22.9464 10.6964ZM21.2321 18.6964C20.9821 19.4107 20.4107 19.9464 19.7321 20.2321C18.6607 20.6607 16.1607 20.5536 15.0179 20.5536C13.8393 20.5536 11.3393 20.6607 10.3036 20.2321C9.58929 19.9464 9.05357 19.4107 8.76786 18.6964C8.33929 17.6607 8.44643 15.1607 8.44643 13.9821C8.44643 12.8393 8.33929 10.3393 8.76786 9.26786C9.05357 8.58929 9.58929 8.05357 10.3036 7.76786C11.3393 7.33929 13.8393 7.44643 15.0179 7.44643C16.1607 7.44643 18.6607 7.33929 19.7321 7.76786C20.4107 8.01786 20.9464 8.58929 21.2321 9.26786C21.6607 10.3393 21.5536 12.8393 21.5536 13.9821C21.5536 15.1607 21.6607 17.6607 21.2321 18.6964Z" fill="white"/>
</svg>
