<svg width="18" height="18" viewBox="0 0 18 18" fill="none" xmlns="http://www.w3.org/2000/svg">
<circle cx="9" cy="9" r="8.5" fill="#F00075" stroke="white"/>
<path d="M8.99961 6.7041C7.74961 6.7041 6.75352 7.71973 6.75352 8.9502C6.75352 10.2002 7.74961 11.1963 8.99961 11.1963C10.2301 11.1963 11.2457 10.2002 11.2457 8.9502C11.2457 7.71973 10.2301 6.7041 8.99961 6.7041ZM8.99961 10.415C8.19883 10.415 7.53477 9.77051 7.53477 8.9502C7.53477 8.14941 8.1793 7.50488 8.99961 7.50488C9.80039 7.50488 10.4449 8.14941 10.4449 8.9502C10.4449 9.77051 9.80039 10.415 8.99961 10.415ZM11.8512 6.62598C11.8512 6.33301 11.6168 6.09863 11.3238 6.09863C11.0309 6.09863 10.7965 6.33301 10.7965 6.62598C10.7965 6.91895 11.0309 7.15332 11.3238 7.15332C11.6168 7.15332 11.8512 6.91895 11.8512 6.62598ZM13.3355 7.15332C13.2965 6.4502 13.1402 5.8252 12.6324 5.31738C12.1246 4.80957 11.4996 4.65332 10.7965 4.61426C10.0738 4.5752 7.90586 4.5752 7.1832 4.61426C6.48008 4.65332 5.87461 4.80957 5.34727 5.31738C4.83945 5.8252 4.6832 6.4502 4.64414 7.15332C4.60508 7.87598 4.60508 10.0439 4.64414 10.7666C4.6832 11.4697 4.83945 12.0752 5.34727 12.6025C5.87461 13.1104 6.48008 13.2666 7.1832 13.3057C7.90586 13.3447 10.0738 13.3447 10.7965 13.3057C11.4996 13.2666 12.1246 13.1104 12.6324 12.6025C13.1402 12.0752 13.2965 11.4697 13.3355 10.7666C13.3746 10.0439 13.3746 7.87598 13.3355 7.15332ZM12.398 11.5283C12.2613 11.9189 11.9488 12.2119 11.5777 12.3682C10.9918 12.6025 9.62461 12.5439 8.99961 12.5439C8.35508 12.5439 6.98789 12.6025 6.42148 12.3682C6.03086 12.2119 5.73789 11.9189 5.58164 11.5283C5.34727 10.9619 5.40586 9.59473 5.40586 8.9502C5.40586 8.3252 5.34727 6.95801 5.58164 6.37207C5.73789 6.00098 6.03086 5.70801 6.42148 5.55176C6.98789 5.31738 8.35508 5.37598 8.99961 5.37598C9.62461 5.37598 10.9918 5.31738 11.5777 5.55176C11.9488 5.68848 12.2418 6.00098 12.398 6.37207C12.6324 6.95801 12.5738 8.3252 12.5738 8.9502C12.5738 9.59473 12.6324 10.9619 12.398 11.5283Z" fill="white"/>
</svg>
