<svg width="67" height="67" viewBox="0 0 67 67" fill="none" xmlns="http://www.w3.org/2000/svg">
<rect width="67" height="67" rx="6" fill="#F00075"/>
<path d="M33.1 24.2168C27.725 24.2168 23.4418 28.584 23.4418 33.875C23.4418 39.25 27.725 43.5332 33.1 43.5332C38.391 43.5332 42.7582 39.25 42.7582 33.875C42.7582 28.584 38.391 24.2168 33.1 24.2168ZM33.1 40.1738C29.6566 40.1738 26.8012 37.4023 26.8012 33.875C26.8012 30.4316 29.5727 27.6602 33.1 27.6602C36.5434 27.6602 39.3148 30.4316 39.3148 33.875C39.3148 37.4023 36.5434 40.1738 33.1 40.1738ZM45.3617 23.8809C45.3617 22.6211 44.3539 21.6133 43.0941 21.6133C41.8344 21.6133 40.8266 22.6211 40.8266 23.8809C40.8266 25.1406 41.8344 26.1484 43.0941 26.1484C44.3539 26.1484 45.3617 25.1406 45.3617 23.8809ZM51.7445 26.1484C51.5766 23.125 50.9047 20.4375 48.7211 18.2539C46.5375 16.0703 43.85 15.3984 40.8266 15.2305C37.7191 15.0625 28.3969 15.0625 25.2895 15.2305C22.266 15.3984 19.6625 16.0703 17.3949 18.2539C15.2113 20.4375 14.5395 23.125 14.3715 26.1484C14.2035 29.2559 14.2035 38.5781 14.3715 41.6855C14.5395 44.709 15.2113 47.3125 17.3949 49.5801C19.6625 51.7637 22.266 52.4355 25.2895 52.6035C28.3969 52.7715 37.7191 52.7715 40.8266 52.6035C43.85 52.4355 46.5375 51.7637 48.7211 49.5801C50.9047 47.3125 51.5766 44.709 51.7445 41.6855C51.9125 38.5781 51.9125 29.2559 51.7445 26.1484ZM47.7133 44.9609C47.1254 46.6406 45.7816 47.9004 44.1859 48.5723C41.6664 49.5801 35.7875 49.3281 33.1 49.3281C30.3285 49.3281 24.4496 49.5801 22.0141 48.5723C20.3344 47.9004 19.0746 46.6406 18.4027 44.9609C17.3949 42.5254 17.6469 36.6465 17.6469 33.875C17.6469 31.1875 17.3949 25.3086 18.4027 22.7891C19.0746 21.1934 20.3344 19.9336 22.0141 19.2617C24.4496 18.2539 30.3285 18.5059 33.1 18.5059C35.7875 18.5059 41.6664 18.2539 44.1859 19.2617C45.7816 19.8496 47.0414 21.1934 47.7133 22.7891C48.7211 25.3086 48.4691 31.1875 48.4691 33.875C48.4691 36.6465 48.7211 42.5254 47.7133 44.9609Z" fill="white"/>
</svg>
