<svg width="18" height="18" viewBox="0 0 18 18" fill="none" xmlns="http://www.w3.org/2000/svg">
<circle cx="9" cy="9" r="8.5" fill="#1DA1F2" stroke="white"/>
<path d="M13.5645 6.91895C13.9551 6.62598 14.3066 6.27441 14.5801 5.86426C14.2285 6.02051 13.8184 6.1377 13.4082 6.17676C13.8379 5.92285 14.1504 5.53223 14.3066 5.04395C13.916 5.27832 13.4668 5.4541 13.0176 5.55176C12.627 5.1416 12.0996 4.90723 11.5137 4.90723C10.3809 4.90723 9.46289 5.8252 9.46289 6.95801C9.46289 7.11426 9.48242 7.27051 9.52148 7.42676C7.82227 7.3291 6.29883 6.50879 5.2832 5.27832C5.10742 5.57129 5.00977 5.92285 5.00977 6.31348C5.00977 7.0166 5.36133 7.6416 5.92773 8.0127C5.5957 7.99316 5.26367 7.91504 4.99023 7.75879V7.77832C4.99023 8.77441 5.69336 9.59473 6.63086 9.79004C6.47461 9.8291 6.2793 9.86816 6.10352 9.86816C5.9668 9.86816 5.84961 9.84863 5.71289 9.8291C5.9668 10.6494 6.72852 11.2354 7.62695 11.2549C6.92383 11.8018 6.04492 12.1338 5.08789 12.1338C4.91211 12.1338 4.75586 12.1143 4.59961 12.0947C5.49805 12.6807 6.57227 13.0127 7.74414 13.0127C11.5137 13.0127 13.5645 9.90723 13.5645 7.19238C13.5645 7.09473 13.5645 7.0166 13.5645 6.91895Z" fill="white"/>
</svg>
