<svg width="24" height="24" viewBox="0 0 24 24" fill="none" xmlns="http://www.w3.org/2000/svg">
<g clip-path="url(#clip0)">
<path fill-rule="evenodd" clip-rule="evenodd" d="M12 0C10.7849 0 9.79998 0.985302 9.79998 2.20073C9.79998 3.31561 10.6287 4.23686 11.7035 4.38166V7.23182H7.28206C4.36755 7.23182 2 9.9433 2 13.2855V14.1967H1.88842C0.852437 14.1967 0 15.029 0 16.0696V18.3259C0 19.3665 0.852436 20.1987 1.88842 20.1987H2V24H21.9999V20.1987H22.1115C23.1475 20.1987 23.9999 19.3665 23.9999 18.3259V16.0696C23.9999 15.029 23.1475 14.1967 22.1115 14.1967H21.9999V13.2894C21.9999 9.94714 19.6362 7.23567 16.7179 7.23567H13.6045V8.43607H16.7179C18.8251 8.43607 20.8 10.4512 20.8 13.2894V22.7996H3.19999V13.2855C3.19999 10.448 5.17816 8.43222 7.28206 8.43222H12.9035V5.89257L12.1236 4.39805C13.2811 4.33392 14.2 3.37467 14.2 2.20073C14.2 0.985302 13.215 0 12 0ZM11 2.20073C11 1.64827 11.4477 1.2004 12 1.2004C12.5523 1.2004 13 1.64827 13 2.20073C13 2.7532 12.5523 3.20107 12 3.20107C11.4477 3.20107 11 2.7532 11 2.20073ZM1.88842 15.3971H2V18.9983H1.88842C1.50124 18.9983 1.2 18.6896 1.2 18.3259V16.0696C1.2 15.7058 1.50124 15.3971 1.88842 15.3971ZM22.1115 18.9983H21.9999V15.3971H22.1115C22.4987 15.3971 22.7999 15.7058 22.7999 16.0696V18.3259C22.7999 18.6896 22.4987 18.9983 22.1115 18.9983Z" fill="white"/>
<path d="M6.59998 18.3805V17.1977H7.79998V18.3805C7.79998 18.8218 7.93277 19.1985 8.11865 19.4507C8.30459 19.703 8.51311 19.7986 8.6897 19.7986H15.3102C15.4879 19.7986 15.6962 19.703 15.8816 19.452C16.067 19.2008 16.2 18.8244 16.2 18.3805V17.1977H17.4V18.3805C17.4 19.0536 17.2003 19.6863 16.8469 20.165C16.4934 20.6439 15.957 20.999 15.3102 20.999H8.6897C8.04195 20.999 7.50561 20.6417 7.15278 20.163C6.79989 19.6842 6.59998 19.0518 6.59998 18.3805Z" fill="white"/>
<path fill-rule="evenodd" clip-rule="evenodd" d="M7.39998 13.5965C7.39998 12.6032 8.20697 11.7959 9.19998 11.7959C10.193 11.7959 11 12.6032 11 13.5965C11 14.5899 10.193 15.3971 9.19998 15.3971C8.20697 15.3971 7.39998 14.5899 7.39998 13.5965ZM9.19998 12.9963C8.86971 12.9963 8.59998 13.2661 8.59998 13.5965C8.59998 13.9269 8.86971 14.1967 9.19998 14.1967C9.53025 14.1967 9.79998 13.9269 9.79998 13.5965C9.79998 13.2661 9.53025 12.9963 9.19998 12.9963Z" fill="white"/>
<path fill-rule="evenodd" clip-rule="evenodd" d="M14.8 11.7959C13.807 11.7959 13 12.6032 13 13.5965C13 14.5899 13.807 15.3971 14.8 15.3971C15.793 15.3971 16.6 14.5899 16.6 13.5965C16.6 12.6032 15.793 11.7959 14.8 11.7959ZM14.2 13.5965C14.2 13.2661 14.4697 12.9963 14.8 12.9963C15.1302 12.9963 15.4 13.2661 15.4 13.5965C15.4 13.9269 15.1302 14.1967 14.8 14.1967C14.4697 14.1967 14.2 13.9269 14.2 13.5965Z" fill="white"/>
</g>
<defs>
<clipPath id="clip0">
<rect width="23.9999" height="24" fill="white"/>
</clipPath>
</defs>
</svg>
