<svg width="24" height="24" viewBox="0 0 24 24" fill="none" xmlns="http://www.w3.org/2000/svg">
<g clip-path="url(#clip0)">
<path d="M11.9061 13.6953C11.7342 14.1078 11.6426 14.6521 11.6311 15.3281H12.6538C12.6538 14.2911 12.9775 13.5005 13.6249 12.9562C14.4098 12.2344 14.9426 11.6042 15.2233 11.0656C15.504 10.5214 15.6444 9.93984 15.6444 9.32109C15.6444 8.33568 15.3579 7.55651 14.785 6.98359C14.2178 6.40495 13.4415 6.11562 12.4561 6.11562C11.4936 6.11562 10.7001 6.39922 10.0757 6.96641C9.45118 7.52786 9.13321 8.27838 9.12176 9.21797H10.1444C10.1559 8.54766 10.3707 8.01771 10.7889 7.62812C11.2129 7.23281 11.7686 7.03516 12.4561 7.03516C13.1379 7.03516 13.6678 7.24141 14.046 7.65391C14.4298 8.06068 14.6217 8.62213 14.6217 9.33828C14.6217 9.69349 14.5759 10.0115 14.4842 10.2922C14.3983 10.5672 14.2723 10.8221 14.1061 11.057C13.9457 11.2862 13.5819 11.6815 13.0147 12.243C12.4475 12.7987 12.078 13.2828 11.9061 13.6953Z" fill="white"/>
<path d="M11.6741 17.7086C11.5538 17.8404 11.4936 18.0036 11.4936 18.1984C11.4936 18.3875 11.5538 18.5479 11.6741 18.6797C11.8001 18.8057 11.9749 18.8687 12.1983 18.8687C12.416 18.8687 12.5879 18.8057 12.7139 18.6797C12.8457 18.5479 12.9116 18.3875 12.9116 18.1984C12.9116 18.0036 12.8457 17.8404 12.7139 17.7086C12.5879 17.5711 12.416 17.5023 12.1983 17.5023C11.9749 17.5023 11.8001 17.5711 11.6741 17.7086Z" fill="white"/>
<path fill-rule="evenodd" clip-rule="evenodd" d="M11.9998 0C5.37243 0 -0.000136419 5.37258 -0.000136419 12C-0.000136419 14.919 1.0428 17.5957 2.77553 19.6758L0.128933 23.0282C-0.22278 23.4737 0.183441 24.1133 0.736199 23.9843L6.46183 22.6483C8.11925 23.512 10.0034 24 11.9998 24C18.6272 24 23.9998 18.6274 23.9998 12C23.9998 5.37258 18.6272 0 11.9998 0ZM1.19986 12C1.19986 6.03532 6.03517 1.2 11.9998 1.2C17.9645 1.2 22.7998 6.03532 22.7998 12C22.7998 17.9647 17.9645 22.8 11.9998 22.8C10.1268 22.8 8.36688 22.3237 6.83265 21.4861L6.63173 21.3764L2.13316 22.4261L4.34017 19.6306L3.99883 19.2543C2.25913 17.3368 1.19986 14.7928 1.19986 12Z" fill="white"/>
</g>
<defs>
<clipPath id="clip0">
<rect width="23.9999" height="24" fill="white"/>
</clipPath>
</defs>
</svg>
