<svg width="30" height="30" viewBox="0 0 40 40" fill="none" xmlns="http://www.w3.org/2000/svg">
<path d="M32.3534 7.76C31.8734 7.42 31.2234 7.46 30.8034 7.84L17.3534 19.4C17.3034 19.44 17.2334 19.45 17.1734 19.42L9.84336 16.34L29.1934 8.51L28.5834 7L8.99336 14.92C8.43336 15.13 8.04336 15.64 8.00336 16.24C7.96336 16.85 8.28336 17.42 8.82336 17.69L16.4534 20.9C17.1034 21.22 17.9034 21.1 18.4234 20.63L30.7034 10.08L22.7734 29.7L19.4334 22.28C19.2434 21.87 18.8634 21.58 18.4234 21.5C17.9834 21.42 17.5334 21.55 17.2134 21.85L11.4434 26.95L12.5234 28.18L18.0834 23.27L21.4234 30.68L21.4434 30.72C21.7034 31.23 22.2134 31.54 22.7834 31.54C22.8034 31.54 22.8334 31.54 22.8534 31.54C23.4534 31.51 23.9634 31.15 24.1834 30.6L32.8034 9.27C33.0234 8.72 32.8434 8.1 32.3534 7.76Z" fill="currentColor"/>
<path d="M16.5076 25.316L10.3342 30.7734L11.4204 32.0021L17.5938 26.5447L16.5076 25.316Z" fill="currentColor"/>
<path d="M14.942 20.9984L12.5592 23.1042L13.6452 24.333L16.028 22.2272L14.942 20.9984Z" fill="currentColor"/>
</svg>
