<svg width="30" height="30" viewBox="0 0 40 40" fill="none" xmlns="http://www.w3.org/2000/svg">
<path d="M30.78 14.2H28.15C27.29 14.2 26.59 13.5 26.59 12.64V8L20.49 14.1C20.2 14.39 19.8 14.56 19.39 14.56H15.8C14.03 14.55 12.58 16 12.58 17.78V19.79H14.24V17.78C14.24 16.92 14.94 16.22 15.8 16.22H19.39C20.25 16.22 21.06 15.88 21.67 15.28L24.93 12.02V12.64C24.93 14.42 26.38 15.86 28.15 15.86H30.78C31.64 15.86 32.34 16.56 32.34 17.42V21.9C32.34 22.76 31.64 23.46 30.78 23.46H18.79C17.93 23.46 17.12 23.8 16.51 24.4L13.44 27.47V27.33C13.44 25.55 11.99 24.11 10.22 24.11C9.36 24.11 8.66 23.41 8.66 22.55V14.13C8.66 13.27 9.36 12.57 10.22 12.57H17.78V10.91H10.22C8.45 10.91 7 12.36 7 14.13V22.55C7 24.33 8.45 25.77 10.22 25.77C11.08 25.77 11.78 26.47 11.78 27.33V31.49L17.69 25.58C17.98 25.29 18.38 25.12 18.79 25.12H30.77C32.55 25.12 33.99 23.67 33.99 21.9V17.42C34 15.64 32.55 14.2 30.78 14.2Z" fill="currentColor"/>
<path d="M20.19 19.75C20.19 19.05 19.62 18.49 18.93 18.49C18.23 18.49 17.67 19.06 17.67 19.75C17.67 20.44 18.24 21.01 18.93 21.01C19.62 21.01 20.19 20.44 20.19 19.75Z" fill="currentColor"/>
<path d="M24.54 19.75C24.54 19.05 23.97 18.49 23.28 18.49C22.58 18.49 22.02 19.06 22.02 19.75C22.02 20.44 22.59 21.01 23.28 21.01C23.97 21.01 24.54 20.44 24.54 19.75Z" fill="currentColor"/>
<path d="M27.63 21.01C28.3259 21.01 28.89 20.4459 28.89 19.75C28.89 19.0541 28.3259 18.49 27.63 18.49C26.9341 18.49 26.37 19.0541 26.37 19.75C26.37 20.4459 26.9341 21.01 27.63 21.01Z" fill="currentColor"/>
</svg>
