<svg width="30" height="30" viewBox="0 0 40 40" fill="none" xmlns="http://www.w3.org/2000/svg">
<path d="M30.1433 18.0346C28.3133 14.7046 26.1833 10.4946 25.7133 8.66459C25.5733 8.12459 25.5833 7.67459 26.0833 7.26459C26.5133 6.90459 27.0433 6.92459 27.3433 7.11459C27.7833 7.40459 27.6833 8.04459 27.5833 8.39459C27.4533 8.87459 27.2333 9.01459 27.0633 9.08459L27.7933 10.9246C28.3733 10.6946 29.1433 10.1546 29.4933 8.92459C29.9033 7.45459 29.5033 6.15459 28.4233 5.45459C27.3533 4.75459 25.8733 4.87459 24.8233 5.73459C24.1033 6.32459 23.3433 7.39459 23.7933 9.15459C24.4233 11.6146 27.2233 16.8546 28.4033 18.9846C28.4133 18.9946 28.4133 19.0146 28.4033 19.0246L22.4433 32.9846C22.4333 33.0046 22.4033 33.0246 22.3733 33.0146L12.0133 28.5946C11.9833 28.5846 11.9733 28.5546 11.9833 28.5246L17.9633 14.5246C17.9633 14.5146 17.9733 14.5046 17.9933 14.4946L23.8033 12.6846L23.2133 10.8046L17.3833 12.6146L17.3633 12.6246C16.8133 12.8046 16.3733 13.2146 16.1433 13.7446L10.1633 27.7446C9.72329 28.7746 10.2033 29.9646 11.2333 30.4046L21.6033 34.8346C21.8633 34.9446 22.1333 34.9946 22.4033 34.9946C22.6633 34.9946 22.9133 34.9446 23.1633 34.8446C23.6633 34.6446 24.0633 34.2546 24.2733 33.7546L30.2333 19.7946C30.4733 19.2346 30.4433 18.5846 30.1433 18.0346Z" fill="currentColor"/>
<path d="M21.3933 17.3446C21.0633 18.1046 21.4233 18.9846 22.1833 19.3146C22.9433 19.6446 23.8233 19.2846 24.1533 18.5246C24.4833 17.7646 24.1233 16.8846 23.3633 16.5546C22.6033 16.2346 21.7233 16.5846 21.3933 17.3446Z" fill="currentColor"/>
</svg>
