<svg width="38" height="38" viewBox="0 0 38 38" fill="none" xmlns="http://www.w3.org/2000/svg">
<rect width="38" height="38" rx="4" fill="#5B86E5"/>
<path d="M32.6991 9.79196C32.3092 7.63045 31.1449 6.14184 31.0947 6.08008L30.2841 6.7221C30.4552 6.93954 34.4064 12.0937 28.8071 16.7731C28.3297 17.172 27.8756 17.5413 27.4407 17.8861C27.5887 17.3933 27.6671 16.8786 27.6671 16.355C27.6671 14.4868 26.7176 12.7846 25.1286 11.7991L24.5844 12.6778C25.8672 13.473 26.634 14.8471 26.634 16.3537C26.634 17.7188 25.9791 19.0157 24.8803 19.8289C24.4635 20.1325 24.0723 20.4117 23.7069 20.6729C22.7278 21.3728 21.925 21.9466 21.2662 22.5179C20.4814 22.3545 19.6194 22.2696 18.6904 22.2696C17.7628 22.2696 16.8994 22.3545 16.1146 22.5179C15.4559 21.9479 14.653 21.3741 13.6739 20.6729C13.3034 20.4078 12.9058 20.1235 12.4812 19.8147C11.394 19.0016 10.7456 17.7111 10.7456 16.3537C10.7456 14.8458 11.5111 13.4717 12.7951 12.6778L12.2509 11.7991C10.6619 12.7833 9.71241 14.4868 9.71241 16.355C9.71241 16.8786 9.79089 17.3933 9.93756 17.8848C9.50397 17.54 9.05108 17.172 8.57375 16.7731C2.9744 12.0937 6.92559 6.93954 7.09671 6.7221L6.69143 6.40173L6.28615 6.08008C6.23726 6.14184 5.07158 7.63045 4.68302 9.79196C4.3202 11.8042 4.58524 14.7879 7.91114 17.567C9.45251 18.8549 10.7559 19.8391 11.8713 20.6497C11.8816 20.6574 11.8919 20.6664 11.9035 20.6742L11.9048 20.6729C12.3204 20.9752 12.7089 21.2531 13.0743 21.5143C13.7845 22.0212 14.3867 22.4523 14.9 22.8563C13.3651 23.4031 12.2432 24.3191 11.6681 25.5414C10.9862 26.9876 11.2036 28.6615 12.2329 29.9095C12.9096 30.7304 13.8707 31.1601 14.8692 31.1601C15.488 31.1601 16.1223 30.9941 16.7116 30.6532C18.0227 29.8953 19.2038 28.0722 18.2144 25.4308C17.9133 24.6266 17.526 23.9898 17.0217 23.4108C17.544 23.34 18.1024 23.304 18.6917 23.304C19.281 23.304 19.8394 23.34 20.3617 23.4108C19.8574 23.9911 19.4714 24.6266 19.169 25.4308C18.1822 28.0658 19.3582 29.8863 20.6654 30.6441C21.2572 30.9877 21.8954 31.1549 22.5168 31.1549C23.5139 31.1549 24.4725 30.7265 25.1492 29.9108C26.1811 28.6666 26.3998 26.9953 25.7192 25.5491C25.1441 24.323 24.0196 23.4056 22.4821 22.8575C22.9954 22.4535 23.5976 22.0238 24.3078 21.5156C24.6719 21.2557 25.0617 20.9765 25.476 20.6754C25.4812 20.6716 25.485 20.6677 25.4902 20.6652C26.6095 19.8507 27.9193 18.8626 29.4697 17.567C32.7956 14.7879 33.0619 11.8042 32.6991 9.79196ZM17.2455 25.7936C18.0072 27.8277 17.2018 29.1761 16.1944 29.759C15.2989 30.2762 13.9274 30.3379 13.0293 29.252C12.2573 28.3167 12.0926 27.0635 12.6021 25.984C13.1245 24.875 14.2503 24.0734 15.82 23.6501C16.4697 24.278 16.9187 24.9239 17.2455 25.7936ZM24.7838 25.9879C25.2908 27.0686 25.1261 28.3179 24.3541 29.2495C23.4548 30.3341 22.0807 30.2685 21.1839 29.7487C20.1803 29.1671 19.3775 27.8213 20.1366 25.7923C20.4621 24.9226 20.9111 24.2767 21.5621 23.6475C23.1344 24.0721 24.2615 24.8762 24.7838 25.9879Z" fill="white"/>
</svg>
