<svg width="45" height="45" viewBox="0 0 45 45" fill="none" xmlns="http://www.w3.org/2000/svg">
<path d="M20.0584 45C18.7488 45 17.6827 43.9348 17.6827 42.6243V41.5134C17.6827 40.834 17.2459 40.2293 16.5955 40.0104C15.8115 39.7459 15.0381 39.4251 14.2954 39.0568C14.073 38.9461 13.8252 38.8881 13.5782 38.8881C13.1546 38.8881 12.7582 39.0524 12.4603 39.3495L11.6736 40.1361C11.2254 40.5853 10.6286 40.8322 9.99404 40.8322C9.35947 40.8322 8.7627 40.5853 8.31445 40.1361L4.86211 36.6838C4.41299 36.2355 4.16602 35.6388 4.16602 35.0042C4.16602 34.3696 4.41299 33.7729 4.86211 33.3246L5.64873 32.538C6.12949 32.0572 6.24727 31.3198 5.94141 30.7037C5.57314 29.9619 5.25234 29.1876 4.98779 28.4036C4.76895 27.7532 4.16514 27.3173 3.48486 27.3173H2.37568C1.06523 27.3164 0 26.2512 0 24.9416V20.0593C0 18.7497 1.06523 17.6836 2.37568 17.6836H3.48662C4.16602 17.6836 4.7707 17.2468 4.98955 16.5964C5.2541 15.8124 5.57402 15.0381 5.94316 14.2963C6.24902 13.6802 6.13125 12.9428 5.65049 12.462L4.86387 11.6754C4.41475 11.2271 4.16777 10.6304 4.16777 9.9958C4.16777 9.36123 4.41475 8.76445 4.86387 8.31621L8.31621 4.86387C8.76445 4.41563 9.36123 4.16777 9.9958 4.16777C10.6304 4.16777 11.2271 4.41475 11.6754 4.86387L12.462 5.65049C12.76 5.94844 13.1563 6.11191 13.58 6.11191C13.8261 6.11191 14.0748 6.05303 14.2972 5.94316C15.039 5.5749 15.8133 5.2541 16.5973 4.98955C17.2477 4.7707 17.6845 4.16689 17.6845 3.48662V2.37568C17.6836 1.06523 18.7488 0 20.0584 0H24.9407C26.2503 0 27.3164 1.06523 27.3164 2.37568V3.48662C27.3164 4.16602 27.7532 4.7707 28.4027 4.98955C29.1867 5.2541 29.9602 5.5749 30.7028 5.94316C30.9252 6.05391 31.173 6.11191 31.42 6.11191C31.8437 6.11191 32.24 5.94756 32.538 5.65049L33.3246 4.86387C33.7729 4.41563 34.3696 4.16777 35.0042 4.16777C35.6388 4.16777 36.2355 4.41475 36.6838 4.86387L40.1361 8.31621C40.5853 8.76445 40.8322 9.36123 40.8322 9.9958C40.8322 10.6304 40.5853 11.2271 40.1361 11.6754L39.3495 12.462C38.8687 12.9428 38.751 13.6802 39.0568 14.2963C39.4251 15.0381 39.7459 15.8124 40.0104 16.5964C40.2293 17.2468 40.8331 17.6836 41.5134 17.6836H42.6243C43.9339 17.6836 45 18.7488 45 20.0593V24.9416C45 26.2512 43.9348 27.3173 42.6243 27.3173H41.5134C40.834 27.3173 40.2293 27.7541 40.0104 28.4036C39.7459 29.1876 39.426 29.9619 39.0568 30.7037C38.751 31.3198 38.8687 32.0572 39.3495 32.538L40.1361 33.3246C40.5853 33.7729 40.8322 34.3696 40.8322 35.0042C40.8322 35.6388 40.5853 36.2355 40.1361 36.6838L36.6838 40.1361C36.2355 40.5853 35.6388 40.8322 35.0042 40.8322C34.3696 40.8322 33.7729 40.5853 33.3246 40.1361L32.538 39.3495C32.24 39.0516 31.8437 38.8881 31.42 38.8881C31.1739 38.8881 30.9252 38.9461 30.7028 39.0568C29.9602 39.4251 29.1867 39.7459 28.4027 40.0104C27.7523 40.2293 27.3164 40.8331 27.3164 41.5134V42.6243C27.3164 43.9339 26.2512 45 24.9407 45H20.0584ZM22.5 15.242C20.7624 15.242 18.9853 15.8634 17.3619 17.0385C17.238 17.1281 17.129 17.2371 17.0385 17.3619C15.0583 20.0971 14.6909 23.1706 16.0304 25.795C17.2784 28.2393 19.7569 29.758 22.4991 29.758C24.2367 29.758 26.0139 29.1366 27.6372 27.9606C27.7611 27.871 27.8701 27.762 27.9606 27.6372C29.9408 24.9021 30.3082 21.8285 28.9688 19.2041C27.7207 16.7607 25.2422 15.242 22.5 15.242Z" fill="url(#paint0_linear)"/>
<path d="M44.6036 24.9416V20.0593C44.6036 18.9659 43.7177 18.08 42.6243 18.08H41.5134C40.6608 18.08 39.9076 17.5315 39.6351 16.7238C39.3741 15.9486 39.0621 15.1971 38.7026 14.4738C38.3229 13.7083 38.4653 12.7872 39.07 12.1834L39.8566 11.3968C40.6301 10.6233 40.6301 9.37 39.8566 8.59744L36.4043 5.14509C35.6308 4.37166 34.3775 4.37166 33.605 5.14509L32.8183 5.93171C32.2136 6.5364 31.2934 6.67878 30.5279 6.2991C29.8037 5.93962 29.0522 5.62761 28.2779 5.36658C27.4693 5.09412 26.9218 4.34177 26.9218 3.48835V2.37566C26.9218 1.2823 26.0358 0.396362 24.9425 0.396362H20.0601C18.9668 0.396362 18.0808 1.2823 18.0808 2.37566V3.4866C18.0808 4.34001 17.5324 5.09236 16.7247 5.36482C15.9495 5.62585 15.198 5.93875 14.4747 6.29734C13.7092 6.67703 12.7881 6.53377 12.1843 5.92996L11.3976 5.14334C10.6242 4.3699 9.37087 4.3699 8.59832 5.14334L5.14334 8.59656C4.3699 9.37 4.3699 10.6233 5.14334 11.3959L5.92996 12.1825C6.53464 12.7872 6.67703 13.7074 6.29734 14.4729C5.93787 15.1971 5.62585 15.9486 5.36482 16.7229C5.09236 17.5315 4.34001 18.0791 3.4866 18.0791H2.37566C1.2823 18.0791 0.396362 18.965 0.396362 20.0584V24.9407C0.396362 26.0341 1.2823 26.92 2.37566 26.92H3.4866C4.34001 26.92 5.09236 27.4676 5.36482 28.2761C5.62585 29.0513 5.93875 29.8019 6.29734 30.5261C6.67703 31.2917 6.53376 32.2128 5.92996 32.8166L5.14334 33.6032C4.3699 34.3766 4.3699 35.63 5.14334 36.4025L8.59568 39.8549C9.36912 40.6283 10.6224 40.6283 11.395 39.8549L12.1816 39.0682C12.7863 38.4636 13.7065 38.3212 14.472 38.7009C15.1963 39.0603 15.9477 39.3723 16.722 39.6334C17.5306 39.9058 18.0782 40.6582 18.0782 41.5116V42.6225C18.0782 43.7159 18.9641 44.6018 20.0575 44.6018H24.9398C26.0332 44.6018 26.9191 43.7159 26.9191 42.6225V41.5116C26.9191 40.6591 27.4667 39.9058 28.2753 39.6334C29.0505 39.3723 29.801 39.0603 30.5253 38.7009C31.2908 38.3212 32.2119 38.4636 32.8157 39.0682L33.6023 39.8549C34.3758 40.6283 35.6291 40.6283 36.4016 39.8549L39.854 36.4025C40.6274 35.6291 40.6274 34.3758 39.854 33.6032L39.0674 32.8166C38.4627 32.2119 38.3203 31.2917 38.7 30.5261C39.0594 29.8019 39.3715 29.0505 39.6325 28.2761C39.905 27.4676 40.6573 26.92 41.5107 26.92H42.6217C43.7177 26.9209 44.6036 26.0341 44.6036 24.9416ZM27.8701 28.2814C19.8176 34.113 10.887 25.1815 16.7185 17.1299C16.8328 16.9717 16.9725 16.8328 17.1299 16.7185C25.1824 10.887 34.113 19.8184 28.2814 27.8701C28.1672 28.0283 28.0283 28.1672 27.8701 28.2814Z" fill="url(#paint1_linear)"/>
<path d="M28.2814 27.8701C28.1672 28.0283 28.0274 28.1672 27.8701 28.2814C19.8176 34.113 10.887 25.1815 16.7185 17.1299C16.8328 16.9717 16.9725 16.8328 17.1299 16.7185C25.1824 10.887 34.113 19.8176 28.2814 27.8701Z" fill="url(#paint2_linear)"/>
<path d="M22.5 36.2241C30.0797 36.2241 36.2241 30.0788 36.2241 22.5C36.2241 14.9212 30.0797 8.77588 22.5 8.77588C14.9203 8.77588 8.77588 14.9203 8.77588 22.5C8.77588 30.0797 14.9203 36.2241 22.5 36.2241ZM22.5 13.0236C27.733 13.0236 31.9764 17.267 31.9764 22.5C31.9764 27.733 27.733 31.9764 22.5 31.9764C17.267 31.9764 13.0236 27.733 13.0236 22.5C13.0236 17.267 17.267 13.0236 22.5 13.0236Z" fill="url(#paint3_linear)"/>
<path d="M22.4999 9.42889C15.2815 9.42889 9.42883 15.2815 9.42883 22.5C9.42883 29.7184 15.2815 35.5711 22.4999 35.5711C29.7184 35.5711 35.571 29.7184 35.571 22.5C35.571 15.2815 29.7184 9.42889 22.4999 9.42889ZM22.4999 29.199C18.8006 29.199 15.8009 26.1993 15.8009 22.5C15.8009 18.8007 18.8006 15.801 22.4999 15.801C26.1992 15.801 29.199 18.8007 29.199 22.5C29.199 26.1993 26.1992 29.199 22.4999 29.199Z" fill="url(#paint4_linear)"/>
<path d="M22.5001 14.4562C18.0581 14.4562 14.4563 18.058 14.4563 22.5C14.4563 26.942 18.0581 30.5437 22.5001 30.5437C26.942 30.5437 30.5438 26.942 30.5438 22.5C30.5438 18.058 26.942 14.4562 22.5001 14.4562ZM22.5001 26.6221C20.2237 26.6221 18.378 24.7764 18.378 22.5C18.378 20.2236 20.2237 18.3779 22.5001 18.3779C24.7764 18.3779 26.6221 20.2236 26.6221 22.5C26.6221 24.7764 24.7764 26.6221 22.5001 26.6221Z" fill="url(#paint5_linear)"/>
<path d="M22.5 30.9454C27.1643 30.9454 30.9454 27.1643 30.9454 22.5C30.9454 17.8356 27.1643 14.0546 22.5 14.0546C17.8356 14.0546 14.0546 17.8356 14.0546 22.5C14.0546 27.1643 17.8356 30.9454 22.5 30.9454ZM22.5 16.6684C25.7203 16.6684 28.3315 19.2797 28.3315 22.5C28.3315 25.7203 25.7203 28.3315 22.5 28.3315C19.2797 28.3315 16.6684 25.7203 16.6684 22.5C16.6684 19.2797 19.2797 16.6684 22.5 16.6684Z" fill="url(#paint6_linear)"/>
<defs>
<linearGradient id="paint0_linear" x1="42.0321" y1="2.96771" x2="9.97984" y2="35.0198" gradientUnits="userSpaceOnUse">
<stop stop-color="#5B6A6A"/>
<stop offset="0.311" stop-color="#C2CECE" stop-opacity="0"/>
<stop offset="0.348" stop-color="#CAD5D5" stop-opacity="0.157"/>
<stop offset="0.47" stop-color="#E0E8E7" stop-opacity="0.669"/>
<stop offset="0.549" stop-color="#E8EFEE"/>
<stop offset="0.788" stop-color="#97AAAA"/>
<stop offset="0.861" stop-color="#9CAEAE" stop-opacity="0.724"/>
<stop offset="0.946" stop-color="#AAB9B9" stop-opacity="0.402"/>
<stop offset="1" stop-color="#B7C3C3" stop-opacity="0.196"/>
</linearGradient>
<linearGradient id="paint1_linear" x1="22.4999" y1="15.2399" x2="22.4999" y2="43.8617" gradientUnits="userSpaceOnUse">
<stop stop-color="#C2CECE"/>
<stop offset="1" stop-color="#97AAAA"/>
</linearGradient>
<linearGradient id="paint2_linear" x1="27.2637" y1="27.2638" x2="15.4916" y2="15.4917" gradientUnits="userSpaceOnUse">
<stop stop-color="#363F3E" stop-opacity="0"/>
<stop offset="1" stop-color="#303033"/>
</linearGradient>
<linearGradient id="paint3_linear" x1="29.4254" y1="29.4255" x2="14.6359" y2="14.6359" gradientUnits="userSpaceOnUse">
<stop stop-color="#C2CECE"/>
<stop offset="0.293" stop-color="#BBC8C8"/>
<stop offset="0.72" stop-color="#A8B8B8"/>
<stop offset="1" stop-color="#97AAAA"/>
</linearGradient>
<linearGradient id="paint4_linear" x1="32.4047" y1="12.5952" x2="11.1912" y2="33.8086" gradientUnits="userSpaceOnUse">
<stop stop-color="#00A6F9"/>
<stop offset="1" stop-color="#0071E2"/>
</linearGradient>
<linearGradient id="paint5_linear" x1="22.5001" y1="20.5604" x2="22.5001" y2="29.4238" gradientUnits="userSpaceOnUse">
<stop stop-color="#C2CECE"/>
<stop offset="1" stop-color="#97AAAA"/>
</linearGradient>
<linearGradient id="paint6_linear" x1="26.7619" y1="26.7619" x2="17.6604" y2="17.6604" gradientUnits="userSpaceOnUse">
<stop stop-color="#C2CECE"/>
<stop offset="0.293" stop-color="#BBC8C8"/>
<stop offset="0.72" stop-color="#A8B8B8"/>
<stop offset="1" stop-color="#97AAAA"/>
</linearGradient>
</defs>
</svg>
