<svg width="116" height="22" viewBox="0 0 116 22" fill="none" xmlns="http://www.w3.org/2000/svg">
<g clip-path="url(#clip0)">
<path d="M10.6802 20.5V17.525H11.8991V18.8284C13.5767 18.1888 14.9103 17.2233 15.9483 15.8957C17.131 14.3931 17.7284 12.6491 17.7284 10.706C17.7284 8.84741 17.1431 7.33276 15.9422 6.07155C14.7474 4.82241 13.3112 4.21897 11.5552 4.21897C9.76293 4.21897 8.23621 4.84052 7.02931 6.06552C5.81034 7.30259 5.21897 8.79914 5.21897 10.6517C5.21897 12.3957 5.77414 13.8138 6.90862 14.9905C7.63276 15.7448 8.51379 16.2819 9.52759 16.5957L9.16552 17.7603C7.95259 17.3862 6.89655 16.7405 6.02759 15.8353C4.6819 14.4414 4 12.6974 4 10.6517C4 8.49741 4.73017 6.66293 6.16638 5.20862C7.61466 3.74224 9.43103 3 11.5612 3C13.6371 3 15.4112 3.74828 16.8293 5.23276C18.2353 6.71121 18.9534 8.55776 18.9534 10.7121C18.9534 12.9328 18.2655 14.9302 16.9138 16.65C15.5741 18.3578 13.7457 19.5767 11.4707 20.2647L10.6802 20.5Z" fill="#5B86E5"/>
<path d="M11.4767 9.69828C11.4647 9.69224 11.4586 9.69224 11.4586 9.69224C11.4405 9.67414 11.4164 9.65603 11.3983 9.63793C11.1207 9.40259 10.8129 9.23966 10.4328 9.26379C10.0707 9.2819 9.775 9.49914 9.67845 9.8431C9.55776 10.2534 9.66034 10.6276 9.90172 10.9595C10.0888 11.219 10.306 11.4543 10.5233 11.6836C10.8069 11.9793 11.1267 12.2328 11.4767 12.4681C11.6578 12.3293 11.8388 12.2026 12.0017 12.0578C12.2009 11.8888 12.3879 11.7078 12.575 11.5207C12.7983 11.2974 13.0034 11.056 13.1543 10.7724C13.2991 10.4948 13.3595 10.2052 13.281 9.89741C13.1603 9.40862 12.6716 9.15517 12.1466 9.3C11.8931 9.36638 11.6759 9.51121 11.4767 9.69828Z" fill="#5B86E5"/>
<path d="M11.4767 9.69828C11.6759 9.51121 11.8871 9.36638 12.1526 9.29397C12.6776 9.14914 13.1664 9.40259 13.2871 9.89138C13.3655 10.1991 13.3052 10.4888 13.1603 10.7664C13.0155 11.05 12.8043 11.2914 12.581 11.5147C12.394 11.7017 12.2069 11.8767 12.0078 12.0517C11.8388 12.1966 11.6578 12.3233 11.4828 12.4621C11.1328 12.2267 10.8129 11.9733 10.5293 11.6776C10.306 11.4483 10.0948 11.2069 9.90776 10.9534C9.66638 10.6216 9.56379 10.2474 9.68448 9.83707C9.78707 9.4931 10.0828 9.27586 10.4388 9.25776C10.819 9.23966 11.1267 9.39655 11.4043 9.6319C11.4224 9.65 11.4466 9.6681 11.4647 9.68621C11.4647 9.69224 11.4647 9.69224 11.4767 9.69828Z" fill="#5B86E5"/>
</g>
<path d="M28.402 15.084C27.7953 15.084 27.212 15.0047 26.652 14.846C26.092 14.678 25.6533 14.468 25.336 14.216L25.896 13.152C26.2227 13.3853 26.6193 13.572 27.086 13.712C27.5527 13.852 28.024 13.922 28.5 13.922C29.676 13.922 30.264 13.586 30.264 12.914C30.264 12.69 30.1847 12.5127 30.026 12.382C29.8673 12.2513 29.6667 12.158 29.424 12.102C29.1907 12.0367 28.8547 11.9667 28.416 11.892C27.8187 11.7987 27.3287 11.6913 26.946 11.57C26.5727 11.4487 26.2507 11.2433 25.98 10.954C25.7093 10.6647 25.574 10.2587 25.574 9.736C25.574 9.064 25.854 8.52733 26.414 8.126C26.974 7.71533 27.7253 7.51 28.668 7.51C29.1627 7.51 29.6573 7.57067 30.152 7.692C30.6467 7.81333 31.0527 7.97667 31.37 8.182L30.796 9.246C30.1893 8.854 29.4753 8.658 28.654 8.658C28.0847 8.658 27.6507 8.75133 27.352 8.938C27.0533 9.12467 26.904 9.372 26.904 9.68C26.904 9.92267 26.988 10.114 27.156 10.254C27.324 10.394 27.5293 10.4967 27.772 10.562C28.024 10.6273 28.374 10.702 28.822 10.786C29.4193 10.8887 29.9 11.0007 30.264 11.122C30.6373 11.234 30.9547 11.43 31.216 11.71C31.4773 11.99 31.608 12.382 31.608 12.886C31.608 13.558 31.3187 14.0947 30.74 14.496C30.1707 14.888 29.3913 15.084 28.402 15.084ZM36.4657 15.084C35.7283 15.084 35.0657 14.9207 34.4777 14.594C33.8897 14.2673 33.4277 13.8193 33.0917 13.25C32.765 12.6713 32.6017 12.018 32.6017 11.29C32.6017 10.562 32.765 9.91333 33.0917 9.344C33.4277 8.76533 33.8897 8.31733 34.4777 8C35.0657 7.67333 35.7283 7.51 36.4657 7.51C37.203 7.51 37.861 7.67333 38.4397 8C39.0277 8.31733 39.485 8.76533 39.8117 9.344C40.1477 9.91333 40.3157 10.562 40.3157 11.29C40.3157 12.018 40.1477 12.6713 39.8117 13.25C39.485 13.8193 39.0277 14.2673 38.4397 14.594C37.861 14.9207 37.203 15.084 36.4657 15.084ZM36.4657 13.908C36.9417 13.908 37.3663 13.8007 37.7397 13.586C38.1223 13.362 38.421 13.054 38.6357 12.662C38.8503 12.2607 38.9577 11.8033 38.9577 11.29C38.9577 10.7767 38.8503 10.324 38.6357 9.932C38.421 9.53067 38.1223 9.22267 37.7397 9.008C37.3663 8.79333 36.9417 8.686 36.4657 8.686C35.9897 8.686 35.5603 8.79333 35.1777 9.008C34.8043 9.22267 34.5057 9.53067 34.2817 9.932C34.067 10.324 33.9597 10.7767 33.9597 11.29C33.9597 11.8033 34.067 12.2607 34.2817 12.662C34.5057 13.054 34.8043 13.362 35.1777 13.586C35.5603 13.8007 35.9897 13.908 36.4657 13.908ZM45.4084 15.084C44.6524 15.084 43.9757 14.9207 43.3784 14.594C42.7904 14.2673 42.3284 13.8193 41.9924 13.25C41.6564 12.6713 41.4884 12.018 41.4884 11.29C41.4884 10.562 41.6564 9.91333 41.9924 9.344C42.3284 8.76533 42.7904 8.31733 43.3784 8C43.9757 7.67333 44.6524 7.51 45.4084 7.51C46.0804 7.51 46.6777 7.64533 47.2004 7.916C47.7324 8.18667 48.1431 8.57867 48.4324 9.092L47.4104 9.75C47.1771 9.39533 46.8877 9.12933 46.5424 8.952C46.1971 8.77467 45.8144 8.686 45.3944 8.686C44.9091 8.686 44.4704 8.79333 44.0784 9.008C43.6957 9.22267 43.3924 9.53067 43.1684 9.932C42.9537 10.324 42.8464 10.7767 42.8464 11.29C42.8464 11.8127 42.9537 12.2747 43.1684 12.676C43.3924 13.068 43.6957 13.3713 44.0784 13.586C44.4704 13.8007 44.9091 13.908 45.3944 13.908C45.8144 13.908 46.1971 13.8193 46.5424 13.642C46.8877 13.4647 47.1771 13.1987 47.4104 12.844L48.4324 13.488C48.1431 14.0013 47.7324 14.398 47.2004 14.678C46.6777 14.9487 46.0804 15.084 45.4084 15.084ZM50.1724 7.58H51.5164V15H50.1724V7.58ZM50.8444 6.152C50.5831 6.152 50.3638 6.068 50.1864 5.9C50.0184 5.732 49.9344 5.52667 49.9344 5.284C49.9344 5.04133 50.0184 4.836 50.1864 4.668C50.3638 4.49067 50.5831 4.402 50.8444 4.402C51.1058 4.402 51.3204 4.486 51.4884 4.654C51.6658 4.81267 51.7544 5.01333 51.7544 5.256C51.7544 5.508 51.6658 5.72267 51.4884 5.9C51.3204 6.068 51.1058 6.152 50.8444 6.152ZM56.7846 7.51C57.8113 7.51 58.5953 7.762 59.1366 8.266C59.6873 8.77 59.9626 9.52133 59.9626 10.52V15H58.6886V14.02C58.4646 14.3653 58.1426 14.6313 57.7226 14.818C57.3119 14.9953 56.8219 15.084 56.2526 15.084C55.4219 15.084 54.7546 14.8833 54.2506 14.482C53.7559 14.0807 53.5086 13.5533 53.5086 12.9C53.5086 12.2467 53.7466 11.724 54.2226 11.332C54.6986 10.9307 55.4546 10.73 56.4906 10.73H58.6186V10.464C58.6186 9.88533 58.4506 9.442 58.1146 9.134C57.7786 8.826 57.2839 8.672 56.6306 8.672C56.1919 8.672 55.7626 8.74667 55.3426 8.896C54.9226 9.036 54.5679 9.22733 54.2786 9.47L53.7186 8.462C54.1013 8.154 54.5586 7.92067 55.0906 7.762C55.6226 7.594 56.1873 7.51 56.7846 7.51ZM56.4766 14.048C56.9899 14.048 57.4333 13.936 57.8066 13.712C58.1799 13.4787 58.4506 13.152 58.6186 12.732V11.696H56.5466C55.4079 11.696 54.8386 12.0787 54.8386 12.844C54.8386 13.2173 54.9833 13.5113 55.2726 13.726C55.5619 13.9407 55.9633 14.048 56.4766 14.048ZM62.4498 4.612H63.7938V15H62.4498V4.612ZM77.5879 7.58L74.8159 15H73.5279L71.3859 9.372L69.2159 15H67.9279L65.1699 7.58H66.4439L68.5999 13.488L70.8399 7.58H71.9739L74.1719 13.516L76.3839 7.58H77.5879ZM78.9517 7.58H80.2957V15H78.9517V7.58ZM79.6237 6.152C79.3624 6.152 79.1431 6.068 78.9657 5.9C78.7977 5.732 78.7137 5.52667 78.7137 5.284C78.7137 5.04133 78.7977 4.836 78.9657 4.668C79.1431 4.49067 79.3624 4.402 79.6237 4.402C79.8851 4.402 80.0997 4.486 80.2677 4.654C80.4451 4.81267 80.5337 5.01333 80.5337 5.256C80.5337 5.508 80.4451 5.72267 80.2677 5.9C80.0997 6.068 79.8851 6.152 79.6237 6.152ZM89.8619 4.612V15H88.5739V13.824C88.2752 14.2347 87.8972 14.5473 87.4399 14.762C86.9826 14.9767 86.4786 15.084 85.9279 15.084C85.2092 15.084 84.5652 14.9253 83.9959 14.608C83.4266 14.2907 82.9786 13.8473 82.6519 13.278C82.3346 12.6993 82.1759 12.0367 82.1759 11.29C82.1759 10.5433 82.3346 9.88533 82.6519 9.316C82.9786 8.74667 83.4266 8.30333 83.9959 7.986C84.5652 7.66867 85.2092 7.51 85.9279 7.51C86.4599 7.51 86.9499 7.61267 87.3979 7.818C87.8459 8.014 88.2192 8.308 88.5179 8.7V4.612H89.8619ZM86.0399 13.908C86.5066 13.908 86.9312 13.8007 87.3139 13.586C87.6966 13.362 87.9952 13.054 88.2099 12.662C88.4246 12.2607 88.5319 11.8033 88.5319 11.29C88.5319 10.7767 88.4246 10.324 88.2099 9.932C87.9952 9.53067 87.6966 9.22267 87.3139 9.008C86.9312 8.79333 86.5066 8.686 86.0399 8.686C85.5639 8.686 85.1346 8.79333 84.7519 9.008C84.3786 9.22267 84.0799 9.53067 83.8559 9.932C83.6412 10.324 83.5339 10.7767 83.5339 11.29C83.5339 11.8033 83.6412 12.2607 83.8559 12.662C84.0799 13.054 84.3786 13.362 84.7519 13.586C85.1346 13.8007 85.5639 13.908 86.0399 13.908ZM99.5029 7.58V13.992C99.5029 15.2893 99.1809 16.246 98.5369 16.862C97.8929 17.4873 96.9315 17.8 95.6529 17.8C94.9529 17.8 94.2855 17.702 93.6509 17.506C93.0162 17.3193 92.5029 17.0487 92.1109 16.694L92.7549 15.658C93.1002 15.9567 93.5249 16.19 94.0289 16.358C94.5422 16.5353 95.0695 16.624 95.6109 16.624C96.4789 16.624 97.1182 16.4187 97.5289 16.008C97.9489 15.5973 98.1589 14.972 98.1589 14.132V13.544C97.8415 13.9267 97.4495 14.216 96.9829 14.412C96.5255 14.5987 96.0262 14.692 95.4849 14.692C94.7755 14.692 94.1315 14.5427 93.5529 14.244C92.9835 13.936 92.5355 13.5113 92.2089 12.97C91.8822 12.4193 91.7189 11.794 91.7189 11.094C91.7189 10.394 91.8822 9.77333 92.2089 9.232C92.5355 8.68133 92.9835 8.25667 93.5529 7.958C94.1315 7.65933 94.7755 7.51 95.4849 7.51C96.0449 7.51 96.5629 7.61267 97.0389 7.818C97.5242 8.02333 97.9209 8.32667 98.2289 8.728V7.58H99.5029ZM95.6389 13.516C96.1242 13.516 96.5582 13.4133 96.9409 13.208C97.3329 13.0027 97.6362 12.718 97.8509 12.354C98.0749 11.9807 98.1869 11.5607 98.1869 11.094C98.1869 10.3753 97.9489 9.79667 97.4729 9.358C96.9969 8.91 96.3855 8.686 95.6389 8.686C94.8829 8.686 94.2669 8.91 93.7909 9.358C93.3149 9.79667 93.0769 10.3753 93.0769 11.094C93.0769 11.5607 93.1842 11.9807 93.3989 12.354C93.6229 12.718 93.9262 13.0027 94.3089 13.208C94.7009 13.4133 95.1442 13.516 95.6389 13.516ZM108.777 11.332C108.777 11.4347 108.768 11.57 108.749 11.738H102.729C102.813 12.3913 103.098 12.9187 103.583 13.32C104.078 13.712 104.689 13.908 105.417 13.908C106.304 13.908 107.018 13.6093 107.559 13.012L108.301 13.88C107.965 14.272 107.545 14.5707 107.041 14.776C106.546 14.9813 105.991 15.084 105.375 15.084C104.591 15.084 103.896 14.9253 103.289 14.608C102.682 14.2813 102.211 13.8287 101.875 13.25C101.548 12.6713 101.385 12.018 101.385 11.29C101.385 10.5713 101.544 9.92267 101.861 9.344C102.188 8.76533 102.631 8.31733 103.191 8C103.76 7.67333 104.4 7.51 105.109 7.51C105.818 7.51 106.448 7.67333 106.999 8C107.559 8.31733 107.993 8.76533 108.301 9.344C108.618 9.92267 108.777 10.5853 108.777 11.332ZM105.109 8.644C104.465 8.644 103.924 8.84 103.485 9.232C103.056 9.624 102.804 10.1373 102.729 10.772H107.489C107.414 10.1467 107.158 9.638 106.719 9.246C106.29 8.84467 105.753 8.644 105.109 8.644ZM114.815 14.566C114.619 14.734 114.376 14.8647 114.087 14.958C113.798 15.042 113.499 15.084 113.191 15.084C112.444 15.084 111.866 14.8833 111.455 14.482C111.044 14.0807 110.839 13.5067 110.839 12.76V8.686H109.579V7.58H110.839V5.956H112.183V7.58H114.311V8.686H112.183V12.704C112.183 13.1053 112.281 13.4133 112.477 13.628C112.682 13.8427 112.972 13.95 113.345 13.95C113.756 13.95 114.106 13.8333 114.395 13.6L114.815 14.566Z" fill="#5B86E5"/>
<defs>
<clipPath id="clip0">
<rect width="22" height="22" fill="white"/>
</clipPath>
</defs>
</svg>
