<svg width="30" height="30" viewBox="0 0 30 30" fill="none" xmlns="http://www.w3.org/2000/svg">
<path d="M26.9413 0H3.05873C1.37031 0 0 1.37031 0 3.05873V26.9413C0 28.6297 1.37031 30 3.05873 30H26.9413C28.6297 30 30 28.6297 30 26.9413V3.05873C30 1.37031 28.6297 0 26.9413 0Z" fill="#5B86E5"/>
<path d="M14.3025 26.25V22.5525H15.8175V24.1725C17.9025 23.3775 19.56 22.1775 20.85 20.5275C22.32 18.66 23.0625 16.4925 23.0625 14.0775C23.0625 11.7675 22.335 9.885 20.8425 8.3175C19.3575 6.765 17.5725 6.015 15.39 6.015C13.1625 6.015 11.265 6.7875 9.765 8.31C8.25 9.8475 7.515 11.7075 7.515 14.01C7.515 16.1775 8.205 17.94 9.615 19.4025C10.515 20.34 11.61 21.0075 12.87 21.3975L12.42 22.845C10.9125 22.38 9.6 21.5775 8.52 20.4525C6.8475 18.72 6 16.5525 6 14.01C6 11.3325 6.9075 9.0525 8.6925 7.245C10.4925 5.4225 12.75 4.5 15.3975 4.5C17.9775 4.5 20.1825 5.43 21.945 7.275C23.6925 9.1125 24.585 11.4075 24.585 14.085C24.585 16.845 23.73 19.3275 22.05 21.465C20.385 23.5875 18.1125 25.1025 15.285 25.9575L14.3025 26.25Z" fill="white"/>
<path d="M15.2925 12.825C15.2775 12.8175 15.27 12.8175 15.27 12.8175C15.2475 12.795 15.2175 12.7725 15.195 12.75C14.85 12.4575 14.4675 12.255 13.995 12.285C13.545 12.3075 13.1775 12.5775 13.0575 13.005C12.9075 13.515 13.035 13.98 13.335 14.3925C13.5675 14.715 13.8375 15.0075 14.1075 15.2925C14.46 15.66 14.8575 15.975 15.2925 16.2675C15.5175 16.095 15.7425 15.9375 15.945 15.7575C16.1925 15.5475 16.425 15.3225 16.6575 15.09C16.935 14.8125 17.19 14.5125 17.3775 14.16C17.5575 13.815 17.6325 13.455 17.535 13.0725C17.385 12.465 16.7775 12.15 16.125 12.33C15.81 12.4125 15.54 12.5925 15.2925 12.825Z" fill="white"/>
<path d="M15.2925 12.825C15.54 12.5925 15.8025 12.4125 16.1325 12.3225C16.785 12.1425 17.3925 12.4575 17.5425 13.065C17.64 13.4475 17.565 13.8075 17.385 14.1525C17.205 14.505 16.9425 14.805 16.665 15.0825C16.4325 15.315 16.2 15.5325 15.9525 15.75C15.7425 15.93 15.5175 16.0875 15.3 16.26C14.865 15.9675 14.4675 15.6525 14.115 15.285C13.8375 15 13.575 14.7 13.3425 14.385C13.0425 13.9725 12.915 13.5075 13.065 12.9975C13.1925 12.57 13.56 12.3 14.0025 12.2775C14.475 12.255 14.8575 12.45 15.2025 12.7425C15.225 12.765 15.255 12.7875 15.2775 12.81C15.2775 12.8175 15.2775 12.8175 15.2925 12.825Z" fill="white"/>
</svg>
