<svg width="30" height="30" viewBox="0 0 30 30" fill="none" xmlns="http://www.w3.org/2000/svg">
<path d="M26.9413 0H3.05873C1.37031 0 0 1.37031 0 3.05873V26.9413C0 28.6297 1.37031 30 3.05873 30H26.9413C28.6297 30 30 28.6297 30 26.9413V3.05873C30 1.37031 28.6297 0 26.9413 0Z" fill="#5B86E5"/>
<path d="M23.085 10.65H21.1125C20.4675 10.65 19.9425 10.125 19.9425 9.48V6L15.3675 10.575C15.15 10.7925 14.85 10.92 14.5425 10.92H11.85C10.5225 10.9125 9.435 12 9.435 13.335V14.8425H10.68V13.335C10.68 12.69 11.205 12.165 11.85 12.165H14.5425C15.1875 12.165 15.795 11.91 16.2525 11.46L18.6975 9.015V9.48C18.6975 10.815 19.785 11.895 21.1125 11.895H23.085C23.73 11.895 24.255 12.42 24.255 13.065V16.425C24.255 17.07 23.73 17.595 23.085 17.595H14.0925C13.4475 17.595 12.84 17.85 12.3825 18.3L10.08 20.6025V20.4975C10.08 19.1625 8.9925 18.0825 7.665 18.0825C7.02 18.0825 6.495 17.5575 6.495 16.9125V10.5975C6.495 9.9525 7.02 9.4275 7.665 9.4275H13.335V8.1825H7.665C6.3375 8.1825 5.25 9.27 5.25 10.5975V16.9125C5.25 18.2475 6.3375 19.3275 7.665 19.3275C8.31 19.3275 8.835 19.8525 8.835 20.4975V23.6175L13.2675 19.185C13.485 18.9675 13.785 18.84 14.0925 18.84H23.0775C24.4125 18.84 25.4925 17.7525 25.4925 16.425V13.065C25.5 11.73 24.4125 10.65 23.085 10.65Z" fill="white"/>
<path d="M15.1425 14.8125C15.1425 14.2875 14.715 13.8675 14.1975 13.8675C13.6725 13.8675 13.2525 14.295 13.2525 14.8125C13.2525 15.33 13.68 15.7575 14.1975 15.7575C14.715 15.7575 15.1425 15.33 15.1425 14.8125Z" fill="white"/>
<path d="M18.405 14.8125C18.405 14.2875 17.9775 13.8675 17.46 13.8675C16.935 13.8675 16.515 14.295 16.515 14.8125C16.515 15.33 16.9425 15.7575 17.46 15.7575C17.9775 15.7575 18.405 15.33 18.405 14.8125Z" fill="white"/>
<path d="M20.7225 15.7575C21.2444 15.7575 21.6675 15.3344 21.6675 14.8125C21.6675 14.2906 21.2444 13.8675 20.7225 13.8675C20.2006 13.8675 19.7775 14.2906 19.7775 14.8125C19.7775 15.3344 20.2006 15.7575 20.7225 15.7575Z" fill="white"/>
</svg>
