<svg width="30" height="30" viewBox="0 0 30 30" fill="none" xmlns="http://www.w3.org/2000/svg">
<path d="M26.9413 0H3.05873C1.37031 0 0 1.37031 0 3.05873V26.9413C0 28.6297 1.37031 30 3.05873 30H26.9413C28.6297 30 30 28.6297 30 26.9413V3.05873C30 1.37031 28.6297 0 26.9413 0Z" fill="#5B86E5"/>
<path d="M22.6075 13.5259C21.235 11.0284 19.6375 7.87095 19.285 6.49845C19.18 6.09345 19.1875 5.75595 19.5625 5.44845C19.885 5.17845 20.2825 5.19345 20.5075 5.33595C20.8375 5.55345 20.7625 6.03345 20.6875 6.29595C20.59 6.65595 20.425 6.76095 20.2975 6.81345L20.845 8.19345C21.28 8.02095 21.8575 7.61595 22.12 6.69345C22.4275 5.59095 22.1275 4.61595 21.3175 4.09095C20.515 3.56595 19.405 3.65595 18.6175 4.30095C18.0775 4.74345 17.5075 5.54595 17.845 6.86595C18.3175 8.71095 20.4175 12.6409 21.3025 14.2384C21.31 14.2459 21.31 14.2609 21.3025 14.2684L16.8325 24.7384C16.825 24.7534 16.8025 24.7684 16.78 24.7609L9.00997 21.4459C8.98747 21.4384 8.97997 21.4159 8.98747 21.3934L13.4725 10.8934C13.4725 10.8859 13.48 10.8784 13.495 10.8709L17.8525 9.51345L17.41 8.10345L13.0375 9.46095L13.0225 9.46845C12.61 9.60345 12.28 9.91095 12.1075 10.3084L7.62247 20.8084C7.29247 21.5809 7.65247 22.4734 8.42497 22.8034L16.2025 26.1259C16.3975 26.2084 16.6 26.2459 16.8025 26.2459C16.9975 26.2459 17.185 26.2084 17.3725 26.1334C17.7475 25.9834 18.0475 25.6909 18.205 25.3159L22.675 14.8459C22.855 14.4259 22.8325 13.9384 22.6075 13.5259Z" fill="white"/>
<path d="M16.045 13.0084C15.7975 13.5784 16.0675 14.2384 16.6375 14.4859C17.2075 14.7334 17.8675 14.4634 18.115 13.8934C18.3625 13.3234 18.0925 12.6634 17.5225 12.4159C16.9525 12.1759 16.2925 12.4384 16.045 13.0084Z" fill="white"/>
</svg>
