<svg width="40" height="40" viewBox="0 0 40 40" fill="none" xmlns="http://www.w3.org/2000/svg">
<path d="M35.9217 0H4.0783C1.82708 0 0 1.82708 0 4.0783V35.9217C0 38.1729 1.82708 40 4.0783 40H35.9217C38.1729 40 40 38.1729 40 35.9217V4.0783C40 1.82708 38.1729 0 35.9217 0Z" fill="#5B86E5"/>
<path d="M19.07 35V30.07H21.09V32.23C23.87 31.17 26.08 29.57 27.8 27.37C29.76 24.88 30.75 21.99 30.75 18.77C30.75 15.69 29.78 13.18 27.79 11.09C25.81 9.02 23.43 8.02 20.52 8.02C17.55 8.02 15.02 9.05 13.02 11.08C11 13.13 10.02 15.61 10.02 18.68C10.02 21.57 10.94 23.92 12.82 25.87C14.02 27.12 15.48 28.01 17.16 28.53L16.56 30.46C14.55 29.84 12.8 28.77 11.36 27.27C9.13 24.96 8 22.07 8 18.68C8 15.11 9.21 12.07 11.59 9.66C13.99 7.23 17 6 20.53 6C23.97 6 26.91 7.24 29.26 9.7C31.59 12.15 32.78 15.21 32.78 18.78C32.78 22.46 31.64 25.77 29.4 28.62C27.18 31.45 24.15 33.47 20.38 34.61L19.07 35Z" fill="white"/>
<path d="M20.39 17.1C20.37 17.09 20.36 17.09 20.36 17.09C20.33 17.06 20.29 17.03 20.26 17C19.8 16.61 19.29 16.34 18.66 16.38C18.06 16.41 17.57 16.77 17.41 17.34C17.21 18.02 17.38 18.64 17.78 19.19C18.09 19.62 18.45 20.01 18.81 20.39C19.28 20.88 19.81 21.3 20.39 21.69C20.69 21.46 20.99 21.25 21.26 21.01C21.59 20.73 21.9 20.43 22.21 20.12C22.58 19.75 22.92 19.35 23.17 18.88C23.41 18.42 23.51 17.94 23.38 17.43C23.18 16.62 22.37 16.2 21.5 16.44C21.08 16.55 20.72 16.79 20.39 17.1Z" fill="white"/>
<path d="M20.39 17.1C20.72 16.79 21.07 16.55 21.51 16.43C22.38 16.19 23.19 16.61 23.39 17.42C23.52 17.93 23.42 18.41 23.18 18.87C22.94 19.34 22.59 19.74 22.22 20.11C21.91 20.42 21.6 20.71 21.27 21C20.99 21.24 20.69 21.45 20.4 21.68C19.82 21.29 19.29 20.87 18.82 20.38C18.45 20 18.1 19.6 17.79 19.18C17.39 18.63 17.22 18.01 17.42 17.33C17.59 16.76 18.08 16.4 18.67 16.37C19.3 16.34 19.81 16.6 20.27 16.99C20.3 17.02 20.34 17.05 20.37 17.08C20.37 17.09 20.37 17.09 20.39 17.1Z" fill="white"/>
</svg>
