<svg width="31" height="29" viewBox="0 0 31 29" fill="none" xmlns="http://www.w3.org/2000/svg">
<path d="M13.884 29V24.07H16.308V26.23C19.644 25.17 22.296 23.57 24.36 21.37C26.712 18.88 27.9 15.99 27.9 12.77C27.9 9.69 26.736 7.18 24.348 5.09C21.972 3.02 19.116 2.02 15.624 2.02C12.06 2.02 9.024 3.05 6.624 5.08C4.2 7.13 3.024 9.61 3.024 12.68C3.024 15.57 4.128 17.92 6.384 19.87C7.824 21.12 9.576 22.01 11.592 22.53L10.872 24.46C8.46 23.84 6.36 22.77 4.632 21.27C1.956 18.96 0.6 16.07 0.6 12.68C0.6 9.11 2.052 6.07 4.908 3.66C7.788 1.23 11.4 0 15.636 0C19.764 0 23.292 1.24 26.112 3.7C28.908 6.15 30.336 9.21 30.336 12.78C30.336 16.46 28.968 19.77 26.28 22.62C23.616 25.45 19.98 27.47 15.456 28.61L13.884 29Z" fill="#5B86E5"/>
<path d="M15.468 11.1C15.444 11.09 15.432 11.09 15.432 11.09C15.396 11.06 15.348 11.03 15.312 11C14.76 10.61 14.148 10.34 13.392 10.38C12.672 10.41 12.084 10.77 11.892 11.34C11.652 12.02 11.856 12.64 12.336 13.19C12.708 13.62 13.14 14.01 13.572 14.39C14.136 14.88 14.772 15.3 15.468 15.69C15.828 15.46 16.188 15.25 16.512 15.01C16.908 14.73 17.28 14.43 17.652 14.12C18.096 13.75 18.504 13.35 18.804 12.88C19.092 12.42 19.212 11.94 19.056 11.43C18.816 10.62 17.844 10.2 16.8 10.44C16.296 10.55 15.864 10.79 15.468 11.1Z" fill="#5B86E5"/>
<path d="M15.468 11.1C15.864 10.79 16.284 10.55 16.812 10.43C17.856 10.19 18.828 10.61 19.068 11.42C19.224 11.93 19.104 12.41 18.816 12.87C18.528 13.34 18.108 13.74 17.664 14.11C17.292 14.42 16.92 14.71 16.524 15C16.188 15.24 15.828 15.45 15.48 15.68C14.784 15.29 14.148 14.87 13.584 14.38C13.14 14 12.72 13.6 12.348 13.18C11.868 12.63 11.664 12.01 11.904 11.33C12.108 10.76 12.696 10.4 13.404 10.37C14.16 10.34 14.772 10.6 15.324 10.99C15.36 11.02 15.408 11.05 15.444 11.08C15.444 11.09 15.444 11.09 15.468 11.1Z" fill="#5B86E5"/>
</svg>
