<svg width="20" height="21" viewBox="0 0 20 21" fill="none" xmlns="http://www.w3.org/2000/svg">
<path d="M19.375 4.07373H17.8125C16.6016 4.07373 15.625 5.08936 15.625 6.26123V7.82373H11.4453L7.38281 1.45654C6.99219 0.870605 6.40625 0.47998 5.74219 0.362793C5.07812 0.284668 4.375 0.440918 3.86719 0.831543C1.60156 2.66748 -0.0390625 5.75342 0 8.76123C0 10.7534 0.664062 12.6675 2.34375 14.1909C0.976562 14.5425 0 15.7534 0 17.1987C0 18.9565 1.36719 20.3237 3.125 20.3237C4.84375 20.3237 6.25 18.9565 6.25 17.1987C6.25 16.8862 6.17188 16.5347 6.05469 16.2222C6.91406 16.4565 7.8125 16.5737 8.75 16.5737C9.64844 16.5737 10.5469 16.4565 11.4062 16.2222C11.2891 16.5347 11.25 16.8862 11.25 17.1987C11.25 18.9565 12.6172 20.3237 14.375 20.3237C16.0938 20.3237 17.5 18.9565 17.5 17.1987C17.5 15.7534 16.4844 14.5425 15.1172 14.1909C16.6016 12.8628 17.5 11.0659 17.5 9.07373V6.26123C17.5 6.10498 17.6172 5.94873 17.8125 5.94873H19.375C19.6875 5.94873 20 5.67529 20 5.32373V4.69873C20 4.38623 19.6875 4.07373 19.375 4.07373ZM5.03906 2.31592C5.19531 2.19873 5.35156 2.19873 5.42969 2.23779C5.58594 2.23779 5.70312 2.31592 5.78125 2.43311L9.21875 7.82373H1.91406C2.14844 5.71436 3.28125 3.72217 5.03906 2.31592ZM3.125 18.4487C2.42188 18.4487 1.875 17.9019 1.875 17.1987C1.875 16.5347 2.42188 15.9487 3.125 15.9487C3.78906 15.9487 4.375 16.5347 4.375 17.1987C4.375 17.9019 3.78906 18.4487 3.125 18.4487ZM15.625 17.1987C15.625 17.9019 15.0391 18.4487 14.375 18.4487C13.6719 18.4487 13.125 17.9019 13.125 17.1987C13.125 16.5347 13.6719 15.9487 14.375 15.9487C15.0391 15.9487 15.625 16.5347 15.625 17.1987ZM8.75 14.6987C5.19531 14.6987 2.26562 12.5112 1.91406 9.69873H15.5469C15.1953 12.5112 12.2656 14.6987 8.75 14.6987Z" fill="#828282"/>
</svg>
