<svg width="26" height="21" viewBox="0 0 26 21" fill="none" xmlns="http://www.w3.org/2000/svg">
<path d="M25.4219 5.05029C25.2656 4.69873 24.9922 4.38623 24.6406 4.19092L16.9062 0.32373C16.5156 0.870605 15.7734 2.31592 13 2.31592C10.1484 2.31592 9.40625 0.831543 9.05469 0.32373L1.32031 4.19092C0.96875 4.38623 0.695312 4.69873 0.578125 5.05029C0.421875 5.44092 0.460938 5.87061 0.65625 6.22217L2.72656 10.3628C3.07812 11.144 4.01562 11.4175 4.71875 11.0659L5.65625 10.6362C5.89062 10.519 6.125 10.6753 6.125 10.9097V18.1362C6.125 19.3472 7.10156 20.3237 8.3125 20.3237H17.6875C18.8984 20.3237 19.875 19.3472 19.875 18.1362V10.9097C19.875 10.6753 20.1094 10.519 20.3047 10.6362L21.2422 11.0659C21.9844 11.4565 22.8828 11.144 23.2734 10.4019L25.3438 6.22217C25.5 5.87061 25.5391 5.44092 25.4219 5.05029ZM21.75 9.22998L18.8594 7.86279C18.4688 7.66748 18 7.97998 18 8.44873V18.1362C18 18.3315 17.8438 18.4487 17.6875 18.4487H8.3125C8.11719 18.4487 8 18.3315 8 18.1362V8.44873C8 7.97998 7.49219 7.66748 7.10156 7.86279L4.25 9.22998L2.49219 5.71436L8.54688 2.70654C9.60156 3.64404 11.2031 4.19092 13 4.19092C14.7578 4.19092 16.3594 3.64404 17.4141 2.70654L23.4688 5.71436L21.75 9.22998Z" fill="#828282"/>
</svg>
