<svg width="18" height="19" viewBox="0 0 18 19" fill="none" xmlns="http://www.w3.org/2000/svg">
<path d="M16.8125 1.51123C15.2891 -0.0512695 12.2422 0.456543 9 2.56592C5.71875 0.456543 2.67188 -0.0512695 1.14844 1.51123C-0.414062 3.03467 0.09375 6.08154 2.20312 9.32373C0.09375 12.605 -0.414062 15.6519 1.14844 17.1753C3.53125 19.5581 8.25781 16.5894 9 16.1206C9.70312 16.5894 14.4297 19.5581 16.8125 17.1753C18.375 15.6519 17.8672 12.605 15.7578 9.32373C17.8672 6.08154 18.375 3.03467 16.8125 1.51123ZM15.5234 2.80029C16.1484 3.46436 15.9141 5.33936 14.5859 7.68311C13.0234 5.69092 11.5391 4.44092 10.6406 3.73779C12.2812 2.80029 14.625 1.94092 15.5234 2.80029ZM2.4375 2.80029C3.33594 1.94092 5.67969 2.80029 7.32031 3.73779C5.36719 5.30029 4.07812 6.78467 3.375 7.68311C2.04688 5.33936 1.8125 3.46436 2.4375 2.80029ZM2.4375 15.8472C1.8125 15.1831 2.04688 13.3472 3.375 11.0034C4.97656 12.9956 6.42188 14.2065 7.32031 14.9097C4.97656 16.2769 3.10156 16.5112 2.4375 15.8472ZM8.96094 13.8159C7.20312 12.5269 5.83594 11.1206 4.50781 9.32373C5.25 8.30811 6.65625 6.55029 8.96094 4.83154C11.3047 6.55029 12.7109 8.34717 13.4531 9.32373C12.1641 11.1206 10.7578 12.5269 8.96094 13.8159ZM15.5234 15.8472C14.8594 16.5112 12.9844 16.2769 10.6406 14.9097C11.5391 14.2065 12.9844 12.9956 14.5859 11.0034C15.9141 13.3472 16.1484 15.1831 15.5234 15.8472ZM9 8.07373C8.29688 8.07373 7.71094 8.65967 7.71094 9.32373C7.71094 10.0269 8.29688 10.5737 9 10.5737C9.66406 10.5737 10.25 10.0269 10.25 9.32373C10.25 8.65967 9.66406 8.07373 9 8.07373Z" fill="#828282"/>
</svg>
