<svg width="19" height="19" viewBox="0 0 19 19" fill="none" xmlns="http://www.w3.org/2000/svg">
<g clip-path="url(#clip0)">
<path d="M13.5881 14.3336C12.7897 14.3336 12.1313 14.9779 12.1313 15.7903C12.1313 16.5887 12.7757 17.247 13.5881 17.247C14.3864 17.247 15.0448 16.6027 15.0448 15.7903C15.0308 14.9919 14.3864 14.3336 13.5881 14.3336Z" fill="white"/>
<path d="M17.4709 3.6851C17.4305 3.6851 17.3698 3.66489 17.3092 3.66489H4.57738L4.37529 2.31087C4.25403 1.42167 3.48608 0.754761 2.57667 0.754761H0.939717C0.495114 0.754761 0.131348 1.11853 0.131348 1.56313C0.131348 2.00773 0.495114 2.3715 0.939717 2.3715H2.57667C2.67771 2.3715 2.75855 2.45234 2.77876 2.55338L4.03173 11.0817C4.19341 12.1528 5.12303 12.9611 6.21433 12.9611H14.6214C15.6723 12.9611 16.5817 12.2134 16.804 11.1827L18.1176 4.61473C18.1984 4.19033 17.9155 3.76594 17.4709 3.6851Z" fill="white"/>
<path d="M7.97564 15.7203C7.94763 14.9499 7.30332 14.3336 6.53294 14.3336C5.72055 14.3756 5.10425 15.048 5.13227 15.8464C5.16028 16.6167 5.79059 17.233 6.56096 17.233H6.58897C7.38736 17.191 8.01766 16.5187 7.97564 15.7203Z" fill="white"/>
<path d="M11.9199 6.87907H10.7871V6.44939C10.7871 6.02325 10.9646 5.78532 11.444 5.78532C11.6464 5.78532 11.8169 5.83149 11.9234 5.86345L12.1827 4.86913C12.0158 4.81231 11.65 4.71998 11.2061 4.71998C10.2579 4.71998 9.50155 5.26331 9.50155 6.36416V6.87907H8.69545V7.87339H9.50155V12.3336H10.7871V7.87339H11.9199V6.87907Z" fill="#5B86E5"/>
</g>
<defs>
<clipPath id="clip0">
<rect width="18" height="18" fill="white" transform="translate(0.131348 0.333618)"/>
</clipPath>
</defs>
</svg>
