<svg width="24" height="19" viewBox="0 0 24 19" fill="none" xmlns="http://www.w3.org/2000/svg">
<path d="M8.5625 10.5737H10.75V12.7612C10.75 12.9565 10.8672 13.0737 11.0625 13.0737H12.9375C13.0938 13.0737 13.25 12.9565 13.25 12.7612V10.5737H15.4375C15.5938 10.5737 15.75 10.4565 15.75 10.2612V8.38623C15.75 8.22998 15.5938 8.07373 15.4375 8.07373H13.25V5.88623C13.25 5.72998 13.0938 5.57373 12.9375 5.57373H11.0625C10.8672 5.57373 10.75 5.72998 10.75 5.88623V8.07373H8.5625C8.36719 8.07373 8.25 8.22998 8.25 8.38623V10.2612C8.25 10.4565 8.36719 10.5737 8.5625 10.5737ZM21.375 0.57373H2.625C1.57031 0.57373 0.75 1.43311 0.75 2.44873V16.1987C0.75 17.2534 1.57031 18.0737 2.625 18.0737H21.375C22.3906 18.0737 23.25 17.2534 23.25 16.1987V2.44873C23.25 1.43311 22.3906 0.57373 21.375 0.57373ZM4.5 16.1987H2.85938C2.70312 16.1987 2.625 16.1206 2.625 15.9644V2.68311C2.625 2.56592 2.70312 2.44873 2.85938 2.44873H4.5V16.1987ZM17.625 16.1987H6.375V2.44873H17.625V16.1987ZM21.375 15.9644C21.375 16.1206 21.2578 16.1987 21.1406 16.1987H19.5V2.44873H21.1406C21.2578 2.44873 21.375 2.56592 21.375 2.68311V15.9644Z" fill="#828282"/>
</svg>
