<svg width="24" height="21" viewBox="0 0 24 21" fill="none" xmlns="http://www.w3.org/2000/svg">
<path d="M23.0156 8.76123L20.7109 6.88623V3.13623C20.7109 2.97998 20.5938 2.82373 20.3984 2.82373H19.1484C18.9922 2.86279 18.875 2.97998 18.875 3.13623V5.36279L13.3672 0.831543C13.0547 0.558105 12.4297 0.362793 12 0.362793C11.5312 0.362793 10.9062 0.558105 10.5938 0.831543L0.945312 8.76123C0.828125 8.87842 0.75 9.07373 0.75 9.22998C0.75 9.34717 0.789062 9.54248 0.867188 9.62061L1.29688 10.1284C1.375 10.2456 1.60938 10.3237 1.76562 10.3237C1.88281 10.3237 2.07812 10.2847 2.15625 10.2065L3.25 9.30811V11.5737H3.21094V19.6987C3.21094 20.0503 3.48438 20.3237 3.83594 20.3237H20.125C20.4375 20.3237 20.75 20.0503 20.75 19.6987V9.30811L21.8047 10.2065C21.8828 10.2847 22.0781 10.3628 22.1953 10.3628C22.3516 10.3628 22.5859 10.2456 22.7031 10.1284L23.0938 9.62061C23.1719 9.54248 23.25 9.34717 23.25 9.22998C23.25 9.07373 23.1328 8.87842 23.0156 8.76123ZM18.875 9.07373H18.8359V18.4487H14.5V12.8237C14.5 12.1597 13.9141 11.5737 13.25 11.5737H10.75C10.0469 11.5737 9.5 12.1597 9.5 12.8237V18.4487H5.08594V7.94092H5.125V7.78467L12 2.12061L18.875 7.78467V9.07373Z" fill="#828282"/>
</svg>
