<svg width="20" height="20" viewBox="0 0 20 20" fill="none" xmlns="http://www.w3.org/2000/svg">
<rect width="20" height="20" rx="2" fill="#35B26F"/>
<path d="M5.44531 11.9375H11.0957C11.2461 11.9375 11.375 11.8301 11.375 11.6797V10.8418C11.375 10.6914 11.2461 10.5625 11.0957 10.5625H5.44531C5.29492 10.5625 5.1875 10.6914 5.1875 10.8418V11.6797C5.1875 11.8301 5.29492 11.9375 5.44531 11.9375ZM5.44531 6.4375H11.0957C11.2461 6.4375 11.375 6.33008 11.375 6.17969V5.3418C11.375 5.19141 11.2461 5.0625 11.0957 5.0625H5.44531C5.29492 5.0625 5.1875 5.19141 5.1875 5.3418V6.17969C5.1875 6.33008 5.29492 6.4375 5.44531 6.4375ZM14.4688 7.8125H5.53125C5.33789 7.8125 5.1875 7.98438 5.1875 8.15625V8.84375C5.1875 9.03711 5.33789 9.1875 5.53125 9.1875H14.4688C14.6406 9.1875 14.8125 9.03711 14.8125 8.84375V8.15625C14.8125 7.98438 14.6406 7.8125 14.4688 7.8125ZM14.4688 13.3125H5.53125C5.33789 13.3125 5.1875 13.4844 5.1875 13.6562V14.3438C5.1875 14.5371 5.33789 14.6875 5.53125 14.6875H14.4688C14.6406 14.6875 14.8125 14.5371 14.8125 14.3438V13.6562C14.8125 13.4844 14.6406 13.3125 14.4688 13.3125Z" fill="white"/>
</svg>