<svg width="24" height="21" viewBox="0 0 24 21" fill="none" xmlns="http://www.w3.org/2000/svg">
<path d="M18.875 0.32373H5.125C4.96875 0.32373 4.8125 0.401855 4.73438 0.558105L0.828125 6.30029C0.710938 6.45654 0.710938 6.69092 0.828125 6.84717L11.6094 20.1675C11.8047 20.4019 12.1562 20.4019 12.3516 20.1675L23.1328 6.84717C23.25 6.69092 23.25 6.45654 23.1719 6.30029L19.2656 0.558105C19.1484 0.401855 19.0312 0.32373 18.875 0.32373ZM18.0938 2.19873L20.5938 5.94873H17.8984L15.8672 2.19873H18.0938ZM10.2031 2.19873H13.7578L15.7891 5.94873H8.21094L10.2031 2.19873ZM5.86719 2.19873H8.09375L6.0625 5.94873H3.40625L5.86719 2.19873ZM4.1875 7.82373H6.17969L8.875 14.0737L4.1875 7.82373ZM8.21094 7.82373H15.75L12 17.355L8.21094 7.82373ZM15.125 14.0737L17.7812 7.82373H19.7734L15.125 14.0737Z" fill="#828282"/>
</svg>
