<svg width="156" height="40" viewBox="0 0 156 40" fill="none" xmlns="http://www.w3.org/2000/svg">
<path d="M35.9217 0H4.0783C1.82708 0 0 1.82708 0 4.0783V35.9217C0 38.1729 1.82708 40 4.0783 40H35.9217C38.1729 40 40 38.1729 40 35.9217V4.0783C40 1.82708 38.1729 0 35.9217 0Z" fill="white"/>
<path d="M30.1433 18.0346C28.3133 14.7046 26.1833 10.4946 25.7133 8.66459C25.5733 8.12459 25.5833 7.67459 26.0833 7.26459C26.5133 6.90459 27.0433 6.92459 27.3433 7.11459C27.7833 7.40459 27.6833 8.04459 27.5833 8.39459C27.4533 8.87459 27.2333 9.01459 27.0633 9.08459L27.7933 10.9246C28.3733 10.6946 29.1433 10.1546 29.4933 8.92459C29.9033 7.45459 29.5033 6.15459 28.4233 5.45459C27.3533 4.75459 25.8733 4.87459 24.8233 5.73459C24.1033 6.32459 23.3433 7.39459 23.7933 9.15459C24.4233 11.6146 27.2233 16.8546 28.4033 18.9846C28.4133 18.9946 28.4133 19.0146 28.4033 19.0246L22.4433 32.9846C22.4333 33.0046 22.4033 33.0246 22.3733 33.0146L12.0133 28.5946C11.9833 28.5846 11.9733 28.5546 11.9833 28.5246L17.9633 14.5246C17.9633 14.5146 17.9733 14.5046 17.9933 14.4946L23.8033 12.6846L23.2133 10.8046L17.3833 12.6146L17.3633 12.6246C16.8133 12.8046 16.3733 13.2146 16.1433 13.7446L10.1633 27.7446C9.72329 28.7746 10.2033 29.9646 11.2333 30.4046L21.6033 34.8346C21.8633 34.9446 22.1333 34.9946 22.4033 34.9946C22.6633 34.9946 22.9133 34.9446 23.1633 34.8446C23.6633 34.6446 24.0633 34.2546 24.2733 33.7546L30.2333 19.7946C30.4733 19.2346 30.4433 18.5846 30.1433 18.0346Z" fill="#5B86E5"/>
<path d="M21.3933 17.3446C21.0633 18.1046 21.4233 18.9846 22.1833 19.3146C22.9433 19.6446 23.8233 19.2846 24.1533 18.5246C24.4833 17.7646 24.1233 16.8846 23.3633 16.5546C22.6033 16.2346 21.7233 16.5846 21.3933 17.3446Z" fill="#5B86E5"/>
<path d="M52.86 26.12C51.9933 26.12 51.16 26.0067 50.36 25.78C49.56 25.54 48.9333 25.24 48.48 24.88L49.28 23.36C49.7467 23.6933 50.3133 23.96 50.98 24.16C51.6467 24.36 52.32 24.46 53 24.46C54.68 24.46 55.52 23.98 55.52 23.02C55.52 22.7 55.4067 22.4467 55.18 22.26C54.9533 22.0733 54.6667 21.94 54.32 21.86C53.9867 21.7667 53.5067 21.6667 52.88 21.56C52.0267 21.4267 51.3267 21.2733 50.78 21.1C50.2467 20.9267 49.7867 20.6333 49.4 20.22C49.0133 19.8067 48.82 19.2267 48.82 18.48C48.82 17.52 49.22 16.7533 50.02 16.18C50.82 15.5933 51.8933 15.3 53.24 15.3C53.9467 15.3 54.6533 15.3867 55.36 15.56C56.0667 15.7333 56.6467 15.9667 57.1 16.26L56.28 17.78C55.4133 17.22 54.3933 16.94 53.22 16.94C52.4067 16.94 51.7867 17.0733 51.36 17.34C50.9333 17.6067 50.72 17.96 50.72 18.4C50.72 18.7467 50.84 19.02 51.08 19.22C51.32 19.42 51.6133 19.5667 51.96 19.66C52.32 19.7533 52.82 19.86 53.46 19.98C54.3133 20.1267 55 20.2867 55.52 20.46C56.0533 20.62 56.5067 20.9 56.88 21.3C57.2533 21.7 57.44 22.26 57.44 22.98C57.44 23.94 57.0267 24.7067 56.2 25.28C55.3867 25.84 54.2733 26.12 52.86 26.12ZM64.3795 26.12C63.3262 26.12 62.3795 25.8867 61.5395 25.42C60.6995 24.9533 60.0395 24.3133 59.5595 23.5C59.0929 22.6733 58.8595 21.74 58.8595 20.7C58.8595 19.66 59.0929 18.7333 59.5595 17.92C60.0395 17.0933 60.6995 16.4533 61.5395 16C62.3795 15.5333 63.3262 15.3 64.3795 15.3C65.4329 15.3 66.3729 15.5333 67.1995 16C68.0395 16.4533 68.6929 17.0933 69.1595 17.92C69.6395 18.7333 69.8795 19.66 69.8795 20.7C69.8795 21.74 69.6395 22.6733 69.1595 23.5C68.6929 24.3133 68.0395 24.9533 67.1995 25.42C66.3729 25.8867 65.4329 26.12 64.3795 26.12ZM64.3795 24.44C65.0595 24.44 65.6662 24.2867 66.1995 23.98C66.7462 23.66 67.1729 23.22 67.4795 22.66C67.7862 22.0867 67.9395 21.4333 67.9395 20.7C67.9395 19.9667 67.7862 19.32 67.4795 18.76C67.1729 18.1867 66.7462 17.7467 66.1995 17.44C65.6662 17.1333 65.0595 16.98 64.3795 16.98C63.6995 16.98 63.0862 17.1333 62.5395 17.44C62.0062 17.7467 61.5795 18.1867 61.2595 18.76C60.9529 19.32 60.7995 19.9667 60.7995 20.7C60.7995 21.4333 60.9529 22.0867 61.2595 22.66C61.5795 23.22 62.0062 23.66 62.5395 23.98C63.0862 24.2867 63.6995 24.44 64.3795 24.44ZM77.1548 26.12C76.0748 26.12 75.1082 25.8867 74.2548 25.42C73.4148 24.9533 72.7548 24.3133 72.2748 23.5C71.7948 22.6733 71.5548 21.74 71.5548 20.7C71.5548 19.66 71.7948 18.7333 72.2748 17.92C72.7548 17.0933 73.4148 16.4533 74.2548 16C75.1082 15.5333 76.0748 15.3 77.1548 15.3C78.1148 15.3 78.9682 15.4933 79.7148 15.88C80.4748 16.2667 81.0615 16.8267 81.4748 17.56L80.0148 18.5C79.6815 17.9933 79.2682 17.6133 78.7748 17.36C78.2815 17.1067 77.7348 16.98 77.1348 16.98C76.4415 16.98 75.8148 17.1333 75.2548 17.44C74.7082 17.7467 74.2748 18.1867 73.9548 18.76C73.6482 19.32 73.4948 19.9667 73.4948 20.7C73.4948 21.4467 73.6482 22.1067 73.9548 22.68C74.2748 23.24 74.7082 23.6733 75.2548 23.98C75.8148 24.2867 76.4415 24.44 77.1348 24.44C77.7348 24.44 78.2815 24.3133 78.7748 24.06C79.2682 23.8067 79.6815 23.4267 80.0148 22.92L81.4748 23.84C81.0615 24.5733 80.4748 25.14 79.7148 25.54C78.9682 25.9267 78.1148 26.12 77.1548 26.12ZM83.9606 15.4H85.8806V26H83.9606V15.4ZM84.9206 13.36C84.5473 13.36 84.234 13.24 83.9806 13C83.7406 12.76 83.6206 12.4667 83.6206 12.12C83.6206 11.7733 83.7406 11.48 83.9806 11.24C84.234 10.9867 84.5473 10.86 84.9206 10.86C85.294 10.86 85.6006 10.98 85.8406 11.22C86.094 11.4467 86.2206 11.7333 86.2206 12.08C86.2206 12.44 86.094 12.7467 85.8406 13C85.6006 13.24 85.294 13.36 84.9206 13.36ZM93.4066 15.3C94.8732 15.3 95.9932 15.66 96.7666 16.38C97.5532 17.1 97.9466 18.1733 97.9466 19.6V26H96.1266V24.6C95.8066 25.0933 95.3466 25.4733 94.7466 25.74C94.1599 25.9933 93.4599 26.12 92.6466 26.12C91.4599 26.12 90.5066 25.8333 89.7866 25.26C89.0799 24.6867 88.7266 23.9333 88.7266 23C88.7266 22.0667 89.0666 21.32 89.7466 20.76C90.4266 20.1867 91.5066 19.9 92.9866 19.9H96.0266V19.52C96.0266 18.6933 95.7866 18.06 95.3066 17.62C94.8266 17.18 94.1199 16.96 93.1866 16.96C92.5599 16.96 91.9466 17.0667 91.3466 17.28C90.7466 17.48 90.2399 17.7533 89.8266 18.1L89.0266 16.66C89.5732 16.22 90.2266 15.8867 90.9866 15.66C91.7466 15.42 92.5532 15.3 93.4066 15.3ZM92.9666 24.64C93.6999 24.64 94.3332 24.48 94.8666 24.16C95.3999 23.8267 95.7866 23.36 96.0266 22.76V21.28H93.0666C91.4399 21.28 90.6266 21.8267 90.6266 22.92C90.6266 23.4533 90.8332 23.8733 91.2466 24.18C91.6599 24.4867 92.2332 24.64 92.9666 24.64ZM101.5 11.16H103.42V26H101.5V11.16ZM110.126 26.12C109.259 26.12 108.426 26.0067 107.626 25.78C106.826 25.54 106.199 25.24 105.746 24.88L106.546 23.36C107.012 23.6933 107.579 23.96 108.246 24.16C108.912 24.36 109.586 24.46 110.266 24.46C111.946 24.46 112.786 23.98 112.786 23.02C112.786 22.7 112.672 22.4467 112.446 22.26C112.219 22.0733 111.932 21.94 111.586 21.86C111.252 21.7667 110.772 21.6667 110.146 21.56C109.292 21.4267 108.592 21.2733 108.046 21.1C107.512 20.9267 107.052 20.6333 106.666 20.22C106.279 19.8067 106.086 19.2267 106.086 18.48C106.086 17.52 106.486 16.7533 107.286 16.18C108.086 15.5933 109.159 15.3 110.506 15.3C111.212 15.3 111.919 15.3867 112.626 15.56C113.332 15.7333 113.912 15.9667 114.366 16.26L113.546 17.78C112.679 17.22 111.659 16.94 110.486 16.94C109.672 16.94 109.052 17.0733 108.626 17.34C108.199 17.6067 107.986 17.96 107.986 18.4C107.986 18.7467 108.106 19.02 108.346 19.22C108.586 19.42 108.879 19.5667 109.226 19.66C109.586 19.7533 110.086 19.86 110.726 19.98C111.579 20.1267 112.266 20.2867 112.786 20.46C113.319 20.62 113.772 20.9 114.146 21.3C114.519 21.7 114.706 22.26 114.706 22.98C114.706 23.94 114.292 24.7067 113.466 25.28C112.652 25.84 111.539 26.12 110.126 26.12ZM122.765 15.3C124.112 15.3 125.178 15.6933 125.965 16.48C126.765 17.2533 127.165 18.3933 127.165 19.9V26H125.245V20.12C125.245 19.0933 124.998 18.32 124.505 17.8C124.012 17.28 123.305 17.02 122.385 17.02C121.345 17.02 120.525 17.3267 119.925 17.94C119.325 18.54 119.025 19.4067 119.025 20.54V26H117.105V11.16H119.025V16.9C119.425 16.3933 119.945 16 120.585 15.72C121.238 15.44 121.965 15.3 122.765 15.3ZM135.317 26.12C134.264 26.12 133.317 25.8867 132.477 25.42C131.637 24.9533 130.977 24.3133 130.497 23.5C130.03 22.6733 129.797 21.74 129.797 20.7C129.797 19.66 130.03 18.7333 130.497 17.92C130.977 17.0933 131.637 16.4533 132.477 16C133.317 15.5333 134.264 15.3 135.317 15.3C136.37 15.3 137.31 15.5333 138.137 16C138.977 16.4533 139.63 17.0933 140.097 17.92C140.577 18.7333 140.817 19.66 140.817 20.7C140.817 21.74 140.577 22.6733 140.097 23.5C139.63 24.3133 138.977 24.9533 138.137 25.42C137.31 25.8867 136.37 26.12 135.317 26.12ZM135.317 24.44C135.997 24.44 136.604 24.2867 137.137 23.98C137.684 23.66 138.11 23.22 138.417 22.66C138.724 22.0867 138.877 21.4333 138.877 20.7C138.877 19.9667 138.724 19.32 138.417 18.76C138.11 18.1867 137.684 17.7467 137.137 17.44C136.604 17.1333 135.997 16.98 135.317 16.98C134.637 16.98 134.024 17.1333 133.477 17.44C132.944 17.7467 132.517 18.1867 132.197 18.76C131.89 19.32 131.737 19.9667 131.737 20.7C131.737 21.4333 131.89 22.0867 132.197 22.66C132.517 23.22 132.944 23.66 133.477 23.98C134.024 24.2867 134.637 24.44 135.317 24.44ZM149.092 15.3C150.119 15.3 151.039 15.5267 151.852 15.98C152.666 16.4333 153.299 17.0667 153.752 17.88C154.219 18.6933 154.452 19.6333 154.452 20.7C154.452 21.7667 154.219 22.7133 153.752 23.54C153.299 24.3533 152.666 24.9867 151.852 25.44C151.039 25.8933 150.119 26.12 149.092 26.12C148.332 26.12 147.632 25.9733 146.992 25.68C146.366 25.3867 145.832 24.96 145.392 24.4V29.88H143.472V15.4H145.312V17.08C145.739 16.4933 146.279 16.0533 146.932 15.76C147.586 15.4533 148.306 15.3 149.092 15.3ZM148.932 24.44C149.612 24.44 150.219 24.2867 150.752 23.98C151.299 23.66 151.726 23.22 152.032 22.66C152.352 22.0867 152.512 21.4333 152.512 20.7C152.512 19.9667 152.352 19.32 152.032 18.76C151.726 18.1867 151.299 17.7467 150.752 17.44C150.219 17.1333 149.612 16.98 148.932 16.98C148.266 16.98 147.659 17.14 147.112 17.46C146.579 17.7667 146.152 18.2 145.832 18.76C145.526 19.32 145.372 19.9667 145.372 20.7C145.372 21.4333 145.526 22.0867 145.832 22.66C146.139 23.22 146.566 23.66 147.112 23.98C147.659 24.2867 148.266 24.44 148.932 24.44Z" fill="white"/>
</svg>
