<svg width="156" height="40" viewBox="0 0 156 40" fill="none" xmlns="http://www.w3.org/2000/svg">
<path d="M35.9217 0H4.0783C1.82708 0 0 1.82708 0 4.0783V35.9217C0 38.1729 1.82708 40 4.0783 40H35.9217C38.1729 40 40 38.1729 40 35.9217V4.0783C40 1.82708 38.1729 0 35.9217 0Z" fill="white"/>
<path d="M30.78 14.2H28.15C27.29 14.2 26.59 13.5 26.59 12.64V8L20.49 14.1C20.2 14.39 19.8 14.56 19.39 14.56H15.8C14.03 14.55 12.58 16 12.58 17.78V19.79H14.24V17.78C14.24 16.92 14.94 16.22 15.8 16.22H19.39C20.25 16.22 21.06 15.88 21.67 15.28L24.93 12.02V12.64C24.93 14.42 26.38 15.86 28.15 15.86H30.78C31.64 15.86 32.34 16.56 32.34 17.42V21.9C32.34 22.76 31.64 23.46 30.78 23.46H18.79C17.93 23.46 17.12 23.8 16.51 24.4L13.44 27.47V27.33C13.44 25.55 11.99 24.11 10.22 24.11C9.36 24.11 8.66 23.41 8.66 22.55V14.13C8.66 13.27 9.36 12.57 10.22 12.57H17.78V10.91H10.22C8.45 10.91 7 12.36 7 14.13V22.55C7 24.33 8.45 25.77 10.22 25.77C11.08 25.77 11.78 26.47 11.78 27.33V31.49L17.69 25.58C17.98 25.29 18.38 25.12 18.79 25.12H30.77C32.55 25.12 33.99 23.67 33.99 21.9V17.42C34 15.64 32.55 14.2 30.78 14.2Z" fill="#5B86E5"/>
<path d="M20.19 19.75C20.19 19.05 19.62 18.49 18.93 18.49C18.23 18.49 17.67 19.06 17.67 19.75C17.67 20.44 18.24 21.01 18.93 21.01C19.62 21.01 20.19 20.44 20.19 19.75Z" fill="#5B86E5"/>
<path d="M24.54 19.75C24.54 19.05 23.97 18.49 23.28 18.49C22.58 18.49 22.02 19.06 22.02 19.75C22.02 20.44 22.59 21.01 23.28 21.01C23.97 21.01 24.54 20.44 24.54 19.75Z" fill="#5B86E5"/>
<path d="M27.63 21.01C28.3259 21.01 28.89 20.4459 28.89 19.75C28.89 19.0541 28.3259 18.49 27.63 18.49C26.9341 18.49 26.37 19.0541 26.37 19.75C26.37 20.4459 26.9341 21.01 27.63 21.01Z" fill="#5B86E5"/>
<path d="M52.86 26.12C51.9933 26.12 51.16 26.0067 50.36 25.78C49.56 25.54 48.9333 25.24 48.48 24.88L49.28 23.36C49.7467 23.6933 50.3133 23.96 50.98 24.16C51.6467 24.36 52.32 24.46 53 24.46C54.68 24.46 55.52 23.98 55.52 23.02C55.52 22.7 55.4067 22.4467 55.18 22.26C54.9533 22.0733 54.6667 21.94 54.32 21.86C53.9867 21.7667 53.5067 21.6667 52.88 21.56C52.0267 21.4267 51.3267 21.2733 50.78 21.1C50.2467 20.9267 49.7867 20.6333 49.4 20.22C49.0133 19.8067 48.82 19.2267 48.82 18.48C48.82 17.52 49.22 16.7533 50.02 16.18C50.82 15.5933 51.8933 15.3 53.24 15.3C53.9467 15.3 54.6533 15.3867 55.36 15.56C56.0667 15.7333 56.6467 15.9667 57.1 16.26L56.28 17.78C55.4133 17.22 54.3933 16.94 53.22 16.94C52.4067 16.94 51.7867 17.0733 51.36 17.34C50.9333 17.6067 50.72 17.96 50.72 18.4C50.72 18.7467 50.84 19.02 51.08 19.22C51.32 19.42 51.6133 19.5667 51.96 19.66C52.32 19.7533 52.82 19.86 53.46 19.98C54.3133 20.1267 55 20.2867 55.52 20.46C56.0533 20.62 56.5067 20.9 56.88 21.3C57.2533 21.7 57.44 22.26 57.44 22.98C57.44 23.94 57.0267 24.7067 56.2 25.28C55.3867 25.84 54.2733 26.12 52.86 26.12ZM64.3795 26.12C63.3262 26.12 62.3795 25.8867 61.5395 25.42C60.6995 24.9533 60.0395 24.3133 59.5595 23.5C59.0929 22.6733 58.8595 21.74 58.8595 20.7C58.8595 19.66 59.0929 18.7333 59.5595 17.92C60.0395 17.0933 60.6995 16.4533 61.5395 16C62.3795 15.5333 63.3262 15.3 64.3795 15.3C65.4329 15.3 66.3729 15.5333 67.1995 16C68.0395 16.4533 68.6929 17.0933 69.1595 17.92C69.6395 18.7333 69.8795 19.66 69.8795 20.7C69.8795 21.74 69.6395 22.6733 69.1595 23.5C68.6929 24.3133 68.0395 24.9533 67.1995 25.42C66.3729 25.8867 65.4329 26.12 64.3795 26.12ZM64.3795 24.44C65.0595 24.44 65.6662 24.2867 66.1995 23.98C66.7462 23.66 67.1729 23.22 67.4795 22.66C67.7862 22.0867 67.9395 21.4333 67.9395 20.7C67.9395 19.9667 67.7862 19.32 67.4795 18.76C67.1729 18.1867 66.7462 17.7467 66.1995 17.44C65.6662 17.1333 65.0595 16.98 64.3795 16.98C63.6995 16.98 63.0862 17.1333 62.5395 17.44C62.0062 17.7467 61.5795 18.1867 61.2595 18.76C60.9529 19.32 60.7995 19.9667 60.7995 20.7C60.7995 21.4333 60.9529 22.0867 61.2595 22.66C61.5795 23.22 62.0062 23.66 62.5395 23.98C63.0862 24.2867 63.6995 24.44 64.3795 24.44ZM77.1548 26.12C76.0748 26.12 75.1082 25.8867 74.2548 25.42C73.4148 24.9533 72.7548 24.3133 72.2748 23.5C71.7948 22.6733 71.5548 21.74 71.5548 20.7C71.5548 19.66 71.7948 18.7333 72.2748 17.92C72.7548 17.0933 73.4148 16.4533 74.2548 16C75.1082 15.5333 76.0748 15.3 77.1548 15.3C78.1148 15.3 78.9682 15.4933 79.7148 15.88C80.4748 16.2667 81.0615 16.8267 81.4748 17.56L80.0148 18.5C79.6815 17.9933 79.2682 17.6133 78.7748 17.36C78.2815 17.1067 77.7348 16.98 77.1348 16.98C76.4415 16.98 75.8148 17.1333 75.2548 17.44C74.7082 17.7467 74.2748 18.1867 73.9548 18.76C73.6482 19.32 73.4948 19.9667 73.4948 20.7C73.4948 21.4467 73.6482 22.1067 73.9548 22.68C74.2748 23.24 74.7082 23.6733 75.2548 23.98C75.8148 24.2867 76.4415 24.44 77.1348 24.44C77.7348 24.44 78.2815 24.3133 78.7748 24.06C79.2682 23.8067 79.6815 23.4267 80.0148 22.92L81.4748 23.84C81.0615 24.5733 80.4748 25.14 79.7148 25.54C78.9682 25.9267 78.1148 26.12 77.1548 26.12ZM83.9606 15.4H85.8806V26H83.9606V15.4ZM84.9206 13.36C84.5473 13.36 84.234 13.24 83.9806 13C83.7406 12.76 83.6206 12.4667 83.6206 12.12C83.6206 11.7733 83.7406 11.48 83.9806 11.24C84.234 10.9867 84.5473 10.86 84.9206 10.86C85.294 10.86 85.6006 10.98 85.8406 11.22C86.094 11.4467 86.2206 11.7333 86.2206 12.08C86.2206 12.44 86.094 12.7467 85.8406 13C85.6006 13.24 85.294 13.36 84.9206 13.36ZM93.4066 15.3C94.8732 15.3 95.9932 15.66 96.7666 16.38C97.5532 17.1 97.9466 18.1733 97.9466 19.6V26H96.1266V24.6C95.8066 25.0933 95.3466 25.4733 94.7466 25.74C94.1599 25.9933 93.4599 26.12 92.6466 26.12C91.4599 26.12 90.5066 25.8333 89.7866 25.26C89.0799 24.6867 88.7266 23.9333 88.7266 23C88.7266 22.0667 89.0666 21.32 89.7466 20.76C90.4266 20.1867 91.5066 19.9 92.9866 19.9H96.0266V19.52C96.0266 18.6933 95.7866 18.06 95.3066 17.62C94.8266 17.18 94.1199 16.96 93.1866 16.96C92.5599 16.96 91.9466 17.0667 91.3466 17.28C90.7466 17.48 90.2399 17.7533 89.8266 18.1L89.0266 16.66C89.5732 16.22 90.2266 15.8867 90.9866 15.66C91.7466 15.42 92.5532 15.3 93.4066 15.3ZM92.9666 24.64C93.6999 24.64 94.3332 24.48 94.8666 24.16C95.3999 23.8267 95.7866 23.36 96.0266 22.76V21.28H93.0666C91.4399 21.28 90.6266 21.8267 90.6266 22.92C90.6266 23.4533 90.8332 23.8733 91.2466 24.18C91.6599 24.4867 92.2332 24.64 92.9666 24.64ZM101.5 11.16H103.42V26H101.5V11.16ZM108.926 17.18C109.259 16.5667 109.752 16.1 110.406 15.78C111.059 15.46 111.852 15.3 112.786 15.3V17.16C112.679 17.1467 112.532 17.14 112.346 17.14C111.306 17.14 110.486 17.4533 109.886 18.08C109.299 18.6933 109.006 19.5733 109.006 20.72V26H107.086V15.4H108.926V17.18ZM124.634 20.76C124.634 20.9067 124.621 21.1 124.594 21.34H115.994C116.114 22.2733 116.521 23.0267 117.214 23.6C117.921 24.16 118.794 24.44 119.834 24.44C121.101 24.44 122.121 24.0133 122.894 23.16L123.954 24.4C123.474 24.96 122.874 25.3867 122.154 25.68C121.448 25.9733 120.654 26.12 119.774 26.12C118.654 26.12 117.661 25.8933 116.794 25.44C115.928 24.9733 115.254 24.3267 114.774 23.5C114.308 22.6733 114.074 21.74 114.074 20.7C114.074 19.6733 114.301 18.7467 114.754 17.92C115.221 17.0933 115.854 16.4533 116.654 16C117.468 15.5333 118.381 15.3 119.394 15.3C120.408 15.3 121.308 15.5333 122.094 16C122.894 16.4533 123.514 17.0933 123.954 17.92C124.408 18.7467 124.634 19.6933 124.634 20.76ZM119.394 16.92C118.474 16.92 117.701 17.2 117.074 17.76C116.461 18.32 116.101 19.0533 115.994 19.96H122.794C122.688 19.0667 122.321 18.34 121.694 17.78C121.081 17.2067 120.314 16.92 119.394 16.92ZM132.92 15.3C133.947 15.3 134.867 15.5267 135.68 15.98C136.494 16.4333 137.127 17.0667 137.58 17.88C138.047 18.6933 138.28 19.6333 138.28 20.7C138.28 21.7667 138.047 22.7133 137.58 23.54C137.127 24.3533 136.494 24.9867 135.68 25.44C134.867 25.8933 133.947 26.12 132.92 26.12C132.16 26.12 131.46 25.9733 130.82 25.68C130.194 25.3867 129.66 24.96 129.22 24.4V29.88H127.3V15.4H129.14V17.08C129.567 16.4933 130.107 16.0533 130.76 15.76C131.414 15.4533 132.134 15.3 132.92 15.3ZM132.76 24.44C133.44 24.44 134.047 24.2867 134.58 23.98C135.127 23.66 135.554 23.22 135.86 22.66C136.18 22.0867 136.34 21.4333 136.34 20.7C136.34 19.9667 136.18 19.32 135.86 18.76C135.554 18.1867 135.127 17.7467 134.58 17.44C134.047 17.1333 133.44 16.98 132.76 16.98C132.094 16.98 131.487 17.14 130.94 17.46C130.407 17.7667 129.98 18.2 129.66 18.76C129.354 19.32 129.2 19.9667 129.2 20.7C129.2 21.4333 129.354 22.0867 129.66 22.66C129.967 23.22 130.394 23.66 130.94 23.98C131.487 24.2867 132.094 24.44 132.76 24.44ZM140.933 11.16H142.853V26H140.933V11.16ZM155.899 15.4L150.759 27.06C150.306 28.14 149.773 28.9 149.159 29.34C148.559 29.78 147.833 30 146.979 30C146.459 30 145.953 29.9133 145.459 29.74C144.979 29.58 144.579 29.34 144.259 29.02L145.079 27.58C145.626 28.1 146.259 28.36 146.979 28.36C147.446 28.36 147.833 28.2333 148.139 27.98C148.459 27.74 148.746 27.32 148.999 26.72L149.339 25.98L144.659 15.4H146.659L150.359 23.88L154.019 15.4H155.899Z" fill="white"/>
</svg>
