<svg width="100" height="64" viewBox="0 0 100 64" fill="none" xmlns="http://www.w3.org/2000/svg">
<rect width="100" height="64" rx="2" fill="#EFEFEF"/>
<path d="M60.25 39.5H59.125L52.9844 22.5312C52.7969 21.9688 52.1875 21.5 51.5781 21.5H49.375C48.7656 21.5 48.1562 21.9688 47.9688 22.5312L41.8281 39.5H40.75C40.3281 39.5 40 39.875 40 40.25V41.75C40 42.1719 40.3281 42.5 40.75 42.5H46.75C47.125 42.5 47.5 42.1719 47.5 41.75V40.25C47.5 39.875 47.125 39.5 46.75 39.5H45.8125L46.8906 36.5H54.0625L55.1406 39.5H54.25C53.8281 39.5 53.5 39.875 53.5 40.25V41.75C53.5 42.1719 53.8281 42.5 54.25 42.5H60.25C60.625 42.5 61 42.1719 61 41.75V40.25C61 39.875 60.625 39.5 60.25 39.5ZM48.25 32.75L50.5 26.7031L52.7031 32.75H48.25Z" fill="white"/>
</svg>