<svg width="35" height="36" viewBox="0 0 35 36" fill="none" xmlns="http://www.w3.org/2000/svg">
<path d="M31.25 0.5H3.75C1.64062 0.5 0 2.21875 0 4.25V31.75C0 33.8594 1.64062 35.5 3.75 35.5H14.4531V23.625H9.53125V18H14.4531V13.7812C14.4531 8.9375 17.3438 6.20312 21.7188 6.20312C23.9062 6.20312 26.0938 6.59375 26.0938 6.59375V11.3594H23.6719C21.25 11.3594 20.4688 12.8438 20.4688 14.4062V18H25.8594L25 23.625H20.4688V35.5H31.25C33.2812 35.5 35 33.8594 35 31.75V4.25C35 2.21875 33.2812 0.5 31.25 0.5Z" fill="#4080FF"/>
</svg>