<svg width="16" height="16" viewBox="0 0 16 16" fill="none" xmlns="http://www.w3.org/2000/svg">
<circle cx="8" cy="8" r="8" fill="#F00075"/>
<path d="M7.99935 6.00354C6.87435 6.00354 5.97786 6.9176 5.97786 8.02502C5.97786 9.15002 6.87435 10.0465 7.99935 10.0465C9.10677 10.0465 10.0208 9.15002 10.0208 8.02502C10.0208 6.9176 9.10677 6.00354 7.99935 6.00354ZM7.99935 9.34338C7.27865 9.34338 6.68099 8.76331 6.68099 8.02502C6.68099 7.30432 7.26107 6.72424 7.99935 6.72424C8.72005 6.72424 9.30013 7.30432 9.30013 8.02502C9.30013 8.76331 8.72005 9.34338 7.99935 9.34338ZM10.5658 5.93323C10.5658 5.66956 10.3548 5.45862 10.0911 5.45862C9.82747 5.45862 9.61654 5.66956 9.61654 5.93323C9.61654 6.1969 9.82747 6.40784 10.0911 6.40784C10.3548 6.40784 10.5658 6.1969 10.5658 5.93323ZM11.9017 6.40784C11.8665 5.77502 11.7259 5.21252 11.2689 4.75549C10.8118 4.29846 10.2493 4.15784 9.61654 4.12268C8.96615 4.08752 7.01497 4.08752 6.36458 4.12268C5.73177 4.15784 5.18685 4.29846 4.71224 4.75549C4.25521 5.21252 4.11458 5.77502 4.07943 6.40784C4.04427 7.05823 4.04427 9.0094 4.07943 9.65979C4.11458 10.2926 4.25521 10.8375 4.71224 11.3121C5.18685 11.7692 5.73177 11.9098 6.36458 11.9449C7.01497 11.9801 8.96615 11.9801 9.61654 11.9449C10.2493 11.9098 10.8118 11.7692 11.2689 11.3121C11.7259 10.8375 11.8665 10.2926 11.9017 9.65979C11.9368 9.0094 11.9368 7.05823 11.9017 6.40784ZM11.0579 10.3453C10.9349 10.6969 10.6536 10.9606 10.3197 11.1012C9.79232 11.3121 8.56185 11.2594 7.99935 11.2594C7.41927 11.2594 6.1888 11.3121 5.67904 11.1012C5.32747 10.9606 5.0638 10.6969 4.92318 10.3453C4.71224 9.83557 4.76497 8.6051 4.76497 8.02502C4.76497 7.46252 4.71224 6.23206 4.92318 5.70471C5.0638 5.37073 5.32747 5.10706 5.67904 4.96643C6.1888 4.75549 7.41927 4.80823 7.99935 4.80823C8.56185 4.80823 9.79232 4.75549 10.3197 4.96643C10.6536 5.08948 10.9173 5.37073 11.0579 5.70471C11.2689 6.23206 11.2161 7.46252 11.2161 8.02502C11.2161 8.6051 11.2689 9.83557 11.0579 10.3453Z" fill="white"/>
</svg>