<svg width="20" height="20" viewBox="0 0 20 20" fill="none" xmlns="http://www.w3.org/2000/svg">
<circle cx="10" cy="10" r="9.5" fill="#1DBDF0" stroke="white"/>
<path d="M15.7578 8.0625C16.2266 7.71094 16.6484 7.28906 16.9766 6.79688C16.5547 6.98438 16.0625 7.125 15.5703 7.17188C16.0859 6.86719 16.4609 6.39844 16.6484 5.8125C16.1797 6.09375 15.6406 6.30469 15.1016 6.42188C14.6328 5.92969 14 5.64844 13.2969 5.64844C11.9375 5.64844 10.8359 6.75 10.8359 8.10938C10.8359 8.29688 10.8594 8.48438 10.9062 8.67188C8.86719 8.55469 7.03906 7.57031 5.82031 6.09375C5.60938 6.44531 5.49219 6.86719 5.49219 7.33594C5.49219 8.17969 5.91406 8.92969 6.59375 9.375C6.19531 9.35156 5.79688 9.25781 5.46875 9.07031V9.09375C5.46875 10.2891 6.3125 11.2734 7.4375 11.5078C7.25 11.5547 7.01562 11.6016 6.80469 11.6016C6.64062 11.6016 6.5 11.5781 6.33594 11.5547C6.64062 12.5391 7.55469 13.2422 8.63281 13.2656C7.78906 13.9219 6.73438 14.3203 5.58594 14.3203C5.375 14.3203 5.1875 14.2969 5 14.2734C6.07812 14.9766 7.36719 15.375 8.77344 15.375C13.2969 15.375 15.7578 11.6484 15.7578 8.39062C15.7578 8.27344 15.7578 8.17969 15.7578 8.0625Z" fill="white"/>
</svg>