<svg width="182" height="40" viewBox="0 0 182 40" fill="none" xmlns="http://www.w3.org/2000/svg">
<path d="M35.9217 0H4.0783C1.82708 0 0 1.82708 0 4.0783V35.9217C0 38.1729 1.82708 40 4.0783 40H35.9217C38.1729 40 40 38.1729 40 35.9217V4.0783C40 1.82708 38.1729 0 35.9217 0Z" fill="white"/>
<path d="M32.3534 7.76C31.8734 7.42 31.2234 7.46 30.8034 7.84L17.3534 19.4C17.3034 19.44 17.2334 19.45 17.1734 19.42L9.84336 16.34L29.1934 8.51L28.5834 7L8.99336 14.92C8.43336 15.13 8.04336 15.64 8.00336 16.24C7.96336 16.85 8.28336 17.42 8.82336 17.69L16.4534 20.9C17.1034 21.22 17.9034 21.1 18.4234 20.63L30.7034 10.08L22.7734 29.7L19.4334 22.28C19.2434 21.87 18.8634 21.58 18.4234 21.5C17.9834 21.42 17.5334 21.55 17.2134 21.85L11.4434 26.95L12.5234 28.18L18.0834 23.27L21.4234 30.68L21.4434 30.72C21.7034 31.23 22.2134 31.54 22.7834 31.54C22.8034 31.54 22.8334 31.54 22.8534 31.54C23.4534 31.51 23.9634 31.15 24.1834 30.6L32.8034 9.27C33.0234 8.72 32.8434 8.1 32.3534 7.76Z" fill="#5B86E5"/>
<path d="M16.5076 25.316L10.3342 30.7734L11.4204 32.0021L17.5938 26.5447L16.5076 25.316Z" fill="#5B86E5"/>
<path d="M14.942 20.9984L12.5592 23.1042L13.6452 24.333L16.028 22.2272L14.942 20.9984Z" fill="#5B86E5"/>
<path d="M52.86 26.12C51.9933 26.12 51.16 26.0067 50.36 25.78C49.56 25.54 48.9333 25.24 48.48 24.88L49.28 23.36C49.7467 23.6933 50.3133 23.96 50.98 24.16C51.6467 24.36 52.32 24.46 53 24.46C54.68 24.46 55.52 23.98 55.52 23.02C55.52 22.7 55.4067 22.4467 55.18 22.26C54.9533 22.0733 54.6667 21.94 54.32 21.86C53.9867 21.7667 53.5067 21.6667 52.88 21.56C52.0267 21.4267 51.3267 21.2733 50.78 21.1C50.2467 20.9267 49.7867 20.6333 49.4 20.22C49.0133 19.8067 48.82 19.2267 48.82 18.48C48.82 17.52 49.22 16.7533 50.02 16.18C50.82 15.5933 51.8933 15.3 53.24 15.3C53.9467 15.3 54.6533 15.3867 55.36 15.56C56.0667 15.7333 56.6467 15.9667 57.1 16.26L56.28 17.78C55.4133 17.22 54.3933 16.94 53.22 16.94C52.4067 16.94 51.7867 17.0733 51.36 17.34C50.9333 17.6067 50.72 17.96 50.72 18.4C50.72 18.7467 50.84 19.02 51.08 19.22C51.32 19.42 51.6133 19.5667 51.96 19.66C52.32 19.7533 52.82 19.86 53.46 19.98C54.3133 20.1267 55 20.2867 55.52 20.46C56.0533 20.62 56.5067 20.9 56.88 21.3C57.2533 21.7 57.44 22.26 57.44 22.98C57.44 23.94 57.0267 24.7067 56.2 25.28C55.3867 25.84 54.2733 26.12 52.86 26.12ZM64.3795 26.12C63.3262 26.12 62.3795 25.8867 61.5395 25.42C60.6995 24.9533 60.0395 24.3133 59.5595 23.5C59.0929 22.6733 58.8595 21.74 58.8595 20.7C58.8595 19.66 59.0929 18.7333 59.5595 17.92C60.0395 17.0933 60.6995 16.4533 61.5395 16C62.3795 15.5333 63.3262 15.3 64.3795 15.3C65.4329 15.3 66.3729 15.5333 67.1995 16C68.0395 16.4533 68.6929 17.0933 69.1595 17.92C69.6395 18.7333 69.8795 19.66 69.8795 20.7C69.8795 21.74 69.6395 22.6733 69.1595 23.5C68.6929 24.3133 68.0395 24.9533 67.1995 25.42C66.3729 25.8867 65.4329 26.12 64.3795 26.12ZM64.3795 24.44C65.0595 24.44 65.6662 24.2867 66.1995 23.98C66.7462 23.66 67.1729 23.22 67.4795 22.66C67.7862 22.0867 67.9395 21.4333 67.9395 20.7C67.9395 19.9667 67.7862 19.32 67.4795 18.76C67.1729 18.1867 66.7462 17.7467 66.1995 17.44C65.6662 17.1333 65.0595 16.98 64.3795 16.98C63.6995 16.98 63.0862 17.1333 62.5395 17.44C62.0062 17.7467 61.5795 18.1867 61.2595 18.76C60.9529 19.32 60.7995 19.9667 60.7995 20.7C60.7995 21.4333 60.9529 22.0867 61.2595 22.66C61.5795 23.22 62.0062 23.66 62.5395 23.98C63.0862 24.2867 63.6995 24.44 64.3795 24.44ZM77.1548 26.12C76.0748 26.12 75.1082 25.8867 74.2548 25.42C73.4148 24.9533 72.7548 24.3133 72.2748 23.5C71.7948 22.6733 71.5548 21.74 71.5548 20.7C71.5548 19.66 71.7948 18.7333 72.2748 17.92C72.7548 17.0933 73.4148 16.4533 74.2548 16C75.1082 15.5333 76.0748 15.3 77.1548 15.3C78.1148 15.3 78.9682 15.4933 79.7148 15.88C80.4748 16.2667 81.0615 16.8267 81.4748 17.56L80.0148 18.5C79.6815 17.9933 79.2682 17.6133 78.7748 17.36C78.2815 17.1067 77.7348 16.98 77.1348 16.98C76.4415 16.98 75.8148 17.1333 75.2548 17.44C74.7082 17.7467 74.2748 18.1867 73.9548 18.76C73.6482 19.32 73.4948 19.9667 73.4948 20.7C73.4948 21.4467 73.6482 22.1067 73.9548 22.68C74.2748 23.24 74.7082 23.6733 75.2548 23.98C75.8148 24.2867 76.4415 24.44 77.1348 24.44C77.7348 24.44 78.2815 24.3133 78.7748 24.06C79.2682 23.8067 79.6815 23.4267 80.0148 22.92L81.4748 23.84C81.0615 24.5733 80.4748 25.14 79.7148 25.54C78.9682 25.9267 78.1148 26.12 77.1548 26.12ZM83.9606 15.4H85.8806V26H83.9606V15.4ZM84.9206 13.36C84.5473 13.36 84.234 13.24 83.9806 13C83.7406 12.76 83.6206 12.4667 83.6206 12.12C83.6206 11.7733 83.7406 11.48 83.9806 11.24C84.234 10.9867 84.5473 10.86 84.9206 10.86C85.294 10.86 85.6006 10.98 85.8406 11.22C86.094 11.4467 86.2206 11.7333 86.2206 12.08C86.2206 12.44 86.094 12.7467 85.8406 13C85.6006 13.24 85.294 13.36 84.9206 13.36ZM93.4066 15.3C94.8732 15.3 95.9932 15.66 96.7666 16.38C97.5532 17.1 97.9466 18.1733 97.9466 19.6V26H96.1266V24.6C95.8066 25.0933 95.3466 25.4733 94.7466 25.74C94.1599 25.9933 93.4599 26.12 92.6466 26.12C91.4599 26.12 90.5066 25.8333 89.7866 25.26C89.0799 24.6867 88.7266 23.9333 88.7266 23C88.7266 22.0667 89.0666 21.32 89.7466 20.76C90.4266 20.1867 91.5066 19.9 92.9866 19.9H96.0266V19.52C96.0266 18.6933 95.7866 18.06 95.3066 17.62C94.8266 17.18 94.1199 16.96 93.1866 16.96C92.5599 16.96 91.9466 17.0667 91.3466 17.28C90.7466 17.48 90.2399 17.7533 89.8266 18.1L89.0266 16.66C89.5732 16.22 90.2266 15.8867 90.9866 15.66C91.7466 15.42 92.5532 15.3 93.4066 15.3ZM92.9666 24.64C93.6999 24.64 94.3332 24.48 94.8666 24.16C95.3999 23.8267 95.7866 23.36 96.0266 22.76V21.28H93.0666C91.4399 21.28 90.6266 21.8267 90.6266 22.92C90.6266 23.4533 90.8332 23.8733 91.2466 24.18C91.6599 24.4867 92.2332 24.64 92.9666 24.64ZM101.5 11.16H103.42V26H101.5V11.16ZM112.706 15.3C113.732 15.3 114.652 15.5267 115.466 15.98C116.279 16.4333 116.912 17.0667 117.366 17.88C117.832 18.6933 118.066 19.6333 118.066 20.7C118.066 21.7667 117.832 22.7133 117.366 23.54C116.912 24.3533 116.279 24.9867 115.466 25.44C114.652 25.8933 113.732 26.12 112.706 26.12C111.946 26.12 111.246 25.9733 110.606 25.68C109.979 25.3867 109.446 24.96 109.006 24.4V29.88H107.086V15.4H108.926V17.08C109.352 16.4933 109.892 16.0533 110.546 15.76C111.199 15.4533 111.919 15.3 112.706 15.3ZM112.546 24.44C113.226 24.44 113.832 24.2867 114.366 23.98C114.912 23.66 115.339 23.22 115.646 22.66C115.966 22.0867 116.126 21.4333 116.126 20.7C116.126 19.9667 115.966 19.32 115.646 18.76C115.339 18.1867 114.912 17.7467 114.366 17.44C113.832 17.1333 113.226 16.98 112.546 16.98C111.879 16.98 111.272 17.14 110.726 17.46C110.192 17.7667 109.766 18.2 109.446 18.76C109.139 19.32 108.986 19.9667 108.986 20.7C108.986 21.4333 109.139 22.0867 109.446 22.66C109.752 23.22 110.179 23.66 110.726 23.98C111.272 24.2867 111.879 24.44 112.546 24.44ZM130.598 15.4V26H128.778V24.4C128.392 24.9467 127.878 25.3733 127.238 25.68C126.612 25.9733 125.925 26.12 125.178 26.12C123.765 26.12 122.652 25.7333 121.838 24.96C121.025 24.1733 120.618 23.02 120.618 21.5V15.4H122.538V21.28C122.538 22.3067 122.785 23.0867 123.278 23.62C123.772 24.14 124.478 24.4 125.398 24.4C126.412 24.4 127.212 24.0933 127.798 23.48C128.385 22.8667 128.678 22 128.678 20.88V15.4H130.598ZM139.874 15.3C140.9 15.3 141.82 15.5267 142.634 15.98C143.447 16.4333 144.08 17.0667 144.534 17.88C145 18.6933 145.234 19.6333 145.234 20.7C145.234 21.7667 145 22.7133 144.534 23.54C144.08 24.3533 143.447 24.9867 142.634 25.44C141.82 25.8933 140.9 26.12 139.874 26.12C139.087 26.12 138.367 25.9667 137.714 25.66C137.06 25.3533 136.52 24.9067 136.094 24.32V26H134.254V11.16H136.174V17C136.6 16.44 137.134 16.02 137.774 15.74C138.414 15.4467 139.114 15.3 139.874 15.3ZM139.714 24.44C140.394 24.44 141 24.2867 141.534 23.98C142.08 23.66 142.507 23.22 142.814 22.66C143.134 22.0867 143.294 21.4333 143.294 20.7C143.294 19.9667 143.134 19.32 142.814 18.76C142.507 18.1867 142.08 17.7467 141.534 17.44C141 17.1333 140.394 16.98 139.714 16.98C139.047 16.98 138.44 17.1333 137.894 17.44C137.347 17.7467 136.92 18.1867 136.614 18.76C136.307 19.32 136.154 19.9667 136.154 20.7C136.154 21.4333 136.307 22.0867 136.614 22.66C136.92 23.22 137.347 23.66 137.894 23.98C138.44 24.2867 139.047 24.44 139.714 24.44ZM147.886 11.16H149.806V26H147.886V11.16ZM153.472 15.4H155.392V26H153.472V15.4ZM154.432 13.36C154.059 13.36 153.746 13.24 153.492 13C153.252 12.76 153.132 12.4667 153.132 12.12C153.132 11.7733 153.252 11.48 153.492 11.24C153.746 10.9867 154.059 10.86 154.432 10.86C154.806 10.86 155.112 10.98 155.352 11.22C155.606 11.4467 155.732 11.7333 155.732 12.08C155.732 12.44 155.606 12.7467 155.352 13C155.112 13.24 154.806 13.36 154.432 13.36ZM162.098 26.12C161.232 26.12 160.398 26.0067 159.598 25.78C158.798 25.54 158.172 25.24 157.718 24.88L158.518 23.36C158.985 23.6933 159.552 23.96 160.218 24.16C160.885 24.36 161.558 24.46 162.238 24.46C163.918 24.46 164.758 23.98 164.758 23.02C164.758 22.7 164.645 22.4467 164.418 22.26C164.192 22.0733 163.905 21.94 163.558 21.86C163.225 21.7667 162.745 21.6667 162.118 21.56C161.265 21.4267 160.565 21.2733 160.018 21.1C159.485 20.9267 159.025 20.6333 158.638 20.22C158.252 19.8067 158.058 19.2267 158.058 18.48C158.058 17.52 158.458 16.7533 159.258 16.18C160.058 15.5933 161.132 15.3 162.478 15.3C163.185 15.3 163.892 15.3867 164.598 15.56C165.305 15.7333 165.885 15.9667 166.338 16.26L165.518 17.78C164.652 17.22 163.632 16.94 162.458 16.94C161.645 16.94 161.025 17.0733 160.598 17.34C160.172 17.6067 159.958 17.96 159.958 18.4C159.958 18.7467 160.078 19.02 160.318 19.22C160.558 19.42 160.852 19.5667 161.198 19.66C161.558 19.7533 162.058 19.86 162.698 19.98C163.552 20.1267 164.238 20.2867 164.758 20.46C165.292 20.62 165.745 20.9 166.118 21.3C166.492 21.7 166.678 22.26 166.678 22.98C166.678 23.94 166.265 24.7067 165.438 25.28C164.625 25.84 163.512 26.12 162.098 26.12ZM174.738 15.3C176.084 15.3 177.151 15.6933 177.938 16.48C178.738 17.2533 179.138 18.3933 179.138 19.9V26H177.218V20.12C177.218 19.0933 176.971 18.32 176.478 17.8C175.984 17.28 175.278 17.02 174.358 17.02C173.318 17.02 172.498 17.3267 171.898 17.94C171.298 18.54 170.998 19.4067 170.998 20.54V26H169.078V11.16H170.998V16.9C171.398 16.3933 171.918 16 172.558 15.72C173.211 15.44 173.938 15.3 174.738 15.3Z" fill="white"/>
</svg>
