<svg width="37" height="37" viewBox="0 0 37 37" fill="none" xmlns="http://www.w3.org/2000/svg">
<rect x="0.833496" y="0.990234" width="36" height="36" rx="4" fill="#34313F"/>
<g clip-path="url(#clip0)">
<path d="M19.4792 20.6535H22.5086C23.3702 20.6535 23.9153 20.1798 23.9153 19.4185C23.9153 18.7007 23.3702 18.1836 22.5086 18.1836H19.4792C19.3788 18.1836 19.293 18.2695 19.293 18.3563V20.4808C19.3065 20.5811 19.3779 20.6535 19.4792 20.6535ZM19.4792 25.5489H22.609C23.5709 25.5489 24.1449 25.0607 24.1449 24.1991C24.1449 23.4523 23.5998 22.8493 22.609 22.8493H19.4792C19.3788 22.8493 19.293 22.9352 19.293 23.022V25.3626C19.3065 25.4775 19.3779 25.5489 19.4792 25.5489Z" fill="white"/>
<path d="M30.5626 7.04301L21.6035 15.9732H23.0681C25.3508 15.9732 26.7005 17.4088 26.7005 18.9737C26.7005 20.2086 25.8679 21.1126 24.9774 21.515C24.8337 21.5728 24.8337 21.7735 24.9919 21.8304C26.0252 22.2328 26.7575 23.3095 26.7575 24.5724C26.7575 26.3524 25.5659 27.7736 23.2543 27.7736H16.9088C16.8085 27.7736 16.7226 27.6877 16.7226 27.6009V20.8386L6.88748 30.6313C6.75819 30.7606 6.84406 30.9902 7.03123 30.9902H30.6774C30.7633 30.9902 30.8357 30.9188 30.8357 30.832V7.17229C30.8781 7.01407 30.6774 6.9282 30.5626 7.04301Z" fill="white"/>
</g>
<defs>
<clipPath id="clip0">
<rect width="24.0158" height="24" fill="white" transform="translate(6.82568 6.99023)"/>
</clipPath>
</defs>
</svg>
