<svg width="37" height="37" viewBox="0 0 37 37" fill="none" xmlns="http://www.w3.org/2000/svg">
<rect x="0.400879" y="0.990234" width="36" height="36" rx="4" fill="#95BF47"/>
<path d="M25.6974 12.2927C25.6974 12.1596 25.6087 12.1152 25.4756 12.1152C25.3869 12.1152 23.8345 12.0709 23.8345 12.0709C23.8345 12.0709 22.903 11.1394 22.5482 10.7846V29.9902L28.0925 28.5709C28.0925 28.5709 25.6974 12.3814 25.6974 12.2927ZM21.2619 10.7846C21.2175 10.5628 21.0401 10.208 20.9514 9.9862C20.5079 9.09911 19.7982 8.6112 18.9998 8.6112C18.9554 8.6112 18.9554 8.6112 18.9554 8.6112C18.9111 8.6112 18.8224 8.65556 18.8224 8.65556C18.778 8.6112 18.7337 8.6112 18.7337 8.56685C18.3788 8.16765 17.9353 7.99023 17.3587 7.99023C16.2942 8.03459 15.2296 8.78862 14.3869 10.1636C13.7659 11.1394 13.3224 12.337 13.1893 13.2685C11.9474 13.6677 11.1046 13.9338 11.1046 13.9338C10.4837 14.1556 10.4393 14.1556 10.395 14.7322C10.3506 15.1757 8.70947 27.6838 8.70947 27.6838L22.1046 29.9902V10.5628C22.0603 10.5628 21.9716 10.5628 21.9272 10.6072C21.8829 10.6072 21.6611 10.6515 21.2619 10.7846ZM18.8224 11.5386C18.1127 11.7604 17.3143 12.0265 16.5603 12.2483C16.7821 11.4056 17.1812 10.5628 17.7135 10.0306C17.8909 9.80878 18.1571 9.58701 18.4675 9.45394C18.778 10.0749 18.8224 10.962 18.8224 11.5386ZM17.3587 8.74427H17.403C17.5804 8.74427 17.8466 8.83298 18.024 8.87733C17.7135 9.05475 17.4474 9.27652 17.1812 9.54265C16.4716 10.2523 15.9837 11.4056 15.7619 12.4701C15.1409 12.6918 14.4756 12.8693 13.899 13.0467C14.2982 11.3612 15.7175 8.78862 17.3587 8.74427ZM15.3183 18.5023C15.3627 19.6556 18.3788 19.8773 18.5562 22.583C18.6893 24.6677 17.4474 26.1314 15.6288 26.2201C13.4554 26.3531 12.3022 25.1112 12.3022 25.1112L12.7458 23.1596C12.7458 23.1596 13.9433 24.0467 14.8748 23.958C15.4958 23.958 15.7619 23.4257 15.7175 23.0709C15.6288 21.5628 13.1893 21.6515 13.0119 19.212C12.8788 17.1717 14.2538 15.087 17.2256 14.8652C18.3788 14.8209 18.9554 15.087 18.9554 15.087L18.2901 17.6596C18.2901 17.6596 17.5361 17.3048 16.6046 17.3491C15.3183 17.4378 15.274 18.2806 15.3183 18.5023ZM19.5321 11.3168C19.5321 10.7846 19.4433 10.0306 19.2216 9.40959C20.02 9.54265 20.4192 10.4741 20.5966 11.0064C20.2861 11.0951 19.9312 11.2281 19.5321 11.3168Z" fill="white"/>
</svg>
