<svg width="32" height="32" viewBox="0 0 32 32" fill="none" xmlns="http://www.w3.org/2000/svg">
<rect width="32" height="32" rx="4" fill="#1DBDF0"/>
<path d="M23.125 16.1875C23.125 15.6875 23.0625 15.3125 23 14.9062H15.625V17.5625H20C19.8438 18.7188 18.6875 20.9062 15.625 20.9062C12.9688 20.9062 10.8125 18.7188 10.8125 16C10.8125 11.6562 15.9375 9.65625 18.6875 12.3125L20.8125 10.2812C19.4688 9.03125 17.6875 8.25 15.625 8.25C11.3125 8.25 7.875 11.7188 7.875 16C7.875 20.3125 11.3125 23.75 15.625 23.75C20.0938 23.75 23.125 20.625 23.125 16.1875Z" fill="white"/>
</svg>
