<svg width="21" height="21" viewBox="0 0 21 21" fill="none" xmlns="http://www.w3.org/2000/svg">
<circle cx="10.0073" cy="10.6816" r="9.5" fill="white" stroke="white"/>
<g clip-path="url(#clip0)">
<path d="M13.8674 15.2457C12.8268 16.1246 11.4768 16.6824 10.0072 16.6824C7.82051 16.6824 5.90095 15.4777 4.86035 13.7199L5.24993 11.9241L6.97676 11.6035C7.37754 12.8972 8.58689 13.8465 10.0072 13.8465C10.6963 13.8465 11.3361 13.6285 11.8635 13.2418L13.5229 13.4949L13.8674 15.2457Z" fill="#59C36A"/>
<path d="M13.8675 15.2441L13.5229 13.4934L11.8636 13.2402C11.3362 13.627 10.6964 13.8449 10.0073 13.8449V16.6809C11.4769 16.6809 12.8269 16.123 13.8675 15.2441Z" fill="#00A66C"/>
<path d="M6.84326 10.682C6.84326 11.0054 6.89248 11.3148 6.97686 11.6031L4.86045 13.7195C4.33311 12.8336 4.00732 11.7929 4.00732 10.682C4.00732 9.57107 4.33311 8.53047 4.86045 7.64453L6.55904 7.93687L6.97686 9.76094C6.89248 10.0492 6.84326 10.3586 6.84326 10.682Z" fill="#FFDA2D"/>
<path d="M16.0073 10.6816C16.0073 12.5097 15.1613 14.148 13.8675 15.2449L11.8636 13.241C12.2714 12.9457 12.6159 12.5519 12.8409 12.0879H10.0073C9.81043 12.0879 9.65576 11.9332 9.65576 11.7363V9.62695C9.65576 9.43005 9.81043 9.27539 10.0073 9.27539H15.5573C15.7261 9.27539 15.8737 9.3949 15.9019 9.56365C15.9722 9.9293 16.0073 10.309 16.0073 10.6816Z" fill="#4086F4"/>
<path d="M12.8409 12.0879C12.6159 12.5519 12.2714 12.9457 11.8636 13.241L13.8675 15.2449C15.1613 14.148 16.0073 12.5098 16.0073 10.6816C16.0073 10.309 15.9722 9.9293 15.9018 9.56365C15.8737 9.3949 15.7261 9.27539 15.5573 9.27539H10.0073V12.0879H12.8409Z" fill="#4175DF"/>
<path d="M13.9658 6.3574C13.9729 6.45584 13.9307 6.54727 13.8674 6.61755L12.3627 8.11521C12.2432 8.24177 12.0463 8.25584 11.9057 8.15037C11.3502 7.73555 10.6963 7.51758 10.0072 7.51758C8.58689 7.51758 7.37754 8.46677 6.97676 9.76055L4.86035 7.64414C5.90095 5.88633 7.82051 4.68164 10.0072 4.68164C11.4064 4.68164 12.7705 5.19727 13.8393 6.09724C13.9166 6.16055 13.9588 6.25896 13.9658 6.3574Z" fill="#FF641A"/>
<path d="M11.9058 8.15037C12.0464 8.25586 12.2432 8.24177 12.3628 8.11521L13.8675 6.61755C13.9308 6.54727 13.973 6.45586 13.9659 6.3574C13.9589 6.25894 13.9167 6.16055 13.8393 6.09724C12.7706 5.19727 11.4065 4.68164 10.0073 4.68164V7.51758C10.6964 7.51758 11.3503 7.73555 11.9058 8.15037Z" fill="#F03800"/>
</g>
<defs>
<clipPath id="clip0">
<rect width="12" height="12" fill="white" transform="translate(4.00732 4.68164)"/>
</clipPath>
</defs>
</svg>
