<svg width="37" height="37" viewBox="0 0 37 37" fill="none" xmlns="http://www.w3.org/2000/svg">
<rect x="0.472168" y="0.990234" width="36" height="36" rx="4" fill="#9B5C8F"/>
<g clip-path="url(#clip0)">
<path d="M27.8472 12.6152C28.4201 12.6152 28.8888 13.0934 28.8888 13.6777V22.1777C28.8888 22.7621 28.4201 23.2402 27.8472 23.2402H23.1909H20.5659L20.8159 24.3452L17.6597 23.3359L17.3576 23.2402H17.0347H9.09717C8.52425 23.2402 8.0555 22.7621 8.0555 22.1777V13.6777C8.0555 13.0934 8.52425 12.6152 9.09717 12.6152H27.8472ZM27.8472 10.4902H9.09717C7.37842 10.4902 5.97217 11.9246 5.97217 13.6777V22.1777C5.97217 23.9309 7.37842 25.3652 9.09717 25.3652H17.0451L23.6805 27.4902L23.1909 25.3652H27.8472C29.5659 25.3652 30.9722 23.9309 30.9722 22.1777V13.6777C30.9722 11.9246 29.5659 10.4902 27.8472 10.4902Z" fill="white"/>
<path d="M15.6075 22.1778C15.3679 22.1778 15.1492 22.0715 14.9929 21.8697C14.2221 20.8603 13.6283 19.3303 13.2325 18.0447L11.7742 21.6784C11.6492 21.9972 11.3367 22.1884 11.0033 22.1778C10.67 22.1565 10.3888 21.9334 10.295 21.604C10.2533 21.4447 9.23251 17.7578 9.09709 14.5065C9.07626 14.0709 9.42001 13.699 9.84709 13.6778C10.2638 13.6459 10.6388 13.9965 10.6596 14.4428C10.7221 15.9197 10.9825 17.524 11.2429 18.799L12.67 15.2397C12.8054 14.9103 13.1179 14.7084 13.4721 14.7403C13.8158 14.7722 14.0971 15.0272 14.1596 15.3778C14.17 15.399 14.4513 16.844 14.9721 18.3422C15.1492 16.6953 15.4721 15.2822 15.92 14.1665C16.0867 13.7628 16.545 13.5715 16.9408 13.7415C17.3367 13.9115 17.5242 14.379 17.3575 14.7828C16.7429 16.334 16.3888 18.6715 16.3888 21.3809C16.3888 21.7209 16.1804 22.0184 15.8575 22.1353C15.7742 22.1672 15.6908 22.1778 15.6075 22.1778ZM19.7638 21.1153C19.6492 21.1153 19.5346 21.1047 19.4096 21.0834C18.92 20.9878 18.4929 20.6797 18.1804 20.2122C17.7221 19.5109 17.5763 18.4909 17.7742 17.4709C18.0971 15.8665 19.1596 14.7403 20.295 14.7403C20.4096 14.7403 20.5346 14.7509 20.6596 14.7722C21.1492 14.8678 21.5763 15.1759 21.8888 15.6434C22.3471 16.3447 22.4929 17.3647 22.295 18.3847C21.9721 19.989 20.8992 21.1153 19.7638 21.1153ZM20.3158 16.334C20.045 16.334 19.5033 16.844 19.3158 17.779C19.17 18.5015 19.3263 19.054 19.4929 19.3197C19.545 19.394 19.6283 19.5003 19.7221 19.5215C19.9929 19.5747 20.5658 19.0647 20.7638 18.0765C20.9096 17.354 20.7533 16.8015 20.5867 16.5359C20.5346 16.4615 20.4513 16.3553 20.3575 16.334C20.3367 16.334 20.3263 16.334 20.3158 16.334ZM25.2325 21.1153C25.1179 21.1153 25.0033 21.1047 24.8888 21.0834C24.3992 20.9878 23.9721 20.6797 23.6596 20.2122C23.2013 19.5109 23.0554 18.4909 23.2533 17.4709C23.5658 15.8665 24.6283 14.7403 25.7638 14.7403C25.8783 14.7403 26.0033 14.7509 26.1283 14.7722C26.6179 14.8678 27.045 15.1759 27.3575 15.6434C27.8158 16.3447 27.9617 17.3647 27.7638 18.3847C27.4408 19.989 26.3679 21.1153 25.2325 21.1153ZM25.7846 16.334C25.5138 16.334 24.9721 16.844 24.7846 17.779C24.6388 18.5015 24.7846 19.054 24.9617 19.3197C25.0138 19.394 25.0971 19.5003 25.1908 19.5215C25.4513 19.5747 26.0346 19.0647 26.2325 18.0765C26.3783 17.354 26.2325 16.8015 26.0554 16.5359C26.0033 16.4615 25.92 16.3553 25.8263 16.334C25.8054 16.334 25.795 16.334 25.7846 16.334Z" fill="white"/>
</g>
<defs>
<clipPath id="clip0">
<rect width="25" height="17" fill="white" transform="translate(5.97217 10.4902)"/>
</clipPath>
</defs>
</svg>
