<svg width="152" height="33" viewBox="0 0 152 33" fill="none" xmlns="http://www.w3.org/2000/svg">
<rect x="0.300293" y="0.558594" width="32" height="32" rx="4" fill="#5B86E5"/>
<path d="M24.4149 15.0761C22.9509 12.4121 21.2469 9.04411 20.8709 7.58011C20.7589 7.14811 20.7669 6.78811 21.1669 6.46011C21.5109 6.17211 21.9349 6.18811 22.1749 6.34011C22.5269 6.57211 22.4469 7.08411 22.3669 7.36411C22.2629 7.74811 22.0869 7.86011 21.9509 7.91611L22.5349 9.38811C22.9989 9.20411 23.6149 8.77211 23.8949 7.78811C24.2229 6.61211 23.9029 5.57211 23.0389 5.01211C22.1829 4.45211 20.9989 4.54811 20.1589 5.23611C19.5829 5.70811 18.9749 6.56411 19.3349 7.97211C19.8389 9.94011 22.0789 14.1321 23.0229 15.8361C23.0309 15.8441 23.0309 15.8601 23.0229 15.8681L18.2549 27.0361C18.2469 27.0521 18.2229 27.0681 18.1989 27.0601L9.91093 23.5241C9.88692 23.5161 9.87892 23.4921 9.88692 23.4681L14.6709 12.2681C14.6709 12.2601 14.6789 12.2521 14.6949 12.2441L19.3429 10.7961L18.8709 9.29211L14.2069 10.7401L14.1909 10.7481C13.7509 10.8921 13.3989 11.2201 13.2149 11.6441L8.43093 22.8441C8.07893 23.6681 8.46293 24.6201 9.28692 24.9721L17.5829 28.5161C17.7909 28.6041 18.0069 28.6441 18.2229 28.6441C18.4309 28.6441 18.6309 28.6041 18.8309 28.5241C19.2309 28.3641 19.5509 28.0521 19.7189 27.6521L24.4869 16.4841C24.6789 16.0361 24.6549 15.5161 24.4149 15.0761Z" fill="white"/>
<path d="M17.4149 14.5241C17.1509 15.1321 17.4389 15.8361 18.0469 16.1001C18.6549 16.3641 19.3589 16.0761 19.6229 15.4681C19.8869 14.8601 19.5989 14.1561 18.9909 13.8921C18.3829 13.6361 17.6789 13.9161 17.4149 14.5241Z" fill="white"/>
<path d="M46.1603 23.6786C45.2936 23.6786 44.4603 23.5653 43.6603 23.3386C42.8603 23.0986 42.2336 22.7986 41.7803 22.4386L42.5803 20.9186C43.047 21.2519 43.6136 21.5186 44.2803 21.7186C44.947 21.9186 45.6203 22.0186 46.3003 22.0186C47.9803 22.0186 48.8203 21.5386 48.8203 20.5786C48.8203 20.2586 48.707 20.0053 48.4803 19.8186C48.2536 19.6319 47.967 19.4986 47.6203 19.4186C47.287 19.3253 46.807 19.2253 46.1803 19.1186C45.327 18.9853 44.627 18.8319 44.0803 18.6586C43.547 18.4853 43.087 18.1919 42.7003 17.7786C42.3136 17.3653 42.1203 16.7853 42.1203 16.0386C42.1203 15.0786 42.5203 14.3119 43.3203 13.7386C44.1203 13.1519 45.1936 12.8586 46.5403 12.8586C47.247 12.8586 47.9536 12.9453 48.6603 13.1186C49.367 13.2919 49.947 13.5253 50.4003 13.8186L49.5803 15.3386C48.7136 14.7786 47.6936 14.4986 46.5203 14.4986C45.707 14.4986 45.087 14.6319 44.6603 14.8986C44.2336 15.1653 44.0203 15.5186 44.0203 15.9586C44.0203 16.3053 44.1403 16.5786 44.3803 16.7786C44.6203 16.9786 44.9136 17.1253 45.2603 17.2186C45.6203 17.3119 46.1203 17.4186 46.7603 17.5386C47.6136 17.6853 48.3003 17.8453 48.8203 18.0186C49.3536 18.1786 49.807 18.4586 50.1803 18.8586C50.5536 19.2586 50.7403 19.8186 50.7403 20.5386C50.7403 21.4986 50.327 22.2653 49.5003 22.8386C48.687 23.3986 47.5736 23.6786 46.1603 23.6786ZM57.6798 23.6786C56.6265 23.6786 55.6798 23.4453 54.8398 22.9786C53.9998 22.5119 53.3398 21.8719 52.8598 21.0586C52.3932 20.2319 52.1598 19.2986 52.1598 18.2586C52.1598 17.2186 52.3932 16.2919 52.8598 15.4786C53.3398 14.6519 53.9998 14.0119 54.8398 13.5586C55.6798 13.0919 56.6265 12.8586 57.6798 12.8586C58.7332 12.8586 59.6732 13.0919 60.4998 13.5586C61.3398 14.0119 61.9932 14.6519 62.4598 15.4786C62.9398 16.2919 63.1798 17.2186 63.1798 18.2586C63.1798 19.2986 62.9398 20.2319 62.4598 21.0586C61.9932 21.8719 61.3398 22.5119 60.4998 22.9786C59.6732 23.4453 58.7332 23.6786 57.6798 23.6786ZM57.6798 21.9986C58.3598 21.9986 58.9665 21.8453 59.4998 21.5386C60.0465 21.2186 60.4732 20.7786 60.7798 20.2186C61.0865 19.6453 61.2398 18.9919 61.2398 18.2586C61.2398 17.5253 61.0865 16.8786 60.7798 16.3186C60.4732 15.7453 60.0465 15.3053 59.4998 14.9986C58.9665 14.6919 58.3598 14.5386 57.6798 14.5386C56.9998 14.5386 56.3865 14.6919 55.8398 14.9986C55.3065 15.3053 54.8798 15.7453 54.5598 16.3186C54.2532 16.8786 54.0998 17.5253 54.0998 18.2586C54.0998 18.9919 54.2532 19.6453 54.5598 20.2186C54.8798 20.7786 55.3065 21.2186 55.8398 21.5386C56.3865 21.8453 56.9998 21.9986 57.6798 21.9986ZM70.4551 23.6786C69.3751 23.6786 68.4085 23.4453 67.5551 22.9786C66.7151 22.5119 66.0551 21.8719 65.5751 21.0586C65.0951 20.2319 64.8551 19.2986 64.8551 18.2586C64.8551 17.2186 65.0951 16.2919 65.5751 15.4786C66.0551 14.6519 66.7151 14.0119 67.5551 13.5586C68.4085 13.0919 69.3751 12.8586 70.4551 12.8586C71.4151 12.8586 72.2685 13.0519 73.0151 13.4386C73.7751 13.8253 74.3618 14.3853 74.7751 15.1186L73.3151 16.0586C72.9818 15.5519 72.5685 15.1719 72.0751 14.9186C71.5818 14.6653 71.0351 14.5386 70.4351 14.5386C69.7418 14.5386 69.1151 14.6919 68.5551 14.9986C68.0085 15.3053 67.5751 15.7453 67.2551 16.3186C66.9485 16.8786 66.7951 17.5253 66.7951 18.2586C66.7951 19.0053 66.9485 19.6653 67.2551 20.2386C67.5751 20.7986 68.0085 21.2319 68.5551 21.5386C69.1151 21.8453 69.7418 21.9986 70.4351 21.9986C71.0351 21.9986 71.5818 21.8719 72.0751 21.6186C72.5685 21.3653 72.9818 20.9853 73.3151 20.4786L74.7751 21.3986C74.3618 22.1319 73.7751 22.6986 73.0151 23.0986C72.2685 23.4853 71.4151 23.6786 70.4551 23.6786ZM77.2609 12.9586H79.1809V23.5586H77.2609V12.9586ZM78.2209 10.9186C77.8476 10.9186 77.5343 10.7986 77.2809 10.5586C77.0409 10.3186 76.9209 10.0253 76.9209 9.67859C76.9209 9.33193 77.0409 9.03859 77.2809 8.79859C77.5343 8.54526 77.8476 8.41859 78.2209 8.41859C78.5943 8.41859 78.9009 8.53859 79.1409 8.77859C79.3943 9.00526 79.5209 9.29193 79.5209 9.63859C79.5209 9.99859 79.3943 10.3053 79.1409 10.5586C78.9009 10.7986 78.5943 10.9186 78.2209 10.9186ZM86.7069 12.8586C88.1735 12.8586 89.2935 13.2186 90.0669 13.9386C90.8535 14.6586 91.2469 15.7319 91.2469 17.1586V23.5586H89.4269V22.1586C89.1069 22.6519 88.6469 23.0319 88.0469 23.2986C87.4602 23.5519 86.7602 23.6786 85.9469 23.6786C84.7602 23.6786 83.8069 23.3919 83.0869 22.8186C82.3802 22.2453 82.0269 21.4919 82.0269 20.5586C82.0269 19.6253 82.3669 18.8786 83.0469 18.3186C83.7269 17.7453 84.8069 17.4586 86.2869 17.4586H89.3269V17.0786C89.3269 16.2519 89.0869 15.6186 88.6069 15.1786C88.1269 14.7386 87.4202 14.5186 86.4869 14.5186C85.8602 14.5186 85.2469 14.6253 84.6469 14.8386C84.0469 15.0386 83.5402 15.3119 83.1269 15.6586L82.3269 14.2186C82.8735 13.7786 83.5269 13.4453 84.2869 13.2186C85.0469 12.9786 85.8535 12.8586 86.7069 12.8586ZM86.2669 22.1986C87.0002 22.1986 87.6335 22.0386 88.1669 21.7186C88.7002 21.3853 89.0869 20.9186 89.3269 20.3186V18.8386H86.3669C84.7402 18.8386 83.9269 19.3853 83.9269 20.4786C83.9269 21.0119 84.1335 21.4319 84.5469 21.7386C84.9602 22.0453 85.5335 22.1986 86.2669 22.1986ZM94.8 8.71859H96.72V23.5586H94.8V8.71859ZM103.426 23.6786C102.559 23.6786 101.726 23.5653 100.926 23.3386C100.126 23.0986 99.4993 22.7986 99.0459 22.4386L99.8459 20.9186C100.313 21.2519 100.879 21.5186 101.546 21.7186C102.213 21.9186 102.886 22.0186 103.566 22.0186C105.246 22.0186 106.086 21.5386 106.086 20.5786C106.086 20.2586 105.973 20.0053 105.746 19.8186C105.519 19.6319 105.233 19.4986 104.886 19.4186C104.553 19.3253 104.073 19.2253 103.446 19.1186C102.593 18.9853 101.893 18.8319 101.346 18.6586C100.813 18.4853 100.353 18.1919 99.9659 17.7786C99.5793 17.3653 99.3859 16.7853 99.3859 16.0386C99.3859 15.0786 99.7859 14.3119 100.586 13.7386C101.386 13.1519 102.459 12.8586 103.806 12.8586C104.513 12.8586 105.219 12.9453 105.926 13.1186C106.633 13.2919 107.213 13.5253 107.666 13.8186L106.846 15.3386C105.979 14.7786 104.959 14.4986 103.786 14.4986C102.973 14.4986 102.353 14.6319 101.926 14.8986C101.499 15.1653 101.286 15.5186 101.286 15.9586C101.286 16.3053 101.406 16.5786 101.646 16.7786C101.886 16.9786 102.179 17.1253 102.526 17.2186C102.886 17.3119 103.386 17.4186 104.026 17.5386C104.879 17.6853 105.566 17.8453 106.086 18.0186C106.619 18.1786 107.073 18.4586 107.446 18.8586C107.819 19.2586 108.006 19.8186 108.006 20.5386C108.006 21.4986 107.593 22.2653 106.766 22.8386C105.953 23.3986 104.839 23.6786 103.426 23.6786ZM116.065 12.8586C117.412 12.8586 118.479 13.2519 119.265 14.0386C120.065 14.8119 120.465 15.9519 120.465 17.4586V23.5586H118.545V17.6786C118.545 16.6519 118.299 15.8786 117.805 15.3586C117.312 14.8386 116.605 14.5786 115.685 14.5786C114.645 14.5786 113.825 14.8853 113.225 15.4986C112.625 16.0986 112.325 16.9653 112.325 18.0986V23.5586H110.405V8.71859H112.325V14.4586C112.725 13.9519 113.245 13.5586 113.885 13.2786C114.539 12.9986 115.265 12.8586 116.065 12.8586ZM128.617 23.6786C127.564 23.6786 126.617 23.4453 125.777 22.9786C124.937 22.5119 124.277 21.8719 123.797 21.0586C123.331 20.2319 123.097 19.2986 123.097 18.2586C123.097 17.2186 123.331 16.2919 123.797 15.4786C124.277 14.6519 124.937 14.0119 125.777 13.5586C126.617 13.0919 127.564 12.8586 128.617 12.8586C129.671 12.8586 130.611 13.0919 131.437 13.5586C132.277 14.0119 132.931 14.6519 133.397 15.4786C133.877 16.2919 134.117 17.2186 134.117 18.2586C134.117 19.2986 133.877 20.2319 133.397 21.0586C132.931 21.8719 132.277 22.5119 131.437 22.9786C130.611 23.4453 129.671 23.6786 128.617 23.6786ZM128.617 21.9986C129.297 21.9986 129.904 21.8453 130.437 21.5386C130.984 21.2186 131.411 20.7786 131.717 20.2186C132.024 19.6453 132.177 18.9919 132.177 18.2586C132.177 17.5253 132.024 16.8786 131.717 16.3186C131.411 15.7453 130.984 15.3053 130.437 14.9986C129.904 14.6919 129.297 14.5386 128.617 14.5386C127.937 14.5386 127.324 14.6919 126.777 14.9986C126.244 15.3053 125.817 15.7453 125.497 16.3186C125.191 16.8786 125.037 17.5253 125.037 18.2586C125.037 18.9919 125.191 19.6453 125.497 20.2186C125.817 20.7786 126.244 21.2186 126.777 21.5386C127.324 21.8453 127.937 21.9986 128.617 21.9986ZM142.393 12.8586C143.419 12.8586 144.339 13.0853 145.153 13.5386C145.966 13.9919 146.599 14.6253 147.053 15.4386C147.519 16.2519 147.753 17.1919 147.753 18.2586C147.753 19.3253 147.519 20.2719 147.053 21.0986C146.599 21.9119 145.966 22.5453 145.153 22.9986C144.339 23.4519 143.419 23.6786 142.393 23.6786C141.633 23.6786 140.933 23.5319 140.293 23.2386C139.666 22.9453 139.133 22.5186 138.693 21.9586V27.4386H136.773V12.9586H138.613V14.6386C139.039 14.0519 139.579 13.6119 140.233 13.3186C140.886 13.0119 141.606 12.8586 142.393 12.8586ZM142.233 21.9986C142.913 21.9986 143.519 21.8453 144.053 21.5386C144.599 21.2186 145.026 20.7786 145.333 20.2186C145.653 19.6453 145.813 18.9919 145.813 18.2586C145.813 17.5253 145.653 16.8786 145.333 16.3186C145.026 15.7453 144.599 15.3053 144.053 14.9986C143.519 14.6919 142.913 14.5386 142.233 14.5386C141.566 14.5386 140.959 14.6986 140.413 15.0186C139.879 15.3253 139.453 15.7586 139.133 16.3186C138.826 16.8786 138.673 17.5253 138.673 18.2586C138.673 18.9919 138.826 19.6453 139.133 20.2186C139.439 20.7786 139.866 21.2186 140.413 21.5386C140.959 21.8453 141.566 21.9986 142.233 21.9986Z" fill="#5B86E5"/>
</svg>
