<svg width="45" height="45" viewBox="0 0 45 45" fill="none" xmlns="http://www.w3.org/2000/svg">
<path d="M15.4407 20.2866C14.921 19.7419 14.0234 19.6965 13.4565 20.1958C12.8895 20.6951 12.8423 21.5575 13.362 22.1022L20.4959 29.5461C20.7794 29.8184 21.1101 30 21.488 30C21.488 30 21.488 30 21.5353 30C21.9132 30 22.2912 29.8638 22.5274 29.5915L40.5748 12.298C41.1417 11.7534 41.1417 10.891 40.5748 10.3917C40.0079 9.89238 39.1102 9.84699 38.5905 10.3917L21.5825 26.6866L15.4407 20.2866Z" fill="#50B861"/>
<path d="M39.6055 22.1055C38.8153 22.1055 38.2111 22.7098 38.2111 23.5C38.2111 32.1457 31.1457 39.2111 22.5 39.2111C13.8543 39.2111 6.78894 32.1457 6.78894 23.5C6.78894 14.8543 13.8543 7.78894 22.5 7.78894C23.2902 7.78894 23.8945 7.18467 23.8945 6.39447C23.8945 5.60427 23.2902 5 22.5 5C12.3204 5 4 13.3204 4 23.5C4 33.6796 12.3204 42 22.5 42C32.6796 42 41 33.6796 41 23.5C41 22.7098 40.3957 22.1055 39.6055 22.1055Z" fill="#50B861"/>
</svg>
