<svg width="21" height="21" viewBox="0 0 21 21" fill="none" xmlns="http://www.w3.org/2000/svg">
<circle cx="10.4683" cy="10.1484" r="9.5" fill="white" stroke="white"/>
<g clip-path="url(#clip0)">
<path d="M10.4678 20.1484C4.95601 20.1484 0.467773 15.6602 0.467773 10.1484C0.467773 4.63667 4.95601 0.148438 10.4678 0.148438C15.9795 0.148438 20.4678 4.63667 20.4678 10.1484C20.4678 15.6602 15.9795 20.1484 10.4678 20.1484ZM10.4678 1.32491C5.60307 1.32491 1.64424 5.28373 1.64424 10.1484C1.64424 15.0131 5.60307 18.972 10.4678 18.972C15.3325 18.972 19.2913 15.0131 19.2913 10.1484C19.2913 5.28373 15.3325 1.32491 10.4678 1.32491Z" fill="#667882"/>
<path d="M9.45601 6.72491V7.65432C9.45601 7.71314 9.41483 7.75432 9.35601 7.75432H5.34424V9.64844H8.65601C8.71483 9.64844 8.75601 9.68961 8.75601 9.74844V10.6778C8.75601 10.7367 8.71483 10.7778 8.65601 10.7778H5.34424V13.5778C5.34424 13.6367 5.30307 13.6778 5.24424 13.6778H4.23248C4.17366 13.6778 4.13248 13.6367 4.13248 13.5778V6.72491C4.13248 6.66609 4.17366 6.62491 4.23248 6.62491H9.35013C9.41483 6.62491 9.45601 6.6602 9.45601 6.72491Z" fill="#667882"/>
<path d="M15.5619 11.6367C15.5619 10.9837 15.1266 10.6837 14.1678 10.6837H11.7795V12.5778H14.1678C15.1442 12.5778 15.5619 12.2955 15.5619 11.6367ZM13.8266 7.71903H11.7737V9.61314H13.8266C14.7442 9.61314 15.1678 9.31314 15.1678 8.66608C15.1678 8.01903 14.7442 7.71903 13.8266 7.71903ZM16.8031 11.7426C16.8031 12.9778 15.8501 13.6778 14.1619 13.6778H10.6678C10.609 13.6778 10.5678 13.6367 10.5678 13.5778V6.72491C10.5678 6.66609 10.609 6.62491 10.6678 6.62491H13.8501C15.4913 6.62491 16.3854 7.27197 16.3854 8.44844C16.3854 9.22491 15.9913 9.73079 15.1854 9.97197C16.3148 10.2014 16.8031 10.872 16.8031 11.7426Z" fill="#667882"/>
</g>
<defs>
<clipPath id="clip0">
<rect width="20" height="20" fill="white" transform="translate(0.467773 0.148438)"/>
</clipPath>
</defs>
</svg>
