<svg width="16" height="16" viewBox="0 0 16 16" fill="none" xmlns="http://www.w3.org/2000/svg">
<path d="M16 8.73151C16 8.15225 15.9541 7.56986 15.8562 7H8V10.2814H12.4989C12.3122 11.3397 11.7123 12.2759 10.834 12.8708V15H13.518C15.0941 13.5159 16 11.3241 16 8.73151Z" fill="#4285F4"/>
<path d="M8.46364 16C10.7162 16 12.6159 15.3427 14 14.2082L11.3085 12.3536C10.5597 12.8064 9.59301 13.0627 8.46671 13.0627C6.28777 13.0627 4.44027 11.7564 3.77738 10H1V11.9118C2.41785 14.4182 5.30571 16 8.46364 16Z" fill="#34A853"/>
<path d="M4 8.99223C3.61793 8.02414 3.61793 6.97586 4 6.00777V4H0.970255C-0.323418 6.20254 -0.323418 8.79746 0.970255 11L4 8.99223Z" fill="#FBBC04"/>
<path d="M8.43381 2.93619C9.6198 2.91984 10.766 3.31781 11.625 4.04832L14 1.93037C12.4961 0.671048 10.5001 -0.0213065 8.43381 0.000499909C5.2885 0.000499909 2.41218 1.58147 1 4.08921L3.76323 6C4.42041 4.24186 6.26358 2.93619 8.43381 2.93619Z" fill="#EA4335"/>
</svg>
