<svg width="305" height="158" viewBox="0 0 305 158" fill="none" xmlns="http://www.w3.org/2000/svg">
<path d="M272.871 144.753H233.955V157.048H272.871V144.753Z" fill="#CCE6FF"/>
<path d="M261.898 144.753H222.982V157.048H261.898V144.753Z" fill="#F3F9FF"/>
<path d="M272.871 119.999H233.955V132.294H272.871V119.999Z" fill="#CCE6FF"/>
<path d="M261.898 119.999H222.982V132.294H261.898V119.999Z" fill="#F3F9FF"/>
<path d="M272.871 95.2437H233.955V107.539H272.871V95.2437Z" fill="#CCE6FF"/>
<path d="M261.898 95.2437H222.982V107.539H261.898V95.2437Z" fill="#F3F9FF"/>
<path d="M272.871 70.488H233.955V82.783H272.871V70.488Z" fill="#CCE6FF"/>
<path d="M261.898 70.488H222.982V82.783H261.898V70.488Z" fill="#F3F9FF"/>
<path d="M272.871 45.7324H233.955V58.0273H272.871V45.7324Z" fill="#CCE6FF"/>
<path d="M261.898 45.7324H222.982V58.0273H261.898V45.7324Z" fill="#F3F9FF"/>
<path d="M268.38 132.46H229.465V144.755H268.38V132.46Z" fill="#CCE6FF"/>
<path d="M257.406 132.46H218.49V144.755H257.406V132.46Z" fill="#F3F9FF"/>
<path d="M268.38 107.704H229.465V119.999H268.38V107.704Z" fill="#CCE6FF"/>
<path d="M257.406 107.704H218.49V119.999H257.406V107.704Z" fill="#F3F9FF"/>
<path d="M268.38 82.9487H229.465V95.2436H268.38V82.9487Z" fill="#CCE6FF"/>
<path d="M257.406 82.9487H218.49V95.2436H257.406V82.9487Z" fill="#F3F9FF"/>
<path d="M268.38 58.1931H229.465V70.488H268.38V58.1931Z" fill="#CCE6FF"/>
<path d="M257.406 58.1931H218.49V70.488H257.406V58.1931Z" fill="#F3F9FF"/>
<path d="M268.448 58.5724H222.73C222.476 58.5724 222.27 58.3662 222.27 58.112C222.27 57.8579 222.476 57.6516 222.73 57.6516H268.448C268.703 57.6516 268.909 57.8579 268.909 58.112C268.909 58.3662 268.703 58.5724 268.448 58.5724Z" fill="#CCE6FF"/>
<path d="M268.542 71.0036H222.824C222.57 71.0036 222.363 70.7973 222.363 70.5432C222.363 70.289 222.57 70.0828 222.824 70.0828H268.542C268.797 70.0828 269.003 70.289 269.003 70.5432C269.003 70.7973 268.797 71.0036 268.542 71.0036Z" fill="#CCE6FF"/>
<path d="M268.634 83.4347H222.916C222.662 83.4347 222.455 83.2285 222.455 82.9743C222.455 82.7202 222.662 82.5139 222.916 82.5139H268.634C268.888 82.5139 269.095 82.7202 269.095 82.9743C269.095 83.2285 268.888 83.4347 268.634 83.4347Z" fill="#CCE6FF"/>
<path d="M268.726 95.8659H241.535C241.281 95.8659 241.074 95.6596 241.074 95.4055C241.074 95.1513 241.281 94.9451 241.535 94.9451H268.726C268.981 94.9451 269.187 95.1513 269.187 95.4055C269.187 95.6596 268.981 95.8659 268.726 95.8659Z" fill="#CCE6FF"/>
<path d="M268.172 108.297H223.1C222.845 108.297 222.639 108.091 222.639 107.837C222.639 107.583 222.845 107.376 223.1 107.376H268.172C268.427 107.376 268.633 107.583 268.633 107.837C268.633 108.091 268.427 108.297 268.172 108.297Z" fill="#CCE6FF"/>
<path d="M246.88 120.728H223.191C222.937 120.728 222.73 120.522 222.73 120.268C222.73 120.014 222.937 119.807 223.191 119.807H246.88C247.134 119.807 247.341 120.014 247.341 120.268C247.341 120.522 247.134 120.728 246.88 120.728Z" fill="#CCE6FF"/>
<path d="M268.909 120.728H252.963C252.708 120.728 252.502 120.522 252.502 120.268C252.502 120.014 252.708 119.807 252.963 119.807H268.909C269.163 119.807 269.37 120.014 269.37 120.268C269.37 120.522 269.163 120.728 268.909 120.728Z" fill="#CCE6FF"/>
<path d="M269.003 133.16H223.285C223.031 133.16 222.824 132.953 222.824 132.699C222.824 132.445 223.031 132.239 223.285 132.239H269.003C269.258 132.239 269.464 132.445 269.464 132.699C269.464 132.953 269.258 133.16 269.003 133.16Z" fill="#CCE6FF"/>
<path d="M233.606 145.591H223.375C223.121 145.591 222.914 145.385 222.914 145.131C222.914 144.876 223.121 144.67 223.375 144.67H233.606C233.861 144.67 234.067 144.876 234.067 145.131C234.067 145.385 233.861 145.591 233.606 145.591Z" fill="#CCE6FF"/>
<path d="M269.094 145.591H240.797C240.542 145.591 240.336 145.384 240.336 145.13C240.336 144.876 240.542 144.67 240.797 144.67H269.094C269.348 144.67 269.555 144.876 269.555 145.13C269.555 145.384 269.348 145.591 269.094 145.591Z" fill="#CCE6FF"/>
<path d="M304.211 158H263.07C262.816 158 262.609 157.794 262.609 157.54C262.609 157.285 262.816 157.079 263.07 157.079H304.211C304.465 157.079 304.672 157.285 304.672 157.54C304.672 157.794 304.465 158 304.211 158Z" fill="#1890FF"/>
<path d="M257.908 105.833L259.158 112.258L281.042 102.523L261.293 105.348L260.977 96.8381L256.566 98.9376L238.205 108.651L257.908 105.833Z" fill="#2A0055"/>
<path d="M165.85 22.5603L172.245 23.6653L170.919 0L166.591 19.2582L158.594 16.5584L158.988 21.378L161.532 41.7744L165.85 22.5603Z" fill="#2A0055"/>
<path d="M87.461 157.664H54.8261V141.896C54.8261 141.747 54.9477 141.625 55.097 141.625C55.2464 141.625 55.368 141.747 55.368 141.896V157.123H86.9227V110.201H55.3662V123.702C55.3662 123.851 55.2445 123.973 55.0952 123.973C54.9459 123.973 54.8242 123.851 54.8242 123.702V109.659H87.461V157.664Z" fill="#1890FF"/>
<path d="M97.5382 132.713H66.9219V142.205H97.5382V132.713Z" fill="white"/>
<path d="M97.8087 142.476H66.6504V132.443H97.8087V142.476ZM67.1905 141.935H97.2667V132.982H67.1905V141.935Z" fill="#1890FF"/>
<path d="M87.1382 153.92H63.5879V145.213C63.5879 145.063 63.7096 144.942 63.8589 144.942C64.0082 144.942 64.1299 145.063 64.1299 145.213V153.38H87.1382C87.2875 153.38 87.4092 153.502 87.4092 153.651C87.4092 153.8 87.2875 153.92 87.1382 153.92Z" fill="#1890FF"/>
<path d="M96.9047 125.404H74.6172V132.444H96.9047V125.404Z" fill="#CCE6FF"/>
<path d="M90.6196 125.404H68.332V132.444H90.6196V125.404Z" fill="#F3F9FF"/>
<path d="M96.9047 111.225H74.6172V118.266H96.9047V111.225Z" fill="#CCE6FF"/>
<path d="M90.6196 111.225H68.332V118.266H90.6196V111.225Z" fill="#F3F9FF"/>
<path d="M96.9047 97.0479H74.6172V104.089H96.9047V97.0479Z" fill="#CCE6FF"/>
<path d="M90.6196 97.0479H68.332V104.089H90.6196V97.0479Z" fill="#F3F9FF"/>
<path d="M96.9047 82.8706H74.6172V89.9112H96.9047V82.8706Z" fill="#CCE6FF"/>
<path d="M90.6196 82.8706H68.332V89.9112H90.6196V82.8706Z" fill="#F3F9FF"/>
<path d="M96.9047 68.6936H74.6172V75.7343H96.9047V68.6936Z" fill="#CCE6FF"/>
<path d="M90.6196 68.6936H68.332V75.7343H90.6196V68.6936Z" fill="#F3F9FF"/>
<path d="M94.3325 118.362H72.0449V125.402H94.3325V118.362Z" fill="#CCE6FF"/>
<path d="M88.0473 118.362H65.7598V125.402H88.0473V118.362Z" fill="#F3F9FF"/>
<path d="M94.3325 104.184H72.0449V111.225H94.3325V104.184Z" fill="#CCE6FF"/>
<path d="M88.0473 104.184H65.7598V111.225H88.0473V104.184Z" fill="#F3F9FF"/>
<path d="M94.3325 90.0071H72.0449V97.0478H94.3325V90.0071Z" fill="#CCE6FF"/>
<path d="M88.0473 90.0071H65.7598V97.0478H88.0473V90.0071Z" fill="#F3F9FF"/>
<path d="M94.3325 75.8301H72.0449V82.8708H94.3325V75.8301Z" fill="#CCE6FF"/>
<path d="M88.0473 75.8301H65.7598V82.8708H88.0473V75.8301Z" fill="#F3F9FF"/>
<path d="M94.3722 76.0455H68.1894C68.0438 76.0455 67.9258 75.9276 67.9258 75.7822C67.9258 75.6367 68.0438 75.5188 68.1894 75.5188H94.3722C94.5178 75.5188 94.6358 75.6367 94.6358 75.7822C94.6358 75.9276 94.5178 76.0455 94.3722 76.0455Z" fill="#CCE6FF"/>
<path d="M94.4249 83.1651H68.2421C68.0965 83.1651 67.9785 83.0473 67.9785 82.9018C67.9785 82.7563 68.0965 82.6384 68.2421 82.6384H94.4249C94.5706 82.6384 94.6885 82.7563 94.6885 82.9018C94.6885 83.0473 94.5706 83.1651 94.4249 83.1651Z" fill="#CCE6FF"/>
<path d="M94.4757 90.285H68.2929C68.1473 90.285 68.0293 90.1671 68.0293 90.0217C68.0293 89.8762 68.1473 89.7583 68.2929 89.7583H94.4757C94.6213 89.7583 94.7393 89.8762 94.7393 90.0217C94.7393 90.1671 94.6213 90.285 94.4757 90.285Z" fill="#CCE6FF"/>
<path d="M75.5776 97.4049H68.3457C68.2 97.4049 68.082 97.287 68.082 97.1415C68.082 96.996 68.2 96.8782 68.3457 96.8782H75.5776C75.7232 96.8782 75.8412 96.996 75.8412 97.1415C75.8412 97.287 75.7232 97.4049 75.5776 97.4049Z" fill="#CCE6FF"/>
<path d="M94.5288 97.4049H78.957C78.8113 97.4049 78.6934 97.287 78.6934 97.1415C78.6934 96.996 78.8113 96.8782 78.957 96.8782H94.5288C94.6744 96.8782 94.7924 96.996 94.7924 97.1415C94.7924 97.287 94.6744 97.4049 94.5288 97.4049Z" fill="#CCE6FF"/>
<path d="M94.2125 104.523H68.3984C68.2528 104.523 68.1348 104.405 68.1348 104.26C68.1348 104.114 68.2528 103.996 68.3984 103.996H94.2125C94.3581 103.996 94.4761 104.114 94.4761 104.26C94.4761 104.405 94.3581 104.523 94.2125 104.523Z" fill="#CCE6FF"/>
<path d="M82.0172 111.643H68.4511C68.3055 111.643 68.1875 111.525 68.1875 111.38C68.1875 111.234 68.3055 111.116 68.4511 111.116H82.0172C82.1628 111.116 82.2808 111.234 82.2808 111.38C82.2808 111.525 82.1628 111.643 82.0172 111.643Z" fill="#CCE6FF"/>
<path d="M94.6345 111.643H85.5019C85.3563 111.643 85.2383 111.525 85.2383 111.38C85.2383 111.234 85.3563 111.116 85.5019 111.116H94.6345C94.7801 111.116 94.8981 111.234 94.8981 111.38C94.8981 111.525 94.7801 111.643 94.6345 111.643Z" fill="#CCE6FF"/>
<path d="M94.6886 118.763H68.5058C68.3602 118.763 68.2422 118.645 68.2422 118.499C68.2422 118.354 68.3602 118.236 68.5058 118.236H94.6886C94.8342 118.236 94.9522 118.354 94.9522 118.499C94.9522 118.645 94.8342 118.763 94.6886 118.763Z" fill="#CCE6FF"/>
<path d="M74.415 125.883H68.5546C68.409 125.883 68.291 125.765 68.291 125.619C68.291 125.474 68.409 125.356 68.5546 125.356H74.415C74.5607 125.356 74.6786 125.474 74.6786 125.619C74.6786 125.765 74.5607 125.883 74.415 125.883Z" fill="#CCE6FF"/>
<path d="M94.741 125.883H78.5351C78.3895 125.883 78.2715 125.765 78.2715 125.619C78.2715 125.474 78.3895 125.356 78.5351 125.356H94.741C94.8867 125.356 95.0047 125.474 95.0047 125.619C95.0065 125.765 94.8885 125.883 94.741 125.883Z" fill="#CCE6FF"/>
<path d="M77.6377 148.962H74.5757C74.4264 148.962 74.3047 148.841 74.3047 148.692C74.3047 148.542 74.4264 148.421 74.5757 148.421H77.6377C77.787 148.421 77.9087 148.542 77.9087 148.692C77.9087 148.841 77.787 148.962 77.6377 148.962Z" fill="#AA5FFF"/>
<path d="M83.4443 137.888H80.3823C80.233 137.888 80.1113 137.767 80.1113 137.617C80.1113 137.468 80.233 137.347 80.3823 137.347H83.4443C83.5937 137.347 83.7153 137.468 83.7153 137.617C83.7153 137.767 83.5937 137.888 83.4443 137.888Z" fill="#1890FF"/>
<path d="M46.7588 140.588C44.2111 136.179 42.7621 131.807 41.8496 126.803C45.8131 126.989 49.7341 126.934 53.681 126.468C55.3788 128.838 57.1025 130.73 59.3718 132.559C55.2977 135.478 51.137 138.144 46.7588 140.588Z" fill="#CCE6FF"/>
<path d="M46.7568 140.588C44.2091 136.179 42.7602 131.807 41.8477 126.803C45.8111 126.989 49.7322 126.934 53.679 126.468C55.3769 128.838 57.1005 130.73 59.3698 132.559C55.2958 135.478 51.1351 138.144 46.7568 140.588Z" fill="#CCE6FF"/>
<path d="M53.6771 126.468C49.7321 126.936 45.8092 126.989 41.8457 126.803C42.7582 131.807 44.209 136.179 46.7549 140.588C51.1331 138.143 55.2938 135.476 59.3679 132.557C57.0986 130.73 55.3749 128.837 53.6771 126.468Z" fill="#CCE6FF"/>
<path d="M46.7588 140.588C44.2111 136.179 42.7621 131.807 41.8496 126.803C45.8131 126.989 49.7341 126.934 53.681 126.468C55.3788 128.838 57.1025 130.73 59.3718 132.559C55.2977 135.478 51.137 138.144 46.7588 140.588Z" fill="#CCE6FF"/>
<path d="M274.818 119.551L293.659 129.261C291.482 139.972 286.867 146.473 279.086 147.506L264.279 132.216C270.223 131.051 273.462 126.483 274.818 119.551Z" fill="white"/>
<path d="M279.086 148.079C278.931 148.079 278.783 148.016 278.675 147.904L263.868 132.614C263.722 132.463 263.671 132.246 263.733 132.045C263.796 131.844 263.964 131.695 264.17 131.655C269.557 130.598 272.857 126.603 274.258 119.441C274.293 119.264 274.409 119.115 274.571 119.036C274.733 118.956 274.923 118.96 275.084 119.043L293.924 128.752C294.152 128.87 294.274 129.124 294.222 129.375C293.096 134.916 291.315 139.285 288.928 142.362C286.397 145.627 283.112 147.548 279.163 148.073C279.135 148.077 279.111 148.079 279.086 148.079ZM265.392 132.542L279.294 146.896C286.279 145.836 290.77 140.163 293.009 129.568L275.225 120.404C273.749 127.082 270.445 131.159 265.392 132.542Z" fill="#CCE6FF"/>
<path d="M240.828 34.4187C246.774 28.4795 246.774 18.8501 240.828 12.9109C234.883 6.97169 225.245 6.9717 219.3 12.9109C213.355 18.8501 213.355 28.4795 219.3 34.4187C225.245 40.3579 234.883 40.3579 240.828 34.4187Z" fill="#CCE6FF"/>
<path d="M223.373 38.5093C214.819 37.2331 208.9 29.2421 210.177 20.6968C210.695 17.2363 212.301 14.1294 214.821 11.7132C215.004 11.5364 215.297 11.5437 215.472 11.7261C215.649 11.9102 215.641 12.2012 215.459 12.3762C213.086 14.6506 211.575 17.5752 211.088 20.8312C209.886 28.8738 215.457 36.3951 223.509 37.5959C231.56 38.7966 239.088 33.2311 240.29 25.1868C241.492 17.1442 235.921 9.62288 227.869 8.42211C224.944 7.98564 221.992 8.4258 219.334 9.6947C219.103 9.8052 218.829 9.70759 218.72 9.47738C218.609 9.24718 218.707 8.97277 218.937 8.86411C221.762 7.51602 224.897 7.04823 228.007 7.51049C236.561 8.78676 242.48 16.7777 241.203 25.323C239.924 33.8702 231.927 39.7856 223.373 38.5093Z" fill="#2A0055"/>
<path d="M218.879 28.1555C218.75 28.1371 218.63 28.0634 218.557 27.9437C218.422 27.7282 218.486 27.4446 218.702 27.3083L233.439 18.0853C233.655 17.9508 233.938 18.0153 234.075 18.2308C234.209 18.4462 234.145 18.7298 233.929 18.8661L219.193 28.0892C219.095 28.1518 218.984 28.172 218.879 28.1555Z" fill="#2A0055"/>
<path d="M231.947 30.1055C231.842 30.0889 231.742 30.0374 231.667 29.9527L220.27 16.8308C220.105 16.6393 220.125 16.3483 220.317 16.1807C220.508 16.015 220.8 16.0352 220.967 16.2268L232.364 29.3486C232.529 29.5401 232.509 29.8311 232.317 29.9987C232.211 30.0889 232.074 30.1239 231.947 30.1055Z" fill="#2A0055"/>
<path d="M218.994 51.8317C216.706 51.8317 214.846 49.9734 214.846 47.6879C214.846 45.4024 216.706 43.5442 218.994 43.5442C221.281 43.5442 223.141 45.4024 223.141 47.6879C223.141 49.9716 221.281 51.8317 218.994 51.8317ZM218.994 44.465C217.215 44.465 215.767 45.9107 215.767 47.6879C215.767 49.4651 217.215 50.9108 218.994 50.9108C220.772 50.9108 222.22 49.4651 222.22 47.6879C222.22 45.9107 220.772 44.465 218.994 44.465Z" fill="#2A0055"/>
<path d="M119.697 46.4028C126.903 39.2042 126.903 27.5331 119.697 20.3345C112.492 13.136 100.809 13.136 93.6035 20.3345C86.3979 27.5331 86.3979 39.2042 93.6035 46.4028C100.809 53.6013 112.492 53.6013 119.697 46.4028Z" fill="#1890FF"/>
<path d="M107.638 52.9787C97.7572 56.3121 87.0042 50.9934 83.6676 41.1221C80.3309 31.2507 85.6548 20.5083 95.5358 17.1749C97.1525 16.6298 98.8301 16.3038 100.519 16.2081C100.773 16.1933 100.991 16.3867 101.005 16.6409C101.02 16.895 100.827 17.1123 100.572 17.1271C98.9665 17.2191 97.3719 17.5285 95.8326 18.0479C86.4346 21.2192 81.3688 31.4368 84.5432 40.8274C87.7177 50.2162 97.9452 55.2771 107.345 52.1057C116.743 48.9344 121.809 38.7168 118.634 29.3262C116.97 24.3998 113.253 20.4384 108.438 18.4567C108.202 18.3591 108.09 18.0902 108.188 17.8564C108.285 17.6206 108.554 17.5083 108.789 17.6059C113.851 19.6906 117.757 23.8546 119.508 29.0334C122.841 38.9029 117.517 49.6453 107.638 52.9787Z" fill="#2A0055"/>
<path d="M106.062 48.1884C106.06 48.1884 106.06 48.1884 106.059 48.1902L106.042 48.1957C104.855 48.5935 103.564 47.9545 103.166 46.7684L103.126 46.6469C102.932 46.0723 102.974 45.4572 103.244 44.9139C103.513 44.3724 103.977 43.9673 104.551 43.7739C104.552 43.7739 104.552 43.7739 104.554 43.7721C105.758 43.3669 107.048 44.0078 107.447 45.1938L107.487 45.3154C107.885 46.5014 107.246 47.7887 106.062 48.1884ZM105.911 47.7537L105.764 47.3173H105.765C106.47 47.0797 106.849 46.3154 106.612 45.6119L106.571 45.4903C106.333 44.7868 105.568 44.4056 104.862 44.6432H104.86C104.503 44.7647 104.226 45.0041 104.066 45.3264C103.905 45.6487 103.88 46.0134 103.996 46.3559L104.036 46.4775C104.274 47.181 105.039 47.5622 105.745 47.3246L105.911 47.7537ZM103.245 39.877C103.244 39.877 103.244 39.877 103.242 39.8788C102.055 40.2766 100.764 39.6375 100.366 38.4515L95.7941 24.8619C95.3959 23.6777 96.0356 22.3904 97.2191 21.9889C97.221 21.9889 97.221 21.9889 97.2228 21.9871C98.41 21.5893 99.7004 22.2283 100.099 23.4144L104.67 37.004C105.07 38.19 104.431 39.4773 103.245 39.877ZM102.949 39.0059C102.95 39.0059 102.95 39.0059 102.949 39.0059C103.655 38.7683 104.034 38.0021 103.797 37.2986L99.2248 23.709C98.987 23.0055 98.222 22.6243 97.5159 22.8619H97.5141C96.8099 23.0994 96.4301 23.8637 96.6679 24.5672L101.24 38.1568C101.478 38.8622 102.244 39.2416 102.949 39.0059Z" fill="#2A0055"/>
<path d="M140.895 157.379L64.3915 157.374L64.3731 148.764C64.3694 147.46 65.4257 146.401 66.7309 146.397L140.872 146.224L140.895 157.379Z" fill="#1890FF"/>
<path d="M207.528 157.333L117.279 157.344L137.268 66.9997C138.07 63.3992 141.276 60.8467 144.966 60.8688L221.861 61.331C225.476 61.3531 228.147 64.7013 227.364 68.2262L207.528 157.333Z" fill="#1890FF"/>
<path d="M131.09 149.261C131.007 149.261 130.923 149.252 130.836 149.234C130.194 149.095 129.785 148.464 129.923 147.821L146.944 68.7622C147.827 64.6387 151.531 61.6386 155.752 61.6294C156.408 61.6276 156.943 62.158 156.945 62.8154C156.947 63.4711 156.416 64.0051 155.758 64.007C152.648 64.0144 149.921 66.2243 149.271 69.2631L132.25 148.324C132.13 148.878 131.638 149.259 131.09 149.261Z" fill="white"/>
<path d="M180.272 120.804C176.868 120.811 173.881 119.493 171.863 117.087C169.802 114.632 169.009 111.371 169.63 107.903C170.867 101.008 177.493 95.3853 184.4 95.3687C187.805 95.3613 190.791 96.6799 192.81 99.0852C194.871 101.54 195.664 104.8 195.042 108.268C193.807 115.165 187.18 120.787 180.272 120.804ZM184.407 97.7463C178.595 97.7592 173.017 102.505 171.973 108.323C171.477 111.085 172.086 113.656 173.686 115.561C175.243 117.415 177.581 118.434 180.267 118.428C186.081 118.415 191.658 113.669 192.701 107.851C193.197 105.089 192.589 102.52 190.989 100.614C189.431 98.7573 187.093 97.7389 184.407 97.7463Z" fill="white"/>
<path d="M198.991 64.6185L183.415 64.6554C182.759 64.6572 182.225 64.1268 182.223 63.4694C182.221 62.8137 182.752 62.2796 183.41 62.2778L198.985 62.241C199.642 62.2391 200.176 62.7695 200.178 63.427C200.178 64.0826 199.647 64.6167 198.991 64.6185Z" fill="white"/>
<path d="M93.7634 87.9452L95.0428 81.6633L71.5957 82.2766L90.5189 87.1146L87.6118 94.9306L92.39 94.682L112.639 92.7704L93.7634 87.9452Z" fill="#2A0055"/>
<path d="M246.069 70.1634L247.5 73.959L259.858 65.7507L248.088 69.5169L247.015 64.3511L244.537 66.0914L234.328 73.9203L246.069 70.1634Z" fill="#1890FF"/>
<path d="M250.738 158H0.788992C0.534594 158 0.328125 157.794 0.328125 157.54C0.328125 157.285 0.534594 157.079 0.788992 157.079H250.738C250.992 157.079 251.198 157.285 251.198 157.54C251.198 157.794 250.992 158 250.738 158Z" fill="#2A0055"/>
</svg>