<svg width="104" height="104" viewBox="0 0 104 104" fill="none" xmlns="http://www.w3.org/2000/svg">
<rect width="104" height="104" rx="4" fill="#FFFFFF"/>
<path d="M10 20C10 17.7909 11.7909 16 14 16H42C44.2091 16 46 17.7909 46 20V48C46 50.2091 44.2091 52 42 52H14C11.7909 52 10 50.2091 10 48V20Z" fill="currentColor"/>
<path d="M28 28.8086C25.25 28.8086 23.0586 31.043 23.0586 33.75C23.0586 36.5 25.25 38.6914 28 38.6914C30.707 38.6914 32.9414 36.5 32.9414 33.75C32.9414 31.043 30.707 28.8086 28 28.8086ZM28 36.9727C26.2383 36.9727 24.7773 35.5547 24.7773 33.75C24.7773 31.9883 26.1953 30.5703 28 30.5703C29.7617 30.5703 31.1797 31.9883 31.1797 33.75C31.1797 35.5547 29.7617 36.9727 28 36.9727ZM34.2734 28.6367C34.2734 27.9922 33.7578 27.4766 33.1133 27.4766C32.4688 27.4766 31.9531 27.9922 31.9531 28.6367C31.9531 29.2812 32.4688 29.7969 33.1133 29.7969C33.7578 29.7969 34.2734 29.2812 34.2734 28.6367ZM37.5391 29.7969C37.4531 28.25 37.1094 26.875 35.9922 25.7578C34.875 24.6406 33.5 24.2969 31.9531 24.2109C30.3633 24.125 25.5938 24.125 24.0039 24.2109C22.457 24.2969 21.125 24.6406 19.9648 25.7578C18.8477 26.875 18.5039 28.25 18.418 29.7969C18.332 31.3867 18.332 36.1562 18.418 37.7461C18.5039 39.293 18.8477 40.625 19.9648 41.7852C21.125 42.9023 22.457 43.2461 24.0039 43.332C25.5938 43.418 30.3633 43.418 31.9531 43.332C33.5 43.2461 34.875 42.9023 35.9922 41.7852C37.1094 40.625 37.4531 39.293 37.5391 37.7461C37.625 36.1562 37.625 31.3867 37.5391 29.7969ZM35.4766 39.4219C35.1758 40.2812 34.4883 40.9258 33.6719 41.2695C32.3828 41.7852 29.375 41.6562 28 41.6562C26.582 41.6562 23.5742 41.7852 22.3281 41.2695C21.4688 40.9258 20.8242 40.2812 20.4805 39.4219C19.9648 38.1758 20.0938 35.168 20.0938 33.75C20.0938 32.375 19.9648 29.3672 20.4805 28.0781C20.8242 27.2617 21.4688 26.6172 22.3281 26.2734C23.5742 25.7578 26.582 25.8867 28 25.8867C29.375 25.8867 32.3828 25.7578 33.6719 26.2734C34.4883 26.5742 35.1328 27.2617 35.4766 28.0781C35.9922 29.3672 35.8633 32.375 35.8633 33.75C35.8633 35.168 35.9922 38.1758 35.4766 39.4219Z" fill="white"/>
<path d="M10 62C10 59.7909 11.7909 58 14 58H22C24.2091 58 26 59.7909 26 62V84C26 86.2091 24.2091 88 22 88H14C11.7909 88 10 86.2091 10 84V62Z" fill="currentColor"/>
<path d="M30 62C30 59.7909 31.7909 58 34 58H42C44.2091 58 46 59.7909 46 62V84C46 86.2091 44.2091 88 42 88H34C31.7909 88 30 86.2091 30 84V62Z" fill="currentColor"/>
<path d="M54 20C54 17.7909 55.7909 16 58 16H90C92.2091 16 94 17.7909 94 20V84C94 86.2091 92.2091 88 90 88H58C55.7909 88 54 86.2091 54 84V20Z" fill="currentColor"/>
</svg>
