<svg width="88" height="76" viewBox="0 0 88 76" fill="none" xmlns="http://www.w3.org/2000/svg">
<rect width="17" height="76" rx="4" fill="currentColor"/>
<path fill-rule="evenodd" clip-rule="evenodd" d="M28 0C25.7909 0 24 1.79086 24 4V72C24 74.2091 25.7909 76 28 76H60C62.2091 76 64 74.2091 64 72V4C64 1.79086 62.2091 0 60 0H28ZM38.2109 38.5C38.2109 35.0547 41 32.2109 44.5 32.2109C47.9453 32.2109 50.7891 35.0547 50.7891 38.5C50.7891 42 47.9453 44.7891 44.5 44.7891C41 44.7891 38.2109 42 38.2109 38.5ZM40.3984 38.5C40.3984 40.7969 42.2578 42.6016 44.5 42.6016C46.7422 42.6016 48.5469 40.7969 48.5469 38.5C48.5469 36.2578 46.7422 34.4531 44.5 34.4531C42.2031 34.4531 40.3984 36.2578 40.3984 38.5ZM51.0078 30.5156C51.8281 30.5156 52.4844 31.1719 52.4844 31.9922C52.4844 32.8125 51.8281 33.4688 51.0078 33.4688C50.1875 33.4688 49.5312 32.8125 49.5312 31.9922C49.5312 31.1719 50.1875 30.5156 51.0078 30.5156ZM54.6719 28.3281C56.0938 29.75 56.5312 31.5 56.6406 33.4688C56.75 35.4922 56.75 41.5625 56.6406 43.5859C56.5312 45.5547 56.0938 47.25 54.6719 48.7266C53.25 50.1484 51.5 50.5859 49.5312 50.6953C47.5078 50.8047 41.4375 50.8047 39.4141 50.6953C37.4453 50.5859 35.75 50.1484 34.2734 48.7266C32.8516 47.25 32.4141 45.5547 32.3047 43.5859C32.1953 41.5625 32.1953 35.4922 32.3047 33.4688C32.4141 31.5 32.8516 29.75 34.2734 28.3281C35.75 26.9062 37.4453 26.4688 39.4141 26.3594C41.4375 26.25 47.5078 26.25 49.5312 26.3594C51.5 26.4688 53.25 26.9062 54.6719 28.3281ZM51.7188 48.0703C52.7578 47.6328 53.6328 46.8125 54.0156 45.7188C54.5733 44.3711 54.5386 41.4044 54.5156 39.436C54.5115 39.088 54.5078 38.7712 54.5078 38.5C54.5078 38.2388 54.5115 37.9313 54.5155 37.5917C54.5385 35.656 54.5739 32.677 54.0156 31.2812C53.5781 30.2422 52.7578 29.3672 51.7188 28.9844C50.323 28.4261 47.344 28.4615 45.4083 28.4845C45.0687 28.4885 44.7612 28.4922 44.5 28.4922C44.2288 28.4922 43.912 28.4885 43.564 28.4844C41.5956 28.4614 38.6289 28.4267 37.2812 28.9844C36.1875 29.4219 35.3672 30.2422 34.9297 31.2812C34.3714 32.677 34.4068 35.656 34.4298 37.5917C34.4338 37.9313 34.4375 38.2388 34.4375 38.5C34.4375 38.7712 34.4338 39.088 34.4297 39.436C34.4067 41.4044 34.372 44.3711 34.9297 45.7188C35.3672 46.8125 36.1875 47.6328 37.2812 48.0703C38.6289 48.628 41.5956 48.5933 43.564 48.5703C43.912 48.5662 44.2288 48.5625 44.5 48.5625C44.7612 48.5625 45.0687 48.5662 45.4083 48.5702C47.344 48.5932 50.323 48.6286 51.7188 48.0703Z" fill="currentColor"/>
<rect x="71" width="17" height="76" rx="4" fill="currentColor"/>
</svg>
