<svg width="18" height="18" viewBox="0 0 18 18" fill="none" xmlns="http://www.w3.org/2000/svg">
<circle cx="9" cy="9" r="8.5" fill="#F00075" stroke="white"/>
<path d="M8.99961 7.30371C7.87461 7.30371 6.97813 8.21777 6.97813 9.3252C6.97813 10.4502 7.87461 11.3467 8.99961 11.3467C10.107 11.3467 11.0211 10.4502 11.0211 9.3252C11.0211 8.21777 10.107 7.30371 8.99961 7.30371ZM8.99961 10.6436C8.27891 10.6436 7.68125 10.0635 7.68125 9.3252C7.68125 8.60449 8.26133 8.02441 8.99961 8.02441C9.72031 8.02441 10.3004 8.60449 10.3004 9.3252C10.3004 10.0635 9.72031 10.6436 8.99961 10.6436ZM11.566 7.2334C11.566 6.96973 11.3551 6.75879 11.0914 6.75879C10.8277 6.75879 10.6168 6.96973 10.6168 7.2334C10.6168 7.49707 10.8277 7.70801 11.0914 7.70801C11.3551 7.70801 11.566 7.49707 11.566 7.2334ZM12.902 7.70801C12.8668 7.0752 12.7262 6.5127 12.2691 6.05566C11.8121 5.59863 11.2496 5.45801 10.6168 5.42285C9.96641 5.3877 8.01523 5.3877 7.36484 5.42285C6.73203 5.45801 6.18711 5.59863 5.7125 6.05566C5.25547 6.5127 5.11484 7.0752 5.07969 7.70801C5.04453 8.3584 5.04453 10.3096 5.07969 10.96C5.11484 11.5928 5.25547 12.1377 5.7125 12.6123C6.18711 13.0693 6.73203 13.21 7.36484 13.2451C8.01523 13.2803 9.96641 13.2803 10.6168 13.2451C11.2496 13.21 11.8121 13.0693 12.2691 12.6123C12.7262 12.1377 12.8668 11.5928 12.902 10.96C12.9371 10.3096 12.9371 8.3584 12.902 7.70801ZM12.0582 11.6455C11.9352 11.9971 11.6539 12.2607 11.3199 12.4014C10.7926 12.6123 9.56211 12.5596 8.99961 12.5596C8.41953 12.5596 7.18906 12.6123 6.6793 12.4014C6.32773 12.2607 6.06406 11.9971 5.92344 11.6455C5.7125 11.1357 5.76523 9.90527 5.76523 9.3252C5.76523 8.7627 5.7125 7.53223 5.92344 7.00488C6.06406 6.6709 6.32773 6.40723 6.6793 6.2666C7.18906 6.05566 8.41953 6.1084 8.99961 6.1084C9.56211 6.1084 10.7926 6.05566 11.3199 6.2666C11.6539 6.38965 11.9176 6.6709 12.0582 7.00488C12.2691 7.53223 12.2164 8.7627 12.2164 9.3252C12.2164 9.90527 12.2691 11.1357 12.0582 11.6455Z" fill="white"/>
</svg>
