<svg width="90" height="77" viewBox="0 0 90 77" fill="none" xmlns="http://www.w3.org/2000/svg">
<path fill-rule="evenodd" clip-rule="evenodd" d="M21 0C18.7909 0 17 1.79086 17 4V73C17 75.2091 18.7909 77 21 77H69C71.2091 77 73 75.2091 73 73V4C73 1.79086 71.2091 0 69 0H21ZM39.2109 38.5C39.2109 35.0547 42 32.2109 45.5 32.2109C48.9453 32.2109 51.7891 35.0547 51.7891 38.5C51.7891 42 48.9453 44.7891 45.5 44.7891C42 44.7891 39.2109 42 39.2109 38.5ZM41.3984 38.5C41.3984 40.7969 43.2578 42.6016 45.5 42.6016C47.7422 42.6016 49.5469 40.7969 49.5469 38.5C49.5469 36.2578 47.7422 34.4531 45.5 34.4531C43.2031 34.4531 41.3984 36.2578 41.3984 38.5ZM52.0078 30.5156C52.8281 30.5156 53.4844 31.1719 53.4844 31.9922C53.4844 32.8125 52.8281 33.4688 52.0078 33.4688C51.1875 33.4688 50.5312 32.8125 50.5312 31.9922C50.5312 31.1719 51.1875 30.5156 52.0078 30.5156ZM55.6719 28.3281C57.0938 29.75 57.5312 31.5 57.6406 33.4688C57.75 35.4922 57.75 41.5625 57.6406 43.5859C57.5312 45.5547 57.0938 47.25 55.6719 48.7266C54.25 50.1484 52.5 50.5859 50.5312 50.6953C48.5078 50.8047 42.4375 50.8047 40.4141 50.6953C38.4453 50.5859 36.75 50.1484 35.2734 48.7266C33.8516 47.25 33.4141 45.5547 33.3047 43.5859C33.1953 41.5625 33.1953 35.4922 33.3047 33.4688C33.4141 31.5 33.8516 29.75 35.2734 28.3281C36.75 26.9062 38.4453 26.4688 40.4141 26.3594C42.4375 26.25 48.5078 26.25 50.5312 26.3594C52.5 26.4688 54.25 26.9062 55.6719 28.3281ZM52.7188 48.0703C53.7578 47.6328 54.6328 46.8125 55.0156 45.7188C55.5733 44.3711 55.5386 41.4044 55.5156 39.436C55.5115 39.088 55.5078 38.7712 55.5078 38.5C55.5078 38.2388 55.5115 37.9313 55.5155 37.5917C55.5385 35.656 55.5739 32.677 55.0156 31.2812C54.5781 30.2422 53.7578 29.3672 52.7188 28.9844C51.323 28.4261 48.344 28.4615 46.4083 28.4845C46.0687 28.4885 45.7612 28.4922 45.5 28.4922C45.2288 28.4922 44.912 28.4885 44.564 28.4844C42.5956 28.4614 39.6289 28.4267 38.2812 28.9844C37.1875 29.4219 36.3672 30.2422 35.9297 31.2812C35.3714 32.677 35.4068 35.656 35.4298 37.5917C35.4338 37.9313 35.4375 38.2388 35.4375 38.5C35.4375 38.7712 35.4338 39.088 35.4297 39.436C35.4067 41.4044 35.372 44.3711 35.9297 45.7188C36.3672 46.8125 37.1875 47.6328 38.2812 48.0703C39.6289 48.628 42.5956 48.5933 44.564 48.5703C44.912 48.5662 45.2288 48.5625 45.5 48.5625C45.7612 48.5625 46.0687 48.5662 46.4083 48.5702C48.344 48.5932 51.323 48.6286 52.7188 48.0703Z" fill="currentColor"/>
<path d="M1.05469 39.3125C0.808594 39.5586 0.808594 39.9688 1.05469 40.2148L6.35938 45.5469C6.63281 45.793 7.04297 45.793 7.28906 45.5469L7.91797 44.918C8.16406 44.6719 8.16406 44.2617 7.91797 43.9883L3.70703 39.75L7.91797 35.5391C8.16406 35.2656 8.16406 34.8555 7.91797 34.6094L7.28906 33.9805C7.04297 33.7344 6.63281 33.7344 6.35938 33.9805L1.05469 39.3125Z" fill="currentColor"/>
<path d="M88.918 40.2148C89.1641 39.9688 89.1641 39.5586 88.918 39.3125L83.6133 33.9805C83.3398 33.7344 82.9297 33.7344 82.6836 33.9805L82.0547 34.6094C81.8086 34.8555 81.8086 35.2656 82.0547 35.5391L86.2656 39.75L82.0547 43.9883C81.8086 44.2617 81.8086 44.6719 82.0547 44.918L82.6836 45.5469C82.9297 45.793 83.3398 45.793 83.6133 45.5469L88.918 40.2148Z" fill="currentColor"/>
</svg>
