<svg width="27" height="27" viewBox="0 0 27 27" fill="none" xmlns="http://www.w3.org/2000/svg">
<g clip-path="url(#clip0)">
<path d="M13.0793 26.3477C20.259 26.3477 26.0793 20.5274 26.0793 13.3477C26.0793 6.16795 20.259 0.347656 13.0793 0.347656C5.89964 0.347656 0.0793457 6.16795 0.0793457 13.3477C0.0793457 20.5274 5.89964 26.3477 13.0793 26.3477Z" fill="#FFD93B"/>
<path d="M26.0791 13.3472C26.0791 20.5297 20.2576 26.3472 13.0791 26.3472C8.99228 26.3472 5.34416 24.4622 2.95947 21.5088C5.18978 23.3125 8.02947 24.3891 11.121 24.3891C18.2995 24.3891 24.121 18.5716 24.121 11.3891C24.121 8.29754 23.0444 5.45785 21.2407 3.22754C24.1901 5.61223 26.0791 9.26035 26.0791 13.3472Z" fill="#F4C534"/>
<path d="M16.9605 19.8888C16.9605 20.2682 16.6574 20.5657 16.2836 20.5657H9.87552C9.50177 20.5657 9.19861 20.2677 9.19861 19.8888C9.19861 19.5151 9.50177 19.2119 9.87552 19.2119H16.2836C16.6569 19.2119 16.9605 19.5151 16.9605 19.8888Z" fill="#3E4347"/>
<path d="M5.75712 13.6364C6.07501 13.4495 7.01497 14.457 8.49118 14.5123C10.0197 14.5692 10.9074 13.4495 11.2252 13.6364C11.6208 13.772 11.0815 16.3557 8.49118 16.3654C5.90184 16.3557 5.36153 13.772 5.75712 13.6364Z" fill="#3E4347"/>
<path d="M5.14804 12.5001C4.853 12.4529 4.6514 12.1751 4.69964 11.8796C4.74737 11.5846 5.02058 11.3825 5.32018 11.4312C8.36553 11.9202 9.29077 9.74526 9.29991 9.72342C9.41213 9.44616 9.72748 9.31311 10.0058 9.42585C10.283 9.53858 10.4161 9.85495 10.3033 10.1317C9.69244 11.6282 7.77292 12.9221 5.14804 12.5001Z" fill="#E9B02C"/>
<path d="M20.4014 13.6364C20.0835 13.4495 19.1435 14.457 17.6673 14.5123C16.1388 14.5692 15.2511 13.4495 14.9332 13.6364C14.5376 13.772 15.0769 16.3557 17.6673 16.3654C20.2566 16.3557 20.7969 13.772 20.4014 13.6364Z" fill="#3E4347"/>
<path d="M15.8554 10.1309C15.7427 9.85363 15.8757 9.53777 16.153 9.42504C16.4292 9.31231 16.7446 9.44434 16.8583 9.72008C16.899 9.81758 17.8293 11.9148 20.8386 11.4314C21.1367 11.3827 21.4124 11.5848 21.4591 11.8798C21.5063 12.1753 21.3058 12.4536 21.0107 12.5003C18.4041 12.9193 16.4714 11.6411 15.8554 10.1309Z" fill="#E9B02C"/>
</g>
<defs>
<clipPath id="clip0">
<rect width="26" height="26" fill="white" transform="translate(0.0793457 0.347656)"/>
</clipPath>
</defs>
</svg>
