<svg width="27" height="27" viewBox="0 0 27 27" fill="none" xmlns="http://www.w3.org/2000/svg">
<g clip-path="url(#clip0)">
<path d="M13.5292 26.3477C20.7089 26.3477 26.5292 20.5274 26.5292 13.3477C26.5292 6.16795 20.7089 0.347656 13.5292 0.347656C6.34947 0.347656 0.529175 6.16795 0.529175 13.3477C0.529175 20.5274 6.34947 26.3477 13.5292 26.3477Z" fill="#FFD93B"/>
<path d="M26.529 13.3472C26.529 20.5297 20.7074 26.3472 13.529 26.3472C9.44211 26.3472 5.79399 24.4622 3.4093 21.5088C5.63961 23.3125 8.4793 24.3891 11.5709 24.3891C18.7493 24.3891 24.5708 18.5716 24.5708 11.3891C24.5708 8.29754 23.4943 5.45785 21.6905 3.22754C24.6399 5.61223 26.529 9.26035 26.529 13.3472Z" fill="#F4C534"/>
<path d="M12.3234 10.5698C12.3234 13.0672 8.55039 15.3523 8.55039 15.3523C8.55039 15.3523 4.77734 13.0677 4.77734 10.5698C4.77734 9.50285 5.63961 8.6416 6.70551 8.6416C7.57793 8.6416 8.31019 9.21746 8.55293 10.0041C8.79008 9.21746 9.52234 8.6416 10.3948 8.6416C11.4556 8.6416 12.3234 9.50336 12.3234 10.5698Z" fill="#E24B4B"/>
<path d="M5.41109 9.14844C5.02363 9.50086 4.77734 10.0041 4.77734 10.5703C4.77734 13.0677 8.55039 15.3529 8.55039 15.3529C4.59961 12.0161 5.38215 9.24543 5.41109 9.14844Z" fill="#D03F3F"/>
<path d="M11.4573 10.5058C11.2735 10.6546 10.9617 10.5555 10.7571 10.2935C10.5448 10.032 10.523 9.71357 10.6936 9.57849C10.8774 9.43732 11.1892 9.54294 11.4015 9.80498C11.6061 10.0665 11.6346 10.3849 11.4573 10.5058Z" fill="white"/>
<path d="M22.2813 10.5698C22.2813 13.0672 18.5083 15.3523 18.5083 15.3523C18.5083 15.3523 14.7352 13.0677 14.7352 10.5698C14.7352 9.50285 15.5975 8.6416 16.6634 8.6416C17.5358 8.6416 18.2681 9.21746 18.5108 10.0041C18.748 9.21746 19.4802 8.6416 20.3527 8.6416C21.4135 8.6416 22.2813 9.50336 22.2813 10.5698Z" fill="#E24B4B"/>
<path d="M15.3697 9.14844C14.9822 9.50086 14.736 10.0041 14.736 10.5703C14.736 13.0677 18.509 15.3529 18.509 15.3529C14.5582 12.0161 15.3403 9.24543 15.3697 9.14844Z" fill="#D03F3F"/>
<path d="M21.4155 10.5058C21.2316 10.6546 20.9198 10.5555 20.7152 10.2935C20.5029 10.032 20.4811 9.71357 20.6517 9.57849C20.8355 9.43732 21.1473 9.54294 21.3596 9.80498C21.5637 10.0665 21.5922 10.3849 21.4155 10.5058Z" fill="white"/>
<path d="M19.9142 19.3457C18.3785 21.1657 16.0898 22.6171 13.5304 22.6171C10.9711 22.6171 8.68541 21.1657 7.14166 19.3539C6.60541 18.7201 7.14978 17.7532 7.97853 17.8995C11.6348 18.5414 15.3317 18.5495 19.0854 17.8914C19.906 17.7532 20.4585 18.712 19.9142 19.3457Z" fill="#3E4347"/>
<path d="M13.5303 22.6166C14.8358 22.6166 16.0703 22.2358 17.1713 21.6239C16.7097 19.912 15.1019 19.4245 13.9903 20.0151C12.4847 20.8185 10.8003 19.7785 10.1503 21.7569C11.1842 22.2866 12.3242 22.6166 13.5303 22.6166Z" fill="#E24B4B"/>
</g>
<defs>
<clipPath id="clip0">
<rect width="26" height="26" fill="white" transform="translate(0.529175 0.347656)"/>
</clipPath>
</defs>
</svg>
