<svg width="56" height="68" viewBox="0 0 56 68" fill="none" xmlns="http://www.w3.org/2000/svg">
<ellipse opacity="0.1" cx="28.3783" cy="64.8891" rx="26.1362" ry="2.66451" fill="black"/>
<g clip-path="url(#clip0)">
<path d="M28.3784 55.2959C43.5662 55.2959 55.8784 42.9837 55.8784 27.7959C55.8784 12.6081 43.5662 0.295898 28.3784 0.295898C13.1906 0.295898 0.878418 12.6081 0.878418 27.7959C0.878418 42.9837 13.1906 55.2959 28.3784 55.2959Z" fill="#FFD93B"/>
<path d="M55.8779 27.7957C55.8779 42.9895 43.5631 55.2957 28.378 55.2957C19.7326 55.2957 12.0155 51.3082 6.97095 45.0605C11.6889 48.8762 17.6959 51.1535 24.2358 51.1535C39.4209 51.1535 51.7357 38.8473 51.7357 23.6535C51.7357 17.1137 49.4584 11.1066 45.6428 6.38867C51.8818 11.4332 55.8779 19.1504 55.8779 27.7957Z" fill="#F4C534"/>
<path d="M36.5884 41.6321C36.5884 42.4346 35.9471 43.0641 35.1565 43.0641H21.6009C20.8103 43.0641 20.1689 42.4335 20.1689 41.6321C20.1689 40.8415 20.8103 40.2002 21.6009 40.2002H35.1565C35.946 40.2002 36.5884 40.8415 36.5884 41.6321Z" fill="#3E4347"/>
<path d="M12.889 28.4063C13.5615 28.0109 15.5498 30.1422 18.6726 30.2593C21.906 30.3796 23.7837 28.0109 24.4562 28.4063C25.293 28.6931 24.1522 34.1587 18.6726 34.1791C13.1952 34.1587 12.0522 28.6931 12.889 28.4063Z" fill="#3E4347"/>
<path d="M11.6003 26.0032C10.9762 25.9033 10.5498 25.3157 10.6518 24.6905C10.7528 24.0664 11.3307 23.6388 11.9645 23.742C18.4066 24.7764 20.3638 20.1756 20.3831 20.1294C20.6205 19.5428 21.2876 19.2614 21.8763 19.4999C22.4628 19.7383 22.7443 20.4076 22.5058 20.993C21.2135 24.1588 17.153 26.8959 11.6003 26.0032Z" fill="#E9B02C"/>
<path d="M43.8673 28.4063C43.1948 28.0109 41.2064 30.1422 38.0837 30.2593C34.8503 30.3796 32.9725 28.0109 32.3001 28.4063C31.4633 28.6931 32.6041 34.1587 38.0837 34.1791C43.5611 34.1587 44.7041 28.6931 43.8673 28.4063Z" fill="#3E4347"/>
<path d="M34.2511 20.9914C34.0126 20.4049 34.2941 19.7368 34.8806 19.4983C35.465 19.2598 36.132 19.5391 36.3727 20.1224C36.4586 20.3287 38.4266 24.7652 44.7924 23.7425C45.423 23.6394 46.0063 24.0669 46.1051 24.6911C46.205 25.3162 45.7807 25.9049 45.1566 26.0037C39.6426 26.89 35.5541 24.1862 34.2511 20.9914Z" fill="#E9B02C"/>
</g>
<defs>
<clipPath id="clip0">
<rect width="55" height="55" fill="white" transform="translate(0.878418 0.295898)"/>
</clipPath>
</defs>
</svg>
