<svg width="119" height="22" viewBox="0 0 119 22" fill="none" xmlns="http://www.w3.org/2000/svg">
<g clip-path="url(#clip0)">
<path d="M19.0474 2.532C18.7114 2.294 18.2564 2.322 17.9624 2.588L8.54738 10.68C8.51238 10.708 8.46338 10.715 8.42138 10.694L3.29038 8.538L16.8354 3.057L16.4084 2L2.69538 7.544C2.30338 7.691 2.03038 8.048 2.00238 8.468C1.97438 8.895 2.19838 9.294 2.57638 9.483L7.91738 11.73C8.37238 11.954 8.93238 11.87 9.29638 11.541L17.8924 4.156L12.3414 17.89L10.0034 12.696C9.87038 12.409 9.60438 12.206 9.29638 12.15C8.98838 12.094 8.67338 12.185 8.44938 12.395L4.41038 15.965L5.16638 16.826L9.05838 13.389L11.3964 18.576L11.4104 18.604C11.5924 18.961 11.9494 19.178 12.3484 19.178C12.3624 19.178 12.3834 19.178 12.3974 19.178C12.8174 19.157 13.1744 18.905 13.3284 18.52L19.3624 3.589C19.5164 3.204 19.3904 2.77 19.0474 2.532Z" fill="#5B86E5"/>
<path d="M7.95537 14.8212L3.63398 18.6414L4.3943 19.5015L8.71569 15.6813L7.95537 14.8212Z" fill="#5B86E5"/>
<path d="M6.85944 11.7989L5.1915 13.2729L5.9517 14.1331L7.61964 12.6591L6.85944 11.7989Z" fill="#5B86E5"/>
</g>
<path d="M28.402 15.084C27.7953 15.084 27.212 15.0047 26.652 14.846C26.092 14.678 25.6533 14.468 25.336 14.216L25.896 13.152C26.2227 13.3853 26.6193 13.572 27.086 13.712C27.5527 13.852 28.024 13.922 28.5 13.922C29.676 13.922 30.264 13.586 30.264 12.914C30.264 12.69 30.1847 12.5127 30.026 12.382C29.8673 12.2513 29.6667 12.158 29.424 12.102C29.1907 12.0367 28.8547 11.9667 28.416 11.892C27.8187 11.7987 27.3287 11.6913 26.946 11.57C26.5727 11.4487 26.2507 11.2433 25.98 10.954C25.7093 10.6647 25.574 10.2587 25.574 9.736C25.574 9.064 25.854 8.52733 26.414 8.126C26.974 7.71533 27.7253 7.51 28.668 7.51C29.1627 7.51 29.6573 7.57067 30.152 7.692C30.6467 7.81333 31.0527 7.97667 31.37 8.182L30.796 9.246C30.1893 8.854 29.4753 8.658 28.654 8.658C28.0847 8.658 27.6507 8.75133 27.352 8.938C27.0533 9.12467 26.904 9.372 26.904 9.68C26.904 9.92267 26.988 10.114 27.156 10.254C27.324 10.394 27.5293 10.4967 27.772 10.562C28.024 10.6273 28.374 10.702 28.822 10.786C29.4193 10.8887 29.9 11.0007 30.264 11.122C30.6373 11.234 30.9547 11.43 31.216 11.71C31.4773 11.99 31.608 12.382 31.608 12.886C31.608 13.558 31.3187 14.0947 30.74 14.496C30.1707 14.888 29.3913 15.084 28.402 15.084ZM36.4657 15.084C35.7283 15.084 35.0657 14.9207 34.4777 14.594C33.8897 14.2673 33.4277 13.8193 33.0917 13.25C32.765 12.6713 32.6017 12.018 32.6017 11.29C32.6017 10.562 32.765 9.91333 33.0917 9.344C33.4277 8.76533 33.8897 8.31733 34.4777 8C35.0657 7.67333 35.7283 7.51 36.4657 7.51C37.203 7.51 37.861 7.67333 38.4397 8C39.0277 8.31733 39.485 8.76533 39.8117 9.344C40.1477 9.91333 40.3157 10.562 40.3157 11.29C40.3157 12.018 40.1477 12.6713 39.8117 13.25C39.485 13.8193 39.0277 14.2673 38.4397 14.594C37.861 14.9207 37.203 15.084 36.4657 15.084ZM36.4657 13.908C36.9417 13.908 37.3663 13.8007 37.7397 13.586C38.1223 13.362 38.421 13.054 38.6357 12.662C38.8503 12.2607 38.9577 11.8033 38.9577 11.29C38.9577 10.7767 38.8503 10.324 38.6357 9.932C38.421 9.53067 38.1223 9.22267 37.7397 9.008C37.3663 8.79333 36.9417 8.686 36.4657 8.686C35.9897 8.686 35.5603 8.79333 35.1777 9.008C34.8043 9.22267 34.5057 9.53067 34.2817 9.932C34.067 10.324 33.9597 10.7767 33.9597 11.29C33.9597 11.8033 34.067 12.2607 34.2817 12.662C34.5057 13.054 34.8043 13.362 35.1777 13.586C35.5603 13.8007 35.9897 13.908 36.4657 13.908ZM45.4084 15.084C44.6524 15.084 43.9757 14.9207 43.3784 14.594C42.7904 14.2673 42.3284 13.8193 41.9924 13.25C41.6564 12.6713 41.4884 12.018 41.4884 11.29C41.4884 10.562 41.6564 9.91333 41.9924 9.344C42.3284 8.76533 42.7904 8.31733 43.3784 8C43.9757 7.67333 44.6524 7.51 45.4084 7.51C46.0804 7.51 46.6777 7.64533 47.2004 7.916C47.7324 8.18667 48.1431 8.57867 48.4324 9.092L47.4104 9.75C47.1771 9.39533 46.8877 9.12933 46.5424 8.952C46.1971 8.77467 45.8144 8.686 45.3944 8.686C44.9091 8.686 44.4704 8.79333 44.0784 9.008C43.6957 9.22267 43.3924 9.53067 43.1684 9.932C42.9537 10.324 42.8464 10.7767 42.8464 11.29C42.8464 11.8127 42.9537 12.2747 43.1684 12.676C43.3924 13.068 43.6957 13.3713 44.0784 13.586C44.4704 13.8007 44.9091 13.908 45.3944 13.908C45.8144 13.908 46.1971 13.8193 46.5424 13.642C46.8877 13.4647 47.1771 13.1987 47.4104 12.844L48.4324 13.488C48.1431 14.0013 47.7324 14.398 47.2004 14.678C46.6777 14.9487 46.0804 15.084 45.4084 15.084ZM50.1724 7.58H51.5164V15H50.1724V7.58ZM50.8444 6.152C50.5831 6.152 50.3638 6.068 50.1864 5.9C50.0184 5.732 49.9344 5.52667 49.9344 5.284C49.9344 5.04133 50.0184 4.836 50.1864 4.668C50.3638 4.49067 50.5831 4.402 50.8444 4.402C51.1058 4.402 51.3204 4.486 51.4884 4.654C51.6658 4.81267 51.7544 5.01333 51.7544 5.256C51.7544 5.508 51.6658 5.72267 51.4884 5.9C51.3204 6.068 51.1058 6.152 50.8444 6.152ZM56.7846 7.51C57.8113 7.51 58.5953 7.762 59.1366 8.266C59.6873 8.77 59.9626 9.52133 59.9626 10.52V15H58.6886V14.02C58.4646 14.3653 58.1426 14.6313 57.7226 14.818C57.3119 14.9953 56.8219 15.084 56.2526 15.084C55.4219 15.084 54.7546 14.8833 54.2506 14.482C53.7559 14.0807 53.5086 13.5533 53.5086 12.9C53.5086 12.2467 53.7466 11.724 54.2226 11.332C54.6986 10.9307 55.4546 10.73 56.4906 10.73H58.6186V10.464C58.6186 9.88533 58.4506 9.442 58.1146 9.134C57.7786 8.826 57.2839 8.672 56.6306 8.672C56.1919 8.672 55.7626 8.74667 55.3426 8.896C54.9226 9.036 54.5679 9.22733 54.2786 9.47L53.7186 8.462C54.1013 8.154 54.5586 7.92067 55.0906 7.762C55.6226 7.594 56.1873 7.51 56.7846 7.51ZM56.4766 14.048C56.9899 14.048 57.4333 13.936 57.8066 13.712C58.1799 13.4787 58.4506 13.152 58.6186 12.732V11.696H56.5466C55.4079 11.696 54.8386 12.0787 54.8386 12.844C54.8386 13.2173 54.9833 13.5113 55.2726 13.726C55.5619 13.9407 55.9633 14.048 56.4766 14.048ZM62.4498 4.612H63.7938V15H62.4498V4.612ZM70.2939 7.51C71.0126 7.51 71.6566 7.66867 72.2259 7.986C72.7953 8.30333 73.2386 8.74667 73.5559 9.316C73.8826 9.88533 74.0459 10.5433 74.0459 11.29C74.0459 12.0367 73.8826 12.6993 73.5559 13.278C73.2386 13.8473 72.7953 14.2907 72.2259 14.608C71.6566 14.9253 71.0126 15.084 70.2939 15.084C69.7619 15.084 69.2719 14.9813 68.8239 14.776C68.3853 14.5707 68.0119 14.272 67.7039 13.88V17.716H66.3599V7.58H67.6479V8.756C67.9466 8.34533 68.3246 8.03733 68.7819 7.832C69.2393 7.61733 69.7433 7.51 70.2939 7.51ZM70.1819 13.908C70.6579 13.908 71.0826 13.8007 71.4559 13.586C71.8386 13.362 72.1373 13.054 72.3519 12.662C72.5759 12.2607 72.6879 11.8033 72.6879 11.29C72.6879 10.7767 72.5759 10.324 72.3519 9.932C72.1373 9.53067 71.8386 9.22267 71.4559 9.008C71.0826 8.79333 70.6579 8.686 70.1819 8.686C69.7153 8.686 69.2906 8.798 68.9079 9.022C68.5346 9.23667 68.2359 9.54 68.0119 9.932C67.7973 10.324 67.6899 10.7767 67.6899 11.29C67.6899 11.8033 67.7973 12.2607 68.0119 12.662C68.2266 13.054 68.5253 13.362 68.9079 13.586C69.2906 13.8007 69.7153 13.908 70.1819 13.908ZM82.8189 7.58V15H81.5449V13.88C81.2742 14.2627 80.9149 14.5613 80.4669 14.776C80.0282 14.9813 79.5476 15.084 79.0249 15.084C78.0356 15.084 77.2562 14.8133 76.6869 14.272C76.1176 13.7213 75.8329 12.914 75.8329 11.85V7.58H77.1769V11.696C77.1769 12.4147 77.3496 12.9607 77.6949 13.334C78.0402 13.698 78.5349 13.88 79.1789 13.88C79.8882 13.88 80.4482 13.6653 80.8589 13.236C81.2696 12.8067 81.4749 12.2 81.4749 11.416V7.58H82.8189ZM89.3115 7.51C90.0302 7.51 90.6742 7.66867 91.2435 7.986C91.8128 8.30333 92.2562 8.74667 92.5735 9.316C92.9002 9.88533 93.0635 10.5433 93.0635 11.29C93.0635 12.0367 92.9002 12.6993 92.5735 13.278C92.2562 13.8473 91.8128 14.2907 91.2435 14.608C90.6742 14.9253 90.0302 15.084 89.3115 15.084C88.7608 15.084 88.2568 14.9767 87.7995 14.762C87.3422 14.5473 86.9642 14.2347 86.6655 13.824V15H85.3775V4.612H86.7215V8.7C87.0202 8.308 87.3935 8.014 87.8415 7.818C88.2895 7.61267 88.7795 7.51 89.3115 7.51ZM89.1995 13.908C89.6755 13.908 90.1002 13.8007 90.4735 13.586C90.8562 13.362 91.1548 13.054 91.3695 12.662C91.5935 12.2607 91.7055 11.8033 91.7055 11.29C91.7055 10.7767 91.5935 10.324 91.3695 9.932C91.1548 9.53067 90.8562 9.22267 90.4735 9.008C90.1002 8.79333 89.6755 8.686 89.1995 8.686C88.7328 8.686 88.3082 8.79333 87.9255 9.008C87.5428 9.22267 87.2442 9.53067 87.0295 9.932C86.8148 10.324 86.7075 10.7767 86.7075 11.29C86.7075 11.8033 86.8148 12.2607 87.0295 12.662C87.2442 13.054 87.5428 13.362 87.9255 13.586C88.3082 13.8007 88.7328 13.908 89.1995 13.908ZM94.9205 4.612H96.2645V15H94.9205V4.612ZM98.8306 7.58H100.175V15H98.8306V7.58ZM99.5026 6.152C99.2413 6.152 99.022 6.068 98.8446 5.9C98.6766 5.732 98.5926 5.52667 98.5926 5.284C98.5926 5.04133 98.6766 4.836 98.8446 4.668C99.022 4.49067 99.2413 4.402 99.5026 4.402C99.764 4.402 99.9786 4.486 100.147 4.654C100.324 4.81267 100.413 5.01333 100.413 5.256C100.413 5.508 100.324 5.72267 100.147 5.9C99.9786 6.068 99.764 6.152 99.5026 6.152ZM104.869 15.084C104.262 15.084 103.679 15.0047 103.119 14.846C102.559 14.678 102.12 14.468 101.803 14.216L102.363 13.152C102.689 13.3853 103.086 13.572 103.553 13.712C104.019 13.852 104.491 13.922 104.967 13.922C106.143 13.922 106.731 13.586 106.731 12.914C106.731 12.69 106.651 12.5127 106.493 12.382C106.334 12.2513 106.133 12.158 105.891 12.102C105.657 12.0367 105.321 11.9667 104.883 11.892C104.285 11.7987 103.795 11.6913 103.413 11.57C103.039 11.4487 102.717 11.2433 102.447 10.954C102.176 10.6647 102.041 10.2587 102.041 9.736C102.041 9.064 102.321 8.52733 102.881 8.126C103.441 7.71533 104.192 7.51 105.135 7.51C105.629 7.51 106.124 7.57067 106.619 7.692C107.113 7.81333 107.519 7.97667 107.837 8.182L107.263 9.246C106.656 8.854 105.942 8.658 105.121 8.658C104.551 8.658 104.117 8.75133 103.819 8.938C103.52 9.12467 103.371 9.372 103.371 9.68C103.371 9.92267 103.455 10.114 103.623 10.254C103.791 10.394 103.996 10.4967 104.239 10.562C104.491 10.6273 104.841 10.702 105.289 10.786C105.886 10.8887 106.367 11.0007 106.731 11.122C107.104 11.234 107.421 11.43 107.683 11.71C107.944 11.99 108.075 12.382 108.075 12.886C108.075 13.558 107.785 14.0947 107.207 14.496C106.637 14.888 105.858 15.084 104.869 15.084ZM113.716 7.51C114.659 7.51 115.406 7.78533 115.956 8.336C116.516 8.87733 116.796 9.67533 116.796 10.73V15H115.452V10.884C115.452 10.1653 115.28 9.624 114.934 9.26C114.589 8.896 114.094 8.714 113.45 8.714C112.722 8.714 112.148 8.92867 111.728 9.358C111.308 9.778 111.098 10.3847 111.098 11.178V15H109.754V4.612H111.098V8.63C111.378 8.27533 111.742 8 112.19 7.804C112.648 7.608 113.156 7.51 113.716 7.51Z" fill="#5B86E5"/>
<defs>
<clipPath id="clip0">
<rect width="22" height="22" fill="white"/>
</clipPath>
</defs>
</svg>
