<svg width="30" height="30" viewBox="0 0 30 30" fill="none" xmlns="http://www.w3.org/2000/svg">
<path d="M26.9413 0H3.05873C1.37031 0 0 1.37031 0 3.05873V26.9413C0 28.6297 1.37031 30 3.05873 30H26.9413C28.6297 30 30 28.6297 30 26.9413V3.05873C30 1.37031 28.6297 0 26.9413 0Z" fill="#5B86E5"/>
<path d="M24.265 5.82C23.905 5.565 23.4175 5.595 23.1025 5.88L13.015 14.55C12.9775 14.58 12.925 14.5875 12.88 14.565L7.38252 12.255L21.895 6.3825L21.4375 5.25L6.74502 11.19C6.32502 11.3475 6.03252 11.73 6.00252 12.18C5.97252 12.6375 6.21252 13.065 6.61752 13.2675L12.34 15.675C12.8275 15.915 13.4275 15.825 13.8175 15.4725L23.0275 7.56L17.08 22.275L14.575 16.71C14.4325 16.4025 14.1475 16.185 13.8175 16.125C13.4875 16.065 13.15 16.1625 12.91 16.3875L8.58252 20.2125L9.39252 21.135L13.5625 17.4525L16.0675 23.01L16.0825 23.04C16.2775 23.4225 16.66 23.655 17.0875 23.655C17.1025 23.655 17.125 23.655 17.14 23.655C17.59 23.6325 17.9725 23.3625 18.1375 22.95L24.6025 6.9525C24.7675 6.54 24.6325 6.075 24.265 5.82Z" fill="white"/>
<path d="M12.3807 18.987L7.75066 23.08L8.56529 24.0016L13.1953 19.9085L12.3807 18.987Z" fill="white"/>
<path d="M11.2065 15.7488L9.41943 17.3281L10.2339 18.2498L12.021 16.6704L11.2065 15.7488Z" fill="white"/>
</svg>
